<svg width="334" height="393" viewBox="0 0 334 393" fill="none" xmlns="http://www.w3.org/2000/svg">
<path d="M42.6829 64.4878V65.0732H45.6098V64.4878H46.1951V63.3171H49.122V65.6585H48.5366V66.8293H47.9512V67.4146H46.7805V68H41.5122V67.4146H40.3415V66.8293H39.7561V65.6585H39.1707V55.7073H39.7561V54.5366H40.3415V53.9512H41.5122V53.3659H46.7805V53.9512H47.9512V54.5366H48.5366V55.7073H49.122V58.0488H46.1951V56.878H45.6098V56.2927H42.6829V56.878H42.0976V64.4878H42.6829ZM57.891 67.4146V68H53.2081V67.4146H52.0373V66.8293H51.452V65.6585H50.8666V59.2195H51.452V58.0488H52.0373V57.4634H53.2081V56.878H57.891V57.4634H59.0617V58.0488H59.6471V59.2195H60.2325V65.6585H59.6471V66.8293H59.0617V67.4146H57.891ZM54.3788 65.0732V65.6585H56.7203V65.0732H57.3056V59.8049H56.7203V59.2195H54.3788V59.8049H53.7934V65.0732H54.3788ZM65.5111 59.2195V59.8049H64.9257V68H61.9989V56.878H64.9257V57.4634H65.5111V56.878H68.4379V57.4634H69.0232V58.0488H69.6086V57.4634H70.194V56.878H73.1208V57.4634H74.2915V58.0488H74.8769V59.2195H75.4623V68H72.5354V59.8049H71.9501V59.2195H70.7793V59.8049H70.194V68H67.2671V59.8049H66.6818V59.2195H65.5111ZM80.722 59.2195V59.8049H80.1366V68H77.2098V56.878H80.1366V57.4634H80.722V56.878H83.6488V57.4634H84.2342V58.0488H84.8195V57.4634H85.4049V56.878H88.3317V57.4634H89.5025V58.0488H90.0878V59.2195H90.6732V68H87.7464V59.8049H87.161V59.2195H85.9903V59.8049H85.4049V68H82.4781V59.8049H81.8927V59.2195H80.722ZM95.3476 65.0732V65.6585H97.689V65.0732H98.2744V64.4878H101.201V65.6585H100.616V66.8293H100.03V67.4146H98.8598V68H94.1768V67.4146H93.0061V66.8293H92.4207V65.6585H91.8354V59.2195H92.4207V58.0488H93.0061V57.4634H94.1768V56.878H98.8598V57.4634H100.03V58.0488H100.616V59.2195H101.201V63.3171H94.7622V65.0732H95.3476ZM94.7622 59.8049V61.561H98.2744V59.8049H97.689V59.2195H95.3476V59.8049H94.7622ZM117.607 59.2195H118.193V65.6585H117.607V66.8293H117.022V67.4146H115.851V68H108.827V53.3659H111.754V57.4634H112.339V56.878H115.851V57.4634H117.022V58.0488H117.607V59.2195ZM114.681 65.0732H115.266V59.8049H114.681V59.2195H112.339V59.8049H111.754V65.6585H114.681V65.0732ZM122.887 65.0732V65.6585H125.228V65.0732H125.813V64.4878H128.74V65.6585H128.155V66.8293H127.57V67.4146H126.399V68H121.716V67.4146H120.545V66.8293H119.96V65.6585H119.374V59.2195H119.96V58.0488H120.545V57.4634H121.716V56.878H126.399V57.4634H127.57V58.0488H128.155V59.2195H128.74V63.3171H122.301V65.0732H122.887ZM122.301 59.8049V61.561H125.813V59.8049H125.228V59.2195H122.887V59.8049H122.301ZM133.433 63.3171V63.9024H132.848V65.0732H133.433V65.6585H135.775V65.0732H136.36V63.3171H133.433ZM130.507 66.8293V65.6585H129.921V63.9024H130.507V62.7317H131.092V62.1463H132.263V61.561H136.36V59.8049H135.775V59.2195H133.433V59.8049H132.848V60.3902H129.921V59.2195H130.507V58.0488H131.092V57.4634H132.263V56.878H136.946V57.4634H138.116V58.0488H138.702V59.2195H139.287V68H136.36V67.4146H135.775V68H131.677V67.4146H131.092V66.8293H130.507ZM141.639 66.8293V65.6585H141.054V56.878H143.981V65.0732H144.566V65.6585H146.908V65.0732H147.493V56.878H150.42V68H147.493V67.4146H146.908V68H143.396V67.4146H142.225V66.8293H141.639ZM155.699 65.0732V65.6585H158.041V65.0732H158.626V63.9024H161.553V65.6585H160.967V66.8293H160.382V67.4146H159.211V68H154.528V67.4146H153.358V66.8293H152.772V65.6585H152.187V59.2195H152.772V58.0488H153.358V57.4634H154.528V56.878H159.211V57.4634H160.382V58.0488H160.967V59.2195H161.553V60.9756H158.626V59.8049H158.041V59.2195H155.699V59.8049H155.114V65.0732H155.699ZM169.758 67.4146V68H165.075V67.4146H163.905V66.8293H163.319V65.6585H162.734V59.2195H163.319V58.0488H163.905V57.4634H165.075V56.878H169.758V57.4634H170.929V58.0488H171.514V59.2195H172.1V65.6585H171.514V66.8293H170.929V67.4146H169.758ZM166.246 65.0732V65.6585H168.587V65.0732H169.173V59.8049H168.587V59.2195H166.246V59.8049H165.661V65.0732H166.246ZM173.866 66.8293V65.6585H173.281V56.878H176.208V65.0732H176.793V65.6585H179.134V65.0732H179.72V56.878H182.647V68H179.72V67.4146H179.134V68H175.622V67.4146H174.451V66.8293H173.866ZM184.999 56.878H187.926V57.4634H188.511V56.878H192.023V57.4634H193.194V58.0488H193.779V59.2195H194.365V65.6585H193.779V66.8293H193.194V67.4146H192.023V68H187.926V71.5122H184.999V56.878ZM190.853 65.0732H191.438V59.8049H190.853V59.2195H188.511V59.8049H187.926V65.6585H190.853V65.0732ZM204.918 65.0732V65.6585H207.259V65.0732H207.845V59.2195H204.918V59.8049H204.333V65.0732H204.918ZM201.991 59.2195V58.0488H202.576V57.4634H203.747V56.878H207.845V53.3659H210.772V68H207.845V67.4146H207.259V68H203.747V67.4146H202.576V66.8293H201.991V65.6585H201.406V59.2195H201.991ZM216.051 65.0732V65.6585H218.392V65.0732H218.978V64.4878H221.904V65.6585H221.319V66.8293H220.734V67.4146H219.563V68H214.88V67.4146H213.709V66.8293H213.124V65.6585H212.538V59.2195H213.124V58.0488H213.709V57.4634H214.88V56.878H219.563V57.4634H220.734V58.0488H221.319V59.2195H221.904V63.3171H215.465V65.0732H216.051ZM215.465 59.8049V61.561H218.978V59.8049H218.392V59.2195H216.051V59.8049H215.465ZM42.0976 89.0732V89.6585H44.439V89.0732H45.0244V87.9024H47.9512V89.6585H47.3659V90.8293H46.7805V91.4146H45.6098V92H40.9268V91.4146H39.7561V90.8293H39.1707V89.6585H38.5854V83.2195H39.1707V82.0488H39.7561V81.4634H40.9268V80.878H45.6098V81.4634H46.7805V82.0488H47.3659V83.2195H47.9512V84.9756H45.0244V83.8049H44.439V83.2195H42.0976V83.8049H41.5122V89.0732H42.0976ZM53.2298 83.2195V83.8049H52.6444V92H49.7176V80.878H52.6444V81.4634H53.2298V80.878H56.742V81.4634H57.3274V82.0488H57.9127V82.6341H57.3274V83.2195H56.742V83.8049H56.1566V84.3902H55.5713V83.8049H54.9859V83.2195H53.2298ZM62.0194 77.9512V77.3659H62.6048V76.7805H63.1902V76.1951H64.9463V77.9512H64.3609V78.5366H63.7755V79.122H63.1902V79.7073H61.4341V77.9512H62.0194ZM62.0194 89.0732V89.6585H64.3609V89.0732H64.9463V88.4878H67.8731V89.6585H67.2877V90.8293H66.7024V91.4146H65.5316V92H60.8487V91.4146H59.678V90.8293H59.0926V89.6585H58.5072V83.2195H59.0926V82.0488H59.678V81.4634H60.8487V80.878H65.5316V81.4634H66.7024V82.0488H67.2877V83.2195H67.8731V87.3171H61.4341V89.0732H62.0194ZM61.4341 83.8049V85.561H64.9463V83.8049H64.3609V83.2195H62.0194V83.8049H61.4341ZM72.5663 87.3171V87.9024H71.9809V89.0732H72.5663V89.6585H74.9078V89.0732H75.4931V87.3171H72.5663ZM69.6395 90.8293V89.6585H69.0541V87.9024H69.6395V86.7317H70.2248V86.1463H71.3956V85.561H75.4931V83.8049H74.9078V83.2195H72.5663V83.8049H71.9809V84.3902H69.0541V83.2195H69.6395V82.0488H70.2248V81.4634H71.3956V80.878H76.0785V81.4634H77.2492V82.0488H77.8346V83.2195H78.42V92H75.4931V91.4146H74.9078V92H70.8102V91.4146H70.2248V90.8293H69.6395ZM84.2845 89.0732V89.6585H86.0406V92H83.1138V91.4146H81.943V90.8293H81.3577V89.6585H80.7723V83.8049H79.6016V81.4634H80.7723V80.2927H81.3577V79.7073H81.943V79.122H82.5284V78.5366H83.1138V77.9512H83.6991V81.4634H86.0406V83.8049H83.6991V89.0732H84.2845ZM90.7304 77.3659V79.7073H87.8035V77.3659H90.7304ZM90.7304 81.4634V92H87.8035V81.4634H90.7304ZM94.2477 81.4634V79.7073H94.8331V78.5366H95.4184V77.9512H96.5892V77.3659H99.516V79.7073H97.7599V80.2927H97.1745V81.4634H99.516V83.8049H97.1745V92H94.2477V83.8049H93.077V81.4634H94.2477ZM103.622 88.4878V89.0732H104.207V89.6585H106.548V89.0732H107.134V87.9024H106.548V87.3171H103.036V86.7317H101.865V86.1463H101.28V84.9756H100.695V83.2195H101.28V82.0488H101.865V81.4634H103.036V80.878H107.719V81.4634H108.89V82.0488H109.475V83.8049H106.548V83.2195H104.207V83.8049H103.622V84.3902H104.207V84.9756H107.719V85.561H108.89V86.1463H109.475V87.3171H110.061V89.6585H109.475V90.8293H108.89V91.4146H107.719V92H103.036V91.4146H101.865V90.8293H101.28V89.6585H100.695V88.4878H103.622ZM114.754 89.0732V92.5854H114.168V93.1707H113.583V93.7561H112.998V94.3415H111.827V93.7561H112.412V93.1707H112.998V92H111.827V89.0732H114.754ZM125.887 77.3659V92H122.96V77.3659H125.887ZM131.16 89.0732V89.6585H133.502V89.0732H134.087V88.4878H137.014V89.6585H136.428V90.8293H135.843V91.4146H134.672V92H129.989V91.4146H128.819V90.8293H128.233V89.6585H127.648V83.2195H128.233V82.0488H128.819V81.4634H129.989V80.878H134.672V81.4634H135.843V82.0488H136.428V83.2195H137.014V87.3171H130.575V89.0732H131.16ZM130.575 83.8049V85.561H134.087V83.8049H133.502V83.2195H131.16V83.8049H130.575ZM141.122 88.4878V89.0732H141.707V89.6585H144.048V89.0732H144.634V87.9024H144.048V87.3171H140.536V86.7317H139.365V86.1463H138.78V84.9756H138.195V83.2195H138.78V82.0488H139.365V81.4634H140.536V80.878H145.219V81.4634H146.39V82.0488H146.975V83.8049H144.048V83.2195H141.707V83.8049H141.122V84.3902H141.707V84.9756H145.219V85.561H146.39V86.1463H146.975V87.3171H147.561V89.6585H146.975V90.8293H146.39V91.4146H145.219V92H140.536V91.4146H139.365V90.8293H138.78V89.6585H138.195V88.4878H141.122ZM158.113 89.0732V89.6585H160.455V89.0732H161.04V87.9024H163.967V89.6585H163.381V90.8293H162.796V91.4146H161.625V92H156.942V91.4146H155.772V90.8293H155.186V89.6585H154.601V83.2195H155.186V82.0488H155.772V81.4634H156.942V80.878H161.625V81.4634H162.796V82.0488H163.381V83.2195H163.967V84.9756H161.04V83.8049H160.455V83.2195H158.113V83.8049H157.528V89.0732H158.113ZM168.66 77.3659V92H165.733V77.3659H168.66ZM173.933 77.3659V79.7073H171.007V77.3659H173.933ZM173.933 81.4634V92H171.007V81.4634H173.933ZM176.28 80.878H179.207V81.4634H179.792V80.878H183.304V81.4634H184.475V82.0488H185.061V83.2195H185.646V89.6585H185.061V90.8293H184.475V91.4146H183.304V92H179.207V95.5122H176.28V80.878ZM182.134 89.0732H182.719V83.8049H182.134V83.2195H179.792V83.8049H179.207V89.6585H182.134V89.0732ZM189.754 88.4878V89.0732H190.34V89.6585H192.681V89.0732H193.267V87.9024H192.681V87.3171H189.169V86.7317H187.998V86.1463H187.413V84.9756H186.828V83.2195H187.413V82.0488H187.998V81.4634H189.169V80.878H193.852V81.4634H195.023V82.0488H195.608V83.8049H192.681V83.2195H190.34V83.8049H189.754V84.3902H190.34V84.9756H193.852V85.561H195.023V86.1463H195.608V87.3171H196.193V89.6585H195.608V90.8293H195.023V91.4146H193.852V92H189.169V91.4146H187.998V90.8293H187.413V89.6585H186.828V88.4878H189.754ZM206.746 89.0732V89.6585H209.087V89.0732H209.673V88.4878H212.6V89.6585H212.014V90.8293H211.429V91.4146H210.258V92H205.575V91.4146H204.405V90.8293H203.819V89.6585H203.234V83.2195H203.819V82.0488H204.405V81.4634H205.575V80.878H210.258V81.4634H211.429V82.0488H212.014V83.2195H212.6V87.3171H206.161V89.0732H206.746ZM206.161 83.8049V85.561H209.673V83.8049H209.087V83.2195H206.746V83.8049H206.161ZM217.878 89.0732V89.6585H219.634V92H216.708V91.4146H215.537V90.8293H214.951V89.6585H214.366V83.8049H213.195V81.4634H214.366V80.2927H214.951V79.7073H215.537V79.122H216.122V78.5366H216.708V77.9512H217.293V81.4634H219.634V83.8049H217.293V89.0732H217.878ZM230.183 77.3659V92H227.257V77.3659H230.183ZM235.457 89.0732V89.6585H237.798V89.0732H238.384V88.4878H241.311V89.6585H240.725V90.8293H240.14V91.4146H238.969V92H234.286V91.4146H233.115V90.8293H232.53V89.6585H231.945V83.2195H232.53V82.0488H233.115V81.4634H234.286V80.878H238.969V81.4634H240.14V82.0488H240.725V83.2195H241.311V87.3171H234.872V89.0732H235.457ZM234.872 83.8049V85.561H238.384V83.8049H237.798V83.2195H235.457V83.8049H234.872ZM245.418 88.4878V89.0732H246.004V89.6585H248.345V89.0732H248.931V87.9024H248.345V87.3171H244.833V86.7317H243.662V86.1463H243.077V84.9756H242.492V83.2195H243.077V82.0488H243.662V81.4634H244.833V80.878H249.516V81.4634H250.687V82.0488H251.272V83.8049H248.345V83.2195H246.004V83.8049H245.418V84.3902H246.004V84.9756H249.516V85.561H250.687V86.1463H251.272V87.3171H251.857V89.6585H251.272V90.8293H250.687V91.4146H249.516V92H244.833V91.4146H243.662V90.8293H243.077V89.6585H242.492V88.4878H245.418ZM42.0976 113.073V113.659H44.439V113.073H45.0244V111.902H47.9512V113.659H47.3659V114.829H46.7805V115.415H45.6098V116H40.9268V115.415H39.7561V114.829H39.1707V113.659H38.5854V107.22H39.1707V106.049H39.7561V105.463H40.9268V104.878H45.6098V105.463H46.7805V106.049H47.3659V107.22H47.9512V108.976H45.0244V107.805H44.439V107.22H42.0976V107.805H41.5122V113.073H42.0976ZM56.1566 115.415V116H51.4737V115.415H50.303V114.829H49.7176V113.659H49.1322V107.22H49.7176V106.049H50.303V105.463H51.4737V104.878H56.1566V105.463H57.3274V106.049H57.9127V107.22H58.4981V113.659H57.9127V114.829H57.3274V115.415H56.1566ZM52.6444 113.073V113.659H54.9859V113.073H55.5713V107.805H54.9859V107.22H52.6444V107.805H52.0591V113.073H52.6444ZM60.2645 114.829V113.659H59.6791V104.878H62.6059V113.073H63.1913V113.659H65.5328V113.073H66.1181V104.878H69.045V116H66.1181V115.415H65.5328V116H62.0206V115.415H60.8498V114.829H60.2645ZM74.9095 107.22V107.805H74.3241V116H71.3973V104.878H74.3241V105.463H74.9095V104.878H78.4217V105.463H79.007V106.049H79.5924V106.634H79.007V107.22H78.4217V107.805H77.8363V108.39H77.251V107.805H76.6656V107.22H74.9095ZM84.2845 113.073V113.659H86.0406V116H83.1138V115.415H81.943V114.829H81.3577V113.659H80.7723V107.805H79.6016V105.463H80.7723V104.293H81.3577V103.707H81.943V103.122H82.5284V102.537H83.1138V101.951H83.6991V105.463H86.0406V107.805H83.6991V113.073H84.2845ZM90.145 112.488V113.073H90.7304V113.659H93.0718V113.073H93.6572V111.902H93.0718V111.317H89.5596V110.732H88.3889V110.146H87.8035V108.976H87.2182V107.22H87.8035V106.049H88.3889V105.463H89.5596V104.878H94.2426V105.463H95.4133V106.049H95.9987V107.805H93.0718V107.22H90.7304V107.805H90.145V108.39H90.7304V108.976H94.2426V109.561H95.4133V110.146H95.9987V111.317H96.584V113.659H95.9987V114.829H95.4133V115.415H94.2426V116H89.5596V115.415H88.3889V114.829H87.8035V113.659H87.2182V112.488H90.145ZM107.722 107.22V107.805H107.137V116H104.21V104.878H107.137V105.463H107.722V104.878H110.649V105.463H111.234V106.049H111.82V105.463H112.405V104.878H115.332V105.463H116.502V106.049H117.088V107.22H117.673V116H114.746V107.805H114.161V107.22H112.99V107.805H112.405V116H109.478V107.805H108.893V107.22H107.722ZM122.348 101.951V101.366H122.933V100.78H123.518V100.195H125.274V101.951H124.689V102.537H124.104V103.122H123.518V103.707H121.762V101.951H122.348ZM122.348 113.073V113.659H124.689V113.073H125.274V112.488H128.201V113.659H127.616V114.829H127.03V115.415H125.86V116H121.177V115.415H120.006V114.829H119.421V113.659H118.835V107.22H119.421V106.049H120.006V105.463H121.177V104.878H125.86V105.463H127.03V106.049H127.616V107.22H128.201V111.317H121.762V113.073H122.348ZM121.762 107.805V109.561H125.274V107.805H124.689V107.22H122.348V107.805H121.762ZM133.48 113.073V113.659H135.236V116H132.309V115.415H131.138V114.829H130.553V113.659H129.968V107.805H128.797V105.463H129.968V104.293H130.553V103.707H131.138V103.122H131.724V102.537H132.309V101.951H132.894V105.463H135.236V107.805H132.894V113.073H133.48ZM140.511 107.22V107.805H139.926V116H136.999V104.878H139.926V105.463H140.511V104.878H144.023V105.463H144.609V106.049H145.194V106.634H144.609V107.22H144.023V107.805H143.438V108.39H142.853V107.805H142.267V107.22H140.511ZM149.301 111.317V111.902H148.715V113.073H149.301V113.659H151.642V113.073H152.228V111.317H149.301ZM146.374 114.829V113.659H145.788V111.902H146.374V110.732H146.959V110.146H148.13V109.561H152.228V107.805H151.642V107.22H149.301V107.805H148.715V108.39H145.788V107.22H146.374V106.049H146.959V105.463H148.13V104.878H152.813V105.463H153.984V106.049H154.569V107.22H155.154V116H152.228V115.415H151.642V116H147.545V115.415H146.959V114.829H146.374ZM160.433 111.902V112.488H162.775V111.902H163.36V107.22H160.433V107.805H159.848V111.902H160.433ZM159.848 116V116.585H160.433V117.171H162.775V116.585H163.36V114.244H162.775V114.829H159.263V114.244H158.092V113.659H157.507V112.488H156.921V107.22H157.507V106.049H158.092V105.463H159.263V104.878H166.287V117.171H165.702V118.341H165.116V118.927H163.946V119.512H159.263V118.927H158.092V118.341H157.507V117.171H156.921V116H159.848ZM171.566 113.073V113.659H173.908V113.073H174.493V112.488H177.42V113.659H176.835V114.829H176.249V115.415H175.079V116H170.396V115.415H169.225V114.829H168.639V113.659H168.054V107.22H168.639V106.049H169.225V105.463H170.396V104.878H175.079V105.463H176.249V106.049H176.835V107.22H177.42V111.317H170.981V113.073H171.566ZM170.981 107.805V109.561H174.493V107.805H173.908V107.22H171.566V107.805H170.981ZM181.528 112.488V113.073H182.113V113.659H184.455V113.073H185.04V111.902H184.455V111.317H180.942V110.732H179.772V110.146H179.186V108.976H178.601V107.22H179.186V106.049H179.772V105.463H180.942V104.878H185.625V105.463H186.796V106.049H187.381V107.805H184.455V107.22H182.113V107.805H181.528V108.39H182.113V108.976H185.625V109.561H186.796V110.146H187.381V111.317H187.967V113.659H187.381V114.829H186.796V115.415H185.625V116H180.942V115.415H179.772V114.829H179.186V113.659H178.601V112.488H181.528ZM202.032 115.415V116H197.349V115.415H196.178V114.829H195.593V113.659H195.007V107.22H195.593V106.049H196.178V105.463H197.349V104.878H202.032V105.463H203.202V106.049H203.788V107.22H204.373V113.659H203.788V114.829H203.202V115.415H202.032ZM198.519 113.073V113.659H200.861V113.073H201.446V107.805H200.861V107.22H198.519V107.805H197.934V113.073H198.519ZM209.652 107.22V107.805H209.066V116H206.139V104.878H209.066V105.463H209.652V104.878H213.164V105.463H214.335V106.049H214.92V107.22H215.505V116H212.579V107.805H211.993V107.22H209.652ZM220.784 113.073V113.659H222.541V116H219.614V115.415H218.443V114.829H217.858V113.659H217.272V107.805H216.102V105.463H217.272V104.293H217.858V103.707H218.443V103.122H219.028V102.537H219.614V101.951H220.199V105.463H222.541V107.805H220.199V113.073H220.784ZM42.6829 137.073V137.659H44.439V140H41.5122V139.415H40.3415V138.829H39.7561V137.659H39.1707V131.805H38V129.463H39.1707V128.293H39.7561V127.707H40.3415V127.122H40.9268V126.537H41.5122V125.951H42.0976V129.463H44.439V131.805H42.0976V137.073H42.6829ZM52.641 139.415V140H47.9581V139.415H46.7873V138.829H46.202V137.659H45.6166V131.22H46.202V130.049H46.7873V129.463H47.9581V128.878H52.641V129.463H53.8117V130.049H54.3971V131.22H54.9825V137.659H54.3971V138.829H53.8117V139.415H52.641ZM49.1288 137.073V137.659H51.4703V137.073H52.0556V131.805H51.4703V131.22H49.1288V131.805H48.5434V137.073H49.1288ZM56.7489 138.829V137.659H56.1635V128.878H59.0903V137.073H59.6757V137.659H62.0171V137.073H62.6025V128.878H65.5293V140H62.6025V139.415H62.0171V140H58.505V139.415H57.3342V138.829H56.7489ZM71.3939 125.366V127.707H68.467V125.366H71.3939ZM70.8085 141.171V142.341H70.2231V142.927H69.0524V143.512H66.7109V141.171H67.8817V140.585H68.467V129.463H71.3939V141.171H70.8085ZM80.1801 139.415V140H75.4971V139.415H74.3264V138.829H73.741V137.659H73.1557V131.22H73.741V130.049H74.3264V129.463H75.4971V128.878H80.1801V129.463H81.3508V130.049H81.9362V131.22H82.5215V137.659H81.9362V138.829H81.3508V139.415H80.1801ZM76.6679 137.073V137.659H79.0093V137.073H79.5947V131.805H79.0093V131.22H76.6679V131.805H76.0825V137.073H76.6679ZM84.2879 138.829V137.659H83.7026V128.878H86.6294V137.073H87.2147V137.659H89.5562V137.073H90.1416V128.878H93.0684V140H90.1416V139.415H89.5562V140H86.044V139.415H84.8733V138.829H84.2879ZM98.9329 131.22V131.805H98.3476V140H95.4207V128.878H98.3476V129.463H98.9329V128.878H102.445V129.463H103.03V130.049H103.616V130.634H103.03V131.22H102.445V131.805H101.86V132.39H101.274V131.805H100.689V131.22H98.9329ZM107.137 136.488V137.073H107.723V137.659H110.064V137.073H110.649V135.902H110.064V135.317H106.552V134.732H105.381V134.146H104.796V132.976H104.21V131.22H104.796V130.049H105.381V129.463H106.552V128.878H111.235V129.463H112.405V130.049H112.991V131.805H110.064V131.22H107.723V131.805H107.137V132.39H107.723V132.976H111.235V133.561H112.405V134.146H112.991V135.317H113.576V137.659H112.991V138.829H112.405V139.415H111.235V140H106.552V139.415H105.381V138.829H104.796V137.659H104.21V136.488H107.137ZM124.129 125.951V125.366H124.714V124.78H125.3V124.195H127.056V125.951H126.47V126.537H125.885V127.122H125.3V127.707H123.543V125.951H124.129ZM124.129 137.073V137.659H126.47V137.073H127.056V136.488H129.982V137.659H129.397V138.829H128.812V139.415H127.641V140H122.958V139.415H121.787V138.829H121.202V137.659H120.617V131.22H121.202V130.049H121.787V129.463H122.958V128.878H127.641V129.463H128.812V130.049H129.397V131.22H129.982V135.317H123.543V137.073H124.129ZM123.543 131.805V133.561H127.056V131.805H126.47V131.22H124.129V131.805H123.543ZM135.261 137.073V137.659H137.017V140H134.09V139.415H132.92V138.829H132.334V137.659H131.749V131.805H130.578V129.463H131.749V128.293H132.334V127.707H132.92V127.122H133.505V126.537H134.09V125.951H134.676V129.463H137.017V131.805H134.676V137.073H135.261ZM141.707 125.951V125.366H142.292V124.78H142.878V124.195H144.634V125.951H144.048V126.537H143.463V127.122H142.878V127.707H141.122V125.951H141.707ZM141.707 137.073V137.659H144.048V137.073H144.634V136.488H147.561V137.659H146.975V138.829H146.39V139.415H145.219V140H140.536V139.415H139.365V138.829H138.78V137.659H138.195V131.22H138.78V130.049H139.365V129.463H140.536V128.878H145.219V129.463H146.39V130.049H146.975V131.22H147.561V135.317H141.122V137.073H141.707ZM141.122 131.805V133.561H144.634V131.805H144.048V131.22H141.707V131.805H141.122ZM158.699 137.073V137.659H160.455V140H157.528V139.415H156.357V138.829H155.772V137.659H155.186V131.805H154.016V129.463H155.186V128.293H155.772V127.707H156.357V127.122H156.942V126.537H157.528V125.951H158.113V129.463H160.455V131.805H158.113V137.073H158.699ZM165.73 131.22V131.805H165.144V140H162.218V128.878H165.144V129.463H165.73V128.878H169.242V129.463H169.827V130.049H170.413V130.634H169.827V131.22H169.242V131.805H168.657V132.39H168.071V131.805H167.486V131.22H165.73ZM177.446 125.951V127.707H175.69V127.122H175.105V126.537H174.519V125.951H173.934V124.195H175.69V124.78H176.276V125.366H176.861V125.951H177.446ZM174.519 137.073V137.659H176.861V137.073H177.446V136.488H180.373V137.659H179.788V138.829H179.202V139.415H178.032V140H173.349V139.415H172.178V138.829H171.593V137.659H171.007V131.22H171.593V130.049H172.178V129.463H173.349V128.878H178.032V129.463H179.202V130.049H179.788V131.22H180.373V135.317H173.934V137.073H174.519ZM173.934 131.805V133.561H177.446V131.805H176.861V131.22H174.519V131.805H173.934ZM184.481 136.488V137.073H185.066V137.659H187.408V137.073H187.993V135.902H187.408V135.317H183.896V134.732H182.725V134.146H182.139V132.976H181.554V131.22H182.139V130.049H182.725V129.463H183.896V128.878H188.579V129.463H189.749V130.049H190.335V131.805H187.408V131.22H185.066V131.805H184.481V132.39H185.066V132.976H188.579V133.561H189.749V134.146H190.335V135.317H190.92V137.659H190.335V138.829H189.749V139.415H188.579V140H183.896V139.415H182.725V138.829H182.139V137.659H181.554V136.488H184.481ZM201.473 135.317V135.902H200.887V137.073H201.473V137.659H203.814V137.073H204.399V135.317H201.473ZM198.546 138.829V137.659H197.96V135.902H198.546V134.732H199.131V134.146H200.302V133.561H204.399V131.805H203.814V131.22H201.473V131.805H200.887V132.39H197.96V131.22H198.546V130.049H199.131V129.463H200.302V128.878H204.985V129.463H206.155V130.049H206.741V131.22H207.326V140H204.399V139.415H203.814V140H199.716V139.415H199.131V138.829H198.546ZM213.191 137.073V137.659H214.947V140H212.02V139.415H210.849V138.829H210.264V137.659H209.679V131.805H208.508V129.463H209.679V128.293H210.264V127.707H210.849V127.122H211.435V126.537H212.02V125.951H212.605V129.463H214.947V131.805H212.605V137.073H213.191ZM220.222 137.073V137.659H221.978V140H219.051V139.415H217.881V138.829H217.295V137.659H216.71V131.805H215.539V129.463H216.71V128.293H217.295V127.707H217.881V127.122H218.466V126.537H219.051V125.951H219.637V129.463H221.978V131.805H219.637V137.073H220.222ZM227.253 131.22V131.805H226.668V140H223.741V128.878H226.668V129.463H227.253V128.878H230.765V129.463H231.351V130.049H231.936V130.634H231.351V131.22H230.765V131.805H230.18V132.39H229.595V131.805H229.009V131.22H227.253ZM236.043 135.317V135.902H235.458V137.073H236.043V137.659H238.384V137.073H238.97V135.317H236.043ZM233.116 138.829V137.659H232.531V135.902H233.116V134.732H233.701V134.146H234.872V133.561H238.97V131.805H238.384V131.22H236.043V131.805H235.458V132.39H232.531V131.22H233.116V130.049H233.701V129.463H234.872V128.878H239.555V129.463H240.726V130.049H241.311V131.22H241.897V140H238.97V139.415H238.384V140H234.287V139.415H233.701V138.829H233.116ZM245.42 141.171V140.585H246.005V140H246.59V139.415H247.176V138.829H246.59V138.244H246.005V137.659H245.42V137.073H244.834V136.488H244.249V128.878H247.176V135.902H247.761V136.488H248.346V137.073H249.517V136.488H250.103V135.902H250.688V128.878H253.615V136.488H253.029V137.073H252.444V137.659H251.859V138.244H251.273V138.829H250.688V139.415H250.103V140H249.517V140.585H248.932V141.171H248.346V141.756H247.761V142.341H247.176V142.927H246.59V143.512H244.834V141.171H245.42ZM258.894 135.317V135.902H258.309V137.073H258.894V137.659H261.236V137.073H261.821V135.317H258.894ZM255.968 138.829V137.659H255.382V135.902H255.968V134.732H256.553V134.146H257.724V133.561H261.821V131.805H261.236V131.22H258.894V131.805H258.309V132.39H255.382V131.22H255.968V130.049H256.553V129.463H257.724V128.878H262.407V129.463H263.577V130.049H264.163V131.22H264.748V140H261.821V139.415H261.236V140H257.138V139.415H256.553V138.829H255.968ZM270.613 131.22V131.805H270.027V140H267.1V128.878H270.027V129.463H270.613V128.878H274.125V129.463H275.296V130.049H275.881V131.22H276.466V140H273.539V131.805H272.954V131.22H270.613ZM281.745 137.073V137.659H283.502V140H280.575V139.415H279.404V138.829H278.819V137.659H278.233V131.805H277.062V129.463H278.233V128.293H278.819V127.707H279.404V127.122H279.989V126.537H280.575V125.951H281.16V129.463H283.502V131.805H281.16V137.073H281.745ZM287.606 136.488V137.073H288.191V137.659H290.533V137.073H291.118V135.902H290.533V135.317H287.021V134.732H285.85V134.146H285.264V132.976H284.679V131.22H285.264V130.049H285.85V129.463H287.021V128.878H291.704V129.463H292.874V130.049H293.46V131.805H290.533V131.22H288.191V131.805H287.606V132.39H288.191V132.976H291.704V133.561H292.874V134.146H293.46V135.317H294.045V137.659H293.46V138.829H292.874V139.415H291.704V140H287.021V139.415H285.85V138.829H285.264V137.659H284.679V136.488H287.606ZM39.1707 152.878H42.0976V153.463H42.6829V152.878H46.1951V153.463H47.3659V154.049H47.9512V155.22H48.5366V161.659H47.9512V162.829H47.3659V163.415H46.1951V164H42.0976V167.512H39.1707V152.878ZM45.0244 161.073H45.6098V155.805H45.0244V155.22H42.6829V155.805H42.0976V161.659H45.0244V161.073ZM56.7426 163.415V164H52.0596V163.415H50.8889V162.829H50.3035V161.659H49.7182V155.22H50.3035V154.049H50.8889V153.463H52.0596V152.878H56.7426V153.463H57.9133V154.049H58.4987V155.22H59.084V161.659H58.4987V162.829H57.9133V163.415H56.7426ZM53.2304 161.073V161.659H55.5718V161.073H56.1572V155.805H55.5718V155.22H53.2304V155.805H52.645V161.073H53.2304ZM60.8504 162.829V161.659H60.2651V152.878H63.1919V161.073H63.7772V161.659H66.1187V161.073H66.7041V152.878H69.6309V164H66.7041V163.415H66.1187V164H62.6065V163.415H61.4358V162.829H60.8504ZM75.4954 155.22V155.805H74.9101V164H71.9832V152.878H74.9101V153.463H75.4954V152.878H79.0076V153.463H79.593V154.049H80.1784V154.634H79.593V155.22H79.0076V155.805H78.4223V156.39H77.8369V155.805H77.2515V155.22H75.4954ZM90.7298 155.22V155.805H90.1444V164H87.2176V152.878H90.1444V153.463H90.7298V152.878H93.6566V153.463H94.242V154.049H94.8274V153.463H95.4127V152.878H98.3396V153.463H99.5103V154.049H100.096V155.22H100.681V164H97.7542V155.805H97.1688V155.22H95.9981V155.805H95.4127V164H92.4859V155.805H91.9005V155.22H90.7298ZM108.868 163.415V164H104.185V163.415H103.014V162.829H102.429V161.659H101.843V155.22H102.429V154.049H103.014V153.463H104.185V152.878H108.868V153.463H110.038V154.049H110.624V155.22H111.209V161.659H110.624V162.829H110.038V163.415H108.868ZM105.355 161.073V161.659H107.697V161.073H108.282V155.805H107.697V155.22H105.355V155.805H104.77V161.073H105.355ZM115.902 149.366V151.707H112.975V149.366H115.902ZM115.902 153.463V164H112.975V153.463H115.902ZM121.176 161.073V164H118.249V161.073H121.176ZM132.308 149.366V164H129.382V149.366H132.308ZM137.582 149.366V164H134.655V149.366H137.582ZM142.27 160.488V161.073H142.855V161.659H145.197V161.073H145.782V159.902H145.197V159.317H141.685V158.732H140.514V158.146H139.929V156.976H139.343V155.22H139.929V154.049H140.514V153.463H141.685V152.878H146.368V153.463H147.538V154.049H148.124V155.805H145.197V155.22H142.855V155.805H142.27V156.39H142.855V156.976H146.368V157.561H147.538V158.146H148.124V159.317H148.709V161.659H148.124V162.829H147.538V163.415H146.368V164H141.685V163.415H140.514V162.829H139.929V161.659H139.343V160.488H142.27ZM156.335 152.878H159.262V153.463H159.847V152.878H163.359V153.463H164.53V154.049H165.115V155.22H165.701V161.659H165.115V162.829H164.53V163.415H163.359V164H159.262V167.512H156.335V152.878ZM162.188 161.073H162.774V155.805H162.188V155.22H159.847V155.805H159.262V161.659H162.188V161.073ZM170.394 161.073V161.659H172.736V161.073H173.321V160.488H176.248V161.659H175.663V162.829H175.077V163.415H173.907V164H169.224V163.415H168.053V162.829H167.468V161.659H166.882V155.22H167.468V154.049H168.053V153.463H169.224V152.878H173.907V153.463H175.077V154.049H175.663V155.22H176.248V159.317H169.809V161.073H170.394ZM169.809 155.805V157.561H173.321V155.805H172.736V155.22H170.394V155.805H169.809ZM181.527 155.22V155.805H180.941V164H178.014V152.878H180.941V153.463H181.527V152.878H185.039V153.463H185.624V154.049H186.21V154.634H185.624V155.22H185.039V155.805H184.454V156.39H183.868V155.805H183.283V155.22H181.527ZM190.902 155.22V155.805H190.316V164H187.389V152.878H190.316V153.463H190.902V152.878H193.829V153.463H194.414V154.049H194.999V153.463H195.585V152.878H198.511V153.463H199.682V154.049H200.268V155.22H200.853V164H197.926V155.805H197.341V155.22H196.17V155.805H195.585V164H192.658V155.805H192.072V155.22H190.902ZM205.527 161.073V161.659H207.869V161.073H208.454V160.488H211.381V161.659H210.796V162.829H210.21V163.415H209.039V164H204.357V163.415H203.186V162.829H202.6V161.659H202.015V155.22H202.6V154.049H203.186V153.463H204.357V152.878H209.039V153.463H210.21V154.049H210.796V155.22H211.381V159.317H204.942V161.073H205.527ZM204.942 155.805V157.561H208.454V155.805H207.869V155.22H205.527V155.805H204.942ZM216.659 161.073V161.659H218.416V164H215.489V163.415H214.318V162.829H213.733V161.659H213.147V155.805H211.977V153.463H213.147V152.293H213.733V151.707H214.318V151.122H214.903V150.537H215.489V149.951H216.074V153.463H218.416V155.805H216.074V161.073H216.659ZM223.691 161.073V161.659H225.447V164H222.52V163.415H221.349V162.829H220.764V161.659H220.179V155.805H219.008V153.463H220.179V152.293H220.764V151.707H221.349V151.122H221.935V150.537H222.52V149.951H223.105V153.463H225.447V155.805H223.105V161.073H223.691ZM230.137 161.073V161.659H232.478V161.073H233.063V160.488H235.99V161.659H235.405V162.829H234.82V163.415H233.649V164H228.966V163.415H227.795V162.829H227.21V161.659H226.624V155.22H227.21V154.049H227.795V153.463H228.966V152.878H233.649V153.463H234.82V154.049H235.405V155.22H235.99V159.317H229.551V161.073H230.137ZM229.551 155.805V157.561H233.063V155.805H232.478V155.22H230.137V155.805H229.551ZM241.269 155.22V155.805H240.683V164H237.757V152.878H240.683V153.463H241.269V152.878H244.781V153.463H245.952V154.049H246.537V155.22H247.123V164H244.196V155.805H243.61V155.22H241.269ZM252.402 161.073V161.659H254.158V164H251.231V163.415H250.06V162.829H249.475V161.659H248.889V155.805H247.719V153.463H248.889V152.293H249.475V151.707H250.06V151.122H250.646V150.537H251.231V149.951H251.816V153.463H254.158V155.805H251.816V161.073H252.402ZM261.78 162.829V161.659H261.195V152.878H264.122V161.073H264.707V161.659H267.048V161.073H267.634V152.878H270.561V164H267.634V163.415H267.048V164H263.536V163.415H262.365V162.829H261.78ZM276.425 155.22V155.805H275.84V164H272.913V152.878H275.84V153.463H276.425V152.878H279.937V153.463H281.108V154.049H281.693V155.22H282.279V164H279.352V155.805H278.767V155.22H276.425ZM286.973 161.073V161.659H289.314V161.073H289.899V160.488H292.826V161.659H292.241V162.829H291.655V163.415H290.485V164H285.802V163.415H284.631V162.829H284.046V161.659H283.46V155.22H284.046V154.049H284.631V153.463H285.802V152.878H290.485V153.463H291.655V154.049H292.241V155.22H292.826V159.317H286.387V161.073H286.973ZM286.387 155.805V157.561H289.899V155.805H289.314V155.22H286.973V155.805H286.387ZM42.0976 173.366V188H39.1707V173.366H42.0976ZM47.371 173.366V175.707H44.4442V173.366H47.371ZM47.371 177.463V188H44.4442V177.463H47.371ZM58.4981 179.22H59.0835V185.659H58.4981V186.829H57.9127V187.415H56.742V188H49.7176V173.366H52.6444V177.463H53.2298V176.878H56.742V177.463H57.9127V178.049H58.4981V179.22ZM55.5713 185.073H56.1566V179.805H55.5713V179.22H53.2298V179.805H52.6444V185.659H55.5713V185.073ZM63.7772 185.073V185.659H66.1187V185.073H66.7041V184.488H69.6309V185.659H69.0455V186.829H68.4602V187.415H67.2894V188H62.6065V187.415H61.4358V186.829H60.8504V185.659H60.2651V179.22H60.8504V178.049H61.4358V177.463H62.6065V176.878H67.2894V177.463H68.4602V178.049H69.0455V179.22H69.6309V183.317H63.1919V185.073H63.7772ZM63.1919 179.805V181.561H66.7041V179.805H66.1187V179.22H63.7772V179.805H63.1919ZM74.9095 179.22V179.805H74.3241V188H71.3973V176.878H74.3241V177.463H74.9095V176.878H78.4217V177.463H79.007V178.049H79.5924V178.634H79.007V179.22H78.4217V179.805H77.8363V180.39H77.251V179.805H76.6656V179.22H74.9095ZM84.2845 185.073V185.659H86.0406V188H83.1138V187.415H81.943V186.829H81.3577V185.659H80.7723V179.805H79.6016V177.463H80.7723V176.293H81.3577V175.707H81.943V175.122H82.5284V174.537H83.1138V173.951H83.6991V177.463H86.0406V179.805H83.6991V185.073H84.2845ZM90.7304 173.951V173.366H91.3157V172.78H91.9011V172.195H93.6572V173.951H93.0718V174.537H92.4865V175.122H91.9011V175.707H90.145V173.951H90.7304ZM90.7304 185.073V185.659H93.0718V185.073H93.6572V184.488H96.584V185.659H95.9987V186.829H95.4133V187.415H94.2426V188H89.5596V187.415H88.3889V186.829H87.8035V185.659H87.2182V179.22H87.8035V178.049H88.3889V177.463H89.5596V176.878H94.2426V177.463H95.4133V178.049H95.9987V179.22H96.584V183.317H90.145V185.073H90.7304ZM90.145 179.805V181.561H93.6572V179.805H93.0718V179.22H90.7304V179.805H90.145ZM107.722 185.073V185.659H109.478V188H106.551V187.415H105.381V186.829H104.795V185.659H104.21V179.805H103.039V177.463H104.21V176.293H104.795V175.707H105.381V175.122H105.966V174.537H106.551V173.951H107.137V177.463H109.478V179.805H107.137V185.073H107.722ZM117.68 187.415V188H112.997V187.415H111.826V186.829H111.241V185.659H110.656V179.22H111.241V178.049H111.826V177.463H112.997V176.878H117.68V177.463H118.851V178.049H119.436V179.22H120.022V185.659H119.436V186.829H118.851V187.415H117.68ZM114.168 185.073V185.659H116.509V185.073H117.095V179.805H116.509V179.22H114.168V179.805H113.583V185.073H114.168ZM125.3 185.073V185.659H127.056V188H124.129V187.415H122.959V186.829H122.373V185.659H121.788V179.805H120.617V177.463H121.788V176.293H122.373V175.707H122.959V175.122H123.544V174.537H124.129V173.951H124.715V177.463H127.056V179.805H124.715V185.073H125.3ZM131.746 183.317V183.902H131.161V185.073H131.746V185.659H134.087V185.073H134.673V183.317H131.746ZM128.819 186.829V185.659H128.234V183.902H128.819V182.732H129.405V182.146H130.575V181.561H134.673V179.805H134.087V179.22H131.746V179.805H131.161V180.39H128.234V179.22H128.819V178.049H129.405V177.463H130.575V176.878H135.258V177.463H136.429V178.049H137.014V179.22H137.6V188H134.673V187.415H134.087V188H129.99V187.415H129.405V186.829H128.819ZM142.879 173.366V188H139.952V173.366H142.879ZM148.152 185.073V185.659H150.494V185.073H151.079V184.488H154.006V185.659H153.421V186.829H152.835V187.415H151.664V188H146.982V187.415H145.811V186.829H145.225V185.659H144.64V179.22H145.225V178.049H145.811V177.463H146.982V176.878H151.664V177.463H152.835V178.049H153.421V179.22H154.006V183.317H147.567V185.073H148.152ZM147.567 179.805V181.561H151.079V179.805H150.494V179.22H148.152V179.805H147.567ZM158.699 185.073V188.585H158.114V189.171H157.528V189.756H156.943V190.341H155.772V189.756H156.358V189.171H156.943V188H155.772V185.073H158.699ZM173.344 187.415V188H168.661V187.415H167.49V186.829H166.905V185.659H166.32V179.22H166.905V178.049H167.49V177.463H168.661V176.878H173.344V177.463H174.515V178.049H175.1V179.22H175.686V185.659H175.1V186.829H174.515V187.415H173.344ZM169.832 185.073V185.659H172.173V185.073H172.759V179.805H172.173V179.22H169.832V179.805H169.247V185.073H169.832ZM180.964 179.22V179.805H180.379V188H177.452V176.878H180.379V177.463H180.964V176.878H184.476V177.463H185.647V178.049H186.232V179.22H186.818V188H183.891V179.805H183.306V179.22H180.964ZM194.444 176.878H197.371V177.463H197.956V176.878H201.469V177.463H202.639V178.049H203.225V179.22H203.81V185.659H203.225V186.829H202.639V187.415H201.469V188H197.371V191.512H194.444V176.878ZM200.298 185.073H200.883V179.805H200.298V179.22H197.956V179.805H197.371V185.659H200.298V185.073ZM208.504 185.073V185.659H210.845V185.073H211.431V184.488H214.357V185.659H213.772V186.829H213.187V187.415H212.016V188H207.333V187.415H206.162V186.829H205.577V185.659H204.992V179.22H205.577V178.049H206.162V177.463H207.333V176.878H212.016V177.463H213.187V178.049H213.772V179.22H214.357V183.317H207.918V185.073H208.504ZM207.918 179.805V181.561H211.431V179.805H210.845V179.22H208.504V179.805H207.918ZM216.124 186.829V185.659H215.538V176.878H218.465V185.073H219.051V185.659H221.392V185.073H221.978V176.878H224.904V188H221.978V187.415H221.392V188H217.88V187.415H216.709V186.829H216.124ZM230.769 185.073V185.659H232.525V188H229.598V187.415H228.427V186.829H227.842V185.659H227.257V179.805H226.086V177.463H227.257V176.293H227.842V175.707H228.427V175.122H229.013V174.537H229.598V173.951H230.183V177.463H232.525V179.805H230.183V185.073H230.769ZM243.659 185.073V185.659H245.416V188H242.489V187.415H241.318V186.829H240.733V185.659H240.147V179.805H238.977V177.463H240.147V176.293H240.733V175.707H241.318V175.122H241.903V174.537H242.489V173.951H243.074V177.463H245.416V179.805H243.074V185.073H243.659ZM253.618 187.415V188H248.935V187.415H247.764V186.829H247.179V185.659H246.593V179.22H247.179V178.049H247.764V177.463H248.935V176.878H253.618V177.463H254.788V178.049H255.374V179.22H255.959V185.659H255.374V186.829H254.788V187.415H253.618ZM250.105 185.073V185.659H252.447V185.073H253.032V179.805H252.447V179.22H250.105V179.805H249.52V185.073H250.105ZM257.725 186.829V185.659H257.14V176.878H260.067V185.073H260.652V185.659H262.994V185.073H263.579V176.878H266.506V188H263.579V187.415H262.994V188H259.482V187.415H258.311V186.829H257.725ZM272.37 185.073V185.659H274.127V188H271.2V187.415H270.029V186.829H269.444V185.659H268.858V179.805H267.688V177.463H268.858V176.293H269.444V175.707H270.029V175.122H270.614V174.537H271.2V173.951H271.785V177.463H274.127V179.805H271.785V185.073H272.37ZM282.92 189.171V188.585H283.505V188H284.09V187.415H284.676V186.829H284.09V186.244H283.505V185.659H282.92V185.073H282.334V184.488H281.749V176.878H284.676V183.902H285.261V184.488H285.846V185.073H287.017V184.488H287.603V183.902H288.188V176.878H291.115V184.488H290.529V185.073H289.944V185.659H289.359V186.244H288.773V186.829H288.188V187.415H287.603V188H287.017V188.585H286.432V189.171H285.846V189.756H285.261V190.341H284.676V190.927H284.09V191.512H282.334V189.171H282.92ZM40.3415 201.463V199.707H40.9268V198.537H41.5122V197.951H42.6829V197.366H45.6098V199.707H43.8537V200.293H43.2683V201.463H45.6098V203.805H43.2683V212H40.3415V203.805H39.1707V201.463H40.3415ZM50.3007 207.317V207.902H49.7153V209.073H50.3007V209.659H52.6421V209.073H53.2275V207.317H50.3007ZM47.3739 210.829V209.659H46.7885V207.902H47.3739V206.732H47.9592V206.146H49.13V205.561H53.2275V203.805H52.6421V203.22H50.3007V203.805H49.7153V204.39H46.7885V203.22H47.3739V202.049H47.9592V201.463H49.13V200.878H53.8129V201.463H54.9836V202.049H55.569V203.22H56.1543V212H53.2275V211.415H52.6421V212H48.5446V211.415H47.9592V210.829H47.3739ZM61.4335 197.366V199.707H58.5067V197.366H61.4335ZM61.4335 201.463V212H58.5067V201.463H61.4335ZM67.2923 203.22V203.805H66.7069V212H63.7801V200.878H66.7069V201.463H67.2923V200.878H70.8045V201.463H71.3899V202.049H71.9752V202.634H71.3899V203.22H70.8045V203.805H70.2191V204.39H69.6338V203.805H69.0484V203.22H67.2923ZM76.0819 209.073V209.659H78.4234V209.073H79.0088V208.488H81.9356V209.659H81.3502V210.829H80.7649V211.415H79.5941V212H74.9112V211.415H73.7405V210.829H73.1551V209.659H72.5697V203.22H73.1551V202.049H73.7405V201.463H74.9112V200.878H79.5941V201.463H80.7649V202.049H81.3502V203.22H81.9356V207.317H75.4966V209.073H76.0819ZM75.4966 203.805V205.561H79.0088V203.805H78.4234V203.22H76.0819V203.805H75.4966ZM86.6288 209.073V212.585H86.0434V213.171H85.4581V213.756H84.8727V214.341H83.702V213.756H84.2873V213.171H84.8727V212H83.702V209.073H86.6288ZM98.347 209.073V209.659H100.103V212H97.1763V211.415H96.0055V210.829H95.4202V209.659H94.8348V203.805H93.6641V201.463H94.8348V200.293H95.4202V199.707H96.0055V199.122H96.5909V198.537H97.1763V197.951H97.7616V201.463H100.103V203.805H97.7616V209.073H98.347ZM108.305 211.415V212H103.622V211.415H102.451V210.829H101.866V209.659H101.281V203.22H101.866V202.049H102.451V201.463H103.622V200.878H108.305V201.463H109.476V202.049H110.061V203.22H110.647V209.659H110.061V210.829H109.476V211.415H108.305ZM104.793 209.073V209.659H107.134V209.073H107.72V203.805H107.134V203.22H104.793V203.805H104.208V209.073H104.793ZM112.413 210.829V209.659H111.828V200.878H114.754V209.073H115.34V209.659H117.681V209.073H118.267V200.878H121.193V212H118.267V211.415H117.681V212H114.169V211.415H112.998V210.829H112.413ZM127.058 209.073V209.659H128.814V212H125.887V211.415H124.716V210.829H124.131V209.659H123.546V203.805H122.375V201.463H123.546V200.293H124.131V199.707H124.716V199.122H125.302V198.537H125.887V197.951H126.473V201.463H128.814V203.805H126.473V209.073H127.058ZM137.607 213.171V212.585H138.192V212H138.778V211.415H139.363V210.829H138.778V210.244H138.192V209.659H137.607V209.073H137.022V208.488H136.436V200.878H139.363V207.902H139.949V208.488H140.534V209.073H141.705V208.488H142.29V207.902H142.875V200.878H145.802V208.488H145.217V209.073H144.631V209.659H144.046V210.244H143.461V210.829H142.875V211.415H142.29V212H141.705V212.585H141.119V213.171H140.534V213.756H139.949V214.341H139.363V214.927H138.778V215.512H137.022V213.171H137.607ZM157.527 209.073V209.659H159.283V212H156.356V211.415H155.185V210.829H154.6V209.659H154.014V203.805H152.844V201.463H154.014V200.293H154.6V199.707H155.185V199.122H155.771V198.537H156.356V197.951H156.941V201.463H159.283V203.805H156.941V209.073H157.527ZM163.973 209.073V209.659H166.314V209.073H166.899V208.488H169.826V209.659H169.241V210.829H168.655V211.415H167.485V212H162.802V211.415H161.631V210.829H161.046V209.659H160.46V203.22H161.046V202.049H161.631V201.463H162.802V200.878H167.485V201.463H168.655V202.049H169.241V203.22H169.826V207.317H163.387V209.073H163.973ZM163.387 203.805V205.561H166.899V203.805H166.314V203.22H163.973V203.805H163.387ZM173.934 208.488V209.073H174.519V209.659H176.861V209.073H177.446V207.902H176.861V207.317H173.349V206.732H172.178V206.146H171.593V204.976H171.007V203.22H171.593V202.049H172.178V201.463H173.349V200.878H178.032V201.463H179.202V202.049H179.788V203.805H176.861V203.22H174.519V203.805H173.934V204.39H174.519V204.976H178.032V205.561H179.202V206.146H179.788V207.317H180.373V209.659H179.788V210.829H179.202V211.415H178.032V212H173.349V211.415H172.178V210.829H171.593V209.659H171.007V208.488H173.934ZM185.652 209.073V209.659H187.408V212H184.481V211.415H183.31V210.829H182.725V209.659H182.139V203.805H180.969V201.463H182.139V200.293H182.725V199.707H183.31V199.122H183.896V198.537H184.481V197.951H185.066V201.463H187.408V203.805H185.066V209.073H185.652ZM192.098 209.073V209.659H194.439V209.073H195.024V208.488H197.951V209.659H197.366V210.829H196.78V211.415H195.61V212H190.927V211.415H189.756V210.829H189.171V209.659H188.585V203.22H189.171V202.049H189.756V201.463H190.927V200.878H195.61V201.463H196.78V202.049H197.366V203.22H197.951V207.317H191.512V209.073H192.098ZM191.512 203.805V205.561H195.024V203.805H194.439V203.22H192.098V203.805H191.512ZM203.23 203.22V203.805H202.644V212H199.718V200.878H202.644V201.463H203.23V200.878H206.742V201.463H207.327V202.049H207.913V202.634H207.327V203.22H206.742V203.805H206.157V204.39H205.571V203.805H204.986V203.22H203.23ZM217.879 197.366V206.146H217.293V206.732H216.708V207.317H216.123V206.732H215.537V206.146H214.952V197.366H217.879ZM217.879 209.073V212H214.952V209.073H217.879Z" fill="#00B99B"/>
<rect x="214.632" y="345.186" width="6.79465" height="9.51252" fill="#00B99B"/>
<rect x="241.81" y="345.186" width="6.79465" height="9.51252" fill="#00B99B"/>
<rect x="238.186" y="334.768" width="13.5893" height="3.62382" fill="#00B99B"/>
<rect x="251.323" y="338.392" width="3.62382" height="3.62382" fill="#00B99B"/>
<rect x="258.117" y="331.597" width="3.62382" height="9.96549" fill="#00B99B"/>
<rect x="261.288" y="337.939" width="14.9482" height="3.62382" fill="#00B99B"/>
<rect x="261.741" y="339.298" width="3.62382" height="9.05954" fill="#00B99B"/>
<rect x="271.707" y="335.221" width="4.52977" height="9.05954" fill="#00B99B"/>
<rect x="271.707" y="341.109" width="6.79465" height="3.62382" fill="#00B99B"/>
<rect x="279.86" y="334.768" width="3.62382" height="6.79465" fill="#00B99B"/>
<rect x="282.578" y="342.016" width="3.62382" height="2.71786" fill="#00B99B"/>
<rect x="278.954" y="344.733" width="3.62382" height="3.17084" fill="#00B99B"/>
<rect x="282.125" y="348.357" width="3.62382" height="6.34168" fill="#00B99B"/>
<rect x="285.749" y="344.733" width="7.24763" height="3.17084" fill="#00B99B"/>
<rect x="295.714" y="341.563" width="3.62382" height="3.17084" fill="#00B99B"/>
<rect x="298.885" y="344.733" width="3.62382" height="3.17084" fill="#00B99B"/>
<rect x="295.714" y="348.357" width="3.62382" height="3.17084" fill="#00B99B"/>
<rect x="292.091" y="351.528" width="3.62382" height="3.17084" fill="#00B99B"/>
<rect x="288.92" y="355.152" width="3.62382" height="3.17084" fill="#00B99B"/>
<rect x="285.296" y="358.323" width="3.62382" height="3.17084" fill="#00B99B"/>
<rect x="278.501" y="354.699" width="3.62382" height="3.17084" fill="#00B99B"/>
<rect x="269.442" y="345.186" width="3.62382" height="3.17084" fill="#00B99B"/>
<rect x="265.365" y="347.904" width="3.62382" height="3.62382" fill="#00B99B"/>
<rect x="261.741" y="371.459" width="3.62382" height="3.62382" fill="#00B99B"/>
<rect x="258.57" y="375.083" width="3.62382" height="3.62382" fill="#00B99B"/>
<rect x="254.947" y="378.707" width="3.62382" height="3.62382" fill="#00B99B"/>
<rect x="248.152" y="381.425" width="6.79465" height="3.62382" fill="#00B99B"/>
<rect x="224.597" y="388.672" width="20.8369" height="3.62382" fill="#00B99B"/>
<rect x="244.981" y="385.048" width="3.62382" height="3.62382" fill="#00B99B"/>
<rect x="220.973" y="382.33" width="3.62382" height="6.34168" fill="#00B99B"/>
<rect x="217.802" y="378.707" width="3.62382" height="3.62382" fill="#00B99B"/>
<rect x="214.632" y="375.083" width="3.62382" height="3.62382" fill="#00B99B"/>
<rect x="211.008" y="371.912" width="3.62382" height="3.62382" fill="#00B99B"/>
<rect x="207.837" y="365.57" width="3.62382" height="6.34168" fill="#00B99B"/>
<rect x="224.597" y="370.553" width="3.62382" height="6.79465" fill="#00B99B"/>
<rect x="227.768" y="373.724" width="14.0423" height="3.62382" fill="#00B99B"/>
<rect x="225.503" y="364.664" width="6.79465" height="3.62382" fill="#00B99B"/>
<rect x="231.845" y="361.494" width="4.07679" height="3.62382" fill="#00B99B"/>
<rect x="222.332" y="361.494" width="4.07679" height="3.62382" fill="#00B99B"/>
<rect x="214.632" y="334.768" width="7.24763" height="3.62382" fill="#00B99B"/>
<rect x="211.461" y="337.939" width="3.17084" height="3.62382" fill="#00B99B"/>
<rect x="207.837" y="327.973" width="3.62382" height="6.34168" fill="#00B99B"/>
<rect x="211.008" y="324.802" width="3.62382" height="3.17084" fill="#00B99B"/>
<rect x="214.632" y="318.008" width="3.62382" height="6.79465" fill="#00B99B"/>
<rect x="218.255" y="314.837" width="3.62382" height="3.17084" fill="#00B99B"/>
<rect x="221.426" y="310.76" width="6.34168" height="3.62382" fill="#00B99B"/>
<rect x="228.221" y="314.384" width="9.51252" height="3.62382" fill="#00B99B"/>
<rect x="231.392" y="307.589" width="3.62382" height="13.5893" fill="#00B99B"/>
<rect x="237.733" y="311.213" width="7.70061" height="3.62382" fill="#00B99B"/>
<rect x="234.563" y="303.965" width="14.4953" height="3.62382" fill="#00B99B"/>
<rect x="225.05" y="303.965" width="6.79465" height="3.62382" fill="#00B99B"/>
<rect x="248.605" y="318.008" width="3.62382" height="6.79465" fill="#00B99B"/>
<rect x="251.776" y="311.213" width="6.79465" height="3.62382" fill="#00B99B"/>
<rect x="248.152" y="307.589" width="3.62382" height="3.62382" fill="#00B99B"/>
<rect x="245.434" y="314.837" width="3.17084" height="2.71786" fill="#00B99B"/>
<rect x="251.776" y="324.802" width="3.62382" height="3.17084" fill="#00B99B"/>
<rect x="254.494" y="327.973" width="4.07679" height="3.62382" fill="#00B99B"/>
<rect x="264.912" y="327.973" width="4.07679" height="3.62382" fill="#00B99B"/>
<rect x="268.989" y="331.597" width="3.62382" height="3.17084" fill="#00B99B"/>
<rect x="285.296" y="327.52" width="3.62382" height="3.62382" fill="#00B99B"/>
<rect x="288.92" y="314.384" width="3.17084" height="3.62382" fill="#00B99B"/>
<rect x="285.749" y="311.213" width="3.17084" height="3.62382" fill="#00B99B"/>
<rect x="275.783" y="307.589" width="9.51252" height="3.62382" fill="#00B99B"/>
<rect x="268.989" y="303.965" width="6.34168" height="3.62382" fill="#00B99B"/>
<rect x="262.194" y="300.795" width="6.34168" height="3.62382" fill="#00B99B"/>
<rect x="258.57" y="297.624" width="3.62382" height="3.17084" fill="#00B99B"/>
<rect x="238.186" y="297.624" width="3.62382" height="3.17084" fill="#00B99B"/>
<rect x="231.845" y="297.624" width="3.62382" height="3.17084" fill="#00B99B"/>
<rect x="220.973" y="297.171" width="3.62382" height="3.62382" fill="#00B99B"/>
<rect x="207.837" y="303.965" width="3.62382" height="3.62382" fill="#00B99B"/>
<rect x="204.666" y="308.042" width="3.62382" height="2.71786" fill="#00B99B"/>
<rect x="194.248" y="327.973" width="3.62382" height="2.71786" fill="#00B99B"/>
<rect x="191.077" y="331.144" width="3.62382" height="3.62382" fill="#00B99B"/>
<rect x="194.248" y="341.109" width="3.62382" height="3.62382" fill="#00B99B"/>
<rect x="190.624" y="347.904" width="3.62382" height="3.62382" fill="#00B99B"/>
<rect x="194.248" y="351.528" width="3.62382" height="3.17084" fill="#00B99B"/>
<rect x="197.418" y="355.152" width="8.15358" height="3.62382" fill="#00B99B"/>
<rect x="198.324" y="337.486" width="6.79465" height="4.52977" fill="#00B99B"/>
<rect x="187" y="334.768" width="3.62382" height="13.1363" fill="#00B99B"/>
<rect x="200.589" y="310.76" width="3.62382" height="6.79465" fill="#00B99B"/>
<rect x="197.418" y="318.008" width="3.62382" height="9.51252" fill="#00B99B"/>
<rect x="211.461" y="300.795" width="9.51252" height="3.62382" fill="#00B99B"/>
<rect x="224.597" y="294" width="7.24763" height="3.62382" fill="#00B99B"/>
<rect x="234.563" y="300.795" width="3.62382" height="4.07679" fill="#00B99B"/>
<rect x="241.357" y="294" width="17.2131" height="3.62382" fill="#00B99B"/>
<rect x="292.544" y="318.008" width="3.62382" height="23.1018" fill="#00B99B"/>
<rect x="288.467" y="331.597" width="3.62382" height="3.17084" fill="#00B99B"/>
<rect x="204.213" y="334.768" width="3.62382" height="30.3495" fill="#00B99B"/>
<rect x="265.365" y="361.494" width="3.62382" height="9.96549" fill="#00B99B"/>
<rect x="268.083" y="365.117" width="10.4185" height="3.17084" fill="#00B99B"/>
<rect x="268.989" y="355.152" width="3.62382" height="5.8887" fill="#00B99B"/>
<rect x="278.954" y="361.494" width="6.34168" height="3.62382" fill="#00B99B"/>
<rect x="268.989" y="358.776" width="9.96549" height="3.62382" fill="#00B99B"/>
<path d="M319 2H15C7.8203 2 2 7.82031 2 15V250.921C2 258.101 7.82029 263.921 15 263.921H145L195.046 302.5V263.921H319C326.18 263.921 332 258.101 332 250.921V15C332 7.8203 326.18 2 319 2Z" stroke="#00B99B" stroke-width="3"/>
</svg>
