<svg width="676" height="185" viewBox="0 0 676 185" fill="none" xmlns="http://www.w3.org/2000/svg">
<path d="M43.7805 44.9756V45.561H42.6098V44.9756H42.0244V44.3902H41.439V43.8049H40.8537V43.2195H40.2683V42.6341H39.6829V42.0488H39.0976V52H36.1707V37.3659H39.0976V37.9512H39.6829V38.5366H40.2683V39.122H40.8537V39.7073H41.439V40.2927H42.0244V40.878H42.6098V41.4634H43.7805V40.878H44.3659V40.2927H44.9512V39.7073H45.5366V39.122H46.122V38.5366H46.7073V37.9512H47.2927V37.3659H50.2195V52H47.2927V42.0488H46.7073V42.6341H46.122V43.2195H45.5366V43.8049H44.9512V44.3902H44.3659V44.9756H43.7805ZM58.9926 51.4146V52H54.3096V51.4146H53.1389V50.8293H52.5535V49.6585H51.9682V43.2195H52.5535V42.0488H53.1389V41.4634H54.3096V40.878H58.9926V41.4634H60.1633V42.0488H60.7487V43.2195H61.334V49.6585H60.7487V50.8293H60.1633V51.4146H58.9926ZM55.4804 49.0732V49.6585H57.8218V49.0732H58.4072V43.8049H57.8218V43.2195H55.4804V43.8049H54.895V49.0732H55.4804ZM66.6126 43.2195V43.8049H66.0272V52H63.1004V40.878H66.0272V41.4634H66.6126V40.878H70.1248V41.4634H71.2955V42.0488H71.8809V43.2195H72.4663V52H69.5394V43.8049H68.9541V43.2195H66.6126ZM83.6048 49.0732V49.6585H85.3609V52H82.4341V51.4146H81.2633V50.8293H80.678V49.6585H80.0926V43.8049H78.9219V41.4634H80.0926V40.2927H80.678V39.7073H81.2633V39.122H81.8487V38.5366H82.4341V37.9512H83.0194V41.4634H85.3609V43.8049H83.0194V49.0732H83.6048ZM90.6361 43.2195V43.8049H90.0507V52H87.1239V40.878H90.0507V41.4634H90.6361V40.878H94.1482V41.4634H94.7336V42.0488H95.319V42.6341H94.7336V43.2195H94.1482V43.8049H93.5629V44.3902H92.9775V43.8049H92.3921V43.2195H90.6361ZM99.4257 47.3171V47.9024H98.8403V49.0732H99.4257V49.6585H101.767V49.0732H102.353V47.3171H99.4257ZM96.4989 50.8293V49.6585H95.9135V47.9024H96.4989V46.7317H97.0842V46.1463H98.255V45.561H102.353V43.8049H101.767V43.2195H99.4257V43.8049H98.8403V44.3902H95.9135V43.2195H96.4989V42.0488H97.0842V41.4634H98.255V40.878H102.938V41.4634H104.109V42.0488H104.694V43.2195H105.279V52H102.353V51.4146H101.767V52H97.6696V51.4146H97.0842V50.8293H96.4989ZM111.144 47.9024V48.4878H111.729V49.0732H112.9V48.4878H113.485V47.9024H114.071V40.878H116.998V48.4878H116.412V49.0732H115.827V49.6585H115.241V50.2439H114.656V50.8293H114.071V51.4146H113.485V52H111.144V51.4146H110.558V50.8293H109.973V50.2439H109.388V49.6585H108.802V49.0732H108.217V48.4878H107.632V40.878H110.558V47.9024H111.144ZM122.277 47.3171V47.9024H121.692V49.0732H122.277V49.6585H124.619V49.0732H125.204V47.3171H122.277ZM119.35 50.8293V49.6585H118.765V47.9024H119.35V46.7317H119.936V46.1463H121.107V45.561H125.204V43.8049H124.619V43.2195H122.277V43.8049H121.692V44.3902H118.765V43.2195H119.35V42.0488H119.936V41.4634H121.107V40.878H125.789V41.4634H126.96V42.0488H127.546V43.2195H128.131V52H125.204V51.4146H124.619V52H120.521V51.4146H119.936V50.8293H119.35ZM133.41 37.3659V39.7073H130.483V37.3659H133.41ZM133.41 41.4634V52H130.483V41.4634H133.41ZM138.683 37.3659V52H135.757V37.3659H138.683ZM150.402 47.9024V48.4878H150.987V49.0732H152.158V48.4878H152.743V47.9024H153.329V40.878H156.255V48.4878H155.67V49.0732H155.085V49.6585H154.499V50.2439H153.914V50.8293H153.329V51.4146H152.743V52H150.402V51.4146H149.816V50.8293H149.231V50.2439H148.646V49.6585H148.06V49.0732H147.475V48.4878H146.889V40.878H149.816V47.9024H150.402ZM165.047 51.4146V52H160.364V51.4146H159.194V50.8293H158.608V49.6585H158.023V43.2195H158.608V42.0488H159.194V41.4634H160.364V40.878H165.047V41.4634H166.218V42.0488H166.803V43.2195H167.389V49.6585H166.803V50.8293H166.218V51.4146H165.047ZM161.535 49.0732V49.6585H163.877V49.0732H164.462V43.8049H163.877V43.2195H161.535V43.8049H160.95V49.0732H161.535ZM169.155 50.8293V49.6585H168.57V40.878H171.497V49.0732H172.082V49.6585H174.423V49.0732H175.009V40.878H177.936V52H175.009V51.4146H174.423V52H170.911V51.4146H169.74V50.8293H169.155ZM182.629 48.4878V49.0732H183.215V49.6585H185.556V49.0732H186.142V47.9024H185.556V47.3171H182.044V46.7317H180.873V46.1463H180.288V44.9756H179.703V43.2195H180.288V42.0488H180.873V41.4634H182.044V40.878H186.727V41.4634H187.898V42.0488H188.483V43.8049H185.556V43.2195H183.215V43.8049H182.629V44.3902H183.215V44.9756H186.727V45.561H187.898V46.1463H188.483V47.3171H189.068V49.6585H188.483V50.8293H187.898V51.4146H186.727V52H182.044V51.4146H180.873V50.8293H180.288V49.6585H179.703V48.4878H182.629ZM196.694 40.878H199.621V41.4634H200.206V40.878H203.719V41.4634H204.889V42.0488H205.475V43.2195H206.06V49.6585H205.475V50.8293H204.889V51.4146H203.719V52H199.621V55.5122H196.694V40.878ZM202.548 49.0732H203.133V43.8049H202.548V43.2195H200.206V43.8049H199.621V49.6585H202.548V49.0732ZM210.754 37.3659V52H207.827V37.3659H210.754ZM216.027 47.3171V47.9024H215.442V49.0732H216.027V49.6585H218.369V49.0732H218.954V47.3171H216.027ZM213.1 50.8293V49.6585H212.515V47.9024H213.1V46.7317H213.686V46.1463H214.857V45.561H218.954V43.8049H218.369V43.2195H216.027V43.8049H215.442V44.3902H212.515V43.2195H213.1V42.0488H213.686V41.4634H214.857V40.878H219.539V41.4634H220.71V42.0488H221.296V43.2195H221.881V52H218.954V51.4146H218.369V52H214.271V51.4146H213.686V50.8293H213.1ZM224.819 38.5366V39.122H223.062V37.9512H223.648V37.3659H224.233V36.7805H224.819V36.1951H226.575V36.7805H227.16V37.3659H227.745V37.9512H228.331V39.122H226.575V38.5366H225.989V37.9512H225.404V38.5366H224.819ZM227.16 41.4634V52H224.233V41.4634H227.16ZM233.019 49.0732V49.6585H234.775V52H231.848V51.4146H230.677V50.8293H230.092V49.6585H229.507V43.8049H228.336V41.4634H229.507V40.2927H230.092V39.7073H230.677V39.122H231.263V38.5366H231.848V37.9512H232.433V41.4634H234.775V43.8049H232.433V49.0732H233.019ZM247.666 46.1463V46.7317H247.08V47.3171H246.495V46.7317H245.909V46.1463H245.324V44.3902H245.909V43.8049H246.495V43.2195H247.08V42.6341H247.666V42.0488H248.251V40.878H247.666V40.2927H245.909V40.878H245.324V41.4634H242.397V39.7073H242.983V38.5366H243.568V37.9512H244.739V37.3659H248.836V37.9512H250.007V38.5366H250.592V39.7073H251.178V43.2195H250.592V43.8049H250.007V44.3902H249.422V44.9756H248.836V45.561H248.251V46.1463H247.666ZM248.251 49.0732V52H245.324V49.0732H248.251ZM260.56 49.0732H259.975V48.4878H259.389V37.3659H262.316V47.3171H262.902V47.9024H263.487V48.4878H264.658V47.9024H265.243V47.3171H265.829V37.3659H268.755V48.4878H268.17V49.0732H267.585V49.6585H266.999V50.2439H266.414V50.8293H265.829V51.4146H265.243V52H262.902V51.4146H262.316V50.8293H261.731V50.2439H261.146V49.6585H260.56V49.0732ZM277.547 51.4146V52H272.864V51.4146H271.694V50.8293H271.108V49.6585H270.523V43.2195H271.108V42.0488H271.694V41.4634H272.864V40.878H277.547V41.4634H278.718V42.0488H279.303V43.2195H279.889V49.6585H279.303V50.8293H278.718V51.4146H277.547ZM274.035 49.0732V49.6585H276.377V49.0732H276.962V43.8049H276.377V43.2195H274.035V43.8049H273.45V49.0732H274.035ZM281.655 50.8293V49.6585H281.07V40.878H283.997V49.0732H284.582V49.6585H286.923V49.0732H287.509V40.878H290.436V52H287.509V51.4146H286.923V52H283.411V51.4146H282.24V50.8293H281.655ZM295.129 48.4878V49.0732H295.715V49.6585H298.056V49.0732H298.642V47.9024H298.056V47.3171H294.544V46.7317H293.373V46.1463H292.788V44.9756H292.203V43.2195H292.788V42.0488H293.373V41.4634H294.544V40.878H299.227V41.4634H300.398V42.0488H300.983V43.8049H298.056V43.2195H295.715V43.8049H295.129V44.3902H295.715V44.9756H299.227V45.561H300.398V46.1463H300.983V47.3171H301.568V49.6585H300.983V50.8293H300.398V51.4146H299.227V52H294.544V51.4146H293.373V50.8293H292.788V49.6585H292.203V48.4878H295.129ZM312.121 47.3171V47.9024H311.536V49.0732H312.121V49.6585H314.462V49.0732H315.048V47.3171H312.121ZM309.194 50.8293V49.6585H308.609V47.9024H309.194V46.7317H309.78V46.1463H310.95V45.561H315.048V43.8049H314.462V43.2195H312.121V43.8049H311.536V44.3902H308.609V43.2195H309.194V42.0488H309.78V41.4634H310.95V40.878H315.633V41.4634H316.804V42.0488H317.389V43.2195H317.975V52H315.048V51.4146H314.462V52H310.365V51.4146H309.78V50.8293H309.194ZM323.839 47.9024V48.4878H324.425V49.0732H325.595V48.4878H326.181V47.9024H326.766V40.878H329.693V48.4878H329.107V49.0732H328.522V49.6585H327.937V50.2439H327.351V50.8293H326.766V51.4146H326.181V52H323.839V51.4146H323.254V50.8293H322.668V50.2439H322.083V49.6585H321.498V49.0732H320.912V48.4878H320.327V40.878H323.254V47.9024H323.839ZM334.973 49.0732V49.6585H337.314V49.0732H337.899V48.4878H340.826V49.6585H340.241V50.8293H339.655V51.4146H338.485V52H333.802V51.4146H332.631V50.8293H332.046V49.6585H331.46V43.2195H332.046V42.0488H332.631V41.4634H333.802V40.878H338.485V41.4634H339.655V42.0488H340.241V43.2195H340.826V47.3171H334.387V49.0732H334.973ZM334.387 43.8049V45.561H337.899V43.8049H337.314V43.2195H334.973V43.8049H334.387ZM349.617 45.561V46.1463H349.032V46.7317H348.446V47.3171H347.861V47.9024H347.276V48.4878H346.69V49.0732H346.105V49.6585H351.958V52H342.593V49.0732H343.178V48.4878H343.763V47.9024H344.349V47.3171H344.934V46.7317H345.519V46.1463H346.105V45.561H346.69V44.9756H347.276V44.3902H347.861V43.8049H348.446V43.2195H342.593V40.878H351.958V43.8049H351.373V44.3902H350.788V44.9756H350.202V45.561H349.617ZM360.171 50.8293V49.6585H359.585V40.878H362.512V49.0732H363.098V49.6585H365.439V49.0732H366.024V40.878H368.951V52H366.024V51.4146H365.439V52H361.927V51.4146H360.756V50.8293H360.171ZM374.816 43.2195V43.8049H374.23V52H371.304V40.878H374.23V41.4634H374.816V40.878H378.328V41.4634H379.499V42.0488H380.084V43.2195H380.669V52H377.743V43.8049H377.157V43.2195H374.816ZM385.363 49.0732V49.6585H387.705V49.0732H388.29V48.4878H391.217V49.6585H390.631V50.8293H390.046V51.4146H388.875V52H384.192V51.4146H383.022V50.8293H382.436V49.6585H381.851V43.2195H382.436V42.0488H383.022V41.4634H384.192V40.878H388.875V41.4634H390.046V42.0488H390.631V43.2195H391.217V47.3171H384.778V49.0732H385.363ZM384.778 43.8049V45.561H388.29V43.8049H387.705V43.2195H385.363V43.8049H384.778ZM401.769 37.3659V39.7073H398.843V37.3659H401.769ZM401.769 41.4634V52H398.843V41.4634H401.769ZM407.043 49.0732V49.6585H409.384V49.0732H409.97V43.2195H407.043V43.8049H406.458V49.0732H407.043ZM404.116 43.2195V42.0488H404.701V41.4634H405.872V40.878H409.97V37.3659H412.897V52H409.97V51.4146H409.384V52H405.872V51.4146H404.701V50.8293H404.116V49.6585H403.531V43.2195H404.116ZM418.176 37.9512V37.3659H418.761V36.7805H419.346V36.1951H421.103V37.9512H420.517V38.5366H419.932V39.122H419.346V39.7073H417.59V37.9512H418.176ZM418.176 49.0732V49.6585H420.517V49.0732H421.103V48.4878H424.029V49.6585H423.444V50.8293H422.859V51.4146H421.688V52H417.005V51.4146H415.834V50.8293H415.249V49.6585H414.663V43.2195H415.249V42.0488H415.834V41.4634H417.005V40.878H421.688V41.4634H422.859V42.0488H423.444V43.2195H424.029V47.3171H417.59V49.0732H418.176ZM417.59 43.8049V45.561H421.103V43.8049H420.517V43.2195H418.176V43.8049H417.59ZM428.723 49.0732V49.6585H431.064V49.0732H431.649V48.4878H434.576V49.6585H433.991V50.8293H433.405V51.4146H432.235V52H427.552V51.4146H426.381V50.8293H425.796V49.6585H425.21V43.2195H425.796V42.0488H426.381V41.4634H427.552V40.878H432.235V41.4634H433.405V42.0488H433.991V43.2195H434.576V47.3171H428.137V49.0732H428.723ZM428.137 43.8049V45.561H431.649V43.8049H431.064V43.2195H428.723V43.8049H428.137ZM439.269 49.0732V52.5854H438.684V53.1707H438.099V53.7561H437.513V54.3415H436.343V53.7561H436.928V53.1707H437.513V52H436.343V49.0732H439.269ZM36.1707 74.8293V73.6585H35.5854V64.878H38.5122V73.0732H39.0976V73.6585H41.439V73.0732H42.0244V64.878H44.9512V76H42.0244V75.4146H41.439V76H37.9268V75.4146H36.7561V74.8293H36.1707ZM50.8157 67.2195V67.8049H50.2304V76H47.3035V64.878H50.2304V65.4634H50.8157V64.878H54.3279V65.4634H55.4987V66.0488H56.084V67.2195H56.6694V76H53.7426V67.8049H53.1572V67.2195H50.8157ZM64.2957 64.878H67.2226V65.4634H67.8079V64.878H71.3201V65.4634H72.4909V66.0488H73.0762V67.2195H73.6616V73.6585H73.0762V74.8293H72.4909V75.4146H71.3201V76H67.2226V79.5122H64.2957V64.878ZM70.1494 73.0732H70.7348V67.8049H70.1494V67.2195H67.8079V67.8049H67.2226V73.6585H70.1494V73.0732ZM78.9407 67.2195V67.8049H78.3554V76H75.4285V64.878H78.3554V65.4634H78.9407V64.878H82.4529V65.4634H83.0383V66.0488H83.6237V66.6341H83.0383V67.2195H82.4529V67.8049H81.8676V68.3902H81.2822V67.8049H80.6968V67.2195H78.9407ZM91.2426 75.4146V76H86.5596V75.4146H85.3889V74.8293H84.8035V73.6585H84.2182V67.2195H84.8035V66.0488H85.3889V65.4634H86.5596V64.878H91.2426V65.4634H92.4133V66.0488H92.9987V67.2195H93.584V73.6585H92.9987V74.8293H92.4133V75.4146H91.2426ZM87.7304 73.0732V73.6585H90.0718V73.0732H90.6572V67.8049H90.0718V67.2195H87.7304V67.8049H87.145V73.0732H87.7304ZM98.8626 61.3659V63.7073H95.9358V61.3659H98.8626ZM98.2772 77.1707V78.3415H97.6919V78.9268H96.5212V79.5122H94.1797V77.1707H95.3504V76.5854H95.9358V65.4634H98.8626V77.1707H98.2772ZM104.137 73.0732V73.6585H106.478V73.0732H107.063V72.4878H109.99V73.6585H109.405V74.8293H108.82V75.4146H107.649V76H102.966V75.4146H101.795V74.8293H101.21V73.6585H100.624V67.2195H101.21V66.0488H101.795V65.4634H102.966V64.878H107.649V65.4634H108.82V66.0488H109.405V67.2195H109.99V71.3171H103.551V73.0732H104.137ZM103.551 67.8049V69.561H107.063V67.8049H106.478V67.2195H104.137V67.8049H103.551ZM115.269 73.0732V73.6585H117.025V76H114.098V75.4146H112.927V74.8293H112.342V73.6585H111.757V67.8049H110.586V65.4634H111.757V64.2927H112.342V63.7073H112.927V63.122H113.513V62.5366H114.098V61.9512H114.683V65.4634H117.025V67.8049H114.683V73.0732H115.269ZM131.086 75.4146V76H126.403V75.4146H125.233V74.8293H124.647V73.6585H124.062V67.2195H124.647V66.0488H125.233V65.4634H126.403V64.878H131.086V65.4634H132.257V66.0488H132.842V67.2195H133.428V73.6585H132.842V74.8293H132.257V75.4146H131.086ZM127.574 73.0732V73.6585H129.916V73.0732H130.501V67.8049H129.916V67.2195H127.574V67.8049H126.989V73.0732H127.574ZM135.194 74.8293V73.6585H134.609V64.878H137.536V73.0732H138.121V73.6585H140.462V73.0732H141.048V64.878H143.975V76H141.048V75.4146H140.462V76H136.95V75.4146H135.78V74.8293H135.194ZM155.699 73.0732V73.6585H157.455V76H154.528V75.4146H153.357V74.8293H152.772V73.6585H152.186V67.8049H151.016V65.4634H152.186V64.2927H152.772V63.7073H153.357V63.122H153.942V62.5366H154.528V61.9512H155.113V65.4634H157.455V67.8049H155.113V73.0732H155.699ZM165.657 75.4146V76H160.974V75.4146H159.803V74.8293H159.218V73.6585H158.632V67.2195H159.218V66.0488H159.803V65.4634H160.974V64.878H165.657V65.4634H166.827V66.0488H167.413V67.2195H167.998V73.6585H167.413V74.8293H166.827V75.4146H165.657ZM162.144 73.0732V73.6585H164.486V73.0732H165.071V67.8049H164.486V67.2195H162.144V67.8049H161.559V73.0732H162.144ZM169.764 74.8293V73.6585H169.179V64.878H172.106V73.0732H172.691V73.6585H175.033V73.0732H175.618V64.878H178.545V76H175.618V75.4146H175.033V76H171.521V75.4146H170.35V74.8293H169.764ZM184.409 73.0732V73.6585H186.166V76H183.239V75.4146H182.068V74.8293H181.483V73.6585H180.897V67.8049H179.727V65.4634H180.897V64.2927H181.483V63.7073H182.068V63.122H182.653V62.5366H183.239V61.9512H183.824V65.4634H186.166V67.8049H183.824V73.0732H184.409ZM196.129 72.4878V73.0732H196.715V73.6585H199.056V73.0732H199.642V71.9024H199.056V71.3171H195.544V70.7317H194.373V70.1463H193.788V68.9756H193.203V67.2195H193.788V66.0488H194.373V65.4634H195.544V64.878H200.227V65.4634H201.398V66.0488H201.983V67.8049H199.056V67.2195H196.715V67.8049H196.129V68.3902H196.715V68.9756H200.227V69.561H201.398V70.1463H201.983V71.3171H202.568V73.6585H201.983V74.8293H201.398V75.4146H200.227V76H195.544V75.4146H194.373V74.8293H193.788V73.6585H193.203V72.4878H196.129ZM207.262 61.3659V63.7073H204.335V61.3659H207.262ZM207.262 65.4634V76H204.335V65.4634H207.262ZM213.12 67.2195V67.8049H212.535V76H209.608V64.878H212.535V65.4634H213.12V64.878H216.047V65.4634H216.633V66.0488H217.218V65.4634H217.803V64.878H220.73V65.4634H221.901V66.0488H222.486V67.2195H223.072V76H220.145V67.8049H219.559V67.2195H218.389V67.8049H217.803V76H214.877V67.8049H214.291V67.2195H213.12ZM224.819 64.878H227.746V65.4634H228.331V64.878H231.844V65.4634H233.014V66.0488H233.6V67.2195H234.185V73.6585H233.6V74.8293H233.014V75.4146H231.844V76H227.746V79.5122H224.819V64.878ZM230.673 73.0732H231.258V67.8049H230.673V67.2195H228.331V67.8049H227.746V73.6585H230.673V73.0732ZM238.879 61.3659V76H235.952V61.3659H238.879ZM244.152 73.0732V73.6585H246.494V73.0732H247.079V72.4878H250.006V73.6585H249.421V74.8293H248.835V75.4146H247.664V76H242.982V75.4146H241.811V74.8293H241.225V73.6585H240.64V67.2195H241.225V66.0488H241.811V65.4634H242.982V64.878H247.664V65.4634H248.835V66.0488H249.421V67.2195H250.006V71.3171H243.567V73.0732H244.152ZM243.567 67.8049V69.561H247.079V67.8049H246.494V67.2195H244.152V67.8049H243.567ZM255.284 67.2195V67.8049H254.699V76H251.772V64.878H254.699V65.4634H255.284V64.878H258.211V65.4634H258.797V66.0488H259.382V65.4634H259.967V64.878H262.894V65.4634H264.065V66.0488H264.65V67.2195H265.236V76H262.309V67.8049H261.724V67.2195H260.553V67.8049H259.967V76H257.041V67.8049H256.455V67.2195H255.284ZM269.91 73.0732V73.6585H272.252V73.0732H272.837V72.4878H275.764V73.6585H275.178V74.8293H274.593V75.4146H273.422V76H268.739V75.4146H267.569V74.8293H266.983V73.6585H266.398V67.2195H266.983V66.0488H267.569V65.4634H268.739V64.878H273.422V65.4634H274.593V66.0488H275.178V67.2195H275.764V71.3171H269.325V73.0732H269.91ZM269.325 67.8049V69.561H272.837V67.8049H272.252V67.2195H269.91V67.8049H269.325ZM281.042 67.2195V67.8049H280.457V76H277.53V64.878H280.457V65.4634H281.042V64.878H284.554V65.4634H285.725V66.0488H286.311V67.2195H286.896V76H283.969V67.8049H283.384V67.2195H281.042ZM292.175 73.0732V73.6585H293.931V76H291.004V75.4146H289.834V74.8293H289.248V73.6585H288.663V67.8049H287.492V65.4634H288.663V64.2927H289.248V63.7073H289.834V63.122H290.419V62.5366H291.004V61.9512H291.59V65.4634H293.931V67.8049H291.59V73.0732H292.175ZM304.48 73.0732V73.6585H306.822V73.0732H307.407V67.2195H304.48V67.8049H303.895V73.0732H304.48ZM301.554 67.2195V66.0488H302.139V65.4634H303.31V64.878H307.407V61.3659H310.334V76H307.407V75.4146H306.822V76H303.31V75.4146H302.139V74.8293H301.554V73.6585H300.968V67.2195H301.554ZM315.613 73.0732V73.6585H317.955V73.0732H318.54V72.4878H321.467V73.6585H320.881V74.8293H320.296V75.4146H319.125V76H314.442V75.4146H313.272V74.8293H312.686V73.6585H312.101V67.2195H312.686V66.0488H313.272V65.4634H314.442V64.878H319.125V65.4634H320.296V66.0488H320.881V67.2195H321.467V71.3171H315.028V73.0732H315.613ZM315.028 67.8049V69.561H318.54V67.8049H317.955V67.2195H315.613V67.8049H315.028ZM325.575 72.4878V73.0732H326.16V73.6585H328.502V73.0732H329.087V71.9024H328.502V71.3171H324.989V70.7317H323.819V70.1463H323.233V68.9756H322.648V67.2195H323.233V66.0488H323.819V65.4634H324.989V64.878H329.672V65.4634H330.843V66.0488H331.428V67.8049H328.502V67.2195H326.16V67.8049H325.575V68.3902H326.16V68.9756H329.672V69.561H330.843V70.1463H331.428V71.3171H332.014V73.6585H331.428V74.8293H330.843V75.4146H329.672V76H324.989V75.4146H323.819V74.8293H323.233V73.6585H322.648V72.4878H325.575ZM342.566 73.0732V73.6585H344.908V73.0732H345.493V67.2195H342.566V67.8049H341.981V73.0732H342.566ZM339.639 67.2195V66.0488H340.225V65.4634H341.396V64.878H348.42V79.5122H345.493V75.4146H344.908V76H341.396V75.4146H340.225V74.8293H339.639V73.6585H339.054V67.2195H339.639ZM350.772 74.8293V73.6585H350.187V64.878H353.114V73.0732H353.699V73.6585H356.041V73.0732H356.626V64.878H359.553V76H356.626V75.4146H356.041V76H352.528V75.4146H351.358V74.8293H350.772ZM364.832 73.0732V73.6585H367.173V73.0732H367.759V72.4878H370.686V73.6585H370.1V74.8293H369.515V75.4146H368.344V76H363.661V75.4146H362.49V74.8293H361.905V73.6585H361.32V67.2195H361.905V66.0488H362.49V65.4634H363.661V64.878H368.344V65.4634H369.515V66.0488H370.1V67.2195H370.686V71.3171H364.247V73.0732H364.832ZM364.247 67.8049V69.561H367.759V67.8049H367.173V67.2195H364.832V67.8049H364.247ZM374.793 72.4878V73.0732H375.379V73.6585H377.72V73.0732H378.306V71.9024H377.72V71.3171H374.208V70.7317H373.037V70.1463H372.452V68.9756H371.867V67.2195H372.452V66.0488H373.037V65.4634H374.208V64.878H378.891V65.4634H380.062V66.0488H380.647V67.8049H377.72V67.2195H375.379V67.8049H374.793V68.3902H375.379V68.9756H378.891V69.561H380.062V70.1463H380.647V71.3171H381.232V73.6585H380.647V74.8293H380.062V75.4146H378.891V76H374.208V75.4146H373.037V74.8293H372.452V73.6585H371.867V72.4878H374.793ZM386.511 73.0732V73.6585H388.267V76H385.34V75.4146H384.17V74.8293H383.584V73.6585H382.999V67.8049H381.828V65.4634H382.999V64.2927H383.584V63.7073H384.17V63.122H384.755V62.5366H385.34V61.9512H385.926V65.4634H388.267V67.8049H385.926V73.0732H386.511ZM392.957 61.3659V63.7073H390.03V61.3659H392.957ZM392.957 65.4634V76H390.03V65.4634H392.957ZM401.743 75.4146V76H397.06V75.4146H395.889V74.8293H395.304V73.6585H394.718V67.2195H395.304V66.0488H395.889V65.4634H397.06V64.878H401.743V65.4634H402.913V66.0488H403.499V67.2195H404.084V73.6585H403.499V74.8293H402.913V75.4146H401.743ZM398.23 73.0732V73.6585H400.572V73.0732H401.157V67.8049H400.572V67.2195H398.23V67.8049H397.645V73.0732H398.23ZM409.363 67.2195V67.8049H408.777V76H405.85V64.878H408.777V65.4634H409.363V64.878H412.875V65.4634H414.046V66.0488H414.631V67.2195H415.216V76H412.289V67.8049H411.704V67.2195H409.363ZM419.325 72.4878V73.0732H419.91V73.6585H422.252V73.0732H422.837V71.9024H422.252V71.3171H418.739V70.7317H417.569V70.1463H416.983V68.9756H416.398V67.2195H416.983V66.0488H417.569V65.4634H418.739V64.878H423.422V65.4634H424.593V66.0488H425.178V67.8049H422.252V67.2195H419.91V67.8049H419.325V68.3902H419.91V68.9756H423.422V69.561H424.593V70.1463H425.178V71.3171H425.764V73.6585H425.178V74.8293H424.593V75.4146H423.422V76H418.739V75.4146H417.569V74.8293H416.983V73.6585H416.398V72.4878H419.325ZM438.658 70.1463V70.7317H438.072V71.3171H437.487V70.7317H436.902V70.1463H436.316V68.3902H436.902V67.8049H437.487V67.2195H438.072V66.6341H438.658V66.0488H439.243V64.878H438.658V64.2927H436.902V64.878H436.316V65.4634H433.389V63.7073H433.975V62.5366H434.56V61.9512H435.731V61.3659H439.829V61.9512H440.999V62.5366H441.585V63.7073H442.17V67.2195H441.585V67.8049H440.999V68.3902H440.414V68.9756H439.829V69.561H439.243V70.1463H438.658ZM439.243 73.0732V76H436.316V73.0732H439.243ZM39.6829 120.488V121.073H42.6098V120.488H43.1951V119.317H46.122V121.659H45.5366V122.829H44.9512V123.415H43.7805V124H38.5122V123.415H37.3415V122.829H36.7561V121.659H36.1707V111.707H36.7561V110.537H37.3415V109.951H38.5122V109.366H43.7805V109.951H44.9512V110.537H45.5366V111.707H46.122V114.049H43.1951V112.878H42.6098V112.293H39.6829V112.878H39.0976V120.488H39.6829ZM54.891 123.415V124H50.2081V123.415H49.0373V122.829H48.452V121.659H47.8666V115.22H48.452V114.049H49.0373V113.463H50.2081V112.878H54.891V113.463H56.0617V114.049H56.6471V115.22H57.2325V121.659H56.6471V122.829H56.0617V123.415H54.891ZM51.3788 121.073V121.659H53.7203V121.073H54.3056V115.805H53.7203V115.22H51.3788V115.805H50.7934V121.073H51.3788ZM62.5111 115.22V115.805H61.9257V124H58.9989V112.878H61.9257V113.463H62.5111V112.878H66.0232V113.463H67.194V114.049H67.7793V115.22H68.3647V124H65.4379V115.805H64.8525V115.22H62.5111ZM73.6439 121.073V121.659H75.4V124H72.4731V123.415H71.3024V122.829H70.717V121.659H70.1317V115.805H68.9609V113.463H70.1317V112.293H70.717V111.707H71.3024V111.122H71.8878V110.537H72.4731V109.951H73.0585V113.463H75.4V115.805H73.0585V121.073H73.6439ZM80.0897 119.317V119.902H79.5044V121.073H80.0897V121.659H82.4312V121.073H83.0166V119.317H80.0897ZM77.1629 122.829V121.659H76.5776V119.902H77.1629V118.732H77.7483V118.146H78.919V117.561H83.0166V115.805H82.4312V115.22H80.0897V115.805H79.5044V116.39H76.5776V115.22H77.1629V114.049H77.7483V113.463H78.919V112.878H83.6019V113.463H84.7727V114.049H85.358V115.22H85.9434V124H83.0166V123.415H82.4312V124H78.3337V123.415H77.7483V122.829H77.1629ZM91.2226 121.073V121.659H93.564V121.073H94.1494V119.902H97.0762V121.659H96.4909V122.829H95.9055V123.415H94.7348V124H90.0518V123.415H88.8811V122.829H88.2957V121.659H87.7104V115.22H88.2957V114.049H88.8811V113.463H90.0518V112.878H94.7348V113.463H95.9055V114.049H96.4909V115.22H97.0762V116.976H94.1494V115.805H93.564V115.22H91.2226V115.805H90.6372V121.073H91.2226ZM102.355 121.073V121.659H104.111V124H101.184V123.415H100.013V122.829H99.428V121.659H98.8426V115.805H97.6719V113.463H98.8426V112.293H99.428V111.707H100.013V111.122H100.599V110.537H101.184V109.951H101.769V113.463H104.111V115.805H101.769V121.073H102.355ZM108.801 121.073V121.659H111.142V121.073H111.728V120.488H114.654V121.659H114.069V122.829H113.484V123.415H112.313V124H107.63V123.415H106.459V122.829H105.874V121.659H105.288V115.22H105.874V114.049H106.459V113.463H107.63V112.878H112.313V113.463H113.484V114.049H114.069V115.22H114.654V119.317H108.215V121.073H108.801ZM108.215 115.805V117.561H111.728V115.805H111.142V115.22H108.801V115.805H108.215ZM123.445 117.561V118.146H122.86V118.732H122.274V119.317H121.689V119.902H121.104V120.488H120.518V121.073H119.933V121.659H125.787V124H116.421V121.073H117.006V120.488H117.591V119.902H118.177V119.317H118.762V118.732H119.348V118.146H119.933V117.561H120.518V116.976H121.104V116.39H121.689V115.805H122.274V115.22H116.421V112.878H125.787V115.805H125.201V116.39H124.616V116.976H124.03V117.561H123.445ZM136.92 115.22V118.146H128.139V115.22H136.92ZM142.784 115.22V115.805H142.199V124H139.272V112.878H142.199V113.463H142.784V112.878H145.711V113.463H146.297V114.049H146.882V113.463H147.467V112.878H150.394V113.463H151.565V114.049H152.15V115.22H152.736V124H149.809V115.805H149.224V115.22H148.053V115.805H147.467V124H144.541V115.805H143.955V115.22H142.784ZM160.922 123.415V124H156.239V123.415H155.069V122.829H154.483V121.659H153.898V115.22H154.483V114.049H155.069V113.463H156.239V112.878H160.922V113.463H162.093V114.049H162.678V115.22H163.264V121.659H162.678V122.829H162.093V123.415H160.922ZM157.41 121.073V121.659H159.752V121.073H160.337V115.805H159.752V115.22H157.41V115.805H156.825V121.073H157.41ZM167.957 109.366V111.707H165.03V109.366H167.957ZM167.957 113.463V124H165.03V113.463H167.957ZM179.09 121.073V121.659H181.431V121.073H182.017V120.488H184.943V121.659H184.358V122.829H183.773V123.415H182.602V124H177.919V123.415H176.748V122.829H176.163V121.659H175.578V115.22H176.163V114.049H176.748V113.463H177.919V112.878H182.602V113.463H183.773V114.049H184.358V115.22H184.943V119.317H178.504V121.073H179.09ZM178.504 115.805V117.561H182.017V115.805H181.431V115.22H179.09V115.805H178.504ZM190.222 121.073V121.659H191.978V124H189.051V123.415H187.881V122.829H187.295V121.659H186.71V115.805H185.539V113.463H186.71V112.293H187.295V111.707H187.881V111.122H188.466V110.537H189.051V109.951H189.637V113.463H191.978V115.805H189.637V121.073H190.222ZM206.039 123.415V124H201.357V123.415H200.186V122.829H199.6V121.659H199.015V115.22H199.6V114.049H200.186V113.463H201.357V112.878H206.039V113.463H207.21V114.049H207.796V115.22H208.381V121.659H207.796V122.829H207.21V123.415H206.039ZM202.527 121.073V121.659H204.869V121.073H205.454V115.805H204.869V115.22H202.527V115.805H201.942V121.073H202.527ZM213.659 115.22V115.805H213.074V124H210.147V112.878H213.074V113.463H213.659V112.878H217.172V113.463H218.342V114.049H218.928V115.22H219.513V124H216.586V115.805H216.001V115.22H213.659ZM230.066 121.073V121.659H232.408V121.073H232.993V120.488H235.92V121.659H235.335V122.829H234.749V123.415H233.579V124H228.896V123.415H227.725V122.829H227.139V121.659H226.554V115.22H227.139V114.049H227.725V113.463H228.896V112.878H233.579V113.463H234.749V114.049H235.335V115.22H235.92V119.317H229.481V121.073H230.066ZM229.481 115.805V117.561H232.993V115.805H232.408V115.22H230.066V115.805H229.481ZM241.199 115.22V115.805H240.613V124H237.686V112.878H240.613V113.463H241.199V112.878H244.711V113.463H245.881V114.049H246.467V115.22H247.052V124H244.125V115.805H243.54V115.22H241.199ZM254.679 112.878H257.605V113.463H258.191V112.878H261.703V113.463H262.874V114.049H263.459V115.22H264.044V121.659H263.459V122.829H262.874V123.415H261.703V124H257.605V127.512H254.679V112.878ZM260.532 121.073H261.118V115.805H260.532V115.22H258.191V115.805H257.605V121.659H260.532V121.073ZM268.738 119.317V119.902H268.153V121.073H268.738V121.659H271.08V121.073H271.665V119.317H268.738ZM265.811 122.829V121.659H265.226V119.902H265.811V118.732H266.397V118.146H267.567V117.561H271.665V115.805H271.08V115.22H268.738V115.805H268.153V116.39H265.226V115.22H265.811V114.049H266.397V113.463H267.567V112.878H272.25V113.463H273.421V114.049H274.006V115.22H274.592V124H271.665V123.415H271.08V124H266.982V123.415H266.397V122.829H265.811ZM280.456 115.22V115.805H279.871V124H276.944V112.878H279.871V113.463H280.456V112.878H283.969V113.463H284.554V114.049H285.139V114.634H284.554V115.22H283.969V115.805H283.383V116.39H282.798V115.805H282.212V115.22H280.456ZM289.246 109.366V124H286.319V109.366H289.246ZM294.519 121.073V121.659H296.861V121.073H297.446V120.488H300.373V121.659H299.788V122.829H299.202V123.415H298.032V124H293.349V123.415H292.178V122.829H291.593V121.659H291.007V115.22H291.593V114.049H292.178V113.463H293.349V112.878H298.032V113.463H299.202V114.049H299.788V115.22H300.373V119.317H293.934V121.073H294.519ZM293.934 115.805V117.561H297.446V115.805H296.861V115.22H294.519V115.805H293.934ZM310.926 121.073V121.659H313.267V121.073H313.853V120.488H316.779V121.659H316.194V122.829H315.609V123.415H314.438V124H309.755V123.415H308.584V122.829H307.999V121.659H307.413V115.22H307.999V114.049H308.584V113.463H309.755V112.878H314.438V113.463H315.609V114.049H316.194V115.22H316.779V119.317H310.34V121.073H310.926ZM310.34 115.805V117.561H313.853V115.805H313.267V115.22H310.926V115.805H310.34ZM322.058 115.22V115.805H321.473V124H318.546V112.878H321.473V113.463H322.058V112.878H325.57V113.463H326.741V114.049H327.326V115.22H327.912V124H324.985V115.805H324.399V115.22H322.058ZM332.02 120.488V121.073H332.605V121.659H334.947V121.073H335.532V119.902H334.947V119.317H331.435V118.732H330.264V118.146H329.679V116.976H329.093V115.22H329.679V114.049H330.264V113.463H331.435V112.878H336.118V113.463H337.288V114.049H337.874V115.805H334.947V115.22H332.605V115.805H332.02V116.39H332.605V116.976H336.118V117.561H337.288V118.146H337.874V119.317H338.459V121.659H337.874V122.829H337.288V123.415H336.118V124H331.435V123.415H330.264V122.829H329.679V121.659H329.093V120.488H332.02ZM343.152 121.073V121.659H345.494V121.073H346.079V120.488H349.006V121.659H348.421V122.829H347.835V123.415H346.664V124H341.982V123.415H340.811V122.829H340.225V121.659H339.64V115.22H340.225V114.049H340.811V113.463H341.982V112.878H346.664V113.463H347.835V114.049H348.421V115.22H349.006V119.317H342.567V121.073H343.152ZM342.567 115.805V117.561H346.079V115.805H345.494V115.22H343.152V115.805H342.567ZM354.284 115.22V115.805H353.699V124H350.772V112.878H353.699V113.463H354.284V112.878H357.211V113.463H357.797V114.049H358.382V113.463H358.967V112.878H361.894V113.463H363.065V114.049H363.65V115.22H364.236V124H361.309V115.805H360.724V115.22H359.553V115.805H358.967V124H356.041V115.805H355.455V115.22H354.284ZM374.764 115.22H375.349V121.659H374.764V122.829H374.178V123.415H373.008V124H365.983V109.366H368.91V113.463H369.495V112.878H373.008V113.463H374.178V114.049H374.764V115.22ZM371.837 121.073H372.422V115.805H371.837V115.22H369.495V115.805H368.91V121.659H371.837V121.073ZM380.043 109.366V124H377.116V109.366H380.043ZM385.316 121.073V121.659H387.658V121.073H388.243V120.488H391.17V121.659H390.585V122.829H389.999V123.415H388.829V124H384.146V123.415H382.975V122.829H382.389V121.659H381.804V115.22H382.389V114.049H382.975V113.463H384.146V112.878H388.829V113.463H389.999V114.049H390.585V115.22H391.17V119.317H384.731V121.073H385.316ZM384.731 115.805V117.561H388.243V115.805H387.658V115.22H385.316V115.805H384.731ZM401.723 109.366V118.146H401.137V118.732H400.552V119.317H399.966V118.732H399.381V118.146H398.796V109.366H401.723ZM401.723 121.073V124H398.796V121.073H401.723ZM39.6829 144.488V145.073H41.439V144.488H42.0244V133.366H44.9512V145.659H44.3659V146.829H43.7805V147.415H42.6098V148H38.5122V147.415H37.3415V146.829H36.7561V145.659H36.1707V142.732H39.0976V144.488H39.6829ZM50.2304 145.073V145.659H52.5718V145.073H53.1572V144.488H56.084V145.659H55.4987V146.829H54.9133V147.415H53.7426V148H49.0596V147.415H47.8889V146.829H47.3035V145.659H46.7182V139.22H47.3035V138.049H47.8889V137.463H49.0596V136.878H53.7426V137.463H54.9133V138.049H55.4987V139.22H56.084V143.317H49.645V145.073H50.2304ZM49.645 139.805V141.561H53.1572V139.805H52.5718V139.22H50.2304V139.805H49.645ZM66.0513 144.488V145.073H66.6366V145.659H68.9781V145.073H69.5635V143.902H68.9781V143.317H65.4659V142.732H64.2952V142.146H63.7098V140.976H63.1244V139.22H63.7098V138.049H64.2952V137.463H65.4659V136.878H70.1488V137.463H71.3195V138.049H71.9049V139.805H68.9781V139.22H66.6366V139.805H66.0513V140.39H66.6366V140.976H70.1488V141.561H71.3195V142.146H71.9049V143.317H72.4903V145.659H71.9049V146.829H71.3195V147.415H70.1488V148H65.4659V147.415H64.2952V146.829H63.7098V145.659H63.1244V144.488H66.0513ZM74.2567 146.829V145.659H73.6713V136.878H76.5981V145.073H77.1835V145.659H79.525V145.073H80.1103V136.878H83.0372V148H80.1103V147.415H79.525V148H76.0128V147.415H74.842V146.829H74.2567ZM88.3163 133.366V135.707H85.3895V133.366H88.3163ZM88.3163 137.463V148H85.3895V137.463H88.3163ZM93.0044 144.488V145.073H93.5897V145.659H95.9312V145.073H96.5166V143.902H95.9312V143.317H92.419V142.732H91.2483V142.146H90.6629V140.976H90.0776V139.22H90.6629V138.049H91.2483V137.463H92.419V136.878H97.1019V137.463H98.2727V138.049H98.858V139.805H95.9312V139.22H93.5897V139.805H93.0044V140.39H93.5897V140.976H97.1019V141.561H98.2727V142.146H98.858V143.317H99.4434V145.659H98.858V146.829H98.2727V147.415H97.1019V148H92.419V147.415H91.2483V146.829H90.6629V145.659H90.0776V144.488H93.0044ZM113.508 147.415V148H108.825V147.415H107.655V146.829H107.069V145.659H106.484V139.22H107.069V138.049H107.655V137.463H108.825V136.878H113.508V137.463H114.679V138.049H115.264V139.22H115.85V145.659H115.264V146.829H114.679V147.415H113.508ZM109.996 145.073V145.659H112.337V145.073H112.923V139.805H112.337V139.22H109.996V139.805H109.411V145.073H109.996ZM117.616 146.829V145.659H117.031V136.878H119.958V145.073H120.543V145.659H122.884V145.073H123.47V136.878H126.397V148H123.47V147.415H122.884V148H119.372V147.415H118.201V146.829H117.616ZM132.261 143.902V144.488H132.846V145.073H134.017V144.488H134.603V143.902H135.188V136.878H138.115V144.488H137.529V145.073H136.944V145.659H136.359V146.244H135.773V146.829H135.188V147.415H134.603V148H132.261V147.415H131.676V146.829H131.09V146.244H130.505V145.659H129.92V145.073H129.334V144.488H128.749V136.878H131.676V143.902H132.261ZM143.394 145.073V145.659H145.736V145.073H146.321V144.488H149.248V145.659H148.663V146.829H148.077V147.415H146.907V148H142.224V147.415H141.053V146.829H140.468V145.659H139.882V139.22H140.468V138.049H141.053V137.463H142.224V136.878H146.907V137.463H148.077V138.049H148.663V139.22H149.248V143.317H142.809V145.073H143.394ZM142.809 139.805V141.561H146.321V139.805H145.736V139.22H143.394V139.805H142.809ZM154.527 139.22V139.805H153.941V148H151.014V136.878H153.941V137.463H154.527V136.878H158.039V137.463H158.624V138.049H159.21V138.634H158.624V139.22H158.039V139.805H157.454V140.39H156.868V139.805H156.283V139.22H154.527ZM163.902 145.073V145.659H165.658V148H162.731V147.415H161.56V146.829H160.975V145.659H160.389V139.805H159.219V137.463H160.389V136.293H160.975V135.707H161.56V135.122H162.146V134.537H162.731V133.951H163.316V137.463H165.658V139.805H163.316V145.073H163.902ZM179.134 133.951V135.707H177.378V135.122H176.792V134.537H176.207V133.951H175.622V132.195H177.378V132.78H177.963V133.366H178.548V133.951H179.134ZM176.207 143.317V143.902H175.622V145.073H176.207V145.659H178.548V145.073H179.134V143.317H176.207ZM173.28 146.829V145.659H172.695V143.902H173.28V142.732H173.865V142.146H175.036V141.561H179.134V139.805H178.548V139.22H176.207V139.805H175.622V140.39H172.695V139.22H173.28V138.049H173.865V137.463H175.036V136.878H179.719V137.463H180.89V138.049H181.475V139.22H182.061V148H179.134V147.415H178.548V148H174.451V147.415H173.865V146.829H173.28ZM193.784 145.073V145.659H195.541V148H192.614V147.415H191.443V146.829H190.858V145.659H190.272V139.805H189.102V137.463H190.272V136.293H190.858V135.707H191.443V135.122H192.028V134.537H192.614V133.951H193.199V137.463H195.541V139.805H193.199V145.073H193.784ZM203.743 147.415V148H199.06V147.415H197.889V146.829H197.304V145.659H196.718V139.22H197.304V138.049H197.889V137.463H199.06V136.878H203.743V137.463H204.913V138.049H205.499V139.22H206.084V145.659H205.499V146.829H204.913V147.415H203.743ZM200.23 145.073V145.659H202.572V145.073H203.157V139.805H202.572V139.22H200.23V139.805H199.645V145.073H200.23ZM207.85 146.829V145.659H207.265V136.878H210.192V145.073H210.777V145.659H213.119V145.073H213.704V136.878H216.631V148H213.704V147.415H213.119V148H209.607V147.415H208.436V146.829H207.85ZM222.495 145.073V145.659H224.252V148H221.325V147.415H220.154V146.829H219.569V145.659H218.983V139.805H217.812V137.463H218.983V136.293H219.569V135.707H220.154V135.122H220.739V134.537H221.325V133.951H221.91V137.463H224.252V139.805H221.91V145.073H222.495ZM231.874 136.878H234.801V137.463H235.386V136.878H238.898V137.463H240.069V138.049H240.654V139.22H241.24V145.659H240.654V146.829H240.069V147.415H238.898V148H234.801V151.512H231.874V136.878ZM237.728 145.073H238.313V139.805H237.728V139.22H235.386V139.805H234.801V145.659H237.728V145.073ZM246.519 139.22V139.805H245.933V148H243.007V136.878H245.933V137.463H246.519V136.878H250.031V137.463H250.616V138.049H251.202V138.634H250.616V139.22H250.031V139.805H249.446V140.39H248.86V139.805H248.275V139.22H246.519ZM258.821 147.415V148H254.138V147.415H252.967V146.829H252.382V145.659H251.796V139.22H252.382V138.049H252.967V137.463H254.138V136.878H258.821V137.463H259.991V138.049H260.577V139.22H261.162V145.659H260.577V146.829H259.991V147.415H258.821ZM255.308 145.073V145.659H257.65V145.073H258.235V139.805H257.65V139.22H255.308V139.805H254.723V145.073H255.308ZM266.441 133.366V135.707H263.514V133.366H266.441ZM265.855 149.171V150.341H265.27V150.927H264.099V151.512H261.758V149.171H262.929V148.585H263.514V137.463H266.441V149.171H265.855ZM271.715 145.073V145.659H274.056V145.073H274.642V144.488H277.568V145.659H276.983V146.829H276.398V147.415H275.227V148H270.544V147.415H269.373V146.829H268.788V145.659H268.203V139.22H268.788V138.049H269.373V137.463H270.544V136.878H275.227V137.463H276.398V138.049H276.983V139.22H277.568V143.317H271.129V145.073H271.715ZM271.129 139.805V141.561H274.642V139.805H274.056V139.22H271.715V139.805H271.129ZM282.847 145.073V145.659H284.603V148H281.676V147.415H280.506V146.829H279.92V145.659H279.335V139.805H278.164V137.463H279.335V136.293H279.92V135.707H280.506V135.122H281.091V134.537H281.676V133.951H282.262V137.463H284.603V139.805H282.262V145.073H282.847ZM295.152 133.366V142.146H294.567V142.732H293.982V143.317H293.396V142.732H292.811V142.146H292.225V133.366H295.152ZM295.152 145.073V148H292.225V145.073H295.152Z" fill="#00B99B"/>
<rect x="587.632" y="108.186" width="6.79465" height="9.51252" fill="#00B99B"/>
<rect x="614.81" y="108.186" width="6.79465" height="9.51252" fill="#00B99B"/>
<rect x="611.186" y="97.768" width="13.5893" height="3.62382" fill="#00B99B"/>
<rect x="624.323" y="101.392" width="3.62382" height="3.62382" fill="#00B99B"/>
<rect x="631.117" y="94.5971" width="3.62382" height="9.96549" fill="#00B99B"/>
<rect x="634.288" y="100.939" width="14.9482" height="3.62382" fill="#00B99B"/>
<rect x="634.741" y="102.298" width="3.62382" height="9.05954" fill="#00B99B"/>
<rect x="644.707" y="98.2209" width="4.52977" height="9.05954" fill="#00B99B"/>
<rect x="644.707" y="104.109" width="6.79465" height="3.62382" fill="#00B99B"/>
<rect x="652.86" y="97.768" width="3.62382" height="6.79465" fill="#00B99B"/>
<rect x="655.578" y="105.016" width="3.62382" height="2.71786" fill="#00B99B"/>
<rect x="651.954" y="107.733" width="3.62382" height="3.17084" fill="#00B99B"/>
<rect x="655.125" y="111.357" width="3.62382" height="6.34168" fill="#00B99B"/>
<rect x="658.749" y="107.733" width="7.24763" height="3.17084" fill="#00B99B"/>
<rect x="668.714" y="104.563" width="3.62382" height="3.17084" fill="#00B99B"/>
<rect x="671.885" y="107.733" width="3.62382" height="3.17084" fill="#00B99B"/>
<rect x="668.714" y="111.357" width="3.62382" height="3.17084" fill="#00B99B"/>
<rect x="665.091" y="114.528" width="3.62382" height="3.17084" fill="#00B99B"/>
<rect x="661.92" y="118.152" width="3.62382" height="3.17084" fill="#00B99B"/>
<rect x="658.296" y="121.323" width="3.62382" height="3.17084" fill="#00B99B"/>
<rect x="651.501" y="117.699" width="3.62382" height="3.17084" fill="#00B99B"/>
<rect x="642.442" y="108.186" width="3.62382" height="3.17084" fill="#00B99B"/>
<rect x="638.365" y="110.904" width="3.62382" height="3.62382" fill="#00B99B"/>
<rect x="634.741" y="134.459" width="3.62382" height="3.62382" fill="#00B99B"/>
<rect x="631.57" y="138.083" width="3.62382" height="3.62382" fill="#00B99B"/>
<rect x="627.947" y="141.707" width="3.62382" height="3.62382" fill="#00B99B"/>
<rect x="621.152" y="144.425" width="6.79465" height="3.62382" fill="#00B99B"/>
<rect x="597.597" y="151.672" width="20.8369" height="3.62382" fill="#00B99B"/>
<rect x="617.981" y="148.048" width="3.62382" height="3.62382" fill="#00B99B"/>
<rect x="593.973" y="145.33" width="3.62382" height="6.34168" fill="#00B99B"/>
<rect x="590.802" y="141.707" width="3.62382" height="3.62382" fill="#00B99B"/>
<rect x="587.632" y="138.083" width="3.62382" height="3.62382" fill="#00B99B"/>
<rect x="584.008" y="134.912" width="3.62382" height="3.62382" fill="#00B99B"/>
<rect x="580.837" y="128.57" width="3.62382" height="6.34168" fill="#00B99B"/>
<rect x="597.597" y="133.553" width="3.62382" height="6.79465" fill="#00B99B"/>
<rect x="600.768" y="136.724" width="14.0423" height="3.62382" fill="#00B99B"/>
<rect x="598.503" y="127.664" width="6.79465" height="3.62382" fill="#00B99B"/>
<rect x="604.845" y="124.494" width="4.07679" height="3.62382" fill="#00B99B"/>
<rect x="595.332" y="124.494" width="4.07679" height="3.62382" fill="#00B99B"/>
<rect x="587.632" y="97.768" width="7.24763" height="3.62382" fill="#00B99B"/>
<rect x="584.461" y="100.939" width="3.17084" height="3.62382" fill="#00B99B"/>
<rect x="580.837" y="90.9733" width="3.62382" height="6.34168" fill="#00B99B"/>
<rect x="584.008" y="87.8024" width="3.62382" height="3.17084" fill="#00B99B"/>
<rect x="587.632" y="81.0078" width="3.62382" height="6.79465" fill="#00B99B"/>
<rect x="591.255" y="77.8369" width="3.62382" height="3.17084" fill="#00B99B"/>
<rect x="594.426" y="73.7602" width="6.34168" height="3.62382" fill="#00B99B"/>
<rect x="601.221" y="77.384" width="9.51252" height="3.62382" fill="#00B99B"/>
<rect x="604.392" y="70.5893" width="3.62382" height="13.5893" fill="#00B99B"/>
<rect x="610.733" y="74.2131" width="7.70061" height="3.62382" fill="#00B99B"/>
<rect x="607.563" y="66.9655" width="14.4953" height="3.62382" fill="#00B99B"/>
<rect x="598.05" y="66.9655" width="6.79465" height="3.62382" fill="#00B99B"/>
<rect x="621.605" y="81.0078" width="3.62382" height="6.79465" fill="#00B99B"/>
<rect x="624.776" y="74.2131" width="6.79465" height="3.62382" fill="#00B99B"/>
<rect x="621.152" y="70.5893" width="3.62382" height="3.62382" fill="#00B99B"/>
<rect x="618.434" y="77.8369" width="3.17084" height="2.71786" fill="#00B99B"/>
<rect x="624.776" y="87.8024" width="3.62382" height="3.17084" fill="#00B99B"/>
<rect x="627.494" y="90.9733" width="4.07679" height="3.62382" fill="#00B99B"/>
<rect x="637.912" y="90.9733" width="4.07679" height="3.62382" fill="#00B99B"/>
<rect x="641.989" y="94.5971" width="3.62382" height="3.17084" fill="#00B99B"/>
<rect x="658.296" y="90.5203" width="3.62382" height="3.62382" fill="#00B99B"/>
<rect x="661.92" y="77.384" width="3.17084" height="3.62382" fill="#00B99B"/>
<rect x="658.749" y="74.2131" width="3.17084" height="3.62382" fill="#00B99B"/>
<rect x="648.783" y="70.5893" width="9.51252" height="3.62382" fill="#00B99B"/>
<rect x="641.989" y="66.9655" width="6.34168" height="3.62382" fill="#00B99B"/>
<rect x="635.194" y="63.7946" width="6.34168" height="3.62382" fill="#00B99B"/>
<rect x="631.57" y="60.6238" width="3.62382" height="3.17084" fill="#00B99B"/>
<rect x="611.186" y="60.6238" width="3.62382" height="3.17084" fill="#00B99B"/>
<rect x="604.845" y="60.6238" width="3.62382" height="3.17084" fill="#00B99B"/>
<rect x="593.973" y="60.1708" width="3.62382" height="3.62382" fill="#00B99B"/>
<rect x="580.837" y="66.9655" width="3.62382" height="3.62382" fill="#00B99B"/>
<rect x="577.666" y="71.0422" width="3.62382" height="2.71786" fill="#00B99B"/>
<rect x="567.248" y="90.9733" width="3.62382" height="2.71786" fill="#00B99B"/>
<rect x="564.077" y="94.1442" width="3.62382" height="3.62382" fill="#00B99B"/>
<rect x="567.248" y="104.109" width="3.62382" height="3.62382" fill="#00B99B"/>
<rect x="563.624" y="110.904" width="3.62382" height="3.62382" fill="#00B99B"/>
<rect x="567.248" y="114.528" width="3.62382" height="3.17084" fill="#00B99B"/>
<rect x="570.418" y="118.152" width="8.15358" height="3.62382" fill="#00B99B"/>
<rect x="571.324" y="100.486" width="6.79465" height="4.52977" fill="#00B99B"/>
<rect x="560" y="97.768" width="3.62382" height="13.1363" fill="#00B99B"/>
<rect x="573.589" y="73.7602" width="3.62382" height="6.79465" fill="#00B99B"/>
<rect x="570.418" y="81.0078" width="3.62382" height="9.51252" fill="#00B99B"/>
<rect x="584.461" y="63.7946" width="9.51252" height="3.62382" fill="#00B99B"/>
<rect x="597.597" y="57" width="7.24763" height="3.62382" fill="#00B99B"/>
<rect x="607.563" y="63.7946" width="3.62382" height="4.07679" fill="#00B99B"/>
<rect x="614.357" y="57" width="17.2131" height="3.62382" fill="#00B99B"/>
<rect x="665.544" y="81.0078" width="3.62382" height="23.1018" fill="#00B99B"/>
<rect x="661.467" y="94.5971" width="3.62382" height="3.17084" fill="#00B99B"/>
<rect x="577.213" y="97.768" width="3.62382" height="30.3495" fill="#00B99B"/>
<rect x="638.365" y="124.494" width="3.62382" height="9.96549" fill="#00B99B"/>
<rect x="641.083" y="128.117" width="10.4185" height="3.17084" fill="#00B99B"/>
<rect x="641.989" y="118.152" width="3.62382" height="5.8887" fill="#00B99B"/>
<rect x="651.954" y="124.494" width="6.34168" height="3.62382" fill="#00B99B"/>
<rect x="641.989" y="121.776" width="9.96549" height="3.62382" fill="#00B99B"/>
<path d="M491.345 2H15C7.8203 2 2 7.82029 2 15V170C2 177.18 7.82031 183 15 183H491.345C498.525 183 504.345 177.18 504.345 170V118H548.5L504.345 78V15C504.345 7.8203 498.525 2 491.345 2Z" stroke="#00B99B" stroke-width="3"/>
</svg>
