<svg width="36" height="38" viewBox="0 0 36 38" fill="none" xmlns="http://www.w3.org/2000/svg">
<path d="M28.7953 0V1.805H32.3976V3.62187H34.1929V5.42688H30.6024V3.62187H28.7953V1.805H21.6024V3.62187H25.1929V5.42688H27V7.23188H23.3976V5.42688H21.6024V3.62187H14.3976V5.42688H18V7.23188H19.7953V9.04875H16.2047V7.23188H14.3976V5.42688H7.20473V7.23188H10.7953V9.04875H12.6024V10.8538H9V9.04875H7.20473V7.23188H0V36.1831H1.80709V23.5244H34.1929V36.1831H36V16.2806H1.80709V14.4756H7.20473V12.6587H14.3976V10.8538H21.6024V9.04875H28.7953V7.23188H36V0H28.7953ZM28.7953 19.9025H30.6024V18.0975H34.1929V19.9025H32.3976V21.7075H28.7953V19.9025ZM19.7953 19.9025H21.6024V18.0975H25.1929V19.9025H23.3976V21.7075H19.7953V19.9025ZM10.7953 19.9025H12.6024V18.0975H16.2047V19.9025H14.3976V21.7075H10.7953V19.9025ZM3.60236 19.9025V18.0975H7.20473V19.9025H5.39764V21.7075H1.80709V19.9025H3.60236ZM5.39764 12.6587H1.80709V9.04875H3.60236V10.8538H5.39764V12.6587ZM1.80709 36.1831H34.1929V38H1.80709V36.1831Z" fill="#00B99B"/>
</svg>
