<svg width="38" height="38" viewBox="0 0 38 38" fill="none" xmlns="http://www.w3.org/2000/svg">
<path d="M9.5 1.58337V3.16671H7.91667V4.75004H6.33334V6.33337H4.75001V7.91671H3.16667V30.0834H11.0833V36.4167H12.6667V34.8334H14.25V33.25H15.8333V31.6667H17.4167V30.0834H23.75V28.5H25.3333V26.9167H26.9167V25.3334H28.5V23.75H30.0833V22.1667H31.6667V20.5834H33.25V19H34.8333V1.58337H9.5ZM31.6667 19H30.0833V20.5834H28.5V22.1667H20.5833V23.75H19V25.3334H17.4167V26.9167H15.8333V22.1667H11.0833V4.75004H31.6667V19Z" fill="#00B99B"/>
<path d="M25.3333 7.91663H28.5V15.8333H25.3333V7.91663ZM17.4167 7.91663H20.5833V15.8333H17.4167V7.91663Z" fill="#00B99B"/>
</svg>
