<svg width="38" height="38" viewBox="0 0 38 38" fill="none" xmlns="http://www.w3.org/2000/svg">
<g clip-path="url(#clip0_159_445)">
<path d="M36.1831 14.4756H38V23.5244H36.1831V14.4756ZM34.3781 3.62187V0H32.5731V1.805H30.7562V3.62187H28.9512V9.04875H34.3781V7.24375H36.1831V5.42688H38V3.62187H34.3781ZM34.3781 23.5244H36.1831V27.1463H34.3781V23.5244ZM34.3781 10.8538H36.1831V14.4756H34.3781V10.8538ZM32.5731 27.1463H34.3781V30.7681H32.5731V27.1463ZM30.7562 30.7681H32.5731V32.5731H30.7562V30.7681ZM27.1462 32.5731H30.7562V34.3781H27.1462V32.5731ZM27.1462 9.04875H28.9512V10.8538H27.1462V9.04875ZM25.3294 10.8538H27.1462V12.6706H25.3294V10.8538ZM23.5244 34.3781H27.1462V36.195H23.5244V34.3781ZM23.5244 16.2925H25.3294V21.7194H23.5244V16.2925ZM23.5244 12.6706H25.3294V14.4756H23.5244V12.6706ZM23.5244 1.805H27.1462V3.62187H23.5244V1.805ZM21.7075 21.7194H23.5244V23.5244H21.7075V21.7194ZM21.7075 14.4756H23.5244V16.2925H21.7075V14.4756ZM14.4756 36.195H23.5244V38H14.4756V36.195ZM19.9025 16.2925H21.7075V18.0975H19.9025V16.2925ZM16.2806 23.5244H21.7075V25.3294H16.2806V23.5244ZM18.0975 18.0975H19.9025V19.9025H18.0975V18.0975ZM16.2806 12.6706H21.7075V14.4756H16.2806V12.6706ZM14.4756 0H23.5244V1.805H14.4756V0ZM14.4756 21.7194H16.2806V23.5244H14.4756V21.7194ZM14.4756 14.4756H16.2806V16.2925H14.4756V14.4756ZM10.8537 34.3781H14.4756V36.195H10.8537V34.3781ZM12.6587 16.2925H14.4756V21.7194H12.6587V16.2925ZM10.8537 1.805H14.4756V3.62187H10.8537V1.805ZM7.23187 32.5731H10.8537V34.3781H7.23187V32.5731ZM7.23187 3.62187H10.8537V5.42688H7.23187V3.62187Z" fill="#00B99B"/>
<path d="M9.04875 14.4756H10.8538V10.8538H14.4756V9.04875H25.3294V7.24375H23.5244V5.42688H14.4756V7.24375H10.8538V9.04875H9.04875V10.8538H7.23188V14.4756H5.42688V23.5244H7.23188V27.1463H9.04875V28.9513H10.8538V30.7681H14.4756V32.5731H23.5244V30.7681H27.1463V28.9513H28.9512V27.1463H30.7562V23.5244H32.5731V14.4756H30.7562V12.6706H28.9512V23.5244H27.1463V27.1463H25.3294V28.9513H14.4756V27.1463H10.8538V23.5244H9.04875V14.4756ZM5.42688 30.7681H7.23188V32.5731H5.42688V30.7681ZM5.42688 5.42688H7.23188V7.24375H5.42688V5.42688ZM3.62187 27.1463H5.42688V30.7681H3.62187V27.1463ZM3.62187 7.24375H5.42688V10.8538H3.62187V7.24375ZM1.805 23.5244H3.62187V27.1463H1.805V23.5244ZM1.805 10.8538H3.62187V14.4756H1.805V10.8538ZM0 14.4756H1.805V23.5244H0V14.4756Z" fill="#00B99B"/>
</g>
<defs>
<clipPath id="clip0_159_445">
<rect width="38" height="38" fill="white"/>
</clipPath>
</defs>
</svg>
