<svg width="16" height="16" viewBox="0 0 16 16" fill="none" xmlns="http://www.w3.org/2000/svg">
<rect y="3" width="16" height="1" fill="#04051A"/>
<rect y="12" width="16" height="1" fill="#04051A"/>
<rect y="3" width="1" height="10" fill="#04051A"/>
<rect x="15" y="3" width="1" height="10" fill="#04051A"/>
<rect y="3" width="2" height="2" fill="#04051A"/>
<rect x="2" y="5" width="1" height="1" fill="#04051A"/>
<rect x="3" y="6" width="1" height="1" fill="#04051A"/>
<rect x="4" y="7" width="1" height="1" fill="#04051A"/>
<rect x="5" y="8" width="1" height="1" fill="#04051A"/>
<rect x="6" y="9" width="1" height="1" fill="#04051A"/>
<rect x="7" y="10" width="2" height="1" fill="#04051A"/>
<rect x="14" y="3" width="2" height="2" fill="#04051A"/>
<rect x="13" y="5" width="1" height="1" fill="#04051A"/>
<rect x="12" y="6" width="1" height="1" fill="#04051A"/>
<rect x="11" y="7" width="1" height="1" fill="#04051A"/>
<rect x="10" y="8" width="1" height="1" fill="#04051A"/>
<rect x="9" y="9" width="1" height="1" fill="#04051A"/>
</svg>
