<svg width="457" height="270" viewBox="0 0 457 270" fill="none" xmlns="http://www.w3.org/2000/svg">
<path d="M44.6829 34.4878V35.0732H47.6098V34.4878H48.1951V33.3171H51.122V35.6585H50.5366V36.8293H49.9512V37.4146H48.7805V38H43.5122V37.4146H42.3415V36.8293H41.7561V35.6585H41.1707V25.7073H41.7561V24.5366H42.3415V23.9512H43.5122V23.3659H48.7805V23.9512H49.9512V24.5366H50.5366V25.7073H51.122V28.0488H48.1951V26.878H47.6098V26.2927H44.6829V26.878H44.0976V34.4878H44.6829ZM59.891 37.4146V38H55.2081V37.4146H54.0373V36.8293H53.452V35.6585H52.8666V29.2195H53.452V28.0488H54.0373V27.4634H55.2081V26.878H59.891V27.4634H61.0617V28.0488H61.6471V29.2195H62.2325V35.6585H61.6471V36.8293H61.0617V37.4146H59.891ZM56.3788 35.0732V35.6585H58.7203V35.0732H59.3056V29.8049H58.7203V29.2195H56.3788V29.8049H55.7934V35.0732H56.3788ZM67.5111 29.2195V29.8049H66.9257V38H63.9989V26.878H66.9257V27.4634H67.5111V26.878H70.4379V27.4634H71.0232V28.0488H71.6086V27.4634H72.194V26.878H75.1208V27.4634H76.2915V28.0488H76.8769V29.2195H77.4623V38H74.5354V29.8049H73.9501V29.2195H72.7793V29.8049H72.194V38H69.2671V29.8049H68.6818V29.2195H67.5111ZM82.722 29.2195V29.8049H82.1366V38H79.2098V26.878H82.1366V27.4634H82.722V26.878H85.6488V27.4634H86.2342V28.0488H86.8195V27.4634H87.4049V26.878H90.3317V27.4634H91.5025V28.0488H92.0878V29.2195H92.6732V38H89.7464V29.8049H89.161V29.2195H87.9903V29.8049H87.4049V38H84.4781V29.8049H83.8927V29.2195H82.722ZM97.3476 35.0732V35.6585H99.689V35.0732H100.274V34.4878H103.201V35.6585H102.616V36.8293H102.03V37.4146H100.86V38H96.1768V37.4146H95.0061V36.8293H94.4207V35.6585H93.8354V29.2195H94.4207V28.0488H95.0061V27.4634H96.1768V26.878H100.86V27.4634H102.03V28.0488H102.616V29.2195H103.201V33.3171H96.7622V35.0732H97.3476ZM96.7622 29.8049V31.561H100.274V29.8049H99.689V29.2195H97.3476V29.8049H96.7622ZM119.607 29.2195H120.193V35.6585H119.607V36.8293H119.022V37.4146H117.851V38H110.827V23.3659H113.754V27.4634H114.339V26.878H117.851V27.4634H119.022V28.0488H119.607V29.2195ZM116.681 35.0732H117.266V29.8049H116.681V29.2195H114.339V29.8049H113.754V35.6585H116.681V35.0732ZM124.887 35.0732V35.6585H127.228V35.0732H127.813V34.4878H130.74V35.6585H130.155V36.8293H129.57V37.4146H128.399V38H123.716V37.4146H122.545V36.8293H121.96V35.6585H121.374V29.2195H121.96V28.0488H122.545V27.4634H123.716V26.878H128.399V27.4634H129.57V28.0488H130.155V29.2195H130.74V33.3171H124.301V35.0732H124.887ZM124.301 29.8049V31.561H127.813V29.8049H127.228V29.2195H124.887V29.8049H124.301ZM135.433 33.3171V33.9024H134.848V35.0732H135.433V35.6585H137.775V35.0732H138.36V33.3171H135.433ZM132.507 36.8293V35.6585H131.921V33.9024H132.507V32.7317H133.092V32.1463H134.263V31.561H138.36V29.8049H137.775V29.2195H135.433V29.8049H134.848V30.3902H131.921V29.2195H132.507V28.0488H133.092V27.4634H134.263V26.878H138.946V27.4634H140.116V28.0488H140.702V29.2195H141.287V38H138.36V37.4146H137.775V38H133.677V37.4146H133.092V36.8293H132.507ZM143.639 36.8293V35.6585H143.054V26.878H145.981V35.0732H146.566V35.6585H148.908V35.0732H149.493V26.878H152.42V38H149.493V37.4146H148.908V38H145.396V37.4146H144.225V36.8293H143.639ZM157.699 35.0732V35.6585H160.041V35.0732H160.626V33.9024H163.553V35.6585H162.967V36.8293H162.382V37.4146H161.211V38H156.528V37.4146H155.358V36.8293H154.772V35.6585H154.187V29.2195H154.772V28.0488H155.358V27.4634H156.528V26.878H161.211V27.4634H162.382V28.0488H162.967V29.2195H163.553V30.9756H160.626V29.8049H160.041V29.2195H157.699V29.8049H157.114V35.0732H157.699ZM171.758 37.4146V38H167.075V37.4146H165.905V36.8293H165.319V35.6585H164.734V29.2195H165.319V28.0488H165.905V27.4634H167.075V26.878H171.758V27.4634H172.929V28.0488H173.514V29.2195H174.1V35.6585H173.514V36.8293H172.929V37.4146H171.758ZM168.246 35.0732V35.6585H170.587V35.0732H171.173V29.8049H170.587V29.2195H168.246V29.8049H167.661V35.0732H168.246ZM175.866 36.8293V35.6585H175.281V26.878H178.208V35.0732H178.793V35.6585H181.134V35.0732H181.72V26.878H184.647V38H181.72V37.4146H181.134V38H177.622V37.4146H176.451V36.8293H175.866ZM186.999 26.878H189.926V27.4634H190.511V26.878H194.023V27.4634H195.194V28.0488H195.779V29.2195H196.365V35.6585H195.779V36.8293H195.194V37.4146H194.023V38H189.926V41.5122H186.999V26.878ZM192.853 35.0732H193.438V29.8049H192.853V29.2195H190.511V29.8049H189.926V35.6585H192.853V35.0732ZM206.918 35.0732V35.6585H209.259V35.0732H209.845V29.2195H206.918V29.8049H206.333V35.0732H206.918ZM203.991 29.2195V28.0488H204.576V27.4634H205.747V26.878H209.845V23.3659H212.772V38H209.845V37.4146H209.259V38H205.747V37.4146H204.576V36.8293H203.991V35.6585H203.406V29.2195H203.991ZM218.051 35.0732V35.6585H220.392V35.0732H220.978V34.4878H223.904V35.6585H223.319V36.8293H222.734V37.4146H221.563V38H216.88V37.4146H215.709V36.8293H215.124V35.6585H214.538V29.2195H215.124V28.0488H215.709V27.4634H216.88V26.878H221.563V27.4634H222.734V28.0488H223.319V29.2195H223.904V33.3171H217.465V35.0732H218.051ZM217.465 29.8049V31.561H220.978V29.8049H220.392V29.2195H218.051V29.8049H217.465ZM234.457 35.0732V35.6585H236.798V35.0732H237.384V33.9024H240.311V35.6585H239.725V36.8293H239.14V37.4146H237.969V38H233.286V37.4146H232.115V36.8293H231.53V35.6585H230.945V29.2195H231.53V28.0488H232.115V27.4634H233.286V26.878H237.969V27.4634H239.14V28.0488H239.725V29.2195H240.311V30.9756H237.384V29.8049H236.798V29.2195H234.457V29.8049H233.872V35.0732H234.457ZM245.589 29.2195V29.8049H245.004V38H242.077V26.878H245.004V27.4634H245.589V26.878H249.101V27.4634H249.687V28.0488H250.272V28.6341H249.687V29.2195H249.101V29.8049H248.516V30.3902H247.931V29.8049H247.345V29.2195H245.589ZM254.379 23.9512V23.3659H254.964V22.7805H255.55V22.1951H257.306V23.9512H256.72V24.5366H256.135V25.122H255.55V25.7073H253.793V23.9512H254.379ZM254.379 35.0732V35.6585H256.72V35.0732H257.306V34.4878H260.232V35.6585H259.647V36.8293H259.062V37.4146H257.891V38H253.208V37.4146H252.037V36.8293H251.452V35.6585H250.867V29.2195H251.452V28.0488H252.037V27.4634H253.208V26.878H257.891V27.4634H259.062V28.0488H259.647V29.2195H260.232V33.3171H253.793V35.0732H254.379ZM253.793 29.8049V31.561H257.306V29.8049H256.72V29.2195H254.379V29.8049H253.793ZM264.926 33.3171V33.9024H264.34V35.0732H264.926V35.6585H267.267V35.0732H267.853V33.3171H264.926ZM261.999 36.8293V35.6585H261.413V33.9024H261.999V32.7317H262.584V32.1463H263.755V31.561H267.853V29.8049H267.267V29.2195H264.926V29.8049H264.34V30.3902H261.413V29.2195H261.999V28.0488H262.584V27.4634H263.755V26.878H268.438V27.4634H269.609V28.0488H270.194V29.2195H270.779V38H267.853V37.4146H267.267V38H263.17V37.4146H262.584V36.8293H261.999ZM276.644 35.0732V35.6585H278.4V38H275.473V37.4146H274.302V36.8293H273.717V35.6585H273.132V29.8049H271.961V27.4634H273.132V26.2927H273.717V25.7073H274.302V25.122H274.888V24.5366H275.473V23.9512H276.058V27.4634H278.4V29.8049H276.058V35.0732H276.644ZM283.09 23.3659V25.7073H280.163V23.3659H283.09ZM283.09 27.4634V38H280.163V27.4634H283.09ZM286.607 27.4634V25.7073H287.192V24.5366H287.778V23.9512H288.949V23.3659H291.875V25.7073H290.119V26.2927H289.534V27.4634H291.875V29.8049H289.534V38H286.607V29.8049H285.436V27.4634H286.607ZM295.981 34.4878V35.0732H296.566V35.6585H298.908V35.0732H299.493V33.9024H298.908V33.3171H295.396V32.7317H294.225V32.1463H293.639V30.9756H293.054V29.2195H293.639V28.0488H294.225V27.4634H295.396V26.878H300.079V27.4634H301.249V28.0488H301.835V29.8049H298.908V29.2195H296.566V29.8049H295.981V30.3902H296.566V30.9756H300.079V31.561H301.249V32.1463H301.835V33.3171H302.42V35.6585H301.835V36.8293H301.249V37.4146H300.079V38H295.396V37.4146H294.225V36.8293H293.639V35.6585H293.054V34.4878H295.981ZM307.113 35.0732V38.5854H306.528V39.1707H305.942V39.7561H305.357V40.3415H304.186V39.7561H304.772V39.1707H305.357V38H304.186V35.0732H307.113ZM318.246 23.3659V38H315.319V23.3659H318.246ZM323.519 35.0732V35.6585H325.861V35.0732H326.446V34.4878H329.373V35.6585H328.788V36.8293H328.202V37.4146H327.032V38H322.349V37.4146H321.178V36.8293H320.593V35.6585H320.007V29.2195H320.593V28.0488H321.178V27.4634H322.349V26.878H327.032V27.4634H328.202V28.0488H328.788V29.2195H329.373V33.3171H322.934V35.0732H323.519ZM322.934 29.8049V31.561H326.446V29.8049H325.861V29.2195H323.519V29.8049H322.934ZM333.481 34.4878V35.0732H334.066V35.6585H336.408V35.0732H336.993V33.9024H336.408V33.3171H332.896V32.7317H331.725V32.1463H331.139V30.9756H330.554V29.2195H331.139V28.0488H331.725V27.4634H332.896V26.878H337.579V27.4634H338.749V28.0488H339.335V29.8049H336.408V29.2195H334.066V29.8049H333.481V30.3902H334.066V30.9756H337.579V31.561H338.749V32.1463H339.335V33.3171H339.92V35.6585H339.335V36.8293H338.749V37.4146H337.579V38H332.896V37.4146H331.725V36.8293H331.139V35.6585H330.554V34.4878H333.481ZM350.473 35.0732V35.6585H352.814V35.0732H353.399V33.9024H356.326V35.6585H355.741V36.8293H355.155V37.4146H353.985V38H349.302V37.4146H348.131V36.8293H347.546V35.6585H346.96V29.2195H347.546V28.0488H348.131V27.4634H349.302V26.878H353.985V27.4634H355.155V28.0488H355.741V29.2195H356.326V30.9756H353.399V29.8049H352.814V29.2195H350.473V29.8049H349.887V35.0732H350.473ZM361.019 23.3659V38H358.093V23.3659H361.019ZM366.293 23.3659V25.7073H363.366V23.3659H366.293ZM366.293 27.4634V38H363.366V27.4634H366.293ZM368.639 26.878H371.566V27.4634H372.152V26.878H375.664V27.4634H376.835V28.0488H377.42V29.2195H378.005V35.6585H377.42V36.8293H376.835V37.4146H375.664V38H371.566V41.5122H368.639V26.878ZM374.493 35.0732H375.079V29.8049H374.493V29.2195H372.152V29.8049H371.566V35.6585H374.493V35.0732ZM382.114 34.4878V35.0732H382.699V35.6585H385.041V35.0732H385.626V33.9024H385.041V33.3171H381.528V32.7317H380.358V32.1463H379.772V30.9756H379.187V29.2195H379.772V28.0488H380.358V27.4634H381.528V26.878H386.211V27.4634H387.382V28.0488H387.967V29.8049H385.041V29.2195H382.699V29.8049H382.114V30.3902H382.699V30.9756H386.211V31.561H387.382V32.1463H387.967V33.3171H388.553V35.6585H387.967V36.8293H387.382V37.4146H386.211V38H381.528V37.4146H380.358V36.8293H379.772V35.6585H379.187V34.4878H382.114ZM399.105 35.0732V35.6585H401.447V35.0732H402.032V34.4878H404.959V35.6585H404.374V36.8293H403.788V37.4146H402.618V38H397.935V37.4146H396.764V36.8293H396.179V35.6585H395.593V29.2195H396.179V28.0488H396.764V27.4634H397.935V26.878H402.618V27.4634H403.788V28.0488H404.374V29.2195H404.959V33.3171H398.52V35.0732H399.105ZM398.52 29.8049V31.561H402.032V29.8049H401.447V29.2195H399.105V29.8049H398.52ZM410.238 35.0732V35.6585H411.994V38H409.067V37.4146H407.896V36.8293H407.311V35.6585H406.725V29.8049H405.555V27.4634H406.725V26.2927H407.311V25.7073H407.896V25.122H408.482V24.5366H409.067V23.9512H409.652V27.4634H411.994V29.8049H409.652V35.0732H410.238ZM44.0976 47.3659V62H41.1707V47.3659H44.0976ZM49.371 59.0732V59.6585H51.7125V59.0732H52.2978V58.4878H55.2247V59.6585H54.6393V60.8293H54.0539V61.4146H52.8832V62H48.2003V61.4146H47.0295V60.8293H46.4442V59.6585H45.8588V53.2195H46.4442V52.0488H47.0295V51.4634H48.2003V50.878H52.8832V51.4634H54.0539V52.0488H54.6393V53.2195H55.2247V57.3171H48.7856V59.0732H49.371ZM48.7856 53.8049V55.561H52.2978V53.8049H51.7125V53.2195H49.371V53.8049H48.7856ZM59.3325 58.4878V59.0732H59.9179V59.6585H62.2593V59.0732H62.8447V57.9024H62.2593V57.3171H58.7471V56.7317H57.5764V56.1463H56.991V54.9756H56.4057V53.2195H56.991V52.0488H57.5764V51.4634H58.7471V50.878H63.4301V51.4634H64.6008V52.0488H65.1862V53.8049H62.2593V53.2195H59.9179V53.8049H59.3325V54.3902H59.9179V54.9756H63.4301V55.561H64.6008V56.1463H65.1862V57.3171H65.7715V59.6585H65.1862V60.8293H64.6008V61.4146H63.4301V62H58.7471V61.4146H57.5764V60.8293H56.991V59.6585H56.4057V58.4878H59.3325ZM76.3241 59.0732V59.6585H78.6656V59.0732H79.251V57.9024H82.1778V59.6585H81.5924V60.8293H81.007V61.4146H79.8363V62H75.1534V61.4146H73.9827V60.8293H73.3973V59.6585H72.8119V53.2195H73.3973V52.0488H73.9827V51.4634H75.1534V50.878H79.8363V51.4634H81.007V52.0488H81.5924V53.2195H82.1778V54.9756H79.251V53.8049H78.6656V53.2195H76.3241V53.8049H75.7388V59.0732H76.3241ZM90.3832 61.4146V62H85.7003V61.4146H84.5295V60.8293H83.9442V59.6585H83.3588V53.2195H83.9442V52.0488H84.5295V51.4634H85.7003V50.878H90.3832V51.4634H91.5539V52.0488H92.1393V53.2195H92.7247V59.6585H92.1393V60.8293H91.5539V61.4146H90.3832ZM86.871 59.0732V59.6585H89.2125V59.0732H89.7978V53.8049H89.2125V53.2195H86.871V53.8049H86.2856V59.0732H86.871ZM94.491 60.8293V59.6585H93.9057V50.878H96.8325V59.0732H97.4179V59.6585H99.7593V59.0732H100.345V50.878H103.272V62H100.345V61.4146H99.7593V62H96.2471V61.4146H95.0764V60.8293H94.491ZM109.136 53.2195V53.8049H108.551V62H105.624V50.878H108.551V51.4634H109.136V50.878H112.648V51.4634H113.234V52.0488H113.819V52.6341H113.234V53.2195H112.648V53.8049H112.063V54.3902H111.478V53.8049H110.892V53.2195H109.136ZM118.511 59.0732V59.6585H120.267V62H117.34V61.4146H116.17V60.8293H115.584V59.6585H114.999V53.8049H113.828V51.4634H114.999V50.2927H115.584V49.7073H116.17V49.122H116.755V48.5366H117.34V47.9512H117.926V51.4634H120.267V53.8049H117.926V59.0732H118.511ZM124.372 58.4878V59.0732H124.957V59.6585H127.298V59.0732H127.884V57.9024H127.298V57.3171H123.786V56.7317H122.615V56.1463H122.03V54.9756H121.445V53.2195H122.03V52.0488H122.615V51.4634H123.786V50.878H128.469V51.4634H129.64V52.0488H130.225V53.8049H127.298V53.2195H124.957V53.8049H124.372V54.3902H124.957V54.9756H128.469V55.561H129.64V56.1463H130.225V57.3171H130.811V59.6585H130.225V60.8293H129.64V61.4146H128.469V62H123.786V61.4146H122.615V60.8293H122.03V59.6585H121.445V58.4878H124.372ZM141.949 53.2195V53.8049H141.363V62H138.436V50.878H141.363V51.4634H141.949V50.878H144.875V51.4634H145.461V52.0488H146.046V51.4634H146.631V50.878H149.558V51.4634H150.729V52.0488H151.314V53.2195H151.9V62H148.973V53.8049H148.388V53.2195H147.217V53.8049H146.631V62H143.705V53.8049H143.119V53.2195H141.949ZM156.574 47.9512V47.3659H157.159V46.7805H157.745V46.1951H159.501V47.9512H158.916V48.5366H158.33V49.122H157.745V49.7073H155.989V47.9512H156.574ZM156.574 59.0732V59.6585H158.916V59.0732H159.501V58.4878H162.428V59.6585H161.842V60.8293H161.257V61.4146H160.086V62H155.403V61.4146H154.233V60.8293H153.647V59.6585H153.062V53.2195H153.647V52.0488H154.233V51.4634H155.403V50.878H160.086V51.4634H161.257V52.0488H161.842V53.2195H162.428V57.3171H155.989V59.0732H156.574ZM155.989 53.8049V55.561H159.501V53.8049H158.916V53.2195H156.574V53.8049H155.989ZM167.706 59.0732V59.6585H169.462V62H166.536V61.4146H165.365V60.8293H164.78V59.6585H164.194V53.8049H163.023V51.4634H164.194V50.2927H164.78V49.7073H165.365V49.122H165.95V48.5366H166.536V47.9512H167.121V51.4634H169.462V53.8049H167.121V59.0732H167.706ZM174.738 53.2195V53.8049H174.152V62H171.225V50.878H174.152V51.4634H174.738V50.878H178.25V51.4634H178.835V52.0488H179.421V52.6341H178.835V53.2195H178.25V53.8049H177.664V54.3902H177.079V53.8049H176.494V53.2195H174.738ZM183.527 57.3171V57.9024H182.942V59.0732H183.527V59.6585H185.869V59.0732H186.454V57.3171H183.527ZM180.6 60.8293V59.6585H180.015V57.9024H180.6V56.7317H181.186V56.1463H182.357V55.561H186.454V53.8049H185.869V53.2195H183.527V53.8049H182.942V54.3902H180.015V53.2195H180.6V52.0488H181.186V51.4634H182.357V50.878H187.039V51.4634H188.21V52.0488H188.796V53.2195H189.381V62H186.454V61.4146H185.869V62H181.771V61.4146H181.186V60.8293H180.6ZM194.66 57.9024V58.4878H197.002V57.9024H197.587V53.2195H194.66V53.8049H194.075V57.9024H194.66ZM194.075 62V62.5854H194.66V63.1707H197.002V62.5854H197.587V60.2439H197.002V60.8293H193.489V60.2439H192.319V59.6585H191.733V58.4878H191.148V53.2195H191.733V52.0488H192.319V51.4634H193.489V50.878H200.514V63.1707H199.928V64.3415H199.343V64.9268H198.172V65.5122H193.489V64.9268H192.319V64.3415H191.733V63.1707H191.148V62H194.075ZM205.793 59.0732V59.6585H208.134V59.0732H208.72V58.4878H211.647V59.6585H211.061V60.8293H210.476V61.4146H209.305V62H204.622V61.4146H203.451V60.8293H202.866V59.6585H202.281V53.2195H202.866V52.0488H203.451V51.4634H204.622V50.878H209.305V51.4634H210.476V52.0488H211.061V53.2195H211.647V57.3171H205.208V59.0732H205.793ZM205.208 53.8049V55.561H208.72V53.8049H208.134V53.2195H205.793V53.8049H205.208ZM215.754 58.4878V59.0732H216.34V59.6585H218.681V59.0732H219.267V57.9024H218.681V57.3171H215.169V56.7317H213.998V56.1463H213.413V54.9756H212.828V53.2195H213.413V52.0488H213.998V51.4634H215.169V50.878H219.852V51.4634H221.023V52.0488H221.608V53.8049H218.681V53.2195H216.34V53.8049H215.754V54.3902H216.34V54.9756H219.852V55.561H221.023V56.1463H221.608V57.3171H222.193V59.6585H221.608V60.8293H221.023V61.4146H219.852V62H215.169V61.4146H213.998V60.8293H213.413V59.6585H212.828V58.4878H215.754ZM236.258 61.4146V62H231.575V61.4146H230.405V60.8293H229.819V59.6585H229.234V53.2195H229.819V52.0488H230.405V51.4634H231.575V50.878H236.258V51.4634H237.429V52.0488H238.014V53.2195H238.6V59.6585H238.014V60.8293H237.429V61.4146H236.258ZM232.746 59.0732V59.6585H235.087V59.0732H235.673V53.8049H235.087V53.2195H232.746V53.8049H232.161V59.0732H232.746ZM243.878 53.2195V53.8049H243.293V62H240.366V50.878H243.293V51.4634H243.878V50.878H247.39V51.4634H248.561V52.0488H249.147V53.2195H249.732V62H246.805V53.8049H246.22V53.2195H243.878ZM255.011 59.0732V59.6585H256.767V62H253.84V61.4146H252.67V60.8293H252.084V59.6585H251.499V53.8049H250.328V51.4634H251.499V50.2927H252.084V49.7073H252.67V49.122H253.255V48.5366H253.84V47.9512H254.426V51.4634H256.767V53.8049H254.426V59.0732H255.011ZM267.902 59.0732V59.6585H269.658V62H266.731V61.4146H265.56V60.8293H264.975V59.6585H264.389V53.8049H263.219V51.4634H264.389V50.2927H264.975V49.7073H265.56V49.122H266.146V48.5366H266.731V47.9512H267.316V51.4634H269.658V53.8049H267.316V59.0732H267.902ZM277.86 61.4146V62H273.177V61.4146H272.006V60.8293H271.421V59.6585H270.835V53.2195H271.421V52.0488H272.006V51.4634H273.177V50.878H277.86V51.4634H279.03V52.0488H279.616V53.2195H280.201V59.6585H279.616V60.8293H279.03V61.4146H277.86ZM274.348 59.0732V59.6585H276.689V59.0732H277.274V53.8049H276.689V53.2195H274.348V53.8049H273.762V59.0732H274.348ZM281.968 60.8293V59.6585H281.382V50.878H284.309V59.0732H284.894V59.6585H287.236V59.0732H287.821V50.878H290.748V62H287.821V61.4146H287.236V62H283.724V61.4146H282.553V60.8293H281.968ZM296.613 47.3659V49.7073H293.686V47.3659H296.613ZM296.027 63.1707V64.3415H295.442V64.9268H294.271V65.5122H291.93V63.1707H293.1V62.5854H293.686V51.4634H296.613V63.1707H296.027ZM305.399 61.4146V62H300.716V61.4146H299.545V60.8293H298.96V59.6585H298.374V53.2195H298.96V52.0488H299.545V51.4634H300.716V50.878H305.399V51.4634H306.57V52.0488H307.155V53.2195H307.74V59.6585H307.155V60.8293H306.57V61.4146H305.399ZM301.887 59.0732V59.6585H304.228V59.0732H304.813V53.8049H304.228V53.2195H301.887V53.8049H301.301V59.0732H301.887ZM309.507 60.8293V59.6585H308.921V50.878H311.848V59.0732H312.433V59.6585H314.775V59.0732H315.36V50.878H318.287V62H315.36V61.4146H314.775V62H311.263V61.4146H310.092V60.8293H309.507ZM324.152 53.2195V53.8049H323.566V62H320.639V50.878H323.566V51.4634H324.152V50.878H327.664V51.4634H328.249V52.0488H328.835V52.6341H328.249V53.2195H327.664V53.8049H327.079V54.3902H326.493V53.8049H325.908V53.2195H324.152ZM332.356 58.4878V59.0732H332.941V59.6585H335.283V59.0732H335.868V57.9024H335.283V57.3171H331.771V56.7317H330.6V56.1463H330.014V54.9756H329.429V53.2195H330.014V52.0488H330.6V51.4634H331.771V50.878H336.454V51.4634H337.624V52.0488H338.21V53.8049H335.283V53.2195H332.941V53.8049H332.356V54.3902H332.941V54.9756H336.454V55.561H337.624V56.1463H338.21V57.3171H338.795V59.6585H338.21V60.8293H337.624V61.4146H336.454V62H331.771V61.4146H330.6V60.8293H330.014V59.6585H329.429V58.4878H332.356ZM349.348 47.9512V47.3659H349.933V46.7805H350.518V46.1951H352.274V47.9512H351.689V48.5366H351.104V49.122H350.518V49.7073H348.762V47.9512H349.348ZM349.348 59.0732V59.6585H351.689V59.0732H352.274V58.4878H355.201V59.6585H354.616V60.8293H354.03V61.4146H352.86V62H348.177V61.4146H347.006V60.8293H346.421V59.6585H345.835V53.2195H346.421V52.0488H347.006V51.4634H348.177V50.878H352.86V51.4634H354.03V52.0488H354.616V53.2195H355.201V57.3171H348.762V59.0732H349.348ZM348.762 53.8049V55.561H352.274V53.8049H351.689V53.2195H349.348V53.8049H348.762ZM360.48 59.0732V59.6585H362.236V62H359.309V61.4146H358.138V60.8293H357.553V59.6585H356.968V53.8049H355.797V51.4634H356.968V50.2927H357.553V49.7073H358.138V49.122H358.724V48.5366H359.309V47.9512H359.894V51.4634H362.236V53.8049H359.894V59.0732H360.48ZM366.926 47.9512V47.3659H367.511V46.7805H368.096V46.1951H369.853V47.9512H369.267V48.5366H368.682V49.122H368.096V49.7073H366.34V47.9512H366.926ZM366.926 59.0732V59.6585H369.267V59.0732H369.853V58.4878H372.779V59.6585H372.194V60.8293H371.609V61.4146H370.438V62H365.755V61.4146H364.584V60.8293H363.999V59.6585H363.413V53.2195H363.999V52.0488H364.584V51.4634H365.755V50.878H370.438V51.4634H371.609V52.0488H372.194V53.2195H372.779V57.3171H366.34V59.0732H366.926ZM366.34 53.8049V55.561H369.853V53.8049H369.267V53.2195H366.926V53.8049H366.34ZM383.917 59.0732V59.6585H385.673V62H382.747V61.4146H381.576V60.8293H380.99V59.6585H380.405V53.8049H379.234V51.4634H380.405V50.2927H380.99V49.7073H381.576V49.122H382.161V48.5366H382.747V47.9512H383.332V51.4634H385.673V53.8049H383.332V59.0732H383.917ZM390.949 53.2195V53.8049H390.363V62H387.436V50.878H390.363V51.4634H390.949V50.878H394.461V51.4634H395.046V52.0488H395.631V52.6341H395.046V53.2195H394.461V53.8049H393.875V54.3902H393.29V53.8049H392.705V53.2195H390.949ZM402.665 47.9512V49.7073H400.909V49.122H400.324V48.5366H399.738V47.9512H399.153V46.1951H400.909V46.7805H401.494V47.3659H402.08V47.9512H402.665ZM399.738 59.0732V59.6585H402.08V59.0732H402.665V58.4878H405.592V59.6585H405.006V60.8293H404.421V61.4146H403.25V62H398.567V61.4146H397.397V60.8293H396.811V59.6585H396.226V53.2195H396.811V52.0488H397.397V51.4634H398.567V50.878H403.25V51.4634H404.421V52.0488H405.006V53.2195H405.592V57.3171H399.153V59.0732H399.738ZM399.153 53.8049V55.561H402.665V53.8049H402.08V53.2195H399.738V53.8049H399.153ZM409.7 58.4878V59.0732H410.285V59.6585H412.627V59.0732H413.212V57.9024H412.627V57.3171H409.114V56.7317H407.944V56.1463H407.358V54.9756H406.773V53.2195H407.358V52.0488H407.944V51.4634H409.114V50.878H413.797V51.4634H414.968V52.0488H415.553V53.8049H412.627V53.2195H410.285V53.8049H409.7V54.3902H410.285V54.9756H413.797V55.561H414.968V56.1463H415.553V57.3171H416.139V59.6585H415.553V60.8293H414.968V61.4146H413.797V62H409.114V61.4146H407.944V60.8293H407.358V59.6585H406.773V58.4878H409.7ZM44.0976 81.3171V81.9024H43.5122V83.0732H44.0976V83.6585H46.439V83.0732H47.0244V81.3171H44.0976ZM41.1707 84.8293V83.6585H40.5854V81.9024H41.1707V80.7317H41.7561V80.1463H42.9268V79.561H47.0244V77.8049H46.439V77.2195H44.0976V77.8049H43.5122V78.3902H40.5854V77.2195H41.1707V76.0488H41.7561V75.4634H42.9268V74.878H47.6098V75.4634H48.7805V76.0488H49.3659V77.2195H49.9512V86H47.0244V85.4146H46.439V86H42.3415V85.4146H41.7561V84.8293H41.1707ZM55.8157 83.0732V83.6585H57.5718V86H54.645V85.4146H53.4743V84.8293H52.8889V83.6585H52.3035V77.8049H51.1328V75.4634H52.3035V74.2927H52.8889V73.7073H53.4743V73.122H54.0596V72.5366H54.645V71.9512H55.2304V75.4634H57.5718V77.8049H55.2304V83.0732H55.8157ZM62.847 83.0732V83.6585H64.6031V86H61.6763V85.4146H60.5055V84.8293H59.9202V83.6585H59.3348V77.8049H58.1641V75.4634H59.3348V74.2927H59.9202V73.7073H60.5055V73.122H61.0909V72.5366H61.6763V71.9512H62.2616V75.4634H64.6031V77.8049H62.2616V83.0732H62.847ZM69.8782 77.2195V77.8049H69.2929V86H66.366V74.878H69.2929V75.4634H69.8782V74.878H73.3904V75.4634H73.9758V76.0488H74.5612V76.6341H73.9758V77.2195H73.3904V77.8049H72.8051V78.3902H72.2197V77.8049H71.6343V77.2195H69.8782ZM78.6679 81.3171V81.9024H78.0825V83.0732H78.6679V83.6585H81.0093V83.0732H81.5947V81.3171H78.6679ZM75.741 84.8293V83.6585H75.1557V81.9024H75.741V80.7317H76.3264V80.1463H77.4971V79.561H81.5947V77.8049H81.0093V77.2195H78.6679V77.8049H78.0825V78.3902H75.1557V77.2195H75.741V76.0488H76.3264V75.4634H77.4971V74.878H82.1801V75.4634H83.3508V76.0488H83.9362V77.2195H84.5215V86H81.5947V85.4146H81.0093V86H76.9118V85.4146H76.3264V84.8293H75.741ZM88.0446 87.1707V86.5854H88.63V86H89.2153V85.4146H89.8007V84.8293H89.2153V84.2439H88.63V83.6585H88.0446V83.0732H87.4592V82.4878H86.8739V74.878H89.8007V81.9024H90.3861V82.4878H90.9714V83.0732H92.1421V82.4878H92.7275V81.9024H93.3129V74.878H96.2397V82.4878H95.6543V83.0732H95.069V83.6585H94.4836V84.2439H93.8982V84.8293H93.3129V85.4146H92.7275V86H92.1421V86.5854H91.5568V87.1707H90.9714V87.7561H90.3861V88.3415H89.8007V88.9268H89.2153V89.5122H87.4592V87.1707H88.0446ZM101.519 81.3171V81.9024H100.934V83.0732H101.519V83.6585H103.861V83.0732H104.446V81.3171H101.519ZM98.5926 84.8293V83.6585H98.0072V81.9024H98.5926V80.7317H99.178V80.1463H100.349V79.561H104.446V77.8049H103.861V77.2195H101.519V77.8049H100.934V78.3902H98.0072V77.2195H98.5926V76.0488H99.178V75.4634H100.349V74.878H105.032V75.4634H106.202V76.0488H106.788V77.2195H107.373V86H104.446V85.4146H103.861V86H99.7633V85.4146H99.178V84.8293H98.5926ZM113.238 77.2195V77.8049H112.652V86H109.725V74.878H112.652V75.4634H113.238V74.878H116.75V75.4634H117.921V76.0488H118.506V77.2195H119.091V86H116.164V77.8049H115.579V77.2195H113.238ZM124.37 83.0732V83.6585H126.127V86H123.2V85.4146H122.029V84.8293H121.444V83.6585H120.858V77.8049H119.688V75.4634H120.858V74.2927H121.444V73.7073H122.029V73.122H122.614V72.5366H123.2V71.9512H123.785V75.4634H126.127V77.8049H123.785V83.0732H124.37ZM130.231 82.4878V83.0732H130.816V83.6585H133.158V83.0732H133.743V81.9024H133.158V81.3171H129.646V80.7317H128.475V80.1463H127.889V78.9756H127.304V77.2195H127.889V76.0488H128.475V75.4634H129.646V74.878H134.329V75.4634H135.499V76.0488H136.085V77.8049H133.158V77.2195H130.816V77.8049H130.231V78.3902H130.816V78.9756H134.329V79.561H135.499V80.1463H136.085V81.3171H136.67V83.6585H136.085V84.8293H135.499V85.4146H134.329V86H129.646V85.4146H128.475V84.8293H127.889V83.6585H127.304V82.4878H130.231ZM144.296 74.878H147.223V75.4634H147.808V74.878H151.32V75.4634H152.491V76.0488H153.076V77.2195H153.662V83.6585H153.076V84.8293H152.491V85.4146H151.32V86H147.223V89.5122H144.296V74.878ZM150.149 83.0732H150.735V77.8049H150.149V77.2195H147.808V77.8049H147.223V83.6585H150.149V83.0732ZM161.868 85.4146V86H157.185V85.4146H156.014V84.8293H155.429V83.6585H154.843V77.2195H155.429V76.0488H156.014V75.4634H157.185V74.878H161.868V75.4634H163.038V76.0488H163.624V77.2195H164.209V83.6585H163.624V84.8293H163.038V85.4146H161.868ZM158.355 83.0732V83.6585H160.697V83.0732H161.282V77.8049H160.697V77.2195H158.355V77.8049H157.77V83.0732H158.355ZM165.975 84.8293V83.6585H165.39V74.878H168.317V83.0732H168.902V83.6585H171.244V83.0732H171.829V74.878H174.756V86H171.829V85.4146H171.244V86H167.732V85.4146H166.561V84.8293H165.975ZM180.62 77.2195V77.8049H180.035V86H177.108V74.878H180.035V75.4634H180.62V74.878H184.133V75.4634H184.718V76.0488H185.303V76.6341H184.718V77.2195H184.133V77.8049H183.547V78.3902H182.962V77.8049H182.377V77.2195H180.62ZM195.855 77.2195V77.8049H195.269V86H192.343V74.878H195.269V75.4634H195.855V74.878H198.782V75.4634H199.367V76.0488H199.952V75.4634H200.538V74.878H203.465V75.4634H204.635V76.0488H205.221V77.2195H205.806V86H202.879V77.8049H202.294V77.2195H201.123V77.8049H200.538V86H197.611V77.8049H197.026V77.2195H195.855ZM213.993 85.4146V86H209.31V85.4146H208.139V84.8293H207.554V83.6585H206.968V77.2195H207.554V76.0488H208.139V75.4634H209.31V74.878H213.993V75.4634H215.163V76.0488H215.749V77.2195H216.334V83.6585H215.749V84.8293H215.163V85.4146H213.993ZM210.48 83.0732V83.6585H212.822V83.0732H213.407V77.8049H212.822V77.2195H210.48V77.8049H209.895V83.0732H210.48ZM221.027 71.3659V73.7073H218.1V71.3659H221.027ZM221.027 75.4634V86H218.1V75.4634H221.027ZM226.301 83.0732V86H223.374V83.0732H226.301ZM237.433 71.3659V86H234.507V71.3659H237.433ZM242.707 71.3659V86H239.78V71.3659H242.707ZM247.395 82.4878V83.0732H247.98V83.6585H250.322V83.0732H250.907V81.9024H250.322V81.3171H246.81V80.7317H245.639V80.1463H245.054V78.9756H244.468V77.2195H245.054V76.0488H245.639V75.4634H246.81V74.878H251.493V75.4634H252.663V76.0488H253.249V77.8049H250.322V77.2195H247.98V77.8049H247.395V78.3902H247.98V78.9756H251.493V79.561H252.663V80.1463H253.249V81.3171H253.834V83.6585H253.249V84.8293H252.663V85.4146H251.493V86H246.81V85.4146H245.639V84.8293H245.054V83.6585H244.468V82.4878H247.395ZM261.46 74.878H264.387V75.4634H264.972V74.878H268.484V75.4634H269.655V76.0488H270.24V77.2195H270.826V83.6585H270.24V84.8293H269.655V85.4146H268.484V86H264.387V89.5122H261.46V74.878ZM267.313 83.0732H267.899V77.8049H267.313V77.2195H264.972V77.8049H264.387V83.6585H267.313V83.0732ZM275.519 83.0732V83.6585H277.861V83.0732H278.446V82.4878H281.373V83.6585H280.788V84.8293H280.202V85.4146H279.032V86H274.349V85.4146H273.178V84.8293H272.593V83.6585H272.007V77.2195H272.593V76.0488H273.178V75.4634H274.349V74.878H279.032V75.4634H280.202V76.0488H280.788V77.2195H281.373V81.3171H274.934V83.0732H275.519ZM274.934 77.8049V79.561H278.446V77.8049H277.861V77.2195H275.519V77.8049H274.934ZM286.652 77.2195V77.8049H286.066V86H283.139V74.878H286.066V75.4634H286.652V74.878H290.164V75.4634H290.749V76.0488H291.335V76.6341H290.749V77.2195H290.164V77.8049H289.579V78.3902H288.993V77.8049H288.408V77.2195H286.652ZM296.027 77.2195V77.8049H295.441V86H292.514V74.878H295.441V75.4634H296.027V74.878H298.954V75.4634H299.539V76.0488H300.124V75.4634H300.71V74.878H303.636V75.4634H304.807V76.0488H305.393V77.2195H305.978V86H303.051V77.8049H302.466V77.2195H301.295V77.8049H300.71V86H297.783V77.8049H297.197V77.2195H296.027ZM310.652 83.0732V83.6585H312.994V83.0732H313.579V82.4878H316.506V83.6585H315.921V84.8293H315.335V85.4146H314.164V86H309.482V85.4146H308.311V84.8293H307.725V83.6585H307.14V77.2195H307.725V76.0488H308.311V75.4634H309.482V74.878H314.164V75.4634H315.335V76.0488H315.921V77.2195H316.506V81.3171H310.067V83.0732H310.652ZM310.067 77.8049V79.561H313.579V77.8049H312.994V77.2195H310.652V77.8049H310.067ZM321.784 83.0732V83.6585H323.541V86H320.614V85.4146H319.443V84.8293H318.858V83.6585H318.272V77.8049H317.102V75.4634H318.272V74.2927H318.858V73.7073H319.443V73.122H320.028V72.5366H320.614V71.9512H321.199V75.4634H323.541V77.8049H321.199V83.0732H321.784ZM328.816 83.0732V83.6585H330.572V86H327.645V85.4146H326.474V84.8293H325.889V83.6585H325.304V77.8049H324.133V75.4634H325.304V74.2927H325.889V73.7073H326.474V73.122H327.06V72.5366H327.645V71.9512H328.23V75.4634H330.572V77.8049H328.23V83.0732H328.816ZM335.262 83.0732V83.6585H337.603V83.0732H338.188V82.4878H341.115V83.6585H340.53V84.8293H339.945V85.4146H338.774V86H334.091V85.4146H332.92V84.8293H332.335V83.6585H331.749V77.2195H332.335V76.0488H332.92V75.4634H334.091V74.878H338.774V75.4634H339.945V76.0488H340.53V77.2195H341.115V81.3171H334.676V83.0732H335.262ZM334.676 77.8049V79.561H338.188V77.8049H337.603V77.2195H335.262V77.8049H334.676ZM346.394 77.2195V77.8049H345.808V86H342.882V74.878H345.808V75.4634H346.394V74.878H349.906V75.4634H351.077V76.0488H351.662V77.2195H352.248V86H349.321V77.8049H348.735V77.2195H346.394ZM357.527 83.0732V83.6585H359.283V86H356.356V85.4146H355.185V84.8293H354.6V83.6585H354.014V77.8049H352.844V75.4634H354.014V74.2927H354.6V73.7073H355.185V73.122H355.771V72.5366H356.356V71.9512H356.941V75.4634H359.283V77.8049H356.941V83.0732H357.527ZM366.905 84.8293V83.6585H366.32V74.878H369.247V83.0732H369.832V83.6585H372.173V83.0732H372.759V74.878H375.686V86H372.759V85.4146H372.173V86H368.661V85.4146H367.49V84.8293H366.905ZM381.55 77.2195V77.8049H380.965V86H378.038V74.878H380.965V75.4634H381.55V74.878H385.062V75.4634H386.233V76.0488H386.818V77.2195H387.404V86H384.477V77.8049H383.892V77.2195H381.55ZM392.098 83.0732V83.6585H394.439V83.0732H395.024V82.4878H397.951V83.6585H397.366V84.8293H396.78V85.4146H395.61V86H390.927V85.4146H389.756V84.8293H389.171V83.6585H388.585V77.2195H389.171V76.0488H389.756V75.4634H390.927V74.878H395.61V75.4634H396.78V76.0488H397.366V77.2195H397.951V81.3171H391.512V83.0732H392.098ZM391.512 77.8049V79.561H395.024V77.8049H394.439V77.2195H392.098V77.8049H391.512ZM44.0976 95.3659V110H41.1707V95.3659H44.0976ZM49.371 95.3659V97.7073H46.4442V95.3659H49.371ZM49.371 99.4634V110H46.4442V99.4634H49.371ZM60.4981 101.22H61.0835V107.659H60.4981V108.829H59.9127V109.415H58.742V110H51.7176V95.3659H54.6444V99.4634H55.2298V98.878H58.742V99.4634H59.9127V100.049H60.4981V101.22ZM57.5713 107.073H58.1566V101.805H57.5713V101.22H55.2298V101.805H54.6444V107.659H57.5713V107.073ZM65.7772 107.073V107.659H68.1187V107.073H68.7041V106.488H71.6309V107.659H71.0455V108.829H70.4602V109.415H69.2894V110H64.6065V109.415H63.4358V108.829H62.8504V107.659H62.2651V101.22H62.8504V100.049H63.4358V99.4634H64.6065V98.878H69.2894V99.4634H70.4602V100.049H71.0455V101.22H71.6309V105.317H65.1919V107.073H65.7772ZM65.1919 101.805V103.561H68.7041V101.805H68.1187V101.22H65.7772V101.805H65.1919ZM76.9095 101.22V101.805H76.3241V110H73.3973V98.878H76.3241V99.4634H76.9095V98.878H80.4217V99.4634H81.007V100.049H81.5924V100.634H81.007V101.22H80.4217V101.805H79.8363V102.39H79.251V101.805H78.6656V101.22H76.9095ZM86.2845 107.073V107.659H88.0406V110H85.1138V109.415H83.943V108.829H83.3577V107.659H82.7723V101.805H81.6016V99.4634H82.7723V98.2927H83.3577V97.7073H83.943V97.122H84.5284V96.5366H85.1138V95.9512H85.6991V99.4634H88.0406V101.805H85.6991V107.073H86.2845ZM92.7304 95.9512V95.3659H93.3157V94.7805H93.9011V94.1951H95.6572V95.9512H95.0718V96.5366H94.4865V97.122H93.9011V97.7073H92.145V95.9512H92.7304ZM92.7304 107.073V107.659H95.0718V107.073H95.6572V106.488H98.584V107.659H97.9987V108.829H97.4133V109.415H96.2426V110H91.5596V109.415H90.3889V108.829H89.8035V107.659H89.2182V101.22H89.8035V100.049H90.3889V99.4634H91.5596V98.878H96.2426V99.4634H97.4133V100.049H97.9987V101.22H98.584V105.317H92.145V107.073H92.7304ZM92.145 101.805V103.561H95.6572V101.805H95.0718V101.22H92.7304V101.805H92.145ZM109.722 107.073V107.659H111.478V110H108.551V109.415H107.381V108.829H106.795V107.659H106.21V101.805H105.039V99.4634H106.21V98.2927H106.795V97.7073H107.381V97.122H107.966V96.5366H108.551V95.9512H109.137V99.4634H111.478V101.805H109.137V107.073H109.722ZM119.68 109.415V110H114.997V109.415H113.826V108.829H113.241V107.659H112.656V101.22H113.241V100.049H113.826V99.4634H114.997V98.878H119.68V99.4634H120.851V100.049H121.436V101.22H122.022V107.659H121.436V108.829H120.851V109.415H119.68ZM116.168 107.073V107.659H118.509V107.073H119.095V101.805H118.509V101.22H116.168V101.805H115.583V107.073H116.168ZM127.3 107.073V107.659H129.056V110H126.129V109.415H124.959V108.829H124.373V107.659H123.788V101.805H122.617V99.4634H123.788V98.2927H124.373V97.7073H124.959V97.122H125.544V96.5366H126.129V95.9512H126.715V99.4634H129.056V101.805H126.715V107.073H127.3ZM133.746 105.317V105.902H133.161V107.073H133.746V107.659H136.087V107.073H136.673V105.317H133.746ZM130.819 108.829V107.659H130.234V105.902H130.819V104.732H131.405V104.146H132.575V103.561H136.673V101.805H136.087V101.22H133.746V101.805H133.161V102.39H130.234V101.22H130.819V100.049H131.405V99.4634H132.575V98.878H137.258V99.4634H138.429V100.049H139.014V101.22H139.6V110H136.673V109.415H136.087V110H131.99V109.415H131.405V108.829H130.819ZM144.879 95.3659V110H141.952V95.3659H144.879ZM150.152 107.073V107.659H152.494V107.073H153.079V106.488H156.006V107.659H155.421V108.829H154.835V109.415H153.664V110H148.982V109.415H147.811V108.829H147.225V107.659H146.64V101.22H147.225V100.049H147.811V99.4634H148.982V98.878H153.664V99.4634H154.835V100.049H155.421V101.22H156.006V105.317H149.567V107.073H150.152ZM149.567 101.805V103.561H153.079V101.805H152.494V101.22H150.152V101.805H149.567ZM160.699 107.073V110.585H160.114V111.171H159.528V111.756H158.943V112.341H157.772V111.756H158.358V111.171H158.943V110H157.772V107.073H160.699ZM175.344 109.415V110H170.661V109.415H169.49V108.829H168.905V107.659H168.32V101.22H168.905V100.049H169.49V99.4634H170.661V98.878H175.344V99.4634H176.515V100.049H177.1V101.22H177.686V107.659H177.1V108.829H176.515V109.415H175.344ZM171.832 107.073V107.659H174.173V107.073H174.759V101.805H174.173V101.22H171.832V101.805H171.247V107.073H171.832ZM182.964 101.22V101.805H182.379V110H179.452V98.878H182.379V99.4634H182.964V98.878H186.476V99.4634H187.647V100.049H188.232V101.22H188.818V110H185.891V101.805H185.306V101.22H182.964ZM196.444 98.878H199.371V99.4634H199.956V98.878H203.469V99.4634H204.639V100.049H205.225V101.22H205.81V107.659H205.225V108.829H204.639V109.415H203.469V110H199.371V113.512H196.444V98.878ZM202.298 107.073H202.883V101.805H202.298V101.22H199.956V101.805H199.371V107.659H202.298V107.073ZM210.504 107.073V107.659H212.845V107.073H213.431V106.488H216.357V107.659H215.772V108.829H215.187V109.415H214.016V110H209.333V109.415H208.162V108.829H207.577V107.659H206.992V101.22H207.577V100.049H208.162V99.4634H209.333V98.878H214.016V99.4634H215.187V100.049H215.772V101.22H216.357V105.317H209.918V107.073H210.504ZM209.918 101.805V103.561H213.431V101.805H212.845V101.22H210.504V101.805H209.918ZM218.124 108.829V107.659H217.538V98.878H220.465V107.073H221.051V107.659H223.392V107.073H223.978V98.878H226.904V110H223.978V109.415H223.392V110H219.88V109.415H218.709V108.829H218.124ZM232.769 107.073V107.659H234.525V110H231.598V109.415H230.427V108.829H229.842V107.659H229.257V101.805H228.086V99.4634H229.257V98.2927H229.842V97.7073H230.427V97.122H231.013V96.5366H231.598V95.9512H232.183V99.4634H234.525V101.805H232.183V107.073H232.769ZM245.659 107.073V107.659H247.416V110H244.489V109.415H243.318V108.829H242.733V107.659H242.147V101.805H240.977V99.4634H242.147V98.2927H242.733V97.7073H243.318V97.122H243.903V96.5366H244.489V95.9512H245.074V99.4634H247.416V101.805H245.074V107.073H245.659ZM255.618 109.415V110H250.935V109.415H249.764V108.829H249.179V107.659H248.593V101.22H249.179V100.049H249.764V99.4634H250.935V98.878H255.618V99.4634H256.788V100.049H257.374V101.22H257.959V107.659H257.374V108.829H256.788V109.415H255.618ZM252.105 107.073V107.659H254.447V107.073H255.032V101.805H254.447V101.22H252.105V101.805H251.52V107.073H252.105ZM259.725 108.829V107.659H259.14V98.878H262.067V107.073H262.652V107.659H264.994V107.073H265.579V98.878H268.506V110H265.579V109.415H264.994V110H261.482V109.415H260.311V108.829H259.725ZM274.37 107.073V107.659H276.127V110H273.2V109.415H272.029V108.829H271.444V107.659H270.858V101.805H269.688V99.4634H270.858V98.2927H271.444V97.7073H272.029V97.122H272.614V96.5366H273.2V95.9512H273.785V99.4634H276.127V101.805H273.785V107.073H274.37ZM284.92 111.171V110.585H285.505V110H286.09V109.415H286.676V108.829H286.09V108.244H285.505V107.659H284.92V107.073H284.334V106.488H283.749V98.878H286.676V105.902H287.261V106.488H287.846V107.073H289.017V106.488H289.603V105.902H290.188V98.878H293.115V106.488H292.529V107.073H291.944V107.659H291.359V108.244H290.773V108.829H290.188V109.415H289.603V110H289.017V110.585H288.432V111.171H287.846V111.756H287.261V112.341H286.676V112.927H286.09V113.512H284.334V111.171H284.92ZM302.498 99.4634V97.7073H303.083V96.5366H303.668V95.9512H304.839V95.3659H307.766V97.7073H306.01V98.2927H305.425V99.4634H307.766V101.805H305.425V110H302.498V101.805H301.327V99.4634H302.498ZM312.457 105.317V105.902H311.872V107.073H312.457V107.659H314.798V107.073H315.384V105.317H312.457ZM309.53 108.829V107.659H308.945V105.902H309.53V104.732H310.115V104.146H311.286V103.561H315.384V101.805H314.798V101.22H312.457V101.805H311.872V102.39H308.945V101.22H309.53V100.049H310.115V99.4634H311.286V98.878H315.969V99.4634H317.14V100.049H317.725V101.22H318.311V110H315.384V109.415H314.798V110H310.701V109.415H310.115V108.829H309.53ZM323.59 95.3659V97.7073H320.663V95.3659H323.59ZM323.59 99.4634V110H320.663V99.4634H323.59ZM329.449 101.22V101.805H328.863V110H325.936V98.878H328.863V99.4634H329.449V98.878H332.961V99.4634H333.546V100.049H334.131V100.634H333.546V101.22H332.961V101.805H332.375V102.39H331.79V101.805H331.205V101.22H329.449ZM338.238 107.073V107.659H340.58V107.073H341.165V106.488H344.092V107.659H343.506V108.829H342.921V109.415H341.75V110H337.067V109.415H335.897V108.829H335.311V107.659H334.726V101.22H335.311V100.049H335.897V99.4634H337.067V98.878H341.75V99.4634H342.921V100.049H343.506V101.22H344.092V105.317H337.653V107.073H338.238ZM337.653 101.805V103.561H341.165V101.805H340.58V101.22H338.238V101.805H337.653ZM348.785 107.073V110.585H348.2V111.171H347.614V111.756H347.029V112.341H345.858V111.756H346.444V111.171H347.029V110H345.858V107.073H348.785ZM360.503 107.073V107.659H362.259V110H359.333V109.415H358.162V108.829H357.576V107.659H356.991V101.805H355.82V99.4634H356.991V98.2927H357.576V97.7073H358.162V97.122H358.747V96.5366H359.333V95.9512H359.918V99.4634H362.259V101.805H359.918V107.073H360.503ZM370.461 109.415V110H365.778V109.415H364.608V108.829H364.022V107.659H363.437V101.22H364.022V100.049H364.608V99.4634H365.778V98.878H370.461V99.4634H371.632V100.049H372.217V101.22H372.803V107.659H372.217V108.829H371.632V109.415H370.461ZM366.949 107.073V107.659H369.291V107.073H369.876V101.805H369.291V101.22H366.949V101.805H366.364V107.073H366.949ZM374.569 108.829V107.659H373.984V98.878H376.911V107.073H377.496V107.659H379.837V107.073H380.423V98.878H383.35V110H380.423V109.415H379.837V110H376.325V109.415H375.155V108.829H374.569ZM389.214 107.073V107.659H390.97V110H388.043V109.415H386.873V108.829H386.287V107.659H385.702V101.805H384.531V99.4634H385.702V98.2927H386.287V97.7073H386.873V97.122H387.458V96.5366H388.043V95.9512H388.629V99.4634H390.97V101.805H388.629V107.073H389.214ZM399.763 111.171V110.585H400.349V110H400.934V109.415H401.519V108.829H400.934V108.244H400.349V107.659H399.763V107.073H399.178V106.488H398.593V98.878H401.519V105.902H402.105V106.488H402.69V107.073H403.861V106.488H404.446V105.902H405.032V98.878H407.958V106.488H407.373V107.073H406.788V107.659H406.202V108.244H405.617V108.829H405.032V109.415H404.446V110H403.861V110.585H403.276V111.171H402.69V111.756H402.105V112.341H401.519V112.927H400.934V113.512H399.178V111.171H399.763ZM44.6829 131.073V131.659H46.439V134H43.5122V133.415H42.3415V132.829H41.7561V131.659H41.1707V125.805H40V123.463H41.1707V122.293H41.7561V121.707H42.3415V121.122H42.9268V120.537H43.5122V119.951H44.0976V123.463H46.439V125.805H44.0976V131.073H44.6829ZM51.1288 131.073V131.659H53.4703V131.073H54.0556V130.488H56.9825V131.659H56.3971V132.829H55.8117V133.415H54.641V134H49.9581V133.415H48.7873V132.829H48.202V131.659H47.6166V125.22H48.202V124.049H48.7873V123.463H49.9581V122.878H54.641V123.463H55.8117V124.049H56.3971V125.22H56.9825V129.317H50.5434V131.073H51.1288ZM50.5434 125.805V127.561H54.0556V125.805H53.4703V125.22H51.1288V125.805H50.5434ZM61.0903 130.488V131.073H61.6757V131.659H64.0171V131.073H64.6025V129.902H64.0171V129.317H60.505V128.732H59.3342V128.146H58.7489V126.976H58.1635V125.22H58.7489V124.049H59.3342V123.463H60.505V122.878H65.1879V123.463H66.3586V124.049H66.944V125.805H64.0171V125.22H61.6757V125.805H61.0903V126.39H61.6757V126.976H65.1879V127.561H66.3586V128.146H66.944V129.317H67.5293V131.659H66.944V132.829H66.3586V133.415H65.1879V134H60.505V133.415H59.3342V132.829H58.7489V131.659H58.1635V130.488H61.0903ZM72.8079 131.073V131.659H74.564V134H71.6372V133.415H70.4665V132.829H69.8811V131.659H69.2957V125.805H68.125V123.463H69.2957V122.293H69.8811V121.707H70.4665V121.122H71.0518V120.537H71.6372V119.951H72.2226V123.463H74.564V125.805H72.2226V131.073H72.8079ZM79.2538 131.073V131.659H81.5953V131.073H82.1806V130.488H85.1075V131.659H84.5221V132.829H83.9367V133.415H82.766V134H78.0831V133.415H76.9123V132.829H76.327V131.659H75.7416V125.22H76.327V124.049H76.9123V123.463H78.0831V122.878H82.766V123.463H83.9367V124.049H84.5221V125.22H85.1075V129.317H78.6684V131.073H79.2538ZM78.6684 125.805V127.561H82.1806V125.805H81.5953V125.22H79.2538V125.805H78.6684ZM90.3861 125.22V125.805H89.8007V134H86.8739V122.878H89.8007V123.463H90.3861V122.878H93.8982V123.463H94.4836V124.049H95.069V124.634H94.4836V125.22H93.8982V125.805H93.3129V126.39H92.7275V125.805H92.1421V125.22H90.3861ZM105.035 119.366V128.146H104.45V128.732H103.864V129.317H103.279V128.732H102.694V128.146H102.108V119.366H105.035ZM105.035 131.073V134H102.108V131.073H105.035Z" fill="#00B99B"/>
<path d="M15 2H442C449.18 2 455 7.8203 455 15V142.06C455 149.24 449.18 155.06 442 155.06H230V191L190 155.06H15C7.82031 155.06 2 149.24 2 142.06V15C2 7.8203 7.82028 2 15 2Z" stroke="#00B99B" stroke-width="3"/>
<rect x="256.632" y="222.186" width="6.79465" height="9.51252" fill="#00B99B"/>
<rect x="283.81" y="222.186" width="6.79465" height="9.51252" fill="#00B99B"/>
<rect x="280.186" y="211.768" width="13.5893" height="3.62382" fill="#00B99B"/>
<rect x="293.323" y="215.392" width="3.62382" height="3.62382" fill="#00B99B"/>
<rect x="300.117" y="208.597" width="3.62382" height="9.96549" fill="#00B99B"/>
<rect x="303.288" y="214.939" width="14.9482" height="3.62382" fill="#00B99B"/>
<rect x="303.741" y="216.298" width="3.62382" height="9.05954" fill="#00B99B"/>
<rect x="313.707" y="212.221" width="4.52977" height="9.05954" fill="#00B99B"/>
<rect x="313.707" y="218.109" width="6.79465" height="3.62382" fill="#00B99B"/>
<rect x="321.86" y="211.768" width="3.62382" height="6.79465" fill="#00B99B"/>
<rect x="324.578" y="219.016" width="3.62382" height="2.71786" fill="#00B99B"/>
<rect x="320.954" y="221.733" width="3.62382" height="3.17084" fill="#00B99B"/>
<rect x="324.125" y="225.357" width="3.62382" height="6.34168" fill="#00B99B"/>
<rect x="327.749" y="221.733" width="7.24763" height="3.17084" fill="#00B99B"/>
<rect x="337.715" y="218.563" width="3.62382" height="3.17084" fill="#00B99B"/>
<rect x="340.885" y="221.733" width="3.62382" height="3.17084" fill="#00B99B"/>
<rect x="337.715" y="225.357" width="3.62382" height="3.17084" fill="#00B99B"/>
<rect x="334.091" y="228.528" width="3.62382" height="3.17084" fill="#00B99B"/>
<rect x="330.92" y="232.152" width="3.62382" height="3.17084" fill="#00B99B"/>
<rect x="327.296" y="235.323" width="3.62382" height="3.17084" fill="#00B99B"/>
<rect x="320.501" y="231.699" width="3.62382" height="3.17084" fill="#00B99B"/>
<rect x="311.442" y="222.186" width="3.62382" height="3.17084" fill="#00B99B"/>
<rect x="307.365" y="224.904" width="3.62382" height="3.62382" fill="#00B99B"/>
<rect x="303.741" y="248.459" width="3.62382" height="3.62382" fill="#00B99B"/>
<rect x="300.57" y="252.083" width="3.62382" height="3.62382" fill="#00B99B"/>
<rect x="296.947" y="255.707" width="3.62382" height="3.62382" fill="#00B99B"/>
<rect x="290.152" y="258.425" width="6.79465" height="3.62382" fill="#00B99B"/>
<rect x="266.597" y="265.672" width="20.8369" height="3.62382" fill="#00B99B"/>
<rect x="286.981" y="262.048" width="3.62382" height="3.62382" fill="#00B99B"/>
<rect x="262.973" y="259.33" width="3.62382" height="6.34168" fill="#00B99B"/>
<rect x="259.802" y="255.707" width="3.62382" height="3.62382" fill="#00B99B"/>
<rect x="256.632" y="252.083" width="3.62382" height="3.62382" fill="#00B99B"/>
<rect x="253.008" y="248.912" width="3.62382" height="3.62382" fill="#00B99B"/>
<rect x="249.837" y="242.57" width="3.62382" height="6.34168" fill="#00B99B"/>
<rect x="266.597" y="247.553" width="3.62382" height="6.79465" fill="#00B99B"/>
<rect x="269.768" y="250.724" width="14.0423" height="3.62382" fill="#00B99B"/>
<rect x="267.503" y="241.664" width="6.79465" height="3.62382" fill="#00B99B"/>
<rect x="273.845" y="238.494" width="4.07679" height="3.62382" fill="#00B99B"/>
<rect x="264.332" y="238.494" width="4.07679" height="3.62382" fill="#00B99B"/>
<rect x="256.632" y="211.768" width="7.24763" height="3.62382" fill="#00B99B"/>
<rect x="253.461" y="214.939" width="3.17084" height="3.62382" fill="#00B99B"/>
<rect x="249.837" y="204.973" width="3.62382" height="6.34168" fill="#00B99B"/>
<rect x="253.008" y="201.802" width="3.62382" height="3.17084" fill="#00B99B"/>
<rect x="256.632" y="195.008" width="3.62382" height="6.79465" fill="#00B99B"/>
<rect x="260.255" y="191.837" width="3.62382" height="3.17084" fill="#00B99B"/>
<rect x="263.426" y="187.76" width="6.34168" height="3.62382" fill="#00B99B"/>
<rect x="270.221" y="191.384" width="9.51252" height="3.62382" fill="#00B99B"/>
<rect x="273.392" y="184.589" width="3.62382" height="13.5893" fill="#00B99B"/>
<rect x="279.733" y="188.213" width="7.70061" height="3.62382" fill="#00B99B"/>
<rect x="276.563" y="180.965" width="14.4953" height="3.62382" fill="#00B99B"/>
<rect x="267.05" y="180.965" width="6.79465" height="3.62382" fill="#00B99B"/>
<rect x="290.605" y="195.008" width="3.62382" height="6.79465" fill="#00B99B"/>
<rect x="293.776" y="188.213" width="6.79465" height="3.62382" fill="#00B99B"/>
<rect x="290.152" y="184.589" width="3.62382" height="3.62382" fill="#00B99B"/>
<rect x="287.434" y="191.837" width="3.17084" height="2.71786" fill="#00B99B"/>
<rect x="293.776" y="201.802" width="3.62382" height="3.17084" fill="#00B99B"/>
<rect x="296.494" y="204.973" width="4.07679" height="3.62382" fill="#00B99B"/>
<rect x="306.912" y="204.973" width="4.07679" height="3.62382" fill="#00B99B"/>
<rect x="310.989" y="208.597" width="3.62382" height="3.17084" fill="#00B99B"/>
<rect x="327.296" y="204.52" width="3.62382" height="3.62382" fill="#00B99B"/>
<rect x="330.92" y="191.384" width="3.17084" height="3.62382" fill="#00B99B"/>
<rect x="327.749" y="188.213" width="3.17084" height="3.62382" fill="#00B99B"/>
<rect x="317.784" y="184.589" width="9.51252" height="3.62382" fill="#00B99B"/>
<rect x="310.989" y="180.965" width="6.34168" height="3.62382" fill="#00B99B"/>
<rect x="304.194" y="177.795" width="6.34168" height="3.62382" fill="#00B99B"/>
<rect x="300.57" y="174.624" width="3.62382" height="3.17084" fill="#00B99B"/>
<rect x="280.186" y="174.624" width="3.62382" height="3.17084" fill="#00B99B"/>
<rect x="273.845" y="174.624" width="3.62382" height="3.17084" fill="#00B99B"/>
<rect x="262.973" y="174.171" width="3.62382" height="3.62382" fill="#00B99B"/>
<rect x="249.837" y="180.965" width="3.62382" height="3.62382" fill="#00B99B"/>
<rect x="246.666" y="185.042" width="3.62382" height="2.71786" fill="#00B99B"/>
<rect x="236.248" y="204.973" width="3.62382" height="2.71786" fill="#00B99B"/>
<rect x="233.077" y="208.144" width="3.62382" height="3.62382" fill="#00B99B"/>
<rect x="236.248" y="218.109" width="3.62382" height="3.62382" fill="#00B99B"/>
<rect x="232.624" y="224.904" width="3.62382" height="3.62382" fill="#00B99B"/>
<rect x="236.248" y="228.528" width="3.62382" height="3.17084" fill="#00B99B"/>
<rect x="239.419" y="232.152" width="8.15358" height="3.62382" fill="#00B99B"/>
<rect x="240.324" y="214.486" width="6.79465" height="4.52977" fill="#00B99B"/>
<rect x="229" y="211.768" width="3.62382" height="13.1363" fill="#00B99B"/>
<rect x="242.589" y="187.76" width="3.62382" height="6.79465" fill="#00B99B"/>
<rect x="239.419" y="195.008" width="3.62382" height="9.51252" fill="#00B99B"/>
<rect x="253.461" y="177.795" width="9.51252" height="3.62382" fill="#00B99B"/>
<rect x="266.597" y="171" width="7.24763" height="3.62382" fill="#00B99B"/>
<rect x="276.563" y="177.795" width="3.62382" height="4.07679" fill="#00B99B"/>
<rect x="283.357" y="171" width="17.2131" height="3.62382" fill="#00B99B"/>
<rect x="334.544" y="195.008" width="3.62382" height="23.1018" fill="#00B99B"/>
<rect x="330.467" y="208.597" width="3.62382" height="3.17084" fill="#00B99B"/>
<rect x="246.213" y="211.768" width="3.62382" height="30.3495" fill="#00B99B"/>
<rect x="307.365" y="238.494" width="3.62382" height="9.96549" fill="#00B99B"/>
<rect x="310.083" y="242.117" width="10.4185" height="3.17084" fill="#00B99B"/>
<rect x="310.989" y="232.152" width="3.62382" height="5.8887" fill="#00B99B"/>
<rect x="320.954" y="238.494" width="6.34168" height="3.62382" fill="#00B99B"/>
<rect x="310.989" y="235.776" width="9.96549" height="3.62382" fill="#00B99B"/>
</svg>
