<svg width="457" height="270" viewBox="0 0 457 270" fill="none" xmlns="http://www.w3.org/2000/svg">
<path d="M60.7805 48.0732V51H53.1707V36.3659H56.0976V48.0732H60.7805ZM63.1317 41.6341V41.0488H63.717V40.4634H64.3024V39.2927H63.1317V36.3659H66.0585V39.878H65.4731V40.4634H64.8878V41.0488H64.3024V41.6341H63.1317ZM71.3319 36.3659V38.7073H68.4051V36.3659H71.3319ZM71.3319 40.4634V51H68.4051V40.4634H71.3319ZM77.1907 42.2195V42.8049H76.6054V51H73.6785V39.878H76.6054V40.4634H77.1907V39.878H80.1176V40.4634H80.7029V41.0488H81.2883V40.4634H81.8737V39.878H84.8005V40.4634H85.9712V41.0488H86.5566V42.2195H87.142V51H84.2151V42.8049H83.6298V42.2195H82.459V42.8049H81.8737V51H78.9468V42.8049H78.3615V42.2195H77.1907ZM88.8895 39.878H91.8163V40.4634H92.4017V39.878H95.9139V40.4634H97.0846V41.0488H97.67V42.2195H98.2553V48.6585H97.67V49.8293H97.0846V50.4146H95.9139V51H91.8163V54.5122H88.8895V39.878ZM94.7431 48.0732H95.3285V42.8049H94.7431V42.2195H92.4017V42.8049H91.8163V48.6585H94.7431V48.0732ZM106.461 50.4146V51H101.778V50.4146H100.608V49.8293H100.022V48.6585H99.4369V42.2195H100.022V41.0488H100.608V40.4634H101.778V39.878H106.461V40.4634H107.632V41.0488H108.217V42.2195H108.803V48.6585H108.217V49.8293H107.632V50.4146H106.461ZM102.949 48.0732V48.6585H105.291V48.0732H105.876V42.8049H105.291V42.2195H102.949V42.8049H102.364V48.0732H102.949ZM114.081 42.2195V42.8049H113.496V51H110.569V39.878H113.496V40.4634H114.081V39.878H117.594V40.4634H118.179V41.0488H118.764V41.6341H118.179V42.2195H117.594V42.8049H117.008V43.3902H116.423V42.8049H115.837V42.2195H114.081ZM123.456 48.0732V48.6585H125.212V51H122.286V50.4146H121.115V49.8293H120.53V48.6585H119.944V42.8049H118.773V40.4634H119.944V39.2927H120.53V38.7073H121.115V38.122H121.7V37.5366H122.286V36.9512H122.871V40.4634H125.212V42.8049H122.871V48.0732H123.456ZM129.902 46.3171V46.9024H129.317V48.0732H129.902V48.6585H132.244V48.0732H132.829V46.3171H129.902ZM126.975 49.8293V48.6585H126.39V46.9024H126.975V45.7317H127.561V45.1463H128.732V44.561H132.829V42.8049H132.244V42.2195H129.902V42.8049H129.317V43.3902H126.39V42.2195H126.975V41.0488H127.561V40.4634H128.732V39.878H133.414V40.4634H134.585V41.0488H135.171V42.2195H135.756V51H132.829V50.4146H132.244V51H128.146V50.4146H127.561V49.8293H126.975ZM141.62 42.2195V42.8049H141.035V51H138.108V39.878H141.035V40.4634H141.62V39.878H145.133V40.4634H146.303V41.0488H146.889V42.2195H147.474V51H144.547V42.8049H143.962V42.2195H141.62ZM152.168 48.0732V48.6585H154.509V48.0732H155.095V46.9024H158.022V48.6585H157.436V49.8293H156.851V50.4146H155.68V51H150.997V50.4146H149.826V49.8293H149.241V48.6585H148.656V42.2195H149.241V41.0488H149.826V40.4634H150.997V39.878H155.68V40.4634H156.851V41.0488H157.436V42.2195H158.022V43.9756H155.095V42.8049H154.509V42.2195H152.168V42.8049H151.583V48.0732H152.168ZM162.715 48.0732V48.6585H165.056V48.0732H165.642V47.4878H168.568V48.6585H167.983V49.8293H167.398V50.4146H166.227V51H161.544V50.4146H160.373V49.8293H159.788V48.6585H159.203V42.2195H159.788V41.0488H160.373V40.4634H161.544V39.878H166.227V40.4634H167.398V41.0488H167.983V42.2195H168.568V46.3171H162.129V48.0732H162.715ZM162.129 42.8049V44.561H165.642V42.8049H165.056V42.2195H162.715V42.8049H162.129ZM179.121 48.0732V48.6585H181.462V48.0732H182.048V42.2195H179.121V42.8049H178.536V48.0732H179.121ZM176.194 42.2195V41.0488H176.78V40.4634H177.95V39.878H182.048V36.3659H184.975V51H182.048V50.4146H181.462V51H177.95V50.4146H176.78V49.8293H176.194V48.6585H175.609V42.2195H176.194ZM190.254 46.3171V46.9024H189.668V48.0732H190.254V48.6585H192.595V48.0732H193.181V46.3171H190.254ZM187.327 49.8293V48.6585H186.742V46.9024H187.327V45.7317H187.912V45.1463H189.083V44.561H193.181V42.8049H192.595V42.2195H190.254V42.8049H189.668V43.3902H186.742V42.2195H187.327V41.0488H187.912V40.4634H189.083V39.878H193.766V40.4634H194.937V41.0488H195.522V42.2195H196.107V51H193.181V50.4146H192.595V51H188.498V50.4146H187.912V49.8293H187.327ZM201.972 42.2195V42.8049H201.387V51H198.46V39.878H201.387V40.4634H201.972V39.878H205.484V40.4634H206.655V41.0488H207.24V42.2195H207.826V51H204.899V42.8049H204.313V42.2195H201.972ZM211.934 47.4878V48.0732H212.519V48.6585H214.861V48.0732H215.446V46.9024H214.861V46.3171H211.349V45.7317H210.178V45.1463H209.593V43.9756H209.007V42.2195H209.593V41.0488H210.178V40.4634H211.349V39.878H216.032V40.4634H217.202V41.0488H217.788V42.8049H214.861V42.2195H212.519V42.8049H211.934V43.3902H212.519V43.9756H216.032V44.561H217.202V45.1463H217.788V46.3171H218.373V48.6585H217.788V49.8293H217.202V50.4146H216.032V51H211.349V50.4146H210.178V49.8293H209.593V48.6585H209.007V47.4878H211.934ZM228.926 36.3659V51H225.999V36.3659H228.926ZM234.199 46.3171V46.9024H233.614V48.0732H234.199V48.6585H236.541V48.0732H237.126V46.3171H234.199ZM231.272 49.8293V48.6585H230.687V46.9024H231.272V45.7317H231.858V45.1463H233.028V44.561H237.126V42.8049H236.541V42.2195H234.199V42.8049H233.614V43.3902H230.687V42.2195H231.272V41.0488H231.858V40.4634H233.028V39.878H237.711V40.4634H238.882V41.0488H239.467V42.2195H240.053V51H237.126V50.4146H236.541V51H232.443V50.4146H231.858V49.8293H231.272ZM251.191 48.0732V48.6585H253.533V48.0732H254.118V46.9024H257.045V48.6585H256.46V49.8293H255.874V50.4146H254.704V51H250.021V50.4146H248.85V49.8293H248.264V48.6585H247.679V42.2195H248.264V41.0488H248.85V40.4634H250.021V39.878H254.704V40.4634H255.874V41.0488H256.46V42.2195H257.045V43.9756H254.118V42.8049H253.533V42.2195H251.191V42.8049H250.606V48.0732H251.191ZM265.25 50.4146V51H260.567V50.4146H259.397V49.8293H258.811V48.6585H258.226V42.2195H258.811V41.0488H259.397V40.4634H260.567V39.878H265.25V40.4634H266.421V41.0488H267.006V42.2195H267.592V48.6585H267.006V49.8293H266.421V50.4146H265.25ZM261.738 48.0732V48.6585H264.08V48.0732H264.665V42.8049H264.08V42.2195H261.738V42.8049H261.153V48.0732H261.738ZM272.87 42.2195V42.8049H272.285V51H269.358V39.878H272.285V40.4634H272.87V39.878H275.797V40.4634H276.383V41.0488H276.968V40.4634H277.553V39.878H280.48V40.4634H281.651V41.0488H282.236V42.2195H282.822V51H279.895V42.8049H279.309V42.2195H278.139V42.8049H277.553V51H274.627V42.8049H274.041V42.2195H272.87ZM288.081 42.2195V42.8049H287.496V51H284.569V39.878H287.496V40.4634H288.081V39.878H291.008V40.4634H291.594V41.0488H292.179V40.4634H292.764V39.878H295.691V40.4634H296.862V41.0488H297.447V42.2195H298.033V51H295.106V42.8049H294.52V42.2195H293.35V42.8049H292.764V51H289.837V42.8049H289.252V42.2195H288.081ZM299.78 49.8293V48.6585H299.195V39.878H302.122V48.0732H302.707V48.6585H305.048V48.0732H305.634V39.878H308.561V51H305.634V50.4146H305.048V51H301.536V50.4146H300.365V49.8293H299.78ZM314.425 42.2195V42.8049H313.84V51H310.913V39.878H313.84V40.4634H314.425V39.878H317.937V40.4634H319.108V41.0488H319.693V42.2195H320.279V51H317.352V42.8049H316.767V42.2195H314.425ZM324.973 36.3659V38.7073H322.046V36.3659H324.973ZM324.973 40.4634V51H322.046V40.4634H324.973ZM330.246 48.0732V48.6585H332.587V48.0732H333.173V46.9024H336.1V48.6585H335.514V49.8293H334.929V50.4146H333.758V51H329.075V50.4146H327.905V49.8293H327.319V48.6585H326.734V42.2195H327.319V41.0488H327.905V40.4634H329.075V39.878H333.758V40.4634H334.929V41.0488H335.514V42.2195H336.1V43.9756H333.173V42.8049H332.587V42.2195H330.246V42.8049H329.661V48.0732H330.246ZM340.793 46.3171V46.9024H340.208V48.0732H340.793V48.6585H343.134V48.0732H343.72V46.3171H340.793ZM337.866 49.8293V48.6585H337.281V46.9024H337.866V45.7317H338.451V45.1463H339.622V44.561H343.72V42.8049H343.134V42.2195H340.793V42.8049H340.208V43.3902H337.281V42.2195H337.866V41.0488H338.451V40.4634H339.622V39.878H344.305V40.4634H345.476V41.0488H346.061V42.2195H346.647V51H343.72V50.4146H343.134V51H339.037V50.4146H338.451V49.8293H337.866ZM352.511 48.0732V48.6585H354.267V51H351.34V50.4146H350.17V49.8293H349.584V48.6585H348.999V42.8049H347.828V40.4634H348.999V39.2927H349.584V38.7073H350.17V38.122H350.755V37.5366H351.34V36.9512H351.926V40.4634H354.267V42.8049H351.926V48.0732H352.511ZM358.957 36.3659V38.7073H356.03V36.3659H358.957ZM358.957 40.4634V51H356.03V40.4634H358.957ZM367.743 50.4146V51H363.06V50.4146H361.889V49.8293H361.304V48.6585H360.718V42.2195H361.304V41.0488H361.889V40.4634H363.06V39.878H367.743V40.4634H368.913V41.0488H369.499V42.2195H370.084V48.6585H369.499V49.8293H368.913V50.4146H367.743ZM364.23 48.0732V48.6585H366.572V48.0732H367.157V42.8049H366.572V42.2195H364.23V42.8049H363.645V48.0732H364.23ZM375.363 42.2195V42.8049H374.777V51H371.85V39.878H374.777V40.4634H375.363V39.878H378.875V40.4634H380.046V41.0488H380.631V42.2195H381.216V51H378.289V42.8049H377.704V42.2195H375.363ZM385.91 48.0732V51.5854H385.325V52.1707H384.739V52.7561H384.154V53.3415H382.983V52.7561H383.569V52.1707H384.154V51H382.983V48.0732H385.91ZM56.0976 72.0732V72.6585H58.439V72.0732H59.0244V70.9024H61.9512V72.6585H61.3659V73.8293H60.7805V74.4146H59.6098V75H54.9268V74.4146H53.7561V73.8293H53.1707V72.6585H52.5854V66.2195H53.1707V65.0488H53.7561V64.4634H54.9268V63.878H59.6098V64.4634H60.7805V65.0488H61.3659V66.2195H61.9512V67.9756H59.0244V66.8049H58.439V66.2195H56.0976V66.8049H55.5122V72.0732H56.0976ZM63.7176 65.6341V65.0488H64.303V64.4634H64.8883V63.2927H63.7176V60.3659H66.6444V63.878H66.0591V64.4634H65.4737V65.0488H64.8883V65.6341H63.7176ZM71.9179 72.0732V72.6585H74.2593V72.0732H74.8447V71.4878H77.7715V72.6585H77.1862V73.8293H76.6008V74.4146H75.4301V75H70.7471V74.4146H69.5764V73.8293H68.991V72.6585H68.4057V66.2195H68.991V65.0488H69.5764V64.4634H70.7471V63.878H75.4301V64.4634H76.6008V65.0488H77.1862V66.2195H77.7715V70.3171H71.3325V72.0732H71.9179ZM71.3325 66.8049V68.561H74.8447V66.8049H74.2593V66.2195H71.9179V66.8049H71.3325ZM81.8794 71.4878V72.0732H82.4647V72.6585H84.8062V72.0732H85.3916V70.9024H84.8062V70.3171H81.294V69.7317H80.1233V69.1463H79.5379V67.9756H78.9526V66.2195H79.5379V65.0488H80.1233V64.4634H81.294V63.878H85.9769V64.4634H87.1477V65.0488H87.733V66.8049H84.8062V66.2195H82.4647V66.8049H81.8794V67.3902H82.4647V67.9756H85.9769V68.561H87.1477V69.1463H87.733V70.3171H88.3184V72.6585H87.733V73.8293H87.1477V74.4146H85.9769V75H81.294V74.4146H80.1233V73.8293H79.5379V72.6585H78.9526V71.4878H81.8794ZM93.597 72.0732V72.6585H95.3531V75H92.4263V74.4146H91.2555V73.8293H90.6702V72.6585H90.0848V66.8049H88.9141V64.4634H90.0848V63.2927H90.6702V62.7073H91.2555V62.122H91.8409V61.5366H92.4263V60.9512H93.0116V64.4634H95.3531V66.8049H93.0116V72.0732H93.597ZM105.902 72.0732V72.6585H108.244V72.0732H108.829V66.2195H105.902V66.8049H105.317V72.0732H105.902ZM102.975 66.2195V65.0488H103.561V64.4634H104.732V63.878H108.829V60.3659H111.756V75H108.829V74.4146H108.244V75H104.732V74.4146H103.561V73.8293H102.975V72.6585H102.39V66.2195H102.975ZM114.108 65.6341V65.0488H114.694V64.4634H115.279V63.2927H114.108V60.3659H117.035V63.878H116.45V64.4634H115.864V65.0488H115.279V65.6341H114.108ZM122.308 70.3171V70.9024H121.723V72.0732H122.308V72.6585H124.65V72.0732H125.235V70.3171H122.308ZM119.382 73.8293V72.6585H118.796V70.9024H119.382V69.7317H119.967V69.1463H121.138V68.561H125.235V66.8049H124.65V66.2195H122.308V66.8049H121.723V67.3902H118.796V66.2195H119.382V65.0488H119.967V64.4634H121.138V63.878H125.821V64.4634H126.991V65.0488H127.577V66.2195H128.162V75H125.235V74.4146H124.65V75H120.552V74.4146H119.967V73.8293H119.382ZM133.441 60.3659V75H130.514V60.3659H133.441ZM138.715 60.3659V75H135.788V60.3659H138.715ZM143.988 72.0732V72.6585H146.33V72.0732H146.915V71.4878H149.842V72.6585H149.256V73.8293H148.671V74.4146H147.5V75H142.817V74.4146H141.647V73.8293H141.061V72.6585H140.476V66.2195H141.061V65.0488H141.647V64.4634H142.817V63.878H147.5V64.4634H148.671V65.0488H149.256V66.2195H149.842V70.3171H143.403V72.0732H143.988ZM143.403 66.8049V68.561H146.915V66.8049H146.33V66.2195H143.988V66.8049H143.403ZM155.12 66.2195V66.8049H154.535V75H151.608V63.878H154.535V64.4634H155.12V63.878H158.633V64.4634H159.218V65.0488H159.803V65.6341H159.218V66.2195H158.633V66.8049H158.047V67.3902H157.462V66.8049H156.877V66.2195H155.12ZM172.696 60.9512V62.7073H170.94V62.122H170.355V61.5366H169.769V60.9512H169.184V59.1951H170.94V59.7805H171.526V60.3659H172.111V60.9512H172.696ZM169.769 70.3171V70.9024H169.184V72.0732H169.769V72.6585H172.111V72.0732H172.696V70.3171H169.769ZM166.843 73.8293V72.6585H166.257V70.9024H166.843V69.7317H167.428V69.1463H168.599V68.561H172.696V66.8049H172.111V66.2195H169.769V66.8049H169.184V67.3902H166.257V66.2195H166.843V65.0488H167.428V64.4634H168.599V63.878H173.282V64.4634H174.452V65.0488H175.038V66.2195H175.623V75H172.696V74.4146H172.111V75H168.013V74.4146H167.428V73.8293H166.843ZM186.762 60.3659V75H183.835V60.3659H186.762ZM189.108 65.6341V65.0488H189.694V64.4634H190.279V63.2927H189.108V60.3659H192.035V63.878H191.45V64.4634H190.864V65.0488H190.279V65.6341H189.108ZM197.308 72.0732V72.6585H199.65V72.0732H200.235V71.4878H203.162V72.6585H202.577V73.8293H201.991V74.4146H200.821V75H196.138V74.4146H194.967V73.8293H194.382V72.6585H193.796V66.2195H194.382V65.0488H194.967V64.4634H196.138V63.878H200.821V64.4634H201.991V65.0488H202.577V66.2195H203.162V70.3171H196.723V72.0732H197.308ZM196.723 66.8049V68.561H200.235V66.8049H199.65V66.2195H197.308V66.8049H196.723ZM207.27 71.4878V72.0732H207.855V72.6585H210.197V72.0732H210.782V70.9024H210.197V70.3171H206.685V69.7317H205.514V69.1463H204.929V67.9756H204.343V66.2195H204.929V65.0488H205.514V64.4634H206.685V63.878H211.368V64.4634H212.538V65.0488H213.124V66.8049H210.197V66.2195H207.855V66.8049H207.27V67.3902H207.855V67.9756H211.368V68.561H212.538V69.1463H213.124V70.3171H213.709V72.6585H213.124V73.8293H212.538V74.4146H211.368V75H206.685V74.4146H205.514V73.8293H204.929V72.6585H204.343V71.4878H207.27ZM217.817 71.4878V72.0732H218.402V72.6585H220.744V72.0732H221.329V70.9024H220.744V70.3171H217.232V69.7317H216.061V69.1463H215.475V67.9756H214.89V66.2195H215.475V65.0488H216.061V64.4634H217.232V63.878H221.914V64.4634H223.085V65.0488H223.671V66.8049H220.744V66.2195H218.402V66.8049H217.817V67.3902H218.402V67.9756H221.914V68.561H223.085V69.1463H223.671V70.3171H224.256V72.6585H223.671V73.8293H223.085V74.4146H221.914V75H217.232V74.4146H216.061V73.8293H215.475V72.6585H214.89V71.4878H217.817ZM228.949 72.0732V72.6585H231.291V72.0732H231.876V71.4878H234.803V72.6585H234.217V73.8293H233.632V74.4146H232.461V75H227.778V74.4146H226.608V73.8293H226.022V72.6585H225.437V66.2195H226.022V65.0488H226.608V64.4634H227.778V63.878H232.461V64.4634H233.632V65.0488H234.217V66.2195H234.803V70.3171H228.364V72.0732H228.949ZM228.364 66.8049V68.561H231.876V66.8049H231.291V66.2195H228.949V66.8049H228.364ZM240.081 66.2195V66.8049H239.496V75H236.569V63.878H239.496V64.4634H240.081V63.878H243.594V64.4634H244.764V65.0488H245.35V66.2195H245.935V75H243.008V66.8049H242.423V66.2195H240.081ZM251.214 72.0732V72.6585H252.97V75H250.043V74.4146H248.873V73.8293H248.287V72.6585H247.702V66.8049H246.531V64.4634H247.702V63.2927H248.287V62.7073H248.873V62.122H249.458V61.5366H250.043V60.9512H250.629V64.4634H252.97V66.8049H250.629V72.0732H251.214ZM257.66 60.3659V62.7073H254.733V60.3659H257.66ZM257.66 64.4634V75H254.733V64.4634H257.66ZM262.933 72.0732V72.6585H265.275V72.0732H265.86V71.4878H268.787V72.6585H268.202V73.8293H267.616V74.4146H266.446V75H261.763V74.4146H260.592V73.8293H260.007V72.6585H259.421V66.2195H260.007V65.0488H260.592V64.4634H261.763V63.878H266.446V64.4634H267.616V65.0488H268.202V66.2195H268.787V70.3171H262.348V72.0732H262.933ZM262.348 66.8049V68.561H265.86V66.8049H265.275V66.2195H262.933V66.8049H262.348ZM273.48 60.3659V75H270.554V60.3659H273.48ZM278.754 72.0732V75.5854H278.168V76.1707H277.583V76.7561H276.998V77.3415H275.827V76.7561H276.412V76.1707H276.998V75H275.827V72.0732H278.754ZM289.887 72.0732V72.6585H292.228V72.0732H292.813V71.4878H295.74V72.6585H295.155V73.8293H294.57V74.4146H293.399V75H288.716V74.4146H287.545V73.8293H286.96V72.6585H286.374V66.2195H286.96V65.0488H287.545V64.4634H288.716V63.878H293.399V64.4634H294.57V65.0488H295.155V66.2195H295.74V70.3171H289.301V72.0732H289.887ZM289.301 66.8049V68.561H292.813V66.8049H292.228V66.2195H289.887V66.8049H289.301ZM300.433 60.3659V75H297.507V60.3659H300.433ZM305.707 60.3659V75H302.78V60.3659H305.707ZM310.98 72.0732V72.6585H313.322V72.0732H313.907V71.4878H316.834V72.6585H316.249V73.8293H315.663V74.4146H314.493V75H309.81V74.4146H308.639V73.8293H308.054V72.6585H307.468V66.2195H308.054V65.0488H308.639V64.4634H309.81V63.878H314.493V64.4634H315.663V65.0488H316.249V66.2195H316.834V70.3171H310.395V72.0732H310.98ZM310.395 66.8049V68.561H313.907V66.8049H313.322V66.2195H310.98V66.8049H310.395ZM327.387 72.0732V72.6585H329.728V72.0732H330.313V66.2195H327.387V66.8049H326.801V72.0732H327.387ZM324.46 66.2195V65.0488H325.045V64.4634H326.216V63.878H330.313V60.3659H333.24V75H330.313V74.4146H329.728V75H326.216V74.4146H325.045V73.8293H324.46V72.6585H323.874V66.2195H324.46ZM342.032 74.4146V75H337.349V74.4146H336.178V73.8293H335.593V72.6585H335.007V66.2195H335.593V65.0488H336.178V64.4634H337.349V63.878H342.032V64.4634H343.202V65.0488H343.788V66.2195H344.373V72.6585H343.788V73.8293H343.202V74.4146H342.032ZM338.519 72.0732V72.6585H340.861V72.0732H341.446V66.8049H340.861V66.2195H338.519V66.8049H337.934V72.0732H338.519ZM349.066 60.3659V62.7073H346.139V60.3659H349.066ZM349.066 64.4634V75H346.139V64.4634H349.066ZM354.925 72.0732V72.6585H356.681V75H353.754V74.4146H352.584V73.8293H351.998V72.6585H351.413V66.8049H350.242V64.4634H351.413V63.2927H351.998V62.7073H352.584V62.122H353.169V61.5366H353.754V60.9512H354.34V64.4634H356.681V66.8049H354.34V72.0732H354.925ZM367.23 61.5366V62.122H365.474V60.9512H366.06V60.3659H366.645V59.7805H367.23V59.1951H369.572V59.7805H370.157V60.3659H370.743V60.9512H371.328V62.122H369.572V61.5366H368.986V60.9512H367.816V61.5366H367.23ZM366.645 66.8049V68.561H370.157V66.8049H369.572V66.2195H367.23V66.8049H366.645ZM367.23 72.0732V72.6585H369.572V72.0732H370.157V71.4878H373.084V72.6585H372.499V73.8293H371.913V74.4146H370.743V75H366.06V74.4146H364.889V73.8293H364.304V72.6585H363.718V66.2195H364.304V65.0488H364.889V64.4634H366.06V63.878H370.743V64.4634H371.913V65.0488H372.499V66.2195H373.084V70.3171H366.645V72.0732H367.23ZM378.363 72.0732V72.6585H380.119V75H377.192V74.4146H376.021V73.8293H375.436V72.6585H374.85V66.8049H373.68V64.4634H374.85V63.2927H375.436V62.7073H376.021V62.122H376.607V61.5366H377.192V60.9512H377.777V64.4634H380.119V66.8049H377.777V72.0732H378.363ZM385.394 66.2195V66.8049H384.808V75H381.882V63.878H384.808V64.4634H385.394V63.878H388.906V64.4634H389.491V65.0488H390.077V65.6341H389.491V66.2195H388.906V66.8049H388.321V67.3902H387.735V66.8049H387.15V66.2195H385.394ZM394.183 72.0732V72.6585H396.525V72.0732H397.11V71.4878H400.037V72.6585H399.452V73.8293H398.866V74.4146H397.696V75H393.013V74.4146H391.842V73.8293H391.257V72.6585H390.671V66.2195H391.257V65.0488H391.842V64.4634H393.013V63.878H397.696V64.4634H398.866V65.0488H399.452V66.2195H400.037V70.3171H393.598V72.0732H394.183ZM393.598 66.8049V68.561H397.11V66.8049H396.525V66.2195H394.183V66.8049H393.598ZM56.0976 84.3659V86.7073H53.1707V84.3659H56.0976ZM56.0976 88.4634V99H53.1707V88.4634H56.0976ZM61.9564 90.2195V90.8049H61.371V99H58.4442V87.878H61.371V88.4634H61.9564V87.878H64.8832V88.4634H65.4686V89.0488H66.0539V88.4634H66.6393V87.878H69.5661V88.4634H70.7369V89.0488H71.3222V90.2195H71.9076V99H68.9808V90.8049H68.3954V90.2195H67.2247V90.8049H66.6393V99H63.7125V90.8049H63.1271V90.2195H61.9564ZM73.6551 87.878H76.5819V88.4634H77.1673V87.878H80.6795V88.4634H81.8502V89.0488H82.4356V90.2195H83.021V96.6585H82.4356V97.8293H81.8502V98.4146H80.6795V99H76.5819V102.512H73.6551V87.878ZM79.5088 96.0732H80.0941V90.8049H79.5088V90.2195H77.1673V90.8049H76.5819V96.6585H79.5088V96.0732ZM87.7147 94.3171V94.9024H87.1294V96.0732H87.7147V96.6585H90.0562V96.0732H90.6416V94.3171H87.7147ZM84.7879 97.8293V96.6585H84.2026V94.9024H84.7879V93.7317H85.3733V93.1463H86.544V92.561H90.6416V90.8049H90.0562V90.2195H87.7147V90.8049H87.1294V91.3902H84.2026V90.2195H84.7879V89.0488H85.3733V88.4634H86.544V87.878H91.2269V88.4634H92.3977V89.0488H92.983V90.2195H93.5684V99H90.6416V98.4146H90.0562V99H85.9587V98.4146H85.3733V97.8293H84.7879ZM98.8476 96.0732V96.6585H101.189V96.0732H101.774V94.9024H104.701V96.6585H104.116V97.8293H103.53V98.4146H102.36V99H97.6768V98.4146H96.5061V97.8293H95.9207V96.6585H95.3354V90.2195H95.9207V89.0488H96.5061V88.4634H97.6768V87.878H102.36V88.4634H103.53V89.0488H104.116V90.2195H104.701V91.9756H101.774V90.8049H101.189V90.2195H98.8476V90.8049H98.2622V96.0732H98.8476ZM109.98 96.0732V96.6585H111.736V99H108.809V98.4146H107.638V97.8293H107.053V96.6585H106.468V90.8049H105.297V88.4634H106.468V87.2927H107.053V86.7073H107.638V86.122H108.224V85.5366H108.809V84.9512H109.394V88.4634H111.736V90.8049H109.394V96.0732H109.98ZM116.426 94.3171V94.9024H115.84V96.0732H116.426V96.6585H118.767V96.0732H119.353V94.3171H116.426ZM113.499 97.8293V96.6585H112.913V94.9024H113.499V93.7317H114.084V93.1463H115.255V92.561H119.353V90.8049H118.767V90.2195H116.426V90.8049H115.84V91.3902H112.913V90.2195H113.499V89.0488H114.084V88.4634H115.255V87.878H119.938V88.4634H121.109V89.0488H121.694V90.2195H122.279V99H119.353V98.4146H118.767V99H114.67V98.4146H114.084V97.8293H113.499ZM128.144 90.2195V90.8049H127.558V99H124.632V87.878H127.558V88.4634H128.144V87.878H131.656V88.4634H132.827V89.0488H133.412V90.2195H133.998V99H131.071V90.8049H130.485V90.2195H128.144ZM139.277 96.0732V96.6585H141.033V99H138.106V98.4146H136.935V97.8293H136.35V96.6585H135.764V90.8049H134.594V88.4634H135.764V87.2927H136.35V86.7073H136.935V86.122H137.521V85.5366H138.106V84.9512H138.691V88.4634H141.033V90.8049H138.691V96.0732H139.277ZM145.723 96.0732V96.6585H148.064V96.0732H148.649V95.4878H151.576V96.6585H150.991V97.8293H150.405V98.4146H149.235V99H144.552V98.4146H143.381V97.8293H142.796V96.6585H142.21V90.2195H142.796V89.0488H143.381V88.4634H144.552V87.878H149.235V88.4634H150.405V89.0488H150.991V90.2195H151.576V94.3171H145.137V96.0732H145.723ZM145.137 90.8049V92.561H148.649V90.8049H148.064V90.2195H145.723V90.8049H145.137ZM162.129 96.0732V96.6585H164.47V96.0732H165.056V95.4878H167.982V96.6585H167.397V97.8293H166.812V98.4146H165.641V99H160.958V98.4146H159.787V97.8293H159.202V96.6585H158.617V90.2195H159.202V89.0488H159.787V88.4634H160.958V87.878H165.641V88.4634H166.812V89.0488H167.397V90.2195H167.982V94.3171H161.543V96.0732H162.129ZM161.543 90.8049V92.561H165.056V90.8049H164.47V90.2195H162.129V90.8049H161.543ZM173.261 96.0732V96.6585H175.017V99H172.09V98.4146H170.92V97.8293H170.334V96.6585H169.749V90.8049H168.578V88.4634H169.749V87.2927H170.334V86.7073H170.92V86.122H171.505V85.5366H172.09V84.9512H172.676V88.4634H175.017V90.8049H172.676V96.0732H173.261ZM185.566 94.3171V94.9024H184.981V96.0732H185.566V96.6585H187.908V96.0732H188.493V94.3171H185.566ZM182.639 97.8293V96.6585H182.054V94.9024H182.639V93.7317H183.225V93.1463H184.396V92.561H188.493V90.8049H187.908V90.2195H185.566V90.8049H184.981V91.3902H182.054V90.2195H182.639V89.0488H183.225V88.4634H184.396V87.878H189.079V88.4634H190.249V89.0488H190.835V90.2195H191.42V99H188.493V98.4146H187.908V99H183.81V98.4146H183.225V97.8293H182.639ZM196.699 96.0732V96.6585H199.041V96.0732H199.626V94.9024H202.553V96.6585H201.967V97.8293H201.382V98.4146H200.211V99H195.528V98.4146H194.358V97.8293H193.772V96.6585H193.187V90.2195H193.772V89.0488H194.358V88.4634H195.528V87.878H200.211V88.4634H201.382V89.0488H201.967V90.2195H202.553V91.9756H199.626V90.8049H199.041V90.2195H196.699V90.8049H196.114V96.0732H196.699ZM207.246 96.0732V96.6585H209.587V96.0732H210.173V94.9024H213.1V96.6585H212.514V97.8293H211.929V98.4146H210.758V99H206.075V98.4146H204.905V97.8293H204.319V96.6585H203.734V90.2195H204.319V89.0488H204.905V88.4634H206.075V87.878H210.758V88.4634H211.929V89.0488H212.514V90.2195H213.1V91.9756H210.173V90.8049H209.587V90.2195H207.246V90.8049H206.661V96.0732H207.246ZM217.793 96.0732V96.6585H220.134V96.0732H220.72V95.4878H223.647V96.6585H223.061V97.8293H222.476V98.4146H221.305V99H216.622V98.4146H215.451V97.8293H214.866V96.6585H214.281V90.2195H214.866V89.0488H215.451V88.4634H216.622V87.878H221.305V88.4634H222.476V89.0488H223.061V90.2195H223.647V94.3171H217.208V96.0732H217.793ZM217.208 90.8049V92.561H220.72V90.8049H220.134V90.2195H217.793V90.8049H217.208ZM227.754 95.4878V96.0732H228.34V96.6585H230.681V96.0732H231.267V94.9024H230.681V94.3171H227.169V93.7317H225.998V93.1463H225.413V91.9756H224.828V90.2195H225.413V89.0488H225.998V88.4634H227.169V87.878H231.852V88.4634H233.023V89.0488H233.608V90.8049H230.681V90.2195H228.34V90.8049H227.754V91.3902H228.34V91.9756H231.852V92.561H233.023V93.1463H233.608V94.3171H234.193V96.6585H233.608V97.8293H233.023V98.4146H231.852V99H227.169V98.4146H225.998V97.8293H225.413V96.6585H224.828V95.4878H227.754ZM238.301 95.4878V96.0732H238.887V96.6585H241.228V96.0732H241.813V94.9024H241.228V94.3171H237.716V93.7317H236.545V93.1463H235.96V91.9756H235.374V90.2195H235.96V89.0488H236.545V88.4634H237.716V87.878H242.399V88.4634H243.57V89.0488H244.155V90.8049H241.228V90.2195H238.887V90.8049H238.301V91.3902H238.887V91.9756H242.399V92.561H243.57V93.1463H244.155V94.3171H244.74V96.6585H244.155V97.8293H243.57V98.4146H242.399V99H237.716V98.4146H236.545V97.8293H235.96V96.6585H235.374V95.4878H238.301ZM249.433 84.3659V86.7073H246.507V84.3659H249.433ZM249.433 88.4634V99H246.507V88.4634H249.433ZM260.561 90.2195H261.146V96.6585H260.561V97.8293H259.975V98.4146H258.804V99H251.78V84.3659H254.707V88.4634H255.292V87.878H258.804V88.4634H259.975V89.0488H260.561V90.2195ZM257.634 96.0732H258.219V90.8049H257.634V90.2195H255.292V90.8049H254.707V96.6585H257.634V96.0732ZM265.84 84.3659V99H262.913V84.3659H265.84ZM271.113 96.0732V96.6585H273.455V96.0732H274.04V95.4878H276.967V96.6585H276.381V97.8293H275.796V98.4146H274.625V99H269.942V98.4146H268.772V97.8293H268.186V96.6585H267.601V90.2195H268.186V89.0488H268.772V88.4634H269.942V87.878H274.625V88.4634H275.796V89.0488H276.381V90.2195H276.967V94.3171H270.528V96.0732H271.113ZM270.528 90.8049V92.561H274.04V90.8049H273.455V90.2195H271.113V90.8049H270.528ZM290.446 84.9512V86.7073H288.69V86.122H288.105V85.5366H287.519V84.9512H286.934V83.1951H288.69V83.7805H289.276V84.3659H289.861V84.9512H290.446ZM287.519 94.3171V94.9024H286.934V96.0732H287.519V96.6585H289.861V96.0732H290.446V94.3171H287.519ZM284.593 97.8293V96.6585H284.007V94.9024H284.593V93.7317H285.178V93.1463H286.349V92.561H290.446V90.8049H289.861V90.2195H287.519V90.8049H286.934V91.3902H284.007V90.2195H284.593V89.0488H285.178V88.4634H286.349V87.878H291.032V88.4634H292.202V89.0488H292.788V90.2195H293.373V99H290.446V98.4146H289.861V99H285.763V98.4146H285.178V97.8293H284.593ZM305.097 96.0732V96.6585H306.853V99H303.926V98.4146H302.756V97.8293H302.17V96.6585H301.585V90.8049H300.414V88.4634H301.585V87.2927H302.17V86.7073H302.756V86.122H303.341V85.5366H303.926V84.9512H304.512V88.4634H306.853V90.8049H304.512V96.0732H305.097ZM315.055 98.4146V99H310.372V98.4146H309.201V97.8293H308.616V96.6585H308.031V90.2195H308.616V89.0488H309.201V88.4634H310.372V87.878H315.055V88.4634H316.226V89.0488H316.811V90.2195H317.397V96.6585H316.811V97.8293H316.226V98.4146H315.055ZM311.543 96.0732V96.6585H313.884V96.0732H314.47V90.8049H313.884V90.2195H311.543V90.8049H310.958V96.0732H311.543ZM319.163 97.8293V96.6585H318.578V87.878H321.504V96.0732H322.09V96.6585H324.431V96.0732H325.017V87.878H327.943V99H325.017V98.4146H324.431V99H320.919V98.4146H319.748V97.8293H319.163ZM332.637 95.4878V96.0732H333.223V96.6585H335.564V96.0732H336.149V94.9024H335.564V94.3171H332.052V93.7317H330.881V93.1463H330.296V91.9756H329.71V90.2195H330.296V89.0488H330.881V88.4634H332.052V87.878H336.735V88.4634H337.905V89.0488H338.491V90.8049H335.564V90.2195H333.223V90.8049H332.637V91.3902H333.223V91.9756H336.735V92.561H337.905V93.1463H338.491V94.3171H339.076V96.6585H338.491V97.8293H337.905V98.4146H336.735V99H332.052V98.4146H330.881V97.8293H330.296V96.6585H329.71V95.4878H332.637ZM349.043 95.4878V96.0732H349.629V96.6585H351.97V96.0732H352.556V94.9024H351.97V94.3171H348.458V93.7317H347.287V93.1463H346.702V91.9756H346.117V90.2195H346.702V89.0488H347.287V88.4634H348.458V87.878H353.141V88.4634H354.312V89.0488H354.897V90.8049H351.97V90.2195H349.629V90.8049H349.043V91.3902H349.629V91.9756H353.141V92.561H354.312V93.1463H354.897V94.3171H355.482V96.6585H354.897V97.8293H354.312V98.4146H353.141V99H348.458V98.4146H347.287V97.8293H346.702V96.6585H346.117V95.4878H349.043ZM360.176 94.3171V94.9024H359.59V96.0732H360.176V96.6585H362.517V96.0732H363.103V94.3171H360.176ZM357.249 97.8293V96.6585H356.663V94.9024H357.249V93.7317H357.834V93.1463H359.005V92.561H363.103V90.8049H362.517V90.2195H360.176V90.8049H359.59V91.3902H356.663V90.2195H357.249V89.0488H357.834V88.4634H359.005V87.878H363.688V88.4634H364.859V89.0488H365.444V90.2195H366.029V99H363.103V98.4146H362.517V99H358.42V98.4146H357.834V97.8293H357.249ZM371.894 90.2195V90.8049H371.308V99H368.382V87.878H371.308V88.4634H371.894V87.878H375.406V88.4634H376.577V89.0488H377.162V90.2195H377.748V99H374.821V90.8049H374.235V90.2195H371.894ZM381.856 95.4878V96.0732H382.441V96.6585H384.783V96.0732H385.368V94.9024H384.783V94.3171H381.271V93.7317H380.1V93.1463H379.514V91.9756H378.929V90.2195H379.514V89.0488H380.1V88.4634H381.271V87.878H385.954V88.4634H387.124V89.0488H387.71V90.8049H384.783V90.2195H382.441V90.8049H381.856V91.3902H382.441V91.9756H385.954V92.561H387.124V93.1463H387.71V94.3171H388.295V96.6585H387.71V97.8293H387.124V98.4146H385.954V99H381.271V98.4146H380.1V97.8293H379.514V96.6585H378.929V95.4878H381.856ZM56.0976 109.537V110.122H54.3415V108.951H54.9268V108.366H55.5122V107.78H56.0976V107.195H58.439V107.78H59.0244V108.366H59.6098V108.951H60.1951V110.122H58.439V109.537H57.8537V108.951H56.6829V109.537H56.0976ZM55.5122 114.805V116.561H59.0244V114.805H58.439V114.22H56.0976V114.805H55.5122ZM56.0976 120.073V120.659H58.439V120.073H59.0244V119.488H61.9512V120.659H61.3659V121.829H60.7805V122.415H59.6098V123H54.9268V122.415H53.7561V121.829H53.1707V120.659H52.5854V114.22H53.1707V113.049H53.7561V112.463H54.9268V111.878H59.6098V112.463H60.7805V113.049H61.3659V114.22H61.9512V118.317H55.5122V120.073H56.0976ZM67.2298 120.073V120.659H68.9859V123H66.0591V122.415H64.8883V121.829H64.303V120.659H63.7176V114.805H62.5469V112.463H63.7176V111.293H64.303V110.707H64.8883V110.122H65.4737V109.537H66.0591V108.951H66.6444V112.463H68.9859V114.805H66.6444V120.073H67.2298ZM74.2611 114.22V114.805H73.6757V123H70.7489V111.878H73.6757V112.463H74.2611V111.878H77.7732V112.463H78.3586V113.049H78.944V113.634H78.3586V114.22H77.7732V114.805H77.1879V115.39H76.6025V114.805H76.0171V114.22H74.2611ZM83.0507 120.073V120.659H85.3921V120.073H85.9775V119.488H88.9043V120.659H88.319V121.829H87.7336V122.415H86.5629V123H81.88V122.415H80.7092V121.829H80.1239V120.659H79.5385V114.22H80.1239V113.049H80.7092V112.463H81.88V111.878H86.5629V112.463H87.7336V113.049H88.319V114.22H88.9043V118.317H82.4653V120.073H83.0507ZM82.4653 114.805V116.561H85.9775V114.805H85.3921V114.22H83.0507V114.805H82.4653ZM105.311 114.22H105.896V120.659H105.311V121.829H104.725V122.415H103.554V123H96.5301V108.366H99.4569V112.463H100.042V111.878H103.554V112.463H104.725V113.049H105.311V114.22ZM102.384 120.073H102.969V114.805H102.384V114.22H100.042V114.805H99.4569V120.659H102.384V120.073ZM110.59 118.317V118.902H110.004V120.073H110.59V120.659H112.931V120.073H113.517V118.317H110.59ZM107.663 121.829V120.659H107.078V118.902H107.663V117.732H108.248V117.146H109.419V116.561H113.517V114.805H112.931V114.22H110.59V114.805H110.004V115.39H107.078V114.22H107.663V113.049H108.248V112.463H109.419V111.878H114.102V112.463H115.273V113.049H115.858V114.22H116.443V123H113.517V122.415H112.931V123H108.834V122.415H108.248V121.829H107.663ZM121.137 119.488V120.073H121.723V120.659H124.064V120.073H124.649V118.902H124.064V118.317H120.552V117.732H119.381V117.146H118.796V115.976H118.21V114.22H118.796V113.049H119.381V112.463H120.552V111.878H125.235V112.463H126.405V113.049H126.991V114.805H124.064V114.22H121.723V114.805H121.137V115.39H121.723V115.976H125.235V116.561H126.405V117.146H126.991V118.317H127.576V120.659H126.991V121.829H126.405V122.415H125.235V123H120.552V122.415H119.381V121.829H118.796V120.659H118.21V119.488H121.137ZM132.269 108.366V110.707H129.343V108.366H132.269ZM132.269 112.463V123H129.343V112.463H132.269ZM137.543 120.073V120.659H139.884V120.073H140.47V118.902H143.397V120.659H142.811V121.829H142.226V122.415H141.055V123H136.372V122.415H135.201V121.829H134.616V120.659H134.031V114.22H134.616V113.049H135.201V112.463H136.372V111.878H141.055V112.463H142.226V113.049H142.811V114.22H143.397V115.976H140.47V114.805H139.884V114.22H137.543V114.805H136.958V120.073H137.543ZM148.09 120.073V123H145.163V120.073H148.09Z" fill="#00B99B"/>
<path d="M15 2H442C449.18 2 455 7.8203 455 15V142.06C455 149.24 449.18 155.06 442 155.06H230V191L190 155.06H15C7.82031 155.06 2 149.24 2 142.06V15C2 7.8203 7.82028 2 15 2Z" stroke="#00B99B" stroke-width="3"/>
<rect x="256.632" y="222.186" width="6.79465" height="9.51252" fill="#00B99B"/>
<rect x="283.81" y="222.186" width="6.79465" height="9.51252" fill="#00B99B"/>
<rect x="280.186" y="211.768" width="13.5893" height="3.62382" fill="#00B99B"/>
<rect x="293.323" y="215.392" width="3.62382" height="3.62382" fill="#00B99B"/>
<rect x="300.117" y="208.597" width="3.62382" height="9.96549" fill="#00B99B"/>
<rect x="303.288" y="214.939" width="14.9482" height="3.62382" fill="#00B99B"/>
<rect x="303.741" y="216.298" width="3.62382" height="9.05954" fill="#00B99B"/>
<rect x="313.707" y="212.221" width="4.52977" height="9.05954" fill="#00B99B"/>
<rect x="313.707" y="218.109" width="6.79465" height="3.62382" fill="#00B99B"/>
<rect x="321.86" y="211.768" width="3.62382" height="6.79465" fill="#00B99B"/>
<rect x="324.578" y="219.016" width="3.62382" height="2.71786" fill="#00B99B"/>
<rect x="320.954" y="221.733" width="3.62382" height="3.17084" fill="#00B99B"/>
<rect x="324.125" y="225.357" width="3.62382" height="6.34168" fill="#00B99B"/>
<rect x="327.749" y="221.733" width="7.24763" height="3.17084" fill="#00B99B"/>
<rect x="337.714" y="218.563" width="3.62382" height="3.17084" fill="#00B99B"/>
<rect x="340.885" y="221.733" width="3.62382" height="3.17084" fill="#00B99B"/>
<rect x="337.714" y="225.357" width="3.62382" height="3.17084" fill="#00B99B"/>
<rect x="334.091" y="228.528" width="3.62382" height="3.17084" fill="#00B99B"/>
<rect x="330.92" y="232.152" width="3.62382" height="3.17084" fill="#00B99B"/>
<rect x="327.296" y="235.323" width="3.62382" height="3.17084" fill="#00B99B"/>
<rect x="320.501" y="231.699" width="3.62382" height="3.17084" fill="#00B99B"/>
<rect x="311.442" y="222.186" width="3.62382" height="3.17084" fill="#00B99B"/>
<rect x="307.365" y="224.904" width="3.62382" height="3.62382" fill="#00B99B"/>
<rect x="303.741" y="248.459" width="3.62382" height="3.62382" fill="#00B99B"/>
<rect x="300.57" y="252.083" width="3.62382" height="3.62382" fill="#00B99B"/>
<rect x="296.947" y="255.707" width="3.62382" height="3.62382" fill="#00B99B"/>
<rect x="290.152" y="258.425" width="6.79465" height="3.62382" fill="#00B99B"/>
<rect x="266.597" y="265.672" width="20.8369" height="3.62382" fill="#00B99B"/>
<rect x="286.981" y="262.048" width="3.62382" height="3.62382" fill="#00B99B"/>
<rect x="262.973" y="259.33" width="3.62382" height="6.34168" fill="#00B99B"/>
<rect x="259.802" y="255.707" width="3.62382" height="3.62382" fill="#00B99B"/>
<rect x="256.632" y="252.083" width="3.62382" height="3.62382" fill="#00B99B"/>
<rect x="253.008" y="248.912" width="3.62382" height="3.62382" fill="#00B99B"/>
<rect x="249.837" y="242.57" width="3.62382" height="6.34168" fill="#00B99B"/>
<rect x="266.597" y="247.553" width="3.62382" height="6.79465" fill="#00B99B"/>
<rect x="269.768" y="250.724" width="14.0423" height="3.62382" fill="#00B99B"/>
<rect x="267.503" y="241.664" width="6.79465" height="3.62382" fill="#00B99B"/>
<rect x="273.845" y="238.494" width="4.07679" height="3.62382" fill="#00B99B"/>
<rect x="264.332" y="238.494" width="4.07679" height="3.62382" fill="#00B99B"/>
<rect x="256.632" y="211.768" width="7.24763" height="3.62382" fill="#00B99B"/>
<rect x="253.461" y="214.939" width="3.17084" height="3.62382" fill="#00B99B"/>
<rect x="249.837" y="204.973" width="3.62382" height="6.34168" fill="#00B99B"/>
<rect x="253.008" y="201.802" width="3.62382" height="3.17084" fill="#00B99B"/>
<rect x="256.632" y="195.008" width="3.62382" height="6.79465" fill="#00B99B"/>
<rect x="260.255" y="191.837" width="3.62382" height="3.17084" fill="#00B99B"/>
<rect x="263.426" y="187.76" width="6.34168" height="3.62382" fill="#00B99B"/>
<rect x="270.221" y="191.384" width="9.51252" height="3.62382" fill="#00B99B"/>
<rect x="273.392" y="184.589" width="3.62382" height="13.5893" fill="#00B99B"/>
<rect x="279.733" y="188.213" width="7.70061" height="3.62382" fill="#00B99B"/>
<rect x="276.563" y="180.965" width="14.4953" height="3.62382" fill="#00B99B"/>
<rect x="267.05" y="180.965" width="6.79465" height="3.62382" fill="#00B99B"/>
<rect x="290.605" y="195.008" width="3.62382" height="6.79465" fill="#00B99B"/>
<rect x="293.776" y="188.213" width="6.79465" height="3.62382" fill="#00B99B"/>
<rect x="290.152" y="184.589" width="3.62382" height="3.62382" fill="#00B99B"/>
<rect x="287.434" y="191.837" width="3.17084" height="2.71786" fill="#00B99B"/>
<rect x="293.776" y="201.802" width="3.62382" height="3.17084" fill="#00B99B"/>
<rect x="296.494" y="204.973" width="4.07679" height="3.62382" fill="#00B99B"/>
<rect x="306.912" y="204.973" width="4.07679" height="3.62382" fill="#00B99B"/>
<rect x="310.989" y="208.597" width="3.62382" height="3.17084" fill="#00B99B"/>
<rect x="327.296" y="204.52" width="3.62382" height="3.62382" fill="#00B99B"/>
<rect x="330.92" y="191.384" width="3.17084" height="3.62382" fill="#00B99B"/>
<rect x="327.749" y="188.213" width="3.17084" height="3.62382" fill="#00B99B"/>
<rect x="317.783" y="184.589" width="9.51252" height="3.62382" fill="#00B99B"/>
<rect x="310.989" y="180.965" width="6.34168" height="3.62382" fill="#00B99B"/>
<rect x="304.194" y="177.795" width="6.34168" height="3.62382" fill="#00B99B"/>
<rect x="300.57" y="174.624" width="3.62382" height="3.17084" fill="#00B99B"/>
<rect x="280.186" y="174.624" width="3.62382" height="3.17084" fill="#00B99B"/>
<rect x="273.845" y="174.624" width="3.62382" height="3.17084" fill="#00B99B"/>
<rect x="262.973" y="174.171" width="3.62382" height="3.62382" fill="#00B99B"/>
<rect x="249.837" y="180.965" width="3.62382" height="3.62382" fill="#00B99B"/>
<rect x="246.666" y="185.042" width="3.62382" height="2.71786" fill="#00B99B"/>
<rect x="236.248" y="204.973" width="3.62382" height="2.71786" fill="#00B99B"/>
<rect x="233.077" y="208.144" width="3.62382" height="3.62382" fill="#00B99B"/>
<rect x="236.248" y="218.109" width="3.62382" height="3.62382" fill="#00B99B"/>
<rect x="232.624" y="224.904" width="3.62382" height="3.62382" fill="#00B99B"/>
<rect x="236.248" y="228.528" width="3.62382" height="3.17084" fill="#00B99B"/>
<rect x="239.418" y="232.152" width="8.15358" height="3.62382" fill="#00B99B"/>
<rect x="240.324" y="214.486" width="6.79465" height="4.52977" fill="#00B99B"/>
<rect x="229" y="211.768" width="3.62382" height="13.1363" fill="#00B99B"/>
<rect x="242.589" y="187.76" width="3.62382" height="6.79465" fill="#00B99B"/>
<rect x="239.418" y="195.008" width="3.62382" height="9.51252" fill="#00B99B"/>
<rect x="253.461" y="177.795" width="9.51252" height="3.62382" fill="#00B99B"/>
<rect x="266.597" y="171" width="7.24763" height="3.62382" fill="#00B99B"/>
<rect x="276.563" y="177.795" width="3.62382" height="4.07679" fill="#00B99B"/>
<rect x="283.357" y="171" width="17.2131" height="3.62382" fill="#00B99B"/>
<rect x="334.544" y="195.008" width="3.62382" height="23.1018" fill="#00B99B"/>
<rect x="330.467" y="208.597" width="3.62382" height="3.17084" fill="#00B99B"/>
<rect x="246.213" y="211.768" width="3.62382" height="30.3495" fill="#00B99B"/>
<rect x="307.365" y="238.494" width="3.62382" height="9.96549" fill="#00B99B"/>
<rect x="310.083" y="242.117" width="10.4185" height="3.17084" fill="#00B99B"/>
<rect x="310.989" y="232.152" width="3.62382" height="5.8887" fill="#00B99B"/>
<rect x="320.954" y="238.494" width="6.34168" height="3.62382" fill="#00B99B"/>
<rect x="310.989" y="235.776" width="9.96549" height="3.62382" fill="#00B99B"/>
</svg>
