<svg width="457" height="274" viewBox="0 0 457 274" fill="none" xmlns="http://www.w3.org/2000/svg">
<path d="M44.0976 49.3659V64H41.1707V49.3659H44.0976ZM49.9564 55.2195V55.8049H49.371V64H46.4442V52.878H49.371V53.4634H49.9564V52.878H53.4686V53.4634H54.6393V54.0488H55.2247V55.2195H55.81V64H52.8832V55.8049H52.2978V55.2195H49.9564ZM61.0892 61.0732V61.6585H62.8453V64H59.9184V63.4146H58.7477V62.8293H58.1623V61.6585H57.577V55.8049H56.4062V53.4634H57.577V52.2927H58.1623V51.7073H58.7477V51.122H59.3331V50.5366H59.9184V49.9512H60.5038V53.4634H62.8453V55.8049H60.5038V61.0732H61.0892ZM67.5351 61.0732V61.6585H69.8765V61.0732H70.4619V60.4878H73.3887V61.6585H72.8034V62.8293H72.218V63.4146H71.0473V64H66.3643V63.4146H65.1936V62.8293H64.6082V61.6585H64.0229V55.2195H64.6082V54.0488H65.1936V53.4634H66.3643V52.878H71.0473V53.4634H72.218V54.0488H72.8034V55.2195H73.3887V59.3171H66.9497V61.0732H67.5351ZM66.9497 55.8049V57.561H70.4619V55.8049H69.8765V55.2195H67.5351V55.8049H66.9497ZM78.6673 55.2195V55.8049H78.0819V64H75.1551V52.878H78.0819V53.4634H78.6673V52.878H82.1795V53.4634H82.7649V54.0488H83.3502V54.6341H82.7649V55.2195H82.1795V55.8049H81.5941V56.3902H81.0088V55.8049H80.4234V55.2195H78.6673ZM88.0423 55.2195V55.8049H87.4569V64H84.5301V52.878H87.4569V53.4634H88.0423V52.878H91.5545V53.4634H92.7252V54.0488H93.3106V55.2195H93.896V64H90.9691V55.8049H90.3838V55.2195H88.0423ZM98.5897 61.0732V61.6585H100.931V61.0732H101.517V60.4878H104.443V61.6585H103.858V62.8293H103.273V63.4146H102.102V64H97.419V63.4146H96.2483V62.8293H95.6629V61.6585H95.0776V55.2195H95.6629V54.0488H96.2483V53.4634H97.419V52.878H102.102V53.4634H103.273V54.0488H103.858V55.2195H104.443V59.3171H98.0044V61.0732H98.5897ZM98.0044 55.8049V57.561H101.517V55.8049H100.931V55.2195H98.5897V55.8049H98.0044ZM109.722 61.0732V61.6585H111.478V64H108.551V63.4146H107.381V62.8293H106.795V61.6585H106.21V55.8049H105.039V53.4634H106.21V52.2927H106.795V51.7073H107.381V51.122H107.966V50.5366H108.551V49.9512H109.137V53.4634H111.478V55.8049H109.137V61.0732H109.722ZM122.027 61.0732V61.6585H124.369V61.0732H124.954V60.4878H127.881V61.6585H127.296V62.8293H126.71V63.4146H125.539V64H120.857V63.4146H119.686V62.8293H119.1V61.6585H118.515V55.2195H119.1V54.0488H119.686V53.4634H120.857V52.878H125.539V53.4634H126.71V54.0488H127.296V55.2195H127.881V59.3171H121.442V61.0732H122.027ZM121.442 55.8049V57.561H124.954V55.8049H124.369V55.2195H122.027V55.8049H121.442ZM131.989 60.4878V61.0732H132.574V61.6585H134.916V61.0732H135.501V59.9024H134.916V59.3171H131.403V58.7317H130.233V58.1463H129.647V56.9756H129.062V55.2195H129.647V54.0488H130.233V53.4634H131.403V52.878H136.086V53.4634H137.257V54.0488H137.842V55.8049H134.916V55.2195H132.574V55.8049H131.989V56.3902H132.574V56.9756H136.086V57.561H137.257V58.1463H137.842V59.3171H138.428V61.6585H137.842V62.8293H137.257V63.4146H136.086V64H131.403V63.4146H130.233V62.8293H129.647V61.6585H129.062V60.4878H131.989ZM143.706 61.0732V61.6585H145.462V64H142.536V63.4146H141.365V62.8293H140.78V61.6585H140.194V55.8049H139.023V53.4634H140.194V52.2927H140.78V51.7073H141.365V51.122H141.95V50.5366H142.536V49.9512H143.121V53.4634H145.462V55.8049H143.121V61.0732H143.706ZM153.085 62.8293V61.6585H152.499V52.878H155.426V61.0732H156.012V61.6585H158.353V61.0732H158.938V52.878H161.865V64H158.938V63.4146H158.353V64H154.841V63.4146H153.67V62.8293H153.085ZM167.73 55.2195V55.8049H167.144V64H164.218V52.878H167.144V53.4634H167.73V52.878H171.242V53.4634H172.413V54.0488H172.998V55.2195H173.583V64H170.657V55.8049H170.071V55.2195H167.73ZM184.722 55.2195V55.8049H184.137V64H181.21V52.878H184.137V53.4634H184.722V52.878H187.649V53.4634H188.234V54.0488H188.82V53.4634H189.405V52.878H192.332V53.4634H193.502V54.0488H194.088V55.2195H194.673V64H191.746V55.8049H191.161V55.2195H189.99V55.8049H189.405V64H186.478V55.8049H185.893V55.2195H184.722ZM199.348 59.3171V59.9024H198.762V61.0732H199.348V61.6585H201.689V61.0732H202.274V59.3171H199.348ZM196.421 62.8293V61.6585H195.835V59.9024H196.421V58.7317H197.006V58.1463H198.177V57.561H202.274V55.8049H201.689V55.2195H199.348V55.8049H198.762V56.3902H195.835V55.2195H196.421V54.0488H197.006V53.4634H198.177V52.878H202.86V53.4634H204.03V54.0488H204.616V55.2195H205.201V64H202.274V63.4146H201.689V64H197.591V63.4146H197.006V62.8293H196.421ZM210.48 59.9024V60.4878H212.822V59.9024H213.407V55.2195H210.48V55.8049H209.895V59.9024H210.48ZM209.895 64V64.5854H210.48V65.1707H212.822V64.5854H213.407V62.2439H212.822V62.8293H209.31V62.2439H208.139V61.6585H207.554V60.4878H206.968V55.2195H207.554V54.0488H208.139V53.4634H209.31V52.878H216.334V65.1707H215.749V66.3415H215.163V66.9268H213.993V67.5122H209.31V66.9268H208.139V66.3415H207.554V65.1707H206.968V64H209.895ZM222.199 55.2195V55.8049H221.613V64H218.686V52.878H221.613V53.4634H222.199V52.878H225.711V53.4634H226.881V54.0488H227.467V55.2195H228.052V64H225.125V55.8049H224.54V55.2195H222.199ZM232.746 49.3659V51.7073H229.819V49.3659H232.746ZM232.746 53.4634V64H229.819V53.4634H232.746ZM236.263 53.4634V51.7073H236.849V50.5366H237.434V49.9512H238.605V49.3659H241.532V51.7073H239.776V52.2927H239.19V53.4634H241.532V55.8049H239.19V64H236.263V55.8049H235.093V53.4634H236.263ZM246.223 49.3659V51.7073H243.296V49.3659H246.223ZM246.223 53.4634V64H243.296V53.4634H246.223ZM251.496 61.0732V61.6585H253.837V61.0732H254.423V55.2195H251.496V55.8049H250.911V61.0732H251.496ZM248.569 55.2195V54.0488H249.155V53.4634H250.325V52.878H257.35V67.5122H254.423V63.4146H253.837V64H250.325V63.4146H249.155V62.8293H248.569V61.6585H247.984V55.2195H248.569ZM259.702 62.8293V61.6585H259.117V52.878H262.043V61.0732H262.629V61.6585H264.97V61.0732H265.556V52.878H268.482V64H265.556V63.4146H264.97V64H261.458V63.4146H260.287V62.8293H259.702ZM273.762 61.0732V61.6585H276.103V61.0732H276.688V60.4878H279.615V61.6585H279.03V62.8293H278.445V63.4146H277.274V64H272.591V63.4146H271.42V62.8293H270.835V61.6585H270.249V55.2195H270.835V54.0488H271.42V53.4634H272.591V52.878H277.274V53.4634H278.445V54.0488H279.03V55.2195H279.615V59.3171H273.176V61.0732H273.762ZM273.176 55.8049V57.561H276.688V55.8049H276.103V55.2195H273.762V55.8049H273.176ZM290.753 61.0732V61.6585H292.509V64H289.583V63.4146H288.412V62.8293H287.826V61.6585H287.241V55.8049H286.07V53.4634H287.241V52.2927H287.826V51.7073H288.412V51.122H288.997V50.5366H289.583V49.9512H290.168V53.4634H292.509V55.8049H290.168V61.0732H290.753ZM297.199 61.0732V61.6585H299.541V61.0732H300.126V60.4878H303.053V61.6585H302.467V62.8293H301.882V63.4146H300.711V64H296.028V63.4146H294.858V62.8293H294.272V61.6585H293.687V55.2195H294.272V54.0488H294.858V53.4634H296.028V52.878H300.711V53.4634H301.882V54.0488H302.467V55.2195H303.053V59.3171H296.614V61.0732H297.199ZM296.614 55.8049V57.561H300.126V55.8049H299.541V55.2195H297.199V55.8049H296.614ZM308.331 55.2195V55.8049H307.746V64H304.819V52.878H307.746V53.4634H308.331V52.878H311.844V53.4634H312.429V54.0488H313.014V54.6341H312.429V55.2195H311.844V55.8049H311.258V56.3902H310.673V55.8049H310.087V55.2195H308.331ZM317.706 55.2195V55.8049H317.121V64H314.194V52.878H317.121V53.4634H317.706V52.878H321.219V53.4634H321.804V54.0488H322.389V54.6341H321.804V55.2195H321.219V55.8049H320.633V56.3902H320.048V55.8049H319.462V55.2195H317.706ZM326.496 59.3171V59.9024H325.911V61.0732H326.496V61.6585H328.837V61.0732H329.423V59.3171H326.496ZM323.569 62.8293V61.6585H322.984V59.9024H323.569V58.7317H324.155V58.1463H325.325V57.561H329.423V55.8049H328.837V55.2195H326.496V55.8049H325.911V56.3902H322.984V55.2195H323.569V54.0488H324.155V53.4634H325.325V52.878H330.008V53.4634H331.179V54.0488H331.764V55.2195H332.35V64H329.423V63.4146H328.837V64H324.74V63.4146H324.155V62.8293H323.569ZM337.629 49.3659V51.7073H334.702V49.3659H337.629ZM337.629 53.4634V64H334.702V53.4634H337.629ZM343.488 55.2195V55.8049H342.902V64H339.975V52.878H342.902V53.4634H343.488V52.878H347V53.4634H348.171V54.0488H348.756V55.2195H349.341V64H346.414V55.8049H345.829V55.2195H343.488ZM359.894 61.0732V61.6585H362.236V61.0732H362.821V55.2195H359.894V55.8049H359.309V61.0732H359.894ZM356.968 55.2195V54.0488H357.553V53.4634H358.724V52.878H362.821V49.3659H365.748V64H362.821V63.4146H362.236V64H358.724V63.4146H357.553V62.8293H356.968V61.6585H356.382V55.2195H356.968ZM371.027 61.0732V61.6585H373.369V61.0732H373.954V60.4878H376.881V61.6585H376.296V62.8293H375.71V63.4146H374.539V64H369.857V63.4146H368.686V62.8293H368.1V61.6585H367.515V55.2195H368.1V54.0488H368.686V53.4634H369.857V52.878H374.539V53.4634H375.71V54.0488H376.296V55.2195H376.881V59.3171H370.442V61.0732H371.027ZM370.442 55.8049V57.561H373.954V55.8049H373.369V55.2195H371.027V55.8049H370.442ZM388.019 49.3659V51.7073H385.092V49.3659H388.019ZM387.433 65.1707V66.3415H386.848V66.9268H385.677V67.5122H383.336V65.1707H384.507V64.5854H385.092V53.4634H388.019V65.1707H387.433ZM393.293 61.0732V61.6585H395.634V61.0732H396.22V60.4878H399.147V61.6585H398.561V62.8293H397.976V63.4146H396.805V64H392.122V63.4146H390.951V62.8293H390.366V61.6585H389.781V55.2195H390.366V54.0488H390.951V53.4634H392.122V52.878H396.805V53.4634H397.976V54.0488H398.561V55.2195H399.147V59.3171H392.708V61.0732H393.293ZM392.708 55.8049V57.561H396.22V55.8049H395.634V55.2195H393.293V55.8049H392.708ZM400.913 62.8293V61.6585H400.328V52.878H403.254V61.0732H403.84V61.6585H406.181V61.0732H406.767V52.878H409.693V64H406.767V63.4146H406.181V64H402.669V63.4146H401.498V62.8293H400.913ZM414.973 61.0732V64H412.046V61.0732H414.973ZM47.6098 81.561V78.0488H47.0244V77.4634H46.439V76.878H45.2683V77.4634H44.6829V78.0488H44.0976V81.561H47.6098ZM41.7561 76.878V76.2927H42.3415V75.7073H42.9268V75.122H43.5122V74.5366H44.0976V73.9512H44.6829V73.3659H47.0244V73.9512H47.6098V74.5366H48.1951V75.122H48.7805V75.7073H49.3659V76.2927H49.9512V76.878H50.5366V88H47.6098V84.4878H44.0976V88H41.1707V76.878H41.7561ZM55.8163 85.0732V85.6585H58.1578V85.0732H58.7431V83.9024H61.67V85.6585H61.0846V86.8293H60.4992V87.4146H59.3285V88H54.6456V87.4146H53.4748V86.8293H52.8895V85.6585H52.3041V79.2195H52.8895V78.0488H53.4748V77.4634H54.6456V76.878H59.3285V77.4634H60.4992V78.0488H61.0846V79.2195H61.67V80.9756H58.7431V79.8049H58.1578V79.2195H55.8163V79.8049H55.2309V85.0732H55.8163ZM66.3632 85.0732V85.6585H68.7046V85.0732H69.29V83.9024H72.2168V85.6585H71.6315V86.8293H71.0461V87.4146H69.8754V88H65.1925V87.4146H64.0217V86.8293H63.4364V85.6585H62.851V79.2195H63.4364V78.0488H64.0217V77.4634H65.1925V76.878H69.8754V77.4634H71.0461V78.0488H71.6315V79.2195H72.2168V80.9756H69.29V79.8049H68.7046V79.2195H66.3632V79.8049H65.7778V85.0732H66.3632ZM80.4223 87.4146V88H75.7393V87.4146H74.5686V86.8293H73.9832V85.6585H73.3979V79.2195H73.9832V78.0488H74.5686V77.4634H75.7393V76.878H80.4223V77.4634H81.593V78.0488H82.1784V79.2195H82.7637V85.6585H82.1784V86.8293H81.593V87.4146H80.4223ZM76.9101 85.0732V85.6585H79.2515V85.0732H79.8369V79.8049H79.2515V79.2195H76.9101V79.8049H76.3247V85.0732H76.9101ZM88.0423 79.2195V79.8049H87.4569V88H84.5301V76.878H87.4569V77.4634H88.0423V76.878H90.9691V77.4634H91.5545V78.0488H92.1399V77.4634H92.7252V76.878H95.6521V77.4634H96.8228V78.0488H97.4082V79.2195H97.9935V88H95.0667V79.8049H94.4813V79.2195H93.3106V79.8049H92.7252V88H89.7984V79.8049H89.213V79.2195H88.0423ZM99.741 76.878H102.668V77.4634H103.253V76.878H106.765V77.4634H107.936V78.0488H108.522V79.2195H109.107V85.6585H108.522V86.8293H107.936V87.4146H106.765V88H102.668V91.5122H99.741V76.878ZM105.595 85.0732H106.18V79.8049H105.595V79.2195H103.253V79.8049H102.668V85.6585H105.595V85.0732ZM113.801 83.3171V83.9024H113.215V85.0732H113.801V85.6585H116.142V85.0732H116.728V83.3171H113.801ZM110.874 86.8293V85.6585H110.288V83.9024H110.874V82.7317H111.459V82.1463H112.63V81.561H116.728V79.8049H116.142V79.2195H113.801V79.8049H113.215V80.3902H110.288V79.2195H110.874V78.0488H111.459V77.4634H112.63V76.878H117.313V77.4634H118.484V78.0488H119.069V79.2195H119.654V88H116.728V87.4146H116.142V88H112.045V87.4146H111.459V86.8293H110.874ZM124.933 83.9024V84.4878H127.275V83.9024H127.86V79.2195H124.933V79.8049H124.348V83.9024H124.933ZM124.348 88V88.5854H124.933V89.1707H127.275V88.5854H127.86V86.2439H127.275V86.8293H123.763V86.2439H122.592V85.6585H122.007V84.4878H121.421V79.2195H122.007V78.0488H122.592V77.4634H123.763V76.878H130.787V89.1707H130.202V90.3415H129.616V90.9268H128.446V91.5122H123.763V90.9268H122.592V90.3415H122.007V89.1707H121.421V88H124.348ZM136.652 79.2195V79.8049H136.066V88H133.139V76.878H136.066V77.4634H136.652V76.878H140.164V77.4634H141.335V78.0488H141.92V79.2195H142.505V88H139.579V79.8049H138.993V79.2195H136.652ZM147.199 73.9512V73.3659H147.784V72.7805H148.37V72.1951H150.126V73.9512H149.541V74.5366H148.955V75.122H148.37V75.7073H146.614V73.9512H147.199ZM147.199 85.0732V85.6585H149.541V85.0732H150.126V84.4878H153.053V85.6585H152.467V86.8293H151.882V87.4146H150.711V88H146.028V87.4146H144.858V86.8293H144.272V85.6585H143.687V79.2195H144.272V78.0488H144.858V77.4634H146.028V76.878H150.711V77.4634H151.882V78.0488H152.467V79.2195H153.053V83.3171H146.614V85.0732H147.199ZM146.614 79.8049V81.561H150.126V79.8049H149.541V79.2195H147.199V79.8049H146.614ZM163.605 85.0732V85.6585H165.947V85.0732H166.532V79.2195H163.605V79.8049H163.02V85.0732H163.605ZM160.679 79.2195V78.0488H161.264V77.4634H162.435V76.878H166.532V73.3659H169.459V88H166.532V87.4146H165.947V88H162.435V87.4146H161.264V86.8293H160.679V85.6585H160.093V79.2195H160.679ZM174.738 85.0732V85.6585H177.08V85.0732H177.665V84.4878H180.592V85.6585H180.006V86.8293H179.421V87.4146H178.25V88H173.567V87.4146H172.397V86.8293H171.811V85.6585H171.226V79.2195H171.811V78.0488H172.397V77.4634H173.567V76.878H178.25V77.4634H179.421V78.0488H180.006V79.2195H180.592V83.3171H174.153V85.0732H174.738ZM174.153 79.8049V81.561H177.665V79.8049H177.08V79.2195H174.738V79.8049H174.153ZM184.7 84.4878V85.0732H185.285V85.6585H187.627V85.0732H188.212V83.9024H187.627V83.3171H184.114V82.7317H182.944V82.1463H182.358V80.9756H181.773V79.2195H182.358V78.0488H182.944V77.4634H184.114V76.878H188.797V77.4634H189.968V78.0488H190.553V79.8049H187.627V79.2195H185.285V79.8049H184.7V80.3902H185.285V80.9756H188.797V81.561H189.968V82.1463H190.553V83.3171H191.139V85.6585H190.553V86.8293H189.968V87.4146H188.797V88H184.114V87.4146H182.944V86.8293H182.358V85.6585H181.773V84.4878H184.7ZM207.545 79.2195H208.13V85.6585H207.545V86.8293H206.96V87.4146H205.789V88H198.764V73.3659H201.691V77.4634H202.277V76.878H205.789V77.4634H206.96V78.0488H207.545V79.2195ZM204.618 85.0732H205.204V79.8049H204.618V79.2195H202.277V79.8049H201.691V85.6585H204.618V85.0732ZM216.336 87.4146V88H211.653V87.4146H210.483V86.8293H209.897V85.6585H209.312V79.2195H209.897V78.0488H210.483V77.4634H211.653V76.878H216.336V77.4634H217.507V78.0488H218.092V79.2195H218.678V85.6585H218.092V86.8293H217.507V87.4146H216.336ZM212.824 85.0732V85.6585H215.166V85.0732H215.751V79.8049H215.166V79.2195H212.824V79.8049H212.239V85.0732H212.824ZM223.956 79.2195V79.8049H223.371V88H220.444V76.878H223.371V77.4634H223.956V76.878H227.469V77.4634H228.639V78.0488H229.225V79.2195H229.81V88H226.883V79.8049H226.298V79.2195H223.956ZM233.918 84.4878V85.0732H234.504V85.6585H236.845V85.0732H237.431V83.9024H236.845V83.3171H233.333V82.7317H232.162V82.1463H231.577V80.9756H230.992V79.2195H231.577V78.0488H232.162V77.4634H233.333V76.878H238.016V77.4634H239.187V78.0488H239.772V79.8049H236.845V79.2195H234.504V79.8049H233.918V80.3902H234.504V80.9756H238.016V81.561H239.187V82.1463H239.772V83.3171H240.357V85.6585H239.772V86.8293H239.187V87.4146H238.016V88H233.333V87.4146H232.162V86.8293H231.577V85.6585H230.992V84.4878H233.918ZM250.91 83.3171V83.9024H250.325V85.0732H250.91V85.6585H253.252V85.0732H253.837V83.3171H250.91ZM247.983 86.8293V85.6585H247.398V83.9024H247.983V82.7317H248.569V82.1463H249.739V81.561H253.837V79.8049H253.252V79.2195H250.91V79.8049H250.325V80.3902H247.398V79.2195H247.983V78.0488H248.569V77.4634H249.739V76.878H254.422V77.4634H255.593V78.0488H256.178V79.2195H256.764V88H253.837V87.4146H253.252V88H249.154V87.4146H248.569V86.8293H247.983ZM262.043 85.0732V85.6585H264.384V85.0732H264.97V83.9024H267.897V85.6585H267.311V86.8293H266.726V87.4146H265.555V88H260.872V87.4146H259.701V86.8293H259.116V85.6585H258.531V79.2195H259.116V78.0488H259.701V77.4634H260.872V76.878H265.555V77.4634H266.726V78.0488H267.311V79.2195H267.897V80.9756H264.97V79.8049H264.384V79.2195H262.043V79.8049H261.458V85.0732H262.043ZM276.102 87.4146V88H271.419V87.4146H270.248V86.8293H269.663V85.6585H269.078V79.2195H269.663V78.0488H270.248V77.4634H271.419V76.878H276.102V77.4634H277.273V78.0488H277.858V79.2195H278.443V85.6585H277.858V86.8293H277.273V87.4146H276.102ZM272.59 85.0732V85.6585H274.931V85.0732H275.517V79.8049H274.931V79.2195H272.59V79.8049H272.004V85.0732H272.59ZM283.137 73.3659V88H280.21V73.3659H283.137ZM286.654 89.1707V88.5854H287.239V88H287.825V87.4146H288.41V86.8293H287.825V86.2439H287.239V85.6585H286.654V85.0732H286.069V84.4878H285.483V76.878H288.41V83.9024H288.995V84.4878H289.581V85.0732H290.752V84.4878H291.337V83.9024H291.922V76.878H294.849V84.4878H294.264V85.0732H293.678V85.6585H293.093V86.2439H292.508V86.8293H291.922V87.4146H291.337V88H290.752V88.5854H290.166V89.1707H289.581V89.7561H288.995V90.3415H288.41V90.9268H287.825V91.5122H286.069V89.1707H286.654ZM300.714 85.0732V85.6585H302.47V88H299.543V87.4146H298.373V86.8293H297.787V85.6585H297.202V79.8049H296.031V77.4634H297.202V76.2927H297.787V75.7073H298.373V75.122H298.958V74.5366H299.543V73.9512H300.129V77.4634H302.47V79.8049H300.129V85.0732H300.714ZM307.16 85.0732V85.6585H309.502V85.0732H310.087V84.4878H313.014V85.6585H312.428V86.8293H311.843V87.4146H310.672V88H305.989V87.4146H304.819V86.8293H304.233V85.6585H303.648V79.2195H304.233V78.0488H304.819V77.4634H305.989V76.878H310.672V77.4634H311.843V78.0488H312.428V79.2195H313.014V83.3171H306.575V85.0732H307.16ZM306.575 79.8049V81.561H310.087V79.8049H309.502V79.2195H307.16V79.8049H306.575ZM317.122 84.4878V85.0732H317.707V85.6585H320.048V85.0732H320.634V83.9024H320.048V83.3171H316.536V82.7317H315.365V82.1463H314.78V80.9756H314.195V79.2195H314.78V78.0488H315.365V77.4634H316.536V76.878H321.219V77.4634H322.39V78.0488H322.975V79.8049H320.048V79.2195H317.707V79.8049H317.122V80.3902H317.707V80.9756H321.219V81.561H322.39V82.1463H322.975V83.3171H323.561V85.6585H322.975V86.8293H322.39V87.4146H321.219V88H316.536V87.4146H315.365V86.8293H314.78V85.6585H314.195V84.4878H317.122ZM328.254 85.0732V88.5854H327.668V89.1707H327.083V89.7561H326.498V90.3415H325.327V89.7561H325.912V89.1707H326.498V88H325.327V85.0732H328.254ZM339.387 73.3659V88H336.46V73.3659H339.387ZM344.66 85.0732V85.6585H347.002V85.0732H347.587V84.4878H350.514V85.6585H349.928V86.8293H349.343V87.4146H348.172V88H343.489V87.4146H342.319V86.8293H341.733V85.6585H341.148V79.2195H341.733V78.0488H342.319V77.4634H343.489V76.878H348.172V77.4634H349.343V78.0488H349.928V79.2195H350.514V83.3171H344.075V85.0732H344.66ZM344.075 79.8049V81.561H347.587V79.8049H347.002V79.2195H344.66V79.8049H344.075ZM354.622 84.4878V85.0732H355.207V85.6585H357.548V85.0732H358.134V83.9024H357.548V83.3171H354.036V82.7317H352.865V82.1463H352.28V80.9756H351.695V79.2195H352.28V78.0488H352.865V77.4634H354.036V76.878H358.719V77.4634H359.89V78.0488H360.475V79.8049H357.548V79.2195H355.207V79.8049H354.622V80.3902H355.207V80.9756H358.719V81.561H359.89V82.1463H360.475V83.3171H361.061V85.6585H360.475V86.8293H359.89V87.4146H358.719V88H354.036V87.4146H352.865V86.8293H352.28V85.6585H351.695V84.4878H354.622ZM41.1707 100.878H44.0976V101.463H44.6829V100.878H48.1951V101.463H49.3659V102.049H49.9512V103.22H50.5366V109.659H49.9512V110.829H49.3659V111.415H48.1951V112H44.0976V115.512H41.1707V100.878ZM47.0244 109.073H47.6098V103.805H47.0244V103.22H44.6829V103.805H44.0976V109.659H47.0244V109.073ZM58.7426 111.415V112H54.0596V111.415H52.8889V110.829H52.3035V109.659H51.7182V103.22H52.3035V102.049H52.8889V101.463H54.0596V100.878H58.7426V101.463H59.9133V102.049H60.4987V103.22H61.084V109.659H60.4987V110.829H59.9133V111.415H58.7426ZM55.2304 109.073V109.659H57.5718V109.073H58.1572V103.805H57.5718V103.22H55.2304V103.805H54.645V109.073H55.2304ZM65.1919 108.488V109.073H65.7772V109.659H68.1187V109.073H68.7041V107.902H68.1187V107.317H64.6065V106.732H63.4358V106.146H62.8504V104.976H62.2651V103.22H62.8504V102.049H63.4358V101.463H64.6065V100.878H69.2894V101.463H70.4602V102.049H71.0455V103.805H68.1187V103.22H65.7772V103.805H65.1919V104.39H65.7772V104.976H69.2894V105.561H70.4602V106.146H71.0455V107.317H71.6309V109.659H71.0455V110.829H70.4602V111.415H69.2894V112H64.6065V111.415H63.4358V110.829H62.8504V109.659H62.2651V108.488H65.1919ZM75.7388 108.488V109.073H76.3241V109.659H78.6656V109.073H79.251V107.902H78.6656V107.317H75.1534V106.732H73.9827V106.146H73.3973V104.976H72.8119V103.22H73.3973V102.049H73.9827V101.463H75.1534V100.878H79.8363V101.463H81.007V102.049H81.5924V103.805H78.6656V103.22H76.3241V103.805H75.7388V104.39H76.3241V104.976H79.8363V105.561H81.007V106.146H81.5924V107.317H82.1778V109.659H81.5924V110.829H81.007V111.415H79.8363V112H75.1534V111.415H73.9827V110.829H73.3973V109.659H72.8119V108.488H75.7388ZM86.871 97.3659V99.7073H83.9442V97.3659H86.871ZM86.871 101.463V112H83.9442V101.463H86.871ZM97.9981 103.22H98.5835V109.659H97.9981V110.829H97.4127V111.415H96.242V112H89.2176V97.3659H92.1444V101.463H92.7298V100.878H96.242V101.463H97.4127V102.049H97.9981V103.22ZM95.0713 109.073H95.6566V103.805H95.0713V103.22H92.7298V103.805H92.1444V109.659H95.0713V109.073ZM103.277 97.3659V99.7073H100.35V97.3659H103.277ZM103.277 101.463V112H100.35V101.463H103.277ZM108.551 97.3659V112H105.624V97.3659H108.551ZM113.824 97.3659V99.7073H110.897V97.3659H113.824ZM113.824 101.463V112H110.897V101.463H113.824ZM119.683 109.073V109.659H121.439V112H118.512V111.415H117.341V110.829H116.756V109.659H116.171V103.805H115V101.463H116.171V100.293H116.756V99.7073H117.341V99.122H117.927V98.5366H118.512V97.9512H119.098V101.463H121.439V103.805H119.098V109.073H119.683ZM126.129 97.9512V97.3659H126.714V96.7805H127.3V96.1951H129.056V97.9512H128.47V98.5366H127.885V99.122H127.3V99.7073H125.543V97.9512H126.129ZM126.129 109.073V109.659H128.47V109.073H129.056V108.488H131.982V109.659H131.397V110.829H130.812V111.415H129.641V112H124.958V111.415H123.787V110.829H123.202V109.659H122.617V103.22H123.202V102.049H123.787V101.463H124.958V100.878H129.641V101.463H130.812V102.049H131.397V103.22H131.982V107.317H125.543V109.073H126.129ZM125.543 103.805V105.561H129.056V103.805H128.47V103.22H126.129V103.805H125.543ZM136.09 108.488V109.073H136.676V109.659H139.017V109.073H139.603V107.902H139.017V107.317H135.505V106.732H134.334V106.146H133.749V104.976H133.163V103.22H133.749V102.049H134.334V101.463H135.505V100.878H140.188V101.463H141.359V102.049H141.944V103.805H139.017V103.22H136.676V103.805H136.09V104.39H136.676V104.976H140.188V105.561H141.359V106.146H141.944V107.317H142.529V109.659H141.944V110.829H141.359V111.415H140.188V112H135.505V111.415H134.334V110.829H133.749V109.659H133.163V108.488H136.09ZM153.457 109.073V109.659H155.798V109.073H156.384V103.22H153.457V103.805H152.872V109.073H153.457ZM150.53 103.22V102.049H151.115V101.463H152.286V100.878H156.384V97.3659H159.311V112H156.384V111.415H155.798V112H152.286V111.415H151.115V110.829H150.53V109.659H149.945V103.22H150.53ZM164.59 109.073V109.659H166.931V109.073H167.517V108.488H170.443V109.659H169.858V110.829H169.273V111.415H168.102V112H163.419V111.415H162.248V110.829H161.663V109.659H161.078V103.22H161.663V102.049H162.248V101.463H163.419V100.878H168.102V101.463H169.273V102.049H169.858V103.22H170.443V107.317H164.004V109.073H164.59ZM164.004 103.805V105.561H167.517V103.805H166.931V103.22H164.59V103.805H164.004ZM175.722 107.902V108.488H176.307V109.073H177.478V108.488H178.063V107.902H178.649V100.878H181.576V108.488H180.99V109.073H180.405V109.659H179.82V110.244H179.234V110.829H178.649V111.415H178.063V112H175.722V111.415H175.137V110.829H174.551V110.244H173.966V109.659H173.381V109.073H172.795V108.488H172.21V100.878H175.137V107.902H175.722ZM186.855 97.3659V99.7073H183.929V97.3659H186.855ZM186.855 101.463V112H183.929V101.463H186.855ZM192.129 109.073V109.659H194.47V109.073H195.056V108.488H197.982V109.659H197.397V110.829H196.812V111.415H195.641V112H190.958V111.415H189.787V110.829H189.202V109.659H188.617V103.22H189.202V102.049H189.787V101.463H190.958V100.878H195.641V101.463H196.812V102.049H197.397V103.22H197.982V107.317H191.543V109.073H192.129ZM191.543 103.805V105.561H195.056V103.805H194.47V103.22H192.129V103.805H191.543ZM203.261 103.22V103.805H202.676V112H199.749V100.878H202.676V101.463H203.261V100.878H206.773V101.463H207.944V102.049H208.529V103.22H209.115V112H206.188V103.805H205.603V103.22H203.261ZM214.394 103.22V103.805H213.808V112H210.882V100.878H213.808V101.463H214.394V100.878H217.906V101.463H219.077V102.049H219.662V103.22H220.248V112H217.321V103.805H216.735V103.22H214.394ZM224.941 109.073V109.659H227.283V109.073H227.868V108.488H230.795V109.659H230.21V110.829H229.624V111.415H228.454V112H223.771V111.415H222.6V110.829H222.014V109.659H221.429V103.22H222.014V102.049H222.6V101.463H223.771V100.878H228.454V101.463H229.624V102.049H230.21V103.22H230.795V107.317H224.356V109.073H224.941ZM224.356 103.805V105.561H227.868V103.805H227.283V103.22H224.941V103.805H224.356ZM236.074 103.22V103.805H235.488V112H232.561V100.878H235.488V101.463H236.074V100.878H239.586V101.463H240.756V102.049H241.342V103.22H241.927V112H239V103.805H238.415V103.22H236.074ZM247.206 109.073V109.659H248.962V112H246.036V111.415H244.865V110.829H244.28V109.659H243.694V103.805H242.523V101.463H243.694V100.293H244.28V99.7073H244.865V99.122H245.45V98.5366H246.036V97.9512H246.621V101.463H248.962V103.805H246.621V109.073H247.206ZM259.512 97.9512V97.3659H260.097V96.7805H260.682V96.1951H262.438V97.9512H261.853V98.5366H261.268V99.122H260.682V99.7073H258.926V97.9512H259.512ZM259.512 109.073V109.659H261.853V109.073H262.438V108.488H265.365V109.659H264.78V110.829H264.195V111.415H263.024V112H258.341V111.415H257.17V110.829H256.585V109.659H255.999V103.22H256.585V102.049H257.17V101.463H258.341V100.878H263.024V101.463H264.195V102.049H264.78V103.22H265.365V107.317H258.926V109.073H259.512ZM258.926 103.805V105.561H262.438V103.805H261.853V103.22H259.512V103.805H258.926ZM270.644 103.22V103.805H270.058V112H267.132V100.878H270.058V101.463H270.644V100.878H274.156V101.463H275.327V102.049H275.912V103.22H276.498V112H273.571V103.805H272.985V103.22H270.644ZM284.704 111.415V112H280.021V111.415H278.85V110.829H278.264V109.659H277.679V103.22H278.264V102.049H278.85V101.463H280.021V100.878H284.704V101.463H285.874V102.049H286.46V103.22H287.045V109.659H286.46V110.829H285.874V111.415H284.704ZM281.191 109.073V109.659H283.533V109.073H284.118V103.805H283.533V103.22H281.191V103.805H280.606V109.073H281.191ZM292.324 103.22V103.805H291.738V112H288.811V100.878H291.738V101.463H292.324V100.878H295.836V101.463H296.421V102.049H297.006V102.634H296.421V103.22H295.836V103.805H295.25V104.39H294.665V103.805H294.08V103.22H292.324ZM301.699 103.22V103.805H301.113V112H298.186V100.878H301.113V101.463H301.699V100.878H304.625V101.463H305.211V102.049H305.796V101.463H306.381V100.878H309.308V101.463H310.479V102.049H311.064V103.22H311.65V112H308.723V103.805H308.138V103.22H306.967V103.805H306.381V112H303.455V103.805H302.869V103.22H301.699ZM316.324 109.073V109.659H318.666V109.073H319.251V108.488H322.178V109.659H321.592V110.829H321.007V111.415H319.836V112H315.153V111.415H313.983V110.829H313.397V109.659H312.812V103.22H313.397V102.049H313.983V101.463H315.153V100.878H319.836V101.463H321.007V102.049H321.592V103.22H322.178V107.317H315.739V109.073H316.324ZM315.739 103.805V105.561H319.251V103.805H318.666V103.22H316.324V103.805H315.739ZM326.286 108.488V109.073H326.871V109.659H329.212V109.073H329.798V107.902H329.212V107.317H325.7V106.732H324.53V106.146H323.944V104.976H323.359V103.22H323.944V102.049H324.53V101.463H325.7V100.878H330.383V101.463H331.554V102.049H332.139V103.805H329.212V103.22H326.871V103.805H326.286V104.39H326.871V104.976H330.383V105.561H331.554V106.146H332.139V107.317H332.725V109.659H332.139V110.829H331.554V111.415H330.383V112H325.7V111.415H324.53V110.829H323.944V109.659H323.359V108.488H326.286ZM343.277 97.3659V106.146H342.692V106.732H342.107V107.317H341.521V106.732H340.936V106.146H340.35V97.3659H343.277ZM343.277 109.073V112H340.35V109.073H343.277Z" fill="#00B99B"/>
<path d="M442 2H15C7.8203 2 2 7.8203 2 15V142.06C2 149.24 7.82029 155.06 15 155.06H227L267 189V155.06H442C449.18 155.06 455 149.24 455 142.06V15C455 7.8203 449.18 2 442 2Z" stroke="#00B99B" stroke-width="3"/>
<rect x="288.632" y="226.186" width="6.79465" height="9.51252" fill="#00B99B"/>
<rect x="315.81" y="226.186" width="6.79465" height="9.51252" fill="#00B99B"/>
<rect x="312.186" y="215.768" width="13.5893" height="3.62382" fill="#00B99B"/>
<rect x="325.323" y="219.392" width="3.62382" height="3.62382" fill="#00B99B"/>
<rect x="332.117" y="212.597" width="3.62382" height="9.96549" fill="#00B99B"/>
<rect x="335.288" y="218.939" width="14.9482" height="3.62382" fill="#00B99B"/>
<rect x="335.741" y="220.298" width="3.62382" height="9.05954" fill="#00B99B"/>
<rect x="345.707" y="216.221" width="4.52977" height="9.05954" fill="#00B99B"/>
<rect x="345.707" y="222.11" width="6.79465" height="3.62382" fill="#00B99B"/>
<rect x="353.86" y="215.768" width="3.62382" height="6.79465" fill="#00B99B"/>
<rect x="356.578" y="223.016" width="3.62382" height="2.71786" fill="#00B99B"/>
<rect x="352.954" y="225.733" width="3.62382" height="3.17084" fill="#00B99B"/>
<rect x="356.125" y="229.357" width="3.62382" height="6.34168" fill="#00B99B"/>
<rect x="359.749" y="225.733" width="7.24763" height="3.17084" fill="#00B99B"/>
<rect x="369.714" y="222.563" width="3.62382" height="3.17084" fill="#00B99B"/>
<rect x="372.885" y="225.733" width="3.62382" height="3.17084" fill="#00B99B"/>
<rect x="369.714" y="229.357" width="3.62382" height="3.17084" fill="#00B99B"/>
<rect x="366.091" y="232.528" width="3.62382" height="3.17084" fill="#00B99B"/>
<rect x="362.92" y="236.152" width="3.62382" height="3.17084" fill="#00B99B"/>
<rect x="359.296" y="239.323" width="3.62382" height="3.17084" fill="#00B99B"/>
<rect x="352.501" y="235.699" width="3.62382" height="3.17084" fill="#00B99B"/>
<rect x="343.442" y="226.186" width="3.62382" height="3.17084" fill="#00B99B"/>
<rect x="339.365" y="228.904" width="3.62382" height="3.62382" fill="#00B99B"/>
<rect x="335.741" y="252.459" width="3.62382" height="3.62382" fill="#00B99B"/>
<rect x="332.57" y="256.083" width="3.62382" height="3.62382" fill="#00B99B"/>
<rect x="328.947" y="259.707" width="3.62382" height="3.62382" fill="#00B99B"/>
<rect x="322.152" y="262.425" width="6.79465" height="3.62382" fill="#00B99B"/>
<rect x="298.597" y="269.672" width="20.8369" height="3.62382" fill="#00B99B"/>
<rect x="318.981" y="266.048" width="3.62382" height="3.62382" fill="#00B99B"/>
<rect x="294.973" y="263.33" width="3.62382" height="6.34168" fill="#00B99B"/>
<rect x="291.802" y="259.707" width="3.62382" height="3.62382" fill="#00B99B"/>
<rect x="288.632" y="256.083" width="3.62382" height="3.62382" fill="#00B99B"/>
<rect x="285.008" y="252.912" width="3.62382" height="3.62382" fill="#00B99B"/>
<rect x="281.837" y="246.57" width="3.62382" height="6.34168" fill="#00B99B"/>
<rect x="298.597" y="251.553" width="3.62382" height="6.79465" fill="#00B99B"/>
<rect x="301.768" y="254.724" width="14.0423" height="3.62382" fill="#00B99B"/>
<rect x="299.503" y="245.664" width="6.79465" height="3.62382" fill="#00B99B"/>
<rect x="305.845" y="242.494" width="4.07679" height="3.62382" fill="#00B99B"/>
<rect x="296.332" y="242.494" width="4.07679" height="3.62382" fill="#00B99B"/>
<rect x="288.632" y="215.768" width="7.24763" height="3.62382" fill="#00B99B"/>
<rect x="285.461" y="218.939" width="3.17084" height="3.62382" fill="#00B99B"/>
<rect x="281.837" y="208.973" width="3.62382" height="6.34168" fill="#00B99B"/>
<rect x="285.008" y="205.802" width="3.62382" height="3.17084" fill="#00B99B"/>
<rect x="288.632" y="199.008" width="3.62382" height="6.79465" fill="#00B99B"/>
<rect x="292.255" y="195.837" width="3.62382" height="3.17084" fill="#00B99B"/>
<rect x="295.426" y="191.76" width="6.34168" height="3.62382" fill="#00B99B"/>
<rect x="302.221" y="195.384" width="9.51252" height="3.62382" fill="#00B99B"/>
<rect x="305.392" y="188.589" width="3.62382" height="13.5893" fill="#00B99B"/>
<rect x="311.733" y="192.213" width="7.70061" height="3.62382" fill="#00B99B"/>
<rect x="308.563" y="184.965" width="14.4953" height="3.62382" fill="#00B99B"/>
<rect x="299.05" y="184.965" width="6.79465" height="3.62382" fill="#00B99B"/>
<rect x="322.605" y="199.008" width="3.62382" height="6.79465" fill="#00B99B"/>
<rect x="325.776" y="192.213" width="6.79465" height="3.62382" fill="#00B99B"/>
<rect x="322.152" y="188.589" width="3.62382" height="3.62382" fill="#00B99B"/>
<rect x="319.434" y="195.837" width="3.17084" height="2.71786" fill="#00B99B"/>
<rect x="325.776" y="205.802" width="3.62382" height="3.17084" fill="#00B99B"/>
<rect x="328.494" y="208.973" width="4.07679" height="3.62382" fill="#00B99B"/>
<rect x="338.912" y="208.973" width="4.07679" height="3.62382" fill="#00B99B"/>
<rect x="342.989" y="212.597" width="3.62382" height="3.17084" fill="#00B99B"/>
<rect x="359.296" y="208.52" width="3.62382" height="3.62382" fill="#00B99B"/>
<rect x="362.92" y="195.384" width="3.17084" height="3.62382" fill="#00B99B"/>
<rect x="359.749" y="192.213" width="3.17084" height="3.62382" fill="#00B99B"/>
<rect x="349.783" y="188.589" width="9.51252" height="3.62382" fill="#00B99B"/>
<rect x="342.989" y="184.965" width="6.34168" height="3.62382" fill="#00B99B"/>
<rect x="336.194" y="181.795" width="6.34168" height="3.62382" fill="#00B99B"/>
<rect x="332.57" y="178.624" width="3.62382" height="3.17084" fill="#00B99B"/>
<rect x="312.186" y="178.624" width="3.62382" height="3.17084" fill="#00B99B"/>
<rect x="305.845" y="178.624" width="3.62382" height="3.17084" fill="#00B99B"/>
<rect x="294.973" y="178.171" width="3.62382" height="3.62382" fill="#00B99B"/>
<rect x="281.837" y="184.965" width="3.62382" height="3.62382" fill="#00B99B"/>
<rect x="278.666" y="189.042" width="3.62382" height="2.71786" fill="#00B99B"/>
<rect x="268.248" y="208.973" width="3.62382" height="2.71786" fill="#00B99B"/>
<rect x="265.077" y="212.144" width="3.62382" height="3.62382" fill="#00B99B"/>
<rect x="268.248" y="222.11" width="3.62382" height="3.62382" fill="#00B99B"/>
<rect x="264.624" y="228.904" width="3.62382" height="3.62382" fill="#00B99B"/>
<rect x="268.248" y="232.528" width="3.62382" height="3.17084" fill="#00B99B"/>
<rect x="271.418" y="236.152" width="8.15358" height="3.62382" fill="#00B99B"/>
<rect x="272.324" y="218.486" width="6.79465" height="4.52977" fill="#00B99B"/>
<rect x="261" y="215.768" width="3.62382" height="13.1363" fill="#00B99B"/>
<rect x="274.589" y="191.76" width="3.62382" height="6.79465" fill="#00B99B"/>
<rect x="271.418" y="199.008" width="3.62382" height="9.51252" fill="#00B99B"/>
<rect x="285.461" y="181.795" width="9.51252" height="3.62382" fill="#00B99B"/>
<rect x="298.597" y="175" width="7.24763" height="3.62382" fill="#00B99B"/>
<rect x="308.563" y="181.795" width="3.62382" height="4.07679" fill="#00B99B"/>
<rect x="315.357" y="175" width="17.2131" height="3.62382" fill="#00B99B"/>
<rect x="366.544" y="199.008" width="3.62382" height="23.1018" fill="#00B99B"/>
<rect x="362.467" y="212.597" width="3.62382" height="3.17084" fill="#00B99B"/>
<rect x="278.213" y="215.768" width="3.62382" height="30.3495" fill="#00B99B"/>
<rect x="339.365" y="242.494" width="3.62382" height="9.96549" fill="#00B99B"/>
<rect x="342.083" y="246.117" width="10.4185" height="3.17084" fill="#00B99B"/>
<rect x="342.989" y="236.152" width="3.62382" height="5.8887" fill="#00B99B"/>
<rect x="352.954" y="242.494" width="6.34168" height="3.62382" fill="#00B99B"/>
<rect x="342.989" y="239.776" width="9.96549" height="3.62382" fill="#00B99B"/>
</svg>
