<svg width="611" height="285" viewBox="0 0 611 285" fill="none" xmlns="http://www.w3.org/2000/svg">
<path d="M39.0976 42.3659V57H36.1707V42.3659H39.0976ZM44.371 42.3659V57H41.4442V42.3659H44.371ZM56.0892 48.2195V48.8049H55.5038V57H52.577V45.878H55.5038V46.4634H56.0892V45.878H59.6014V46.4634H60.7721V47.0488H61.3575V48.2195H61.9428V57H59.016V48.8049H58.4306V48.2195H56.0892ZM66.6366 54.0732V54.6585H68.9781V54.0732H69.5635V53.4878H72.4903V54.6585H71.9049V55.8293H71.3195V56.4146H70.1488V57H65.4659V56.4146H64.2952V55.8293H63.7098V54.6585H63.1244V48.2195H63.7098V47.0488H64.2952V46.4634H65.4659V45.878H70.1488V46.4634H71.3195V47.0488H71.9049V48.2195H72.4903V52.3171H66.0513V54.0732H66.6366ZM66.0513 48.8049V50.561H69.5635V48.8049H68.9781V48.2195H66.6366V48.8049H66.0513ZM81.2868 46.4634V44.7073H81.8721V43.5366H82.4575V42.9512H83.6282V42.3659H86.5551V44.7073H84.799V45.2927H84.2136V46.4634H86.5551V48.8049H84.2136V57H81.2868V48.8049H80.116V46.4634H81.2868ZM91.246 52.3171V52.9024H90.6606V54.0732H91.246V54.6585H93.5875V54.0732H94.1728V52.3171H91.246ZM88.3192 55.8293V54.6585H87.7338V52.9024H88.3192V51.7317H88.9045V51.1463H90.0753V50.561H94.1728V48.8049H93.5875V48.2195H91.246V48.8049H90.6606V49.3902H87.7338V48.2195H88.3192V47.0488H88.9045V46.4634H90.0753V45.878H94.7582V46.4634H95.9289V47.0488H96.5143V48.2195H97.0997V57H94.1728V56.4146H93.5875V57H89.4899V56.4146H88.9045V55.8293H88.3192ZM99.452 55.8293V54.6585H98.8666V45.878H101.793V54.0732H102.379V54.6585H104.72V54.0732H105.306V45.878H108.232V57H105.306V56.4146H104.72V57H101.208V56.4146H100.037V55.8293H99.452ZM114.097 54.0732V54.6585H115.853V57H112.926V56.4146H111.756V55.8293H111.17V54.6585H110.585V48.8049H109.414V46.4634H110.585V45.2927H111.17V44.7073H111.756V44.122H112.341V43.5366H112.926V42.9512H113.512V46.4634H115.853V48.8049H113.512V54.0732H114.097ZM123.475 45.878H126.402V46.4634H126.988V45.878H130.5V46.4634H131.671V47.0488H132.256V48.2195H132.841V54.6585H132.256V55.8293H131.671V56.4146H130.5V57H126.402V60.5122H123.475V45.878ZM129.329 54.0732H129.914V48.8049H129.329V48.2195H126.988V48.8049H126.402V54.6585H129.329V54.0732ZM137.535 52.3171V52.9024H136.95V54.0732H137.535V54.6585H139.877V54.0732H140.462V52.3171H137.535ZM134.608 55.8293V54.6585H134.023V52.9024H134.608V51.7317H135.194V51.1463H136.364V50.561H140.462V48.8049H139.877V48.2195H137.535V48.8049H136.95V49.3902H134.023V48.2195H134.608V47.0488H135.194V46.4634H136.364V45.878H141.047V46.4634H142.218V47.0488H142.803V48.2195H143.389V57H140.462V56.4146H139.877V57H135.779V56.4146H135.194V55.8293H134.608ZM148.083 53.4878V54.0732H148.668V54.6585H151.009V54.0732H151.595V52.9024H151.009V52.3171H147.497V51.7317H146.326V51.1463H145.741V49.9756H145.156V48.2195H145.741V47.0488H146.326V46.4634H147.497V45.878H152.18V46.4634H153.351V47.0488H153.936V48.8049H151.009V48.2195H148.668V48.8049H148.083V49.3902H148.668V49.9756H152.18V50.561H153.351V51.1463H153.936V52.3171H154.522V54.6585H153.936V55.8293H153.351V56.4146H152.18V57H147.497V56.4146H146.326V55.8293H145.741V54.6585H145.156V53.4878H148.083ZM165.659 48.2195V48.8049H165.074V57H162.147V45.878H165.074V46.4634H165.659V45.878H169.172V46.4634H170.342V47.0488H170.928V48.2195H171.513V57H168.586V48.8049H168.001V48.2195H165.659ZM176.207 42.9512V42.3659H176.792V41.7805H177.378V41.1951H179.134V42.9512H178.548V43.5366H177.963V44.122H177.378V44.7073H175.622V42.9512H176.207ZM176.207 54.0732V54.6585H178.548V54.0732H179.134V53.4878H182.061V54.6585H181.475V55.8293H180.89V56.4146H179.719V57H175.036V56.4146H173.865V55.8293H173.28V54.6585H172.695V48.2195H173.28V47.0488H173.865V46.4634H175.036V45.878H179.719V46.4634H180.89V47.0488H181.475V48.2195H182.061V52.3171H175.622V54.0732H176.207ZM175.622 48.8049V50.561H179.134V48.8049H178.548V48.2195H176.207V48.8049H175.622ZM186.754 52.9024V53.4878H189.095V52.9024H189.681V48.2195H186.754V48.8049H186.168V52.9024H186.754ZM186.168 57V57.5854H186.754V58.1707H189.095V57.5854H189.681V55.2439H189.095V55.8293H185.583V55.2439H184.412V54.6585H183.827V53.4878H183.242V48.2195H183.827V47.0488H184.412V46.4634H185.583V45.878H192.607V58.1707H192.022V59.3415H191.437V59.9268H190.266V60.5122H185.583V59.9268H184.412V59.3415H183.827V58.1707H183.242V57H186.168ZM197.887 42.3659V57H194.96V42.3659H197.887ZM203.16 42.3659V44.7073H200.233V42.3659H203.16ZM203.16 46.4634V57H200.233V46.4634H203.16ZM208.433 52.9024V53.4878H210.775V52.9024H211.36V48.2195H208.433V48.8049H207.848V52.9024H208.433ZM207.848 57V57.5854H208.433V58.1707H210.775V57.5854H211.36V55.2439H210.775V55.8293H207.263V55.2439H206.092V54.6585H205.507V53.4878H204.921V48.2195H205.507V47.0488H206.092V46.4634H207.263V45.878H214.287V58.1707H213.702V59.3415H213.116V59.9268H211.946V60.5122H207.263V59.9268H206.092V59.3415H205.507V58.1707H204.921V57H207.848ZM219.566 54.0732V54.6585H221.908V54.0732H222.493V53.4878H225.42V54.6585H224.835V55.8293H224.249V56.4146H223.079V57H218.396V56.4146H217.225V55.8293H216.639V54.6585H216.054V48.2195H216.639V47.0488H217.225V46.4634H218.396V45.878H223.079V46.4634H224.249V47.0488H224.835V48.2195H225.42V52.3171H218.981V54.0732H219.566ZM218.981 48.8049V50.561H222.493V48.8049H221.908V48.2195H219.566V48.8049H218.981ZM230.699 48.2195V48.8049H230.113V57H227.186V45.878H230.113V46.4634H230.699V45.878H234.211V46.4634H234.796V47.0488H235.381V47.6341H234.796V48.2195H234.211V48.8049H233.625V49.3902H233.04V48.8049H232.455V48.2195H230.699ZM245.348 42.3659V57H242.421V42.3659H245.348ZM247.694 47.6341V47.0488H248.28V46.4634H248.865V45.2927H247.694V42.3659H250.621V45.878H250.036V46.4634H249.45V47.0488H248.865V47.6341H247.694ZM255.894 42.3659V44.7073H252.968V42.3659H255.894ZM255.894 46.4634V57H252.968V46.4634H255.894ZM261.753 48.2195V48.8049H261.168V57H258.241V45.878H261.168V46.4634H261.753V45.878H264.68V46.4634H265.265V47.0488H265.851V46.4634H266.436V45.878H269.363V46.4634H270.534V47.0488H271.119V48.2195H271.704V57H268.778V48.8049H268.192V48.2195H267.022V48.8049H266.436V57H263.509V48.8049H262.924V48.2195H261.753ZM273.452 45.878H276.379V46.4634H276.964V45.878H280.476V46.4634H281.647V47.0488H282.232V48.2195H282.818V54.6585H282.232V55.8293H281.647V56.4146H280.476V57H276.379V60.5122H273.452V45.878ZM279.306 54.0732H279.891V48.8049H279.306V48.2195H276.964V48.8049H276.379V54.6585H279.306V54.0732ZM291.024 56.4146V57H286.341V56.4146H285.17V55.8293H284.585V54.6585H283.999V48.2195H284.585V47.0488H285.17V46.4634H286.341V45.878H291.024V46.4634H292.195V47.0488H292.78V48.2195H293.365V54.6585H292.78V55.8293H292.195V56.4146H291.024ZM287.512 54.0732V54.6585H289.853V54.0732H290.438V48.8049H289.853V48.2195H287.512V48.8049H286.926V54.0732H287.512ZM298.644 48.2195V48.8049H298.058V57H295.132V45.878H298.058V46.4634H298.644V45.878H302.156V46.4634H302.741V47.0488H303.327V47.6341H302.741V48.2195H302.156V48.8049H301.571V49.3902H300.985V48.8049H300.4V48.2195H298.644ZM308.019 54.0732V54.6585H309.775V57H306.848V56.4146H305.677V55.8293H305.092V54.6585H304.507V48.8049H303.336V46.4634H304.507V45.2927H305.092V44.7073H305.677V44.122H306.263V43.5366H306.848V42.9512H307.433V46.4634H309.775V48.8049H307.433V54.0732H308.019ZM314.465 52.3171V52.9024H313.879V54.0732H314.465V54.6585H316.806V54.0732H317.392V52.3171H314.465ZM311.538 55.8293V54.6585H310.953V52.9024H311.538V51.7317H312.123V51.1463H313.294V50.561H317.392V48.8049H316.806V48.2195H314.465V48.8049H313.879V49.3902H310.953V48.2195H311.538V47.0488H312.123V46.4634H313.294V45.878H317.977V46.4634H319.148V47.0488H319.733V48.2195H320.318V57H317.392V56.4146H316.806V57H312.709V56.4146H312.123V55.8293H311.538ZM326.183 48.2195V48.8049H325.598V57H322.671V45.878H325.598V46.4634H326.183V45.878H329.695V46.4634H330.866V47.0488H331.451V48.2195H332.037V57H329.11V48.8049H328.524V48.2195H326.183ZM336.73 54.0732V54.6585H339.072V54.0732H339.657V52.9024H342.584V54.6585H341.999V55.8293H341.413V56.4146H340.243V57H335.56V56.4146H334.389V55.8293H333.804V54.6585H333.218V48.2195H333.804V47.0488H334.389V46.4634H335.56V45.878H340.243V46.4634H341.413V47.0488H341.999V48.2195H342.584V49.9756H339.657V48.8049H339.072V48.2195H336.73V48.8049H336.145V54.0732H336.73ZM347.277 54.0732V54.6585H349.619V54.0732H350.204V53.4878H353.131V54.6585H352.546V55.8293H351.96V56.4146H350.789V57H346.107V56.4146H344.936V55.8293H344.35V54.6585H343.765V48.2195H344.35V47.0488H344.936V46.4634H346.107V45.878H350.789V46.4634H351.96V47.0488H352.546V48.2195H353.131V52.3171H346.692V54.0732H347.277ZM346.692 48.8049V50.561H350.204V48.8049H349.619V48.2195H347.277V48.8049H346.692ZM363.683 54.0732V54.6585H366.025V54.0732H366.61V48.2195H363.683V48.8049H363.098V54.0732H363.683ZM360.757 48.2195V47.0488H361.342V46.4634H362.513V45.878H366.61V42.3659H369.537V57H366.61V56.4146H366.025V57H362.513V56.4146H361.342V55.8293H360.757V54.6585H360.171V48.2195H360.757ZM374.816 54.0732V54.6585H377.158V54.0732H377.743V53.4878H380.67V54.6585H380.085V55.8293H379.499V56.4146H378.329V57H373.646V56.4146H372.475V55.8293H371.889V54.6585H371.304V48.2195H371.889V47.0488H372.475V46.4634H373.646V45.878H378.329V46.4634H379.499V47.0488H380.085V48.2195H380.67V52.3171H374.231V54.0732H374.816ZM374.231 48.8049V50.561H377.743V48.8049H377.158V48.2195H374.816V48.8049H374.231ZM394.735 51.7317V51.1463H394.149V50.561H393.564V49.3902H394.149V48.8049H394.735V48.2195H395.32V47.6341H395.905V47.0488H396.491V46.4634H397.076V45.878H398.247V46.4634H398.832V47.6341H398.247V48.2195H397.662V48.8049H397.076V49.3902H396.491V50.561H397.076V51.1463H397.662V51.7317H398.247V52.3171H398.832V53.4878H398.247V54.0732H397.076V53.4878H396.491V52.9024H395.905V52.3171H395.32V51.7317H394.735ZM390.637 52.9024V52.3171H390.052V51.7317H389.466V51.1463H388.881V50.561H388.296V49.3902H388.881V48.8049H389.466V48.2195H390.052V47.6341H390.637V47.0488H391.223V46.4634H391.808V45.878H392.979V46.4634H393.564V47.6341H392.979V48.2195H392.393V48.8049H391.808V49.3902H391.223V50.561H391.808V51.1463H392.393V51.7317H392.979V52.3171H393.564V53.4878H392.979V54.0732H391.808V53.4878H391.223V52.9024H390.637ZM415.803 48.2195H416.388V54.6585H415.803V55.8293H415.217V56.4146H414.047V57H407.022V42.3659H409.949V46.4634H410.534V45.878H414.047V46.4634H415.217V47.0488H415.803V48.2195ZM412.876 54.0732H413.461V48.8049H412.876V48.2195H410.534V48.8049H409.949V54.6585H412.876V54.0732ZM421.667 48.2195V48.8049H421.082V57H418.155V45.878H421.082V46.4634H421.667V45.878H425.179V46.4634H425.765V47.0488H426.35V47.6341H425.765V48.2195H425.179V48.8049H424.594V49.3902H424.009V48.8049H423.423V48.2195H421.667ZM430.457 42.3659V44.7073H427.53V42.3659H430.457ZM430.457 46.4634V57H427.53V46.4634H430.457ZM435.73 54.0732V54.6585H438.072V54.0732H438.657V52.9024H441.584V54.6585H440.999V55.8293H440.413V56.4146H439.243V57H434.56V56.4146H433.389V55.8293H432.804V54.6585H432.218V48.2195H432.804V47.0488H433.389V46.4634H434.56V45.878H439.243V46.4634H440.413V47.0488H440.999V48.2195H441.584V49.9756H438.657V48.8049H438.072V48.2195H435.73V48.8049H435.145V54.0732H435.73ZM449.789 56.4146V57H445.107V56.4146H443.936V55.8293H443.35V54.6585H442.765V48.2195H443.35V47.0488H443.936V46.4634H445.107V45.878H449.789V46.4634H450.96V47.0488H451.546V48.2195H452.131V54.6585H451.546V55.8293H450.96V56.4146H449.789ZM446.277 54.0732V54.6585H448.619V54.0732H449.204V48.8049H448.619V48.2195H446.277V48.8049H445.692V54.0732H446.277ZM456.824 42.3659V57H453.897V42.3659H456.824ZM462.098 54.0732V54.6585H464.439V54.0732H465.024V53.4878H467.951V54.6585H467.366V55.8293H466.78V56.4146H465.61V57H460.927V56.4146H459.756V55.8293H459.171V54.6585H458.585V48.2195H459.171V47.0488H459.756V46.4634H460.927V45.878H465.61V46.4634H466.78V47.0488H467.366V48.2195H467.951V52.3171H461.512V54.0732H462.098ZM461.512 48.8049V50.561H465.024V48.8049H464.439V48.2195H462.098V48.8049H461.512ZM473.23 48.2195V48.8049H472.644V57H469.718V45.878H472.644V46.4634H473.23V45.878H476.742V46.4634H477.327V47.0488H477.913V47.6341H477.327V48.2195H476.742V48.8049H476.157V49.3902H475.571V48.8049H474.986V48.2195H473.23ZM485.537 53.4878H484.952V52.3171H485.537V51.7317H486.123V51.1463H486.708V50.561H487.293V49.3902H486.708V48.8049H486.123V48.2195H485.537V47.6341H484.952V46.4634H485.537V45.878H486.708V46.4634H487.293V47.0488H487.879V47.6341H488.464V48.2195H489.05V48.8049H489.635V49.3902H490.22V50.561H489.635V51.1463H489.05V51.7317H488.464V52.3171H487.879V52.9024H487.293V53.4878H486.708V54.0732H485.537V53.4878ZM490.806 53.4878H490.22V52.3171H490.806V51.7317H491.391V51.1463H491.976V50.561H492.562V49.3902H491.976V48.8049H491.391V48.2195H490.806V47.6341H490.22V46.4634H490.806V45.878H491.976V46.4634H492.562V47.0488H493.147V47.6341H493.732V48.2195H494.318V48.8049H494.903V49.3902H495.489V50.561H494.903V51.1463H494.318V51.7317H493.732V52.3171H493.147V52.9024H492.562V53.4878H491.976V54.0732H490.806V53.4878ZM500.746 54.0732V57.5854H500.161V58.1707H499.575V58.7561H498.99V59.3415H497.819V58.7561H498.405V58.1707H498.99V57H497.819V54.0732H500.746ZM512.464 54.0732V54.6585H514.22V57H511.293V56.4146H510.123V55.8293H509.537V54.6585H508.952V48.8049H507.781V46.4634H508.952V45.2927H509.537V44.7073H510.123V44.122H510.708V43.5366H511.293V42.9512H511.879V46.4634H514.22V48.8049H511.879V54.0732H512.464ZM519.495 48.2195V48.8049H518.91V57H515.983V45.878H518.91V46.4634H519.495V45.878H523.008V46.4634H523.593V47.0488H524.178V47.6341H523.593V48.2195H523.008V48.8049H522.422V49.3902H521.837V48.8049H521.252V48.2195H519.495ZM531.797 56.4146V57H527.114V56.4146H525.944V55.8293H525.358V54.6585H524.773V48.2195H525.358V47.0488H525.944V46.4634H527.114V45.878H531.797V46.4634H532.968V47.0488H533.553V48.2195H534.139V54.6585H533.553V55.8293H532.968V56.4146H531.797ZM528.285 54.0732V54.6585H530.627V54.0732H531.212V48.8049H530.627V48.2195H528.285V48.8049H527.7V54.0732H528.285ZM535.905 55.8293V54.6585H535.32V45.878H538.247V54.0732H538.832V54.6585H541.173V54.0732H541.759V45.878H544.686V57H541.759V56.4146H541.173V57H537.661V56.4146H536.49V55.8293H535.905ZM550.55 52.9024V53.4878H551.135V54.0732H552.306V53.4878H552.892V52.9024H553.477V45.878H556.404V53.4878H555.818V54.0732H555.233V54.6585H554.648V55.2439H554.062V55.8293H553.477V56.4146H552.892V57H550.55V56.4146H549.965V55.8293H549.379V55.2439H548.794V54.6585H548.209V54.0732H547.623V53.4878H547.038V45.878H549.965V52.9024H550.55ZM561.683 54.0732V54.6585H564.025V54.0732H564.61V53.4878H567.537V54.6585H566.952V55.8293H566.366V56.4146H565.196V57H560.513V56.4146H559.342V55.8293H558.757V54.6585H558.171V48.2195H558.757V47.0488H559.342V46.4634H560.513V45.878H565.196V46.4634H566.366V47.0488H566.952V48.2195H567.537V52.3171H561.098V54.0732H561.683ZM561.098 48.8049V50.561H564.61V48.8049H564.025V48.2195H561.683V48.8049H561.098ZM572.816 48.2195V48.8049H572.23V57H569.304V45.878H572.23V46.4634H572.816V45.878H576.328V46.4634H576.913V47.0488H577.499V47.6341H576.913V48.2195H576.328V48.8049H575.743V49.3902H575.157V48.8049H574.572V48.2195H572.816ZM39.0976 66.3659V81H36.1707V66.3659H39.0976ZM44.371 78.0732V78.6585H46.7125V78.0732H47.2978V77.4878H50.2247V78.6585H49.6393V79.8293H49.0539V80.4146H47.8832V81H43.2003V80.4146H42.0295V79.8293H41.4442V78.6585H40.8588V72.2195H41.4442V71.0488H42.0295V70.4634H43.2003V69.878H47.8832V70.4634H49.0539V71.0488H49.6393V72.2195H50.2247V76.3171H43.7856V78.0732H44.371ZM43.7856 72.8049V74.561H47.2978V72.8049H46.7125V72.2195H44.371V72.8049H43.7856ZM54.3325 77.4878V78.0732H54.9179V78.6585H57.2593V78.0732H57.8447V76.9024H57.2593V76.3171H53.7471V75.7317H52.5764V75.1463H51.991V73.9756H51.4057V72.2195H51.991V71.0488H52.5764V70.4634H53.7471V69.878H58.4301V70.4634H59.6008V71.0488H60.1862V72.8049H57.2593V72.2195H54.9179V72.8049H54.3325V73.3902H54.9179V73.9756H58.4301V74.561H59.6008V75.1463H60.1862V76.3171H60.7715V78.6585H60.1862V79.8293H59.6008V80.4146H58.4301V81H53.7471V80.4146H52.5764V79.8293H51.991V78.6585H51.4057V77.4878H54.3325ZM71.9095 72.2195V72.8049H71.3241V81H68.3973V69.878H71.3241V70.4634H71.9095V69.878H74.8363V70.4634H75.4217V71.0488H76.007V70.4634H76.5924V69.878H79.5192V70.4634H80.69V71.0488H81.2753V72.2195H81.8607V81H78.9339V72.8049H78.3485V72.2195H77.1778V72.8049H76.5924V81H73.6656V72.8049H73.0802V72.2195H71.9095ZM90.0473 80.4146V81H85.3643V80.4146H84.1936V79.8293H83.6082V78.6585H83.0229V72.2195H83.6082V71.0488H84.1936V70.4634H85.3643V69.878H90.0473V70.4634H91.218V71.0488H91.8034V72.2195H92.3887V78.6585H91.8034V79.8293H91.218V80.4146H90.0473ZM86.5351 78.0732V78.6585H88.8765V78.0732H89.4619V72.8049H88.8765V72.2195H86.5351V72.8049H85.9497V78.0732H86.5351ZM95.3258 82.1707V81.5854H95.9112V81H96.4966V80.4146H97.0819V79.8293H96.4966V79.2439H95.9112V78.6585H95.3258V78.0732H94.7405V77.4878H94.1551V69.878H97.0819V76.9024H97.6673V77.4878H98.2527V78.0732H99.4234V77.4878H100.009V76.9024H100.594V69.878H103.521V77.4878H102.936V78.0732H102.35V78.6585H101.765V79.2439H101.179V79.8293H100.594V80.4146H100.009V81H99.4234V81.5854H98.838V82.1707H98.2527V82.7561H97.6673V83.3415H97.0819V83.9268H96.4966V84.5122H94.7405V82.1707H95.3258ZM108.801 78.0732V78.6585H111.142V78.0732H111.728V77.4878H114.654V78.6585H114.069V79.8293H113.484V80.4146H112.313V81H107.63V80.4146H106.459V79.8293H105.874V78.6585H105.288V72.2195H105.874V71.0488H106.459V70.4634H107.63V69.878H112.313V70.4634H113.484V71.0488H114.069V72.2195H114.654V76.3171H108.215V78.0732H108.801ZM108.215 72.8049V74.561H111.728V72.8049H111.142V72.2195H108.801V72.8049H108.215ZM119.933 72.2195V72.8049H119.348V81H116.421V69.878H119.348V70.4634H119.933V69.878H123.445V70.4634H124.616V71.0488H125.201V72.2195H125.787V81H122.86V72.8049H122.274V72.2195H119.933ZM129.895 77.4878V78.0732H130.48V78.6585H132.822V78.0732H133.407V76.9024H132.822V76.3171H129.31V75.7317H128.139V75.1463H127.554V73.9756H126.968V72.2195H127.554V71.0488H128.139V70.4634H129.31V69.878H133.993V70.4634H135.163V71.0488H135.749V72.8049H132.822V72.2195H130.48V72.8049H129.895V73.3902H130.48V73.9756H133.993V74.561H135.163V75.1463H135.749V76.3171H136.334V78.6585H135.749V79.8293H135.163V80.4146H133.993V81H129.31V80.4146H128.139V79.8293H127.554V78.6585H126.968V77.4878H129.895ZM147.472 78.0732V78.6585H149.228V81H146.301V80.4146H145.131V79.8293H144.545V78.6585H143.96V72.8049H142.789V70.4634H143.96V69.2927H144.545V68.7073H145.131V68.122H145.716V67.5366H146.301V66.9512H146.887V70.4634H149.228V72.8049H146.887V78.0732H147.472ZM153.918 78.0732V78.6585H156.259V78.0732H156.845V77.4878H159.772V78.6585H159.186V79.8293H158.601V80.4146H157.43V81H152.747V80.4146H151.576V79.8293H150.991V78.6585H150.406V72.2195H150.991V71.0488H151.576V70.4634H152.747V69.878H157.43V70.4634H158.601V71.0488H159.186V72.2195H159.772V76.3171H153.333V78.0732H153.918ZM153.333 72.8049V74.561H156.845V72.8049H156.259V72.2195H153.918V72.8049H153.333ZM164.465 78.0732V78.6585H166.806V78.0732H167.392V76.9024H170.318V78.6585H169.733V79.8293H169.148V80.4146H167.977V81H163.294V80.4146H162.123V79.8293H161.538V78.6585H160.953V72.2195H161.538V71.0488H162.123V70.4634H163.294V69.878H167.977V70.4634H169.148V71.0488H169.733V72.2195H170.318V73.9756H167.392V72.8049H166.806V72.2195H164.465V72.8049H163.879V78.0732H164.465ZM175.597 72.2195V72.8049H175.012V81H172.085V66.3659H175.012V70.4634H175.597V69.878H179.109V70.4634H180.28V71.0488H180.865V72.2195H181.451V81H178.524V72.8049H177.938V72.2195H175.597ZM186.73 72.2195V72.8049H186.144V81H183.218V69.878H186.144V70.4634H186.73V69.878H190.242V70.4634H191.413V71.0488H191.998V72.2195H192.583V81H189.657V72.8049H189.071V72.2195H186.73ZM197.277 66.3659V68.7073H194.35V66.3659H197.277ZM197.277 70.4634V81H194.35V70.4634H197.277ZM202.551 78.0732V78.6585H204.892V78.0732H205.478V72.2195H202.551V72.8049H201.965V78.0732H202.551ZM199.624 72.2195V71.0488H200.209V70.4634H201.38V69.878H208.404V84.5122H205.478V80.4146H204.892V81H201.38V80.4146H200.209V79.8293H199.624V78.6585H199.038V72.2195H199.624ZM210.757 79.8293V78.6585H210.171V69.878H213.098V78.0732H213.683V78.6585H216.025V78.0732H216.61V69.878H219.537V81H216.61V80.4146H216.025V81H212.513V80.4146H211.342V79.8293H210.757ZM224.816 78.0732V78.6585H227.158V78.0732H227.743V77.4878H230.67V78.6585H230.085V79.8293H229.499V80.4146H228.329V81H223.646V80.4146H222.475V79.8293H221.889V78.6585H221.304V72.2195H221.889V71.0488H222.475V70.4634H223.646V69.878H228.329V70.4634H229.499V71.0488H230.085V72.2195H230.67V76.3171H224.231V78.0732H224.816ZM224.231 72.8049V74.561H227.743V72.8049H227.158V72.2195H224.816V72.8049H224.231ZM234.778 77.4878V78.0732H235.363V78.6585H237.705V78.0732H238.29V76.9024H237.705V76.3171H234.192V75.7317H233.022V75.1463H232.436V73.9756H231.851V72.2195H232.436V71.0488H233.022V70.4634H234.192V69.878H238.875V70.4634H240.046V71.0488H240.631V72.8049H237.705V72.2195H235.363V72.8049H234.778V73.3902H235.363V73.9756H238.875V74.561H240.046V75.1463H240.631V76.3171H241.217V78.6585H240.631V79.8293H240.046V80.4146H238.875V81H234.192V80.4146H233.022V79.8293H232.436V78.6585H231.851V77.4878H234.778ZM248.843 69.878H251.769V70.4634H252.355V69.878H255.867V70.4634H257.038V71.0488H257.623V72.2195H258.208V78.6585H257.623V79.8293H257.038V80.4146H255.867V81H251.769V84.5122H248.843V69.878ZM254.696 78.0732H255.282V72.8049H254.696V72.2195H252.355V72.8049H251.769V78.6585H254.696V78.0732ZM266.414 80.4146V81H261.732V80.4146H260.561V79.8293H259.975V78.6585H259.39V72.2195H259.975V71.0488H260.561V70.4634H261.732V69.878H266.414V70.4634H267.585V71.0488H268.171V72.2195H268.756V78.6585H268.171V79.8293H267.585V80.4146H266.414ZM262.902 78.0732V78.6585H265.244V78.0732H265.829V72.8049H265.244V72.2195H262.902V72.8049H262.317V78.0732H262.902ZM270.522 79.8293V78.6585H269.937V69.878H272.864V78.0732H273.449V78.6585H275.791V78.0732H276.376V69.878H279.303V81H276.376V80.4146H275.791V81H272.278V80.4146H271.108V79.8293H270.522ZM285.167 72.2195V72.8049H284.582V81H281.655V69.878H284.582V70.4634H285.167V69.878H288.679V70.4634H289.265V71.0488H289.85V71.6341H289.265V72.2195H288.679V72.8049H288.094V73.3902H287.509V72.8049H286.923V72.2195H285.167ZM300.402 72.2195V72.8049H299.816V81H296.889V69.878H299.816V70.4634H300.402V69.878H303.329V70.4634H303.914V71.0488H304.499V70.4634H305.085V69.878H308.011V70.4634H309.182V71.0488H309.768V72.2195H310.353V81H307.426V72.8049H306.841V72.2195H305.67V72.8049H305.085V81H302.158V72.8049H301.572V72.2195H300.402ZM315.027 78.0732V78.6585H317.369V78.0732H317.954V77.4878H320.881V78.6585H320.296V79.8293H319.71V80.4146H318.539V81H313.857V80.4146H312.686V79.8293H312.1V78.6585H311.515V72.2195H312.1V71.0488H312.686V70.4634H313.857V69.878H318.539V70.4634H319.71V71.0488H320.296V72.2195H320.881V76.3171H314.442V78.0732H315.027ZM314.442 72.8049V74.561H317.954V72.8049H317.369V72.2195H315.027V72.8049H314.442ZM326.159 78.0732V78.6585H327.916V81H324.989V80.4146H323.818V79.8293H323.233V78.6585H322.647V72.8049H321.477V70.4634H322.647V69.2927H323.233V68.7073H323.818V68.122H324.403V67.5366H324.989V66.9512H325.574V70.4634H327.916V72.8049H325.574V78.0732H326.159ZM333.191 78.0732V78.6585H334.947V81H332.02V80.4146H330.849V79.8293H330.264V78.6585H329.679V72.8049H328.508V70.4634H329.679V69.2927H330.264V68.7073H330.849V68.122H331.435V67.5366H332.02V66.9512H332.605V70.4634H334.947V72.8049H332.605V78.0732H333.191ZM340.222 72.2195V72.8049H339.637V81H336.71V69.878H339.637V70.4634H340.222V69.878H343.734V70.4634H344.32V71.0488H344.905V71.6341H344.32V72.2195H343.734V72.8049H343.149V73.3902H342.563V72.8049H341.978V72.2195H340.222ZM349.012 78.0732V78.6585H351.353V78.0732H351.938V77.4878H354.865V78.6585H354.28V79.8293H353.695V80.4146H352.524V81H347.841V80.4146H346.67V79.8293H346.085V78.6585H345.499V72.2195H346.085V71.0488H346.67V70.4634H347.841V69.878H352.524V70.4634H353.695V71.0488H354.28V72.2195H354.865V76.3171H348.426V78.0732H349.012ZM348.426 72.8049V74.561H351.938V72.8049H351.353V72.2195H349.012V72.8049H348.426ZM365.418 78.0732V78.6585H367.759V78.0732H368.345V77.4878H371.272V78.6585H370.686V79.8293H370.101V80.4146H368.93V81H364.247V80.4146H363.076V79.8293H362.491V78.6585H361.906V72.2195H362.491V71.0488H363.076V70.4634H364.247V69.878H368.93V70.4634H370.101V71.0488H370.686V72.2195H371.272V76.3171H364.833V78.0732H365.418ZM364.833 72.8049V74.561H368.345V72.8049H367.759V72.2195H365.418V72.8049H364.833ZM376.55 72.2195V72.8049H375.965V81H373.038V69.878H375.965V70.4634H376.55V69.878H380.062V70.4634H381.233V71.0488H381.818V72.2195H382.404V81H379.477V72.8049H378.892V72.2195H376.55ZM390.03 69.878H392.957V70.4634H393.542V69.878H397.054V70.4634H398.225V71.0488H398.811V72.2195H399.396V78.6585H398.811V79.8293H398.225V80.4146H397.054V81H392.957V84.5122H390.03V69.878ZM395.884 78.0732H396.469V72.8049H395.884V72.2195H393.542V72.8049H392.957V78.6585H395.884V78.0732ZM404.09 66.3659V81H401.163V66.3659H404.09ZM409.363 76.3171V76.9024H408.778V78.0732H409.363V78.6585H411.705V78.0732H412.29V76.3171H409.363ZM406.436 79.8293V78.6585H405.851V76.9024H406.436V75.7317H407.022V75.1463H408.192V74.561H412.29V72.8049H411.705V72.2195H409.363V72.8049H408.778V73.3902H405.851V72.2195H406.436V71.0488H407.022V70.4634H408.192V69.878H412.875V70.4634H414.046V71.0488H414.631V72.2195H415.217V81H412.29V80.4146H411.705V81H407.607V80.4146H407.022V79.8293H406.436ZM420.496 78.0732V78.6585H422.837V78.0732H423.423V76.9024H426.35V78.6585H425.764V79.8293H425.179V80.4146H424.008V81H419.325V80.4146H418.155V79.8293H417.569V78.6585H416.984V72.2195H417.569V71.0488H418.155V70.4634H419.325V69.878H424.008V70.4634H425.179V71.0488H425.764V72.2195H426.35V73.9756H423.423V72.8049H422.837V72.2195H420.496V72.8049H419.911V78.0732H420.496ZM431.043 78.0732V78.6585H433.384V78.0732H433.97V77.4878H436.897V78.6585H436.311V79.8293H435.726V80.4146H434.555V81H429.872V80.4146H428.701V79.8293H428.116V78.6585H427.531V72.2195H428.116V71.0488H428.701V70.4634H429.872V69.878H434.555V70.4634H435.726V71.0488H436.311V72.2195H436.897V76.3171H430.458V78.0732H431.043ZM430.458 72.8049V74.561H433.97V72.8049H433.384V72.2195H431.043V72.8049H430.458ZM444.522 79.8293V78.6585H443.937V69.878H446.864V78.0732H447.449V78.6585H449.791V78.0732H450.376V69.878H453.303V81H450.376V80.4146H449.791V81H446.278V80.4146H445.108V79.8293H444.522ZM459.167 72.2195V72.8049H458.582V81H455.655V69.878H458.582V70.4634H459.167V69.878H462.679V70.4634H463.85V71.0488H464.436V72.2195H465.021V81H462.094V72.8049H461.509V72.2195H459.167ZM469.715 78.0732V78.6585H472.056V78.0732H472.642V77.4878H475.568V78.6585H474.983V79.8293H474.398V80.4146H473.227V81H468.544V80.4146H467.373V79.8293H466.788V78.6585H466.203V72.2195H466.788V71.0488H467.373V70.4634H468.544V69.878H473.227V70.4634H474.398V71.0488H474.983V72.2195H475.568V76.3171H469.129V78.0732H469.715ZM469.129 72.8049V74.561H472.642V72.8049H472.056V72.2195H469.715V72.8049H469.129ZM486.121 66.3659V68.7073H483.194V66.3659H486.121ZM486.121 70.4634V81H483.194V70.4634H486.121ZM491.394 78.0732V78.6585H493.736V78.0732H494.321V72.2195H491.394V72.8049H490.809V78.0732H491.394ZM488.468 72.2195V71.0488H489.053V70.4634H490.224V69.878H494.321V66.3659H497.248V81H494.321V80.4146H493.736V81H490.224V80.4146H489.053V79.8293H488.468V78.6585H487.882V72.2195H488.468ZM502.527 66.9512V66.3659H503.113V65.7805H503.698V65.1951H505.454V66.9512H504.869V67.5366H504.283V68.122H503.698V68.7073H501.942V66.9512H502.527ZM502.527 78.0732V78.6585H504.869V78.0732H505.454V77.4878H508.381V78.6585H507.796V79.8293H507.21V80.4146H506.039V81H501.357V80.4146H500.186V79.8293H499.6V78.6585H499.015V72.2195H499.6V71.0488H500.186V70.4634H501.357V69.878H506.039V70.4634H507.21V71.0488H507.796V72.2195H508.381V76.3171H501.942V78.0732H502.527ZM501.942 72.8049V74.561H505.454V72.8049H504.869V72.2195H502.527V72.8049H501.942ZM513.074 78.0732V78.6585H515.416V78.0732H516.001V77.4878H518.928V78.6585H518.342V79.8293H517.757V80.4146H516.586V81H511.903V80.4146H510.733V79.8293H510.147V78.6585H509.562V72.2195H510.147V71.0488H510.733V70.4634H511.903V69.878H516.586V70.4634H517.757V71.0488H518.342V72.2195H518.928V76.3171H512.489V78.0732H513.074ZM512.489 72.8049V74.561H516.001V72.8049H515.416V72.2195H513.074V72.8049H512.489ZM523.621 78.0732V81H520.694V78.0732H523.621ZM538.266 74.561V71.0488H537.681V70.4634H537.095V69.878H535.925V70.4634H535.339V71.0488H534.754V74.561H538.266ZM532.412 69.878V69.2927H532.998V68.7073H533.583V68.122H534.168V67.5366H534.754V66.9512H535.339V66.3659H537.681V66.9512H538.266V67.5366H538.851V68.122H539.437V68.7073H540.022V69.2927H540.607V69.878H541.193V81H538.266V77.4878H534.754V81H531.827V69.878H532.412ZM546.473 66.3659V68.7073H543.546V66.3659H546.473ZM546.473 70.4634V81H543.546V70.4634H546.473ZM552.331 72.2195V72.8049H551.746V81H548.819V69.878H551.746V70.4634H552.331V69.878H555.844V70.4634H557.014V71.0488H557.6V72.2195H558.185V81H555.258V72.8049H554.673V72.2195H552.331ZM562.293 77.4878V78.0732H562.879V78.6585H565.22V78.0732H565.806V76.9024H565.22V76.3171H561.708V75.7317H560.537V75.1463H559.952V73.9756H559.367V72.2195H559.952V71.0488H560.537V70.4634H561.708V69.878H566.391V70.4634H567.562V71.0488H568.147V72.8049H565.22V72.2195H562.879V72.8049H562.293V73.3902H562.879V73.9756H566.391V74.561H567.562V75.1463H568.147V76.3171H568.732V78.6585H568.147V79.8293H567.562V80.4146H566.391V81H561.708V80.4146H560.537V79.8293H559.952V78.6585H559.367V77.4878H562.293ZM573.426 66.3659V68.7073H570.499V66.3659H573.426ZM573.426 70.4634V81H570.499V70.4634H573.426ZM578.699 78.0732V81.5854H578.114V82.1707H577.528V82.7561H576.943V83.3415H575.772V82.7561H576.358V82.1707H576.943V81H575.772V78.0732H578.699ZM42.6098 104.415V105H37.9268V104.415H36.7561V103.829H36.1707V102.659H35.5854V96.2195H36.1707V95.0488H36.7561V94.4634H37.9268V93.878H42.6098V94.4634H43.7805V95.0488H44.3659V96.2195H44.9512V102.659H44.3659V103.829H43.7805V104.415H42.6098ZM39.0976 102.073V102.659H41.439V102.073H42.0244V96.8049H41.439V96.2195H39.0976V96.8049H38.5122V102.073H39.0976ZM50.2298 96.2195V96.8049H49.6444V105H46.7176V93.878H49.6444V94.4634H50.2298V93.878H53.742V94.4634H54.9127V95.0488H55.4981V96.2195H56.0835V105H53.1566V96.8049H52.5713V96.2195H50.2298ZM66.6366 102.073V102.659H68.9781V102.073H69.5635V100.902H72.4903V102.659H71.9049V103.829H71.3195V104.415H70.1488V105H65.4659V104.415H64.2952V103.829H63.7098V102.659H63.1244V96.2195H63.7098V95.0488H64.2952V94.4634H65.4659V93.878H70.1488V94.4634H71.3195V95.0488H71.9049V96.2195H72.4903V97.9756H69.5635V96.8049H68.9781V96.2195H66.6366V96.8049H66.0513V102.073H66.6366ZM80.6957 104.415V105H76.0128V104.415H74.842V103.829H74.2567V102.659H73.6713V96.2195H74.2567V95.0488H74.842V94.4634H76.0128V93.878H80.6957V94.4634H81.8664V95.0488H82.4518V96.2195H83.0372V102.659H82.4518V103.829H81.8664V104.415H80.6957ZM77.1835 102.073V102.659H79.525V102.073H80.1103V96.8049H79.525V96.2195H77.1835V96.8049H76.5981V102.073H77.1835ZM88.3157 96.2195V96.8049H87.7304V105H84.8035V93.878H87.7304V94.4634H88.3157V93.878H91.8279V94.4634H92.9987V95.0488H93.584V96.2195H94.1694V105H91.2426V96.8049H90.6572V96.2195H88.3157ZM99.4486 102.073V102.659H101.205V105H98.2778V104.415H97.1071V103.829H96.5217V102.659H95.9364V96.8049H94.7656V94.4634H95.9364V93.2927H96.5217V92.7073H97.1071V92.122H97.6925V91.5366H98.2778V90.9512H98.8632V94.4634H101.205V96.8049H98.8632V102.073H99.4486ZM105.894 90.3659V92.7073H102.968V90.3659H105.894ZM105.894 94.4634V105H102.968V94.4634H105.894ZM111.753 96.2195V96.8049H111.168V105H108.241V93.878H111.168V94.4634H111.753V93.878H115.265V94.4634H116.436V95.0488H117.022V96.2195H117.607V105H114.68V96.8049H114.095V96.2195H111.753ZM119.374 103.829V102.659H118.788V93.878H121.715V102.073H122.301V102.659H124.642V102.073H125.228V93.878H128.154V105H125.228V104.415H124.642V105H121.13V104.415H119.959V103.829H119.374ZM133.433 102.073V102.659H135.775V102.073H136.36V101.488H139.287V102.659H138.702V103.829H138.116V104.415H136.946V105H132.263V104.415H131.092V103.829H130.507V102.659H129.921V96.2195H130.507V95.0488H131.092V94.4634H132.263V93.878H136.946V94.4634H138.116V95.0488H138.702V96.2195H139.287V100.317H132.848V102.073H133.433ZM132.848 96.8049V98.561H136.36V96.8049H135.775V96.2195H133.433V96.8049H132.848ZM149.84 102.073V102.659H152.181V102.073H152.767V96.2195H149.84V96.8049H149.254V102.073H149.84ZM146.913 96.2195V95.0488H147.498V94.4634H148.669V93.878H152.767V90.3659H155.693V105H152.767V104.415H152.181V105H148.669V104.415H147.498V103.829H146.913V102.659H146.328V96.2195H146.913ZM160.973 102.073V102.659H163.314V102.073H163.899V101.488H166.826V102.659H166.241V103.829H165.655V104.415H164.485V105H159.802V104.415H158.631V103.829H158.046V102.659H157.46V96.2195H158.046V95.0488H158.631V94.4634H159.802V93.878H164.485V94.4634H165.655V95.0488H166.241V96.2195H166.826V100.317H160.387V102.073H160.973ZM160.387 96.8049V98.561H163.899V96.8049H163.314V96.2195H160.973V96.8049H160.387ZM177.379 102.073V102.659H179.72V102.073H180.306V96.2195H177.379V96.8049H176.793V102.073H177.379ZM174.452 96.2195V95.0488H175.037V94.4634H176.208V93.878H180.306V90.3659H183.232V105H180.306V104.415H179.72V105H176.208V104.415H175.037V103.829H174.452V102.659H173.867V96.2195H174.452ZM188.512 90.9512V90.3659H189.097V89.7805H189.682V89.1951H191.438V90.9512H190.853V91.5366H190.268V92.122H189.682V92.7073H187.926V90.9512H188.512ZM188.512 102.073V102.659H190.853V102.073H191.438V101.488H194.365V102.659H193.78V103.829H193.195V104.415H192.024V105H187.341V104.415H186.17V103.829H185.585V102.659H184.999V96.2195H185.585V95.0488H186.17V94.4634H187.341V93.878H192.024V94.4634H193.195V95.0488H193.78V96.2195H194.365V100.317H187.926V102.073H188.512ZM187.926 96.8049V98.561H191.438V96.8049H190.853V96.2195H188.512V96.8049H187.926ZM199.058 102.073V102.659H201.4V102.073H201.985V100.902H204.912V102.659H204.327V103.829H203.741V104.415H202.571V105H197.888V104.415H196.717V103.829H196.132V102.659H195.546V96.2195H196.132V95.0488H196.717V94.4634H197.888V93.878H202.571V94.4634H203.741V95.0488H204.327V96.2195H204.912V97.9756H201.985V96.8049H201.4V96.2195H199.058V96.8049H198.473V102.073H199.058ZM213.118 104.415V105H208.435V104.415H207.264V103.829H206.679V102.659H206.093V96.2195H206.679V95.0488H207.264V94.4634H208.435V93.878H213.118V94.4634H214.288V95.0488H214.874V96.2195H215.459V102.659H214.874V103.829H214.288V104.415H213.118ZM209.605 102.073V102.659H211.947V102.073H212.532V96.8049H211.947V96.2195H209.605V96.8049H209.02V102.073H209.605ZM217.225 103.829V102.659H216.64V93.878H219.567V102.073H220.152V102.659H222.494V102.073H223.079V93.878H226.006V105H223.079V104.415H222.494V105H218.982V104.415H217.811V103.829H217.225ZM231.87 100.902V101.488H232.456V102.073H233.627V101.488H234.212V100.902H234.797V93.878H237.724V101.488H237.139V102.073H236.553V102.659H235.968V103.244H235.383V103.829H234.797V104.415H234.212V105H231.87V104.415H231.285V103.829H230.7V103.244H230.114V102.659H229.529V102.073H228.944V101.488H228.358V93.878H231.285V100.902H231.87ZM243.589 96.2195V96.8049H243.004V105H240.077V93.878H243.004V94.4634H243.589V93.878H247.101V94.4634H247.687V95.0488H248.272V95.6341H247.687V96.2195H247.101V96.8049H246.516V97.3902H245.931V96.8049H245.345V96.2195H243.589ZM252.379 90.3659V92.7073H249.452V90.3659H252.379ZM252.379 94.4634V105H249.452V94.4634H252.379ZM258.238 96.2195V96.8049H257.652V105H254.725V93.878H257.652V94.4634H258.238V93.878H261.75V94.4634H262.335V95.0488H262.921V95.6341H262.335V96.2195H261.75V96.8049H261.164V97.3902H260.579V96.8049H259.994V96.2195H258.238ZM273.472 96.2195V96.8049H272.887V105H269.96V93.878H272.887V94.4634H273.472V93.878H276.984V94.4634H278.155V95.0488H278.74V96.2195H279.326V105H276.399V96.8049H275.813V96.2195H273.472ZM287.532 104.415V105H282.849V104.415H281.678V103.829H281.093V102.659H280.507V96.2195H281.093V95.0488H281.678V94.4634H282.849V93.878H287.532V94.4634H288.702V95.0488H289.288V96.2195H289.873V102.659H289.288V103.829H288.702V104.415H287.532ZM284.019 102.073V102.659H286.361V102.073H286.946V96.8049H286.361V96.2195H284.019V96.8049H283.434V102.073H284.019ZM293.981 101.488V102.073H294.566V102.659H296.908V102.073H297.493V100.902H296.908V100.317H293.396V99.7317H292.225V99.1463H291.639V97.9756H291.054V96.2195H291.639V95.0488H292.225V94.4634H293.396V93.878H298.079V94.4634H299.249V95.0488H299.835V96.8049H296.908V96.2195H294.566V96.8049H293.981V97.3902H294.566V97.9756H298.079V98.561H299.249V99.1463H299.835V100.317H300.42V102.659H299.835V103.829H299.249V104.415H298.079V105H293.396V104.415H292.225V103.829H291.639V102.659H291.054V101.488H293.981ZM310.973 90.3659V105H308.046V90.3659H310.973ZM319.758 104.415V105H315.075V104.415H313.905V103.829H313.319V102.659H312.734V96.2195H313.319V95.0488H313.905V94.4634H315.075V93.878H319.758V94.4634H320.929V95.0488H321.514V96.2195H322.1V102.659H321.514V103.829H320.929V104.415H319.758ZM316.246 102.073V102.659H318.587V102.073H319.173V96.8049H318.587V96.2195H316.246V96.8049H315.661V102.073H316.246ZM326.793 100.902V101.488H329.134V100.902H329.72V96.2195H326.793V96.8049H326.208V100.902H326.793ZM326.208 105V105.585H326.793V106.171H329.134V105.585H329.72V103.244H329.134V103.829H325.622V103.244H324.451V102.659H323.866V101.488H323.281V96.2195H323.866V95.0488H324.451V94.4634H325.622V93.878H332.647V106.171H332.061V107.341H331.476V107.927H330.305V108.512H325.622V107.927H324.451V107.341H323.866V106.171H323.281V105H326.208ZM337.926 90.3659V92.7073H334.999V90.3659H337.926ZM337.926 94.4634V105H334.999V94.4634H337.926ZM343.199 102.073V102.659H345.541V102.073H346.126V100.902H349.053V102.659H348.467V103.829H347.882V104.415H346.711V105H342.028V104.415H340.858V103.829H340.272V102.659H339.687V96.2195H340.272V95.0488H340.858V94.4634H342.028V93.878H346.711V94.4634H347.882V95.0488H348.467V96.2195H349.053V97.9756H346.126V96.8049H345.541V96.2195H343.199V96.8049H342.614V102.073H343.199ZM353.746 90.3659V92.7073H350.819V90.3659H353.746ZM353.746 94.4634V105H350.819V94.4634H353.746ZM359.019 102.073V102.659H361.361V102.073H361.946V101.488H364.873V102.659H364.288V103.829H363.702V104.415H362.532V105H357.849V104.415H356.678V103.829H356.093V102.659H355.507V96.2195H356.093V95.0488H356.678V94.4634H357.849V93.878H362.532V94.4634H363.702V95.0488H364.288V96.2195H364.873V100.317H358.434V102.073H359.019ZM358.434 96.8049V98.561H361.946V96.8049H361.361V96.2195H359.019V96.8049H358.434ZM369.566 90.3659V105H366.639V90.3659H369.566ZM374.254 101.488V102.073H374.84V102.659H377.181V102.073H377.767V100.902H377.181V100.317H373.669V99.7317H372.498V99.1463H371.913V97.9756H371.328V96.2195H371.913V95.0488H372.498V94.4634H373.669V93.878H378.352V94.4634H379.523V95.0488H380.108V96.8049H377.181V96.2195H374.84V96.8049H374.254V97.3902H374.84V97.9756H378.352V98.561H379.523V99.1463H380.108V100.317H380.693V102.659H380.108V103.829H379.523V104.415H378.352V105H373.669V104.415H372.498V103.829H371.913V102.659H371.328V101.488H374.254ZM391.246 102.073V102.659H393.587V102.073H394.173V101.488H397.1V102.659H396.514V103.829H395.929V104.415H394.758V105H390.075V104.415H388.905V103.829H388.319V102.659H387.734V96.2195H388.319V95.0488H388.905V94.4634H390.075V93.878H394.758V94.4634H395.929V95.0488H396.514V96.2195H397.1V100.317H390.661V102.073H391.246ZM390.661 96.8049V98.561H394.173V96.8049H393.587V96.2195H391.246V96.8049H390.661ZM402.378 102.073V102.659H404.134V105H401.208V104.415H400.037V103.829H399.451V102.659H398.866V96.8049H397.695V94.4634H398.866V93.2927H399.451V92.7073H400.037V92.122H400.622V91.5366H401.208V90.9512H401.793V94.4634H404.134V96.8049H401.793V102.073H402.378ZM414.683 102.073V102.659H417.025V102.073H417.61V96.2195H414.683V96.8049H414.098V102.073H414.683ZM411.757 96.2195V95.0488H412.342V94.4634H413.513V93.878H417.61V90.3659H420.537V105H417.61V104.415H417.025V105H413.513V104.415H412.342V103.829H411.757V102.659H411.171V96.2195H411.757ZM422.889 95.6341V95.0488H423.475V94.4634H424.06V93.2927H422.889V90.3659H425.816V93.878H425.231V94.4634H424.646V95.0488H424.06V95.6341H422.889ZM431.09 102.073V102.659H433.431V102.073H434.017V101.488H436.943V102.659H436.358V103.829H435.773V104.415H434.602V105H429.919V104.415H428.748V103.829H428.163V102.659H427.578V96.2195H428.163V95.0488H428.748V94.4634H429.919V93.878H434.602V94.4634H435.773V95.0488H436.358V96.2195H436.943V100.317H430.504V102.073H431.09ZM430.504 96.8049V98.561H434.017V96.8049H433.431V96.2195H431.09V96.8049H430.504ZM442.222 96.2195V96.8049H441.637V105H438.71V93.878H441.637V94.4634H442.222V93.878H445.734V94.4634H446.905V95.0488H447.49V96.2195H448.076V105H445.149V96.8049H444.563V96.2195H442.222ZM455.702 93.878H458.629V94.4634H459.214V93.878H462.726V94.4634H463.897V95.0488H464.482V96.2195H465.068V102.659H464.482V103.829H463.897V104.415H462.726V105H458.629V108.512H455.702V93.878ZM461.556 102.073H462.141V96.8049H461.556V96.2195H459.214V96.8049H458.629V102.659H461.556V102.073ZM469.762 102.073V102.659H472.103V102.073H472.688V101.488H475.615V102.659H475.03V103.829H474.445V104.415H473.274V105H468.591V104.415H467.42V103.829H466.835V102.659H466.249V96.2195H466.835V95.0488H467.42V94.4634H468.591V93.878H473.274V94.4634H474.445V95.0488H475.03V96.2195H475.615V100.317H469.176V102.073H469.762ZM469.176 96.8049V98.561H472.688V96.8049H472.103V96.2195H469.762V96.8049H469.176ZM480.894 96.2195V96.8049H480.308V105H477.382V93.878H480.308V94.4634H480.894V93.878H484.406V94.4634H484.991V95.0488H485.577V95.6341H484.991V96.2195H484.406V96.8049H483.821V97.3902H483.235V96.8049H482.65V96.2195H480.894ZM487.927 94.4634V92.7073H488.513V91.5366H489.098V90.9512H490.269V90.3659H493.196V92.7073H491.44V93.2927H490.854V94.4634H493.196V96.8049H490.854V105H487.927V96.8049H486.757V94.4634H487.927ZM497.887 102.073V102.659H500.228V102.073H500.813V101.488H503.74V102.659H503.155V103.829H502.57V104.415H501.399V105H496.716V104.415H495.545V103.829H494.96V102.659H494.374V96.2195H494.96V95.0488H495.545V94.4634H496.716V93.878H501.399V94.4634H502.57V95.0488H503.155V96.2195H503.74V100.317H497.301V102.073H497.887ZM497.301 96.8049V98.561H500.813V96.8049H500.228V96.2195H497.887V96.8049H497.301ZM508.433 102.073V102.659H510.775V102.073H511.36V100.902H514.287V102.659H513.702V103.829H513.116V104.415H511.946V105H507.263V104.415H506.092V103.829H505.507V102.659H504.921V96.2195H505.507V95.0488H506.092V94.4634H507.263V93.878H511.946V94.4634H513.116V95.0488H513.702V96.2195H514.287V97.9756H511.36V96.8049H510.775V96.2195H508.433V96.8049H507.848V102.073H508.433ZM519.566 102.073V102.659H521.322V105H518.395V104.415H517.224V103.829H516.639V102.659H516.054V96.8049H514.883V94.4634H516.054V93.2927H516.639V92.7073H517.224V92.122H517.81V91.5366H518.395V90.9512H518.98V94.4634H521.322V96.8049H518.98V102.073H519.566ZM526.012 90.3659V92.7073H523.085V90.3659H526.012ZM526.012 94.4634V105H523.085V94.4634H526.012ZM534.797 104.415V105H530.114V104.415H528.944V103.829H528.358V102.659H527.773V96.2195H528.358V95.0488H528.944V94.4634H530.114V93.878H534.797V94.4634H535.968V95.0488H536.553V96.2195H537.139V102.659H536.553V103.829H535.968V104.415H534.797ZM531.285 102.073V102.659H533.627V102.073H534.212V96.8049H533.627V96.2195H531.285V96.8049H530.7V102.073H531.285ZM542.417 96.2195V96.8049H541.832V105H538.905V93.878H541.832V94.4634H542.417V93.878H545.929V94.4634H547.1V95.0488H547.686V96.2195H548.271V105H545.344V96.8049H544.759V96.2195H542.417ZM553.55 96.2195V96.8049H552.965V105H550.038V93.878H552.965V94.4634H553.55V93.878H557.062V94.4634H558.233V95.0488H558.818V96.2195H559.404V105H556.477V96.8049H555.892V96.2195H553.55ZM564.098 102.073V102.659H566.439V102.073H567.024V101.488H569.951V102.659H569.366V103.829H568.78V104.415H567.61V105H562.927V104.415H561.756V103.829H561.171V102.659H560.585V96.2195H561.171V95.0488H561.756V94.4634H562.927V93.878H567.61V94.4634H568.78V95.0488H569.366V96.2195H569.951V100.317H563.512V102.073H564.098ZM563.512 96.8049V98.561H567.024V96.8049H566.439V96.2195H564.098V96.8049H563.512ZM575.23 96.2195V96.8049H574.644V105H571.718V93.878H574.644V94.4634H575.23V93.878H578.742V94.4634H579.327V95.0488H579.913V95.6341H579.327V96.2195H578.742V96.8049H578.157V97.3902H577.571V96.8049H576.986V96.2195H575.23ZM39.0976 114.366V129H36.1707V114.366H39.0976ZM41.4442 119.634V119.049H42.0295V118.463H42.6149V117.293H41.4442V114.366H44.371V117.878H43.7856V118.463H43.2003V119.049H42.6149V119.634H41.4442ZM46.7176 127.829V126.659H46.1322V117.878H49.0591V126.073H49.6444V126.659H51.9859V126.073H52.5713V117.878H55.4981V129H52.5713V128.415H51.9859V129H48.4737V128.415H47.303V127.829H46.7176ZM61.3626 126.073V126.659H63.1187V129H60.1919V128.415H59.0212V127.829H58.4358V126.659H57.8504V120.805H56.6797V118.463H57.8504V117.293H58.4358V116.707H59.0212V116.122H59.6065V115.537H60.1919V114.951H60.7772V118.463H63.1187V120.805H60.7772V126.073H61.3626ZM67.8085 114.366V116.707H64.8817V114.366H67.8085ZM67.8085 118.463V129H64.8817V118.463H67.8085ZM73.0819 114.366V129H70.1551V114.366H73.0819ZM78.3554 114.366V116.707H75.4285V114.366H78.3554ZM78.3554 118.463V129H75.4285V118.463H78.3554ZM83.0434 125.488V126.073H83.6288V126.659H85.9703V126.073H86.5556V124.902H85.9703V124.317H82.4581V123.732H81.2873V123.146H80.702V121.976H80.1166V120.22H80.702V119.049H81.2873V118.463H82.4581V117.878H87.141V118.463H88.3117V119.049H88.8971V120.805H85.9703V120.22H83.6288V120.805H83.0434V121.39H83.6288V121.976H87.141V122.561H88.3117V123.146H88.8971V124.317H89.4825V126.659H88.8971V127.829H88.3117V128.415H87.141V129H82.4581V128.415H81.2873V127.829H80.702V126.659H80.1166V125.488H83.0434ZM94.1757 124.317V124.902H93.5903V126.073H94.1757V126.659H96.5171V126.073H97.1025V124.317H94.1757ZM91.2489 127.829V126.659H90.6635V124.902H91.2489V123.732H91.8342V123.146H93.005V122.561H97.1025V120.805H96.5171V120.22H94.1757V120.805H93.5903V121.39H90.6635V120.22H91.2489V119.049H91.8342V118.463H93.005V117.878H97.6879V118.463H98.8586V119.049H99.444V120.22H100.029V129H97.1025V128.415H96.5171V129H92.4196V128.415H91.8342V127.829H91.2489ZM105.894 126.073V126.659H107.65V129H104.723V128.415H103.552V127.829H102.967V126.659H102.382V120.805H101.211V118.463H102.382V117.293H102.967V116.707H103.552V116.122H104.138V115.537H104.723V114.951H105.308V118.463H107.65V120.805H105.308V126.073H105.894ZM112.34 114.366V116.707H109.413V114.366H112.34ZM112.34 118.463V129H109.413V118.463H112.34ZM121.125 128.415V129H116.442V128.415H115.272V127.829H114.686V126.659H114.101V120.22H114.686V119.049H115.272V118.463H116.442V117.878H121.125V118.463H122.296V119.049H122.881V120.22H123.467V126.659H122.881V127.829H122.296V128.415H121.125ZM117.613 126.073V126.659H119.955V126.073H120.54V120.805H119.955V120.22H117.613V120.805H117.028V126.073H117.613ZM128.745 120.22V120.805H128.16V129H125.233V117.878H128.16V118.463H128.745V117.878H132.258V118.463H133.428V119.049H134.014V120.22H134.599V129H131.672V120.805H131.087V120.22H128.745ZM139.293 126.073V129H136.366V126.073H139.293Z" fill="#00B99B"/>
<rect x="393.632" y="237.186" width="6.79465" height="9.51252" fill="#00B99B"/>
<rect x="420.81" y="237.186" width="6.79465" height="9.51252" fill="#00B99B"/>
<rect x="417.186" y="226.768" width="13.5893" height="3.62382" fill="#00B99B"/>
<rect x="430.323" y="230.392" width="3.62382" height="3.62382" fill="#00B99B"/>
<rect x="437.117" y="223.597" width="3.62382" height="9.96549" fill="#00B99B"/>
<rect x="440.288" y="229.939" width="14.9482" height="3.62382" fill="#00B99B"/>
<rect x="440.741" y="231.298" width="3.62382" height="9.05954" fill="#00B99B"/>
<rect x="450.707" y="227.221" width="4.52977" height="9.05954" fill="#00B99B"/>
<rect x="450.707" y="233.109" width="6.79465" height="3.62382" fill="#00B99B"/>
<rect x="458.86" y="226.768" width="3.62382" height="6.79465" fill="#00B99B"/>
<rect x="461.578" y="234.016" width="3.62382" height="2.71786" fill="#00B99B"/>
<rect x="457.954" y="236.733" width="3.62382" height="3.17084" fill="#00B99B"/>
<rect x="461.125" y="240.357" width="3.62382" height="6.34168" fill="#00B99B"/>
<rect x="464.749" y="236.733" width="7.24763" height="3.17084" fill="#00B99B"/>
<rect x="474.714" y="233.563" width="3.62382" height="3.17084" fill="#00B99B"/>
<rect x="477.885" y="236.733" width="3.62382" height="3.17084" fill="#00B99B"/>
<rect x="474.714" y="240.357" width="3.62382" height="3.17084" fill="#00B99B"/>
<rect x="471.091" y="243.528" width="3.62382" height="3.17084" fill="#00B99B"/>
<rect x="467.92" y="247.152" width="3.62382" height="3.17084" fill="#00B99B"/>
<rect x="464.296" y="250.323" width="3.62382" height="3.17084" fill="#00B99B"/>
<rect x="457.501" y="246.699" width="3.62382" height="3.17084" fill="#00B99B"/>
<rect x="448.442" y="237.186" width="3.62382" height="3.17084" fill="#00B99B"/>
<rect x="444.365" y="239.904" width="3.62382" height="3.62382" fill="#00B99B"/>
<rect x="440.741" y="263.459" width="3.62382" height="3.62382" fill="#00B99B"/>
<rect x="437.57" y="267.083" width="3.62382" height="3.62382" fill="#00B99B"/>
<rect x="433.947" y="270.707" width="3.62382" height="3.62382" fill="#00B99B"/>
<rect x="427.152" y="273.425" width="6.79465" height="3.62382" fill="#00B99B"/>
<rect x="403.597" y="280.672" width="20.8369" height="3.62382" fill="#00B99B"/>
<rect x="423.981" y="277.048" width="3.62382" height="3.62382" fill="#00B99B"/>
<rect x="399.973" y="274.33" width="3.62382" height="6.34168" fill="#00B99B"/>
<rect x="396.802" y="270.707" width="3.62382" height="3.62382" fill="#00B99B"/>
<rect x="393.632" y="267.083" width="3.62382" height="3.62382" fill="#00B99B"/>
<rect x="390.008" y="263.912" width="3.62382" height="3.62382" fill="#00B99B"/>
<rect x="386.837" y="257.57" width="3.62382" height="6.34168" fill="#00B99B"/>
<rect x="403.597" y="262.553" width="3.62382" height="6.79465" fill="#00B99B"/>
<rect x="406.768" y="265.724" width="14.0423" height="3.62382" fill="#00B99B"/>
<rect x="404.503" y="256.664" width="6.79465" height="3.62382" fill="#00B99B"/>
<rect x="410.845" y="253.494" width="4.07679" height="3.62382" fill="#00B99B"/>
<rect x="401.332" y="253.494" width="4.07679" height="3.62382" fill="#00B99B"/>
<rect x="393.632" y="226.768" width="7.24763" height="3.62382" fill="#00B99B"/>
<rect x="390.461" y="229.939" width="3.17084" height="3.62382" fill="#00B99B"/>
<rect x="386.837" y="219.973" width="3.62382" height="6.34168" fill="#00B99B"/>
<rect x="390.008" y="216.802" width="3.62382" height="3.17084" fill="#00B99B"/>
<rect x="393.632" y="210.008" width="3.62382" height="6.79465" fill="#00B99B"/>
<rect x="397.255" y="206.837" width="3.62382" height="3.17084" fill="#00B99B"/>
<rect x="400.426" y="202.76" width="6.34168" height="3.62382" fill="#00B99B"/>
<rect x="407.221" y="206.384" width="9.51252" height="3.62382" fill="#00B99B"/>
<rect x="410.392" y="199.589" width="3.62382" height="13.5893" fill="#00B99B"/>
<rect x="416.733" y="203.213" width="7.70061" height="3.62382" fill="#00B99B"/>
<rect x="413.563" y="195.965" width="14.4953" height="3.62382" fill="#00B99B"/>
<rect x="404.05" y="195.965" width="6.79465" height="3.62382" fill="#00B99B"/>
<rect x="427.605" y="210.008" width="3.62382" height="6.79465" fill="#00B99B"/>
<rect x="430.776" y="203.213" width="6.79465" height="3.62382" fill="#00B99B"/>
<rect x="427.152" y="199.589" width="3.62382" height="3.62382" fill="#00B99B"/>
<rect x="424.434" y="206.837" width="3.17084" height="2.71786" fill="#00B99B"/>
<rect x="430.776" y="216.802" width="3.62382" height="3.17084" fill="#00B99B"/>
<rect x="433.494" y="219.973" width="4.07679" height="3.62382" fill="#00B99B"/>
<rect x="443.912" y="219.973" width="4.07679" height="3.62382" fill="#00B99B"/>
<rect x="447.989" y="223.597" width="3.62382" height="3.17084" fill="#00B99B"/>
<rect x="464.296" y="219.52" width="3.62382" height="3.62382" fill="#00B99B"/>
<rect x="467.92" y="206.384" width="3.17084" height="3.62382" fill="#00B99B"/>
<rect x="464.749" y="203.213" width="3.17084" height="3.62382" fill="#00B99B"/>
<rect x="454.784" y="199.589" width="9.51252" height="3.62382" fill="#00B99B"/>
<rect x="447.989" y="195.965" width="6.34168" height="3.62382" fill="#00B99B"/>
<rect x="441.194" y="192.795" width="6.34168" height="3.62382" fill="#00B99B"/>
<rect x="437.57" y="189.624" width="3.62382" height="3.17084" fill="#00B99B"/>
<rect x="417.186" y="189.624" width="3.62382" height="3.17084" fill="#00B99B"/>
<rect x="410.845" y="189.624" width="3.62382" height="3.17084" fill="#00B99B"/>
<rect x="399.973" y="189.171" width="3.62382" height="3.62382" fill="#00B99B"/>
<rect x="386.837" y="195.965" width="3.62382" height="3.62382" fill="#00B99B"/>
<rect x="383.666" y="200.042" width="3.62382" height="2.71786" fill="#00B99B"/>
<rect x="373.248" y="219.973" width="3.62382" height="2.71786" fill="#00B99B"/>
<rect x="370.077" y="223.144" width="3.62382" height="3.62382" fill="#00B99B"/>
<rect x="373.248" y="233.109" width="3.62382" height="3.62382" fill="#00B99B"/>
<rect x="369.624" y="239.904" width="3.62382" height="3.62382" fill="#00B99B"/>
<rect x="373.248" y="243.528" width="3.62382" height="3.17084" fill="#00B99B"/>
<rect x="376.418" y="247.152" width="8.15358" height="3.62382" fill="#00B99B"/>
<rect x="377.324" y="229.486" width="6.79465" height="4.52977" fill="#00B99B"/>
<rect x="366" y="226.768" width="3.62382" height="13.1363" fill="#00B99B"/>
<rect x="379.589" y="202.76" width="3.62382" height="6.79465" fill="#00B99B"/>
<rect x="376.418" y="210.008" width="3.62382" height="9.51252" fill="#00B99B"/>
<rect x="390.461" y="192.795" width="9.51252" height="3.62382" fill="#00B99B"/>
<rect x="403.597" y="186" width="7.24763" height="3.62382" fill="#00B99B"/>
<rect x="413.563" y="192.795" width="3.62382" height="4.07679" fill="#00B99B"/>
<rect x="420.357" y="186" width="17.2131" height="3.62382" fill="#00B99B"/>
<rect x="471.544" y="210.008" width="3.62382" height="23.1018" fill="#00B99B"/>
<rect x="467.467" y="223.597" width="3.62382" height="3.17084" fill="#00B99B"/>
<rect x="383.213" y="226.768" width="3.62382" height="30.3495" fill="#00B99B"/>
<rect x="444.365" y="253.494" width="3.62382" height="9.96549" fill="#00B99B"/>
<rect x="447.083" y="257.117" width="10.4185" height="3.17084" fill="#00B99B"/>
<rect x="447.989" y="247.152" width="3.62382" height="5.8887" fill="#00B99B"/>
<rect x="457.954" y="253.494" width="6.34168" height="3.62382" fill="#00B99B"/>
<rect x="447.989" y="250.776" width="9.96549" height="3.62382" fill="#00B99B"/>
<path d="M596 2H15C7.8203 2 2 7.82031 2 15V155.121C2 162.301 7.8203 168.121 15 168.121H298L367 203V168.121H596C603.18 168.121 609 162.301 609 155.121V15C609 7.8203 603.18 2 596 2Z" stroke="#00B99B" stroke-width="3"/>
</svg>
