<svg width="334" height="393" viewBox="0 0 334 393" fill="none" xmlns="http://www.w3.org/2000/svg">
<path d="M46.7805 48.9756V49.561H45.6098V48.9756H45.0244V48.3902H44.439V47.8049H43.8537V47.2195H43.2683V46.6341H42.6829V46.0488H42.0976V56H39.1707V41.3659H42.0976V41.9512H42.6829V42.5366H43.2683V43.122H43.8537V43.7073H44.439V44.2927H45.0244V44.878H45.6098V45.4634H46.7805V44.878H47.3659V44.2927H47.9512V43.7073H48.5366V43.122H49.122V42.5366H49.7073V41.9512H50.2927V41.3659H53.2195V56H50.2927V46.0488H49.7073V46.6341H49.122V47.2195H48.5366V47.8049H47.9512V48.3902H47.3659V48.9756H46.7805ZM61.9926 55.4146V56H57.3096V55.4146H56.1389V54.8293H55.5535V53.6585H54.9682V47.2195H55.5535V46.0488H56.1389V45.4634H57.3096V44.878H61.9926V45.4634H63.1633V46.0488H63.7487V47.2195H64.334V53.6585H63.7487V54.8293H63.1633V55.4146H61.9926ZM58.4804 53.0732V53.6585H60.8218V53.0732H61.4072V47.8049H60.8218V47.2195H58.4804V47.8049H57.895V53.0732H58.4804ZM69.6126 47.2195V47.8049H69.0272V56H66.1004V44.878H69.0272V45.4634H69.6126V44.878H73.1248V45.4634H74.2955V46.0488H74.8809V47.2195H75.4663V56H72.5394V47.8049H71.9541V47.2195H69.6126ZM86.6048 53.0732V53.6585H88.3609V56H85.4341V55.4146H84.2633V54.8293H83.678V53.6585H83.0926V47.8049H81.9219V45.4634H83.0926V44.2927H83.678V43.7073H84.2633V43.122H84.8487V42.5366H85.4341V41.9512H86.0194V45.4634H88.3609V47.8049H86.0194V53.0732H86.6048ZM93.6361 47.2195V47.8049H93.0507V56H90.1239V44.878H93.0507V45.4634H93.6361V44.878H97.1482V45.4634H97.7336V46.0488H98.319V46.6341H97.7336V47.2195H97.1482V47.8049H96.5629V48.3902H95.9775V47.8049H95.3921V47.2195H93.6361ZM102.426 51.3171V51.9024H101.84V53.0732H102.426V53.6585H104.767V53.0732H105.353V51.3171H102.426ZM99.4989 54.8293V53.6585H98.9135V51.9024H99.4989V50.7317H100.084V50.1463H101.255V49.561H105.353V47.8049H104.767V47.2195H102.426V47.8049H101.84V48.3902H98.9135V47.2195H99.4989V46.0488H100.084V45.4634H101.255V44.878H105.938V45.4634H107.109V46.0488H107.694V47.2195H108.279V56H105.353V55.4146H104.767V56H100.67V55.4146H100.084V54.8293H99.4989ZM114.144 51.9024V52.4878H114.729V53.0732H115.9V52.4878H116.485V51.9024H117.071V44.878H119.998V52.4878H119.412V53.0732H118.827V53.6585H118.241V54.2439H117.656V54.8293H117.071V55.4146H116.485V56H114.144V55.4146H113.558V54.8293H112.973V54.2439H112.388V53.6585H111.802V53.0732H111.217V52.4878H110.632V44.878H113.558V51.9024H114.144ZM125.277 51.3171V51.9024H124.692V53.0732H125.277V53.6585H127.619V53.0732H128.204V51.3171H125.277ZM122.35 54.8293V53.6585H121.765V51.9024H122.35V50.7317H122.936V50.1463H124.107V49.561H128.204V47.8049H127.619V47.2195H125.277V47.8049H124.692V48.3902H121.765V47.2195H122.35V46.0488H122.936V45.4634H124.107V44.878H128.789V45.4634H129.96V46.0488H130.546V47.2195H131.131V56H128.204V55.4146H127.619V56H123.521V55.4146H122.936V54.8293H122.35ZM136.41 41.3659V43.7073H133.483V41.3659H136.41ZM136.41 45.4634V56H133.483V45.4634H136.41ZM141.683 41.3659V56H138.757V41.3659H141.683ZM153.402 51.9024V52.4878H153.987V53.0732H155.158V52.4878H155.743V51.9024H156.329V44.878H159.255V52.4878H158.67V53.0732H158.085V53.6585H157.499V54.2439H156.914V54.8293H156.329V55.4146H155.743V56H153.402V55.4146H152.816V54.8293H152.231V54.2439H151.646V53.6585H151.06V53.0732H150.475V52.4878H149.889V44.878H152.816V51.9024H153.402ZM168.047 55.4146V56H163.364V55.4146H162.194V54.8293H161.608V53.6585H161.023V47.2195H161.608V46.0488H162.194V45.4634H163.364V44.878H168.047V45.4634H169.218V46.0488H169.803V47.2195H170.389V53.6585H169.803V54.8293H169.218V55.4146H168.047ZM164.535 53.0732V53.6585H166.877V53.0732H167.462V47.8049H166.877V47.2195H164.535V47.8049H163.95V53.0732H164.535ZM172.155 54.8293V53.6585H171.57V44.878H174.497V53.0732H175.082V53.6585H177.423V53.0732H178.009V44.878H180.936V56H178.009V55.4146H177.423V56H173.911V55.4146H172.74V54.8293H172.155ZM185.629 52.4878V53.0732H186.215V53.6585H188.556V53.0732H189.142V51.9024H188.556V51.3171H185.044V50.7317H183.873V50.1463H183.288V48.9756H182.703V47.2195H183.288V46.0488H183.873V45.4634H185.044V44.878H189.727V45.4634H190.898V46.0488H191.483V47.8049H188.556V47.2195H186.215V47.8049H185.629V48.3902H186.215V48.9756H189.727V49.561H190.898V50.1463H191.483V51.3171H192.068V53.6585H191.483V54.8293H190.898V55.4146H189.727V56H185.044V55.4146H183.873V54.8293H183.288V53.6585H182.703V52.4878H185.629ZM199.694 44.878H202.621V45.4634H203.206V44.878H206.719V45.4634H207.889V46.0488H208.475V47.2195H209.06V53.6585H208.475V54.8293H207.889V55.4146H206.719V56H202.621V59.5122H199.694V44.878ZM205.548 53.0732H206.133V47.8049H205.548V47.2195H203.206V47.8049H202.621V53.6585H205.548V53.0732ZM213.754 41.3659V56H210.827V41.3659H213.754ZM219.027 51.3171V51.9024H218.442V53.0732H219.027V53.6585H221.369V53.0732H221.954V51.3171H219.027ZM216.1 54.8293V53.6585H215.515V51.9024H216.1V50.7317H216.686V50.1463H217.857V49.561H221.954V47.8049H221.369V47.2195H219.027V47.8049H218.442V48.3902H215.515V47.2195H216.1V46.0488H216.686V45.4634H217.857V44.878H222.539V45.4634H223.71V46.0488H224.296V47.2195H224.881V56H221.954V55.4146H221.369V56H217.271V55.4146H216.686V54.8293H216.1ZM227.819 42.5366V43.122H226.062V41.9512H226.648V41.3659H227.233V40.7805H227.819V40.1951H229.575V40.7805H230.16V41.3659H230.745V41.9512H231.331V43.122H229.575V42.5366H228.989V41.9512H228.404V42.5366H227.819ZM230.16 45.4634V56H227.233V45.4634H230.16ZM236.019 53.0732V53.6585H237.775V56H234.848V55.4146H233.677V54.8293H233.092V53.6585H232.507V47.8049H231.336V45.4634H232.507V44.2927H233.092V43.7073H233.677V43.122H234.263V42.5366H234.848V41.9512H235.433V45.4634H237.775V47.8049H235.433V53.0732H236.019ZM250.666 50.1463V50.7317H250.08V51.3171H249.495V50.7317H248.909V50.1463H248.324V48.3902H248.909V47.8049H249.495V47.2195H250.08V46.6341H250.666V46.0488H251.251V44.878H250.666V44.2927H248.909V44.878H248.324V45.4634H245.397V43.7073H245.983V42.5366H246.568V41.9512H247.739V41.3659H251.836V41.9512H253.007V42.5366H253.592V43.7073H254.178V47.2195H253.592V47.8049H253.007V48.3902H252.422V48.9756H251.836V49.561H251.251V50.1463H250.666ZM251.251 53.0732V56H248.324V53.0732H251.251ZM40.3415 77.0732H39.7561V76.4878H39.1707V65.3659H42.0976V75.3171H42.6829V75.9024H43.2683V76.4878H44.439V75.9024H45.0244V75.3171H45.6098V65.3659H48.5366V76.4878H47.9512V77.0732H47.3659V77.6585H46.7805V78.2439H46.1951V78.8293H45.6098V79.4146H45.0244V80H42.6829V79.4146H42.0976V78.8293H41.5122V78.2439H40.9268V77.6585H40.3415V77.0732ZM57.3285 79.4146V80H52.6456V79.4146H51.4748V78.8293H50.8895V77.6585H50.3041V71.2195H50.8895V70.0488H51.4748V69.4634H52.6456V68.878H57.3285V69.4634H58.4992V70.0488H59.0846V71.2195H59.67V77.6585H59.0846V78.8293H58.4992V79.4146H57.3285ZM53.8163 77.0732V77.6585H56.1578V77.0732H56.7431V71.8049H56.1578V71.2195H53.8163V71.8049H53.2309V77.0732H53.8163ZM61.4364 78.8293V77.6585H60.851V68.878H63.7778V77.0732H64.3632V77.6585H66.7046V77.0732H67.29V68.878H70.2168V80H67.29V79.4146H66.7046V80H63.1925V79.4146H62.0217V78.8293H61.4364ZM74.9106 76.4878V77.0732H75.496V77.6585H77.8375V77.0732H78.4228V75.9024H77.8375V75.3171H74.3253V74.7317H73.1545V74.1463H72.5692V72.9756H71.9838V71.2195H72.5692V70.0488H73.1545V69.4634H74.3253V68.878H79.0082V69.4634H80.1789V70.0488H80.7643V71.8049H77.8375V71.2195H75.496V71.8049H74.9106V72.3902H75.496V72.9756H79.0082V73.561H80.1789V74.1463H80.7643V75.3171H81.3497V77.6585H80.7643V78.8293H80.1789V79.4146H79.0082V80H74.3253V79.4146H73.1545V78.8293H72.5692V77.6585H71.9838V76.4878H74.9106ZM91.9022 75.3171V75.9024H91.3169V77.0732H91.9022V77.6585H94.2437V77.0732H94.8291V75.3171H91.9022ZM88.9754 78.8293V77.6585H88.3901V75.9024H88.9754V74.7317H89.5608V74.1463H90.7315V73.561H94.8291V71.8049H94.2437V71.2195H91.9022V71.8049H91.3169V72.3902H88.3901V71.2195H88.9754V70.0488H89.5608V69.4634H90.7315V68.878H95.4144V69.4634H96.5852V70.0488H97.1705V71.2195H97.7559V80H94.8291V79.4146H94.2437V80H90.1462V79.4146H89.5608V78.8293H88.9754ZM103.62 75.9024V76.4878H104.206V77.0732H105.377V76.4878H105.962V75.9024H106.547V68.878H109.474V76.4878H108.889V77.0732H108.303V77.6585H107.718V78.2439H107.133V78.8293H106.547V79.4146H105.962V80H103.62V79.4146H103.035V78.8293H102.45V78.2439H101.864V77.6585H101.279V77.0732H100.694V76.4878H100.108V68.878H103.035V75.9024H103.62ZM114.754 77.0732V77.6585H117.095V77.0732H117.681V76.4878H120.607V77.6585H120.022V78.8293H119.437V79.4146H118.266V80H113.583V79.4146H112.412V78.8293H111.827V77.6585H111.242V71.2195H111.827V70.0488H112.412V69.4634H113.583V68.878H118.266V69.4634H119.437V70.0488H120.022V71.2195H120.607V75.3171H114.168V77.0732H114.754ZM114.168 71.8049V73.561H117.681V71.8049H117.095V71.2195H114.754V71.8049H114.168ZM129.398 73.561V74.1463H128.813V74.7317H128.228V75.3171H127.642V75.9024H127.057V76.4878H126.471V77.0732H125.886V77.6585H131.74V80H122.374V77.0732H122.959V76.4878H123.545V75.9024H124.13V75.3171H124.715V74.7317H125.301V74.1463H125.886V73.561H126.471V72.9756H127.057V72.3902H127.642V71.8049H128.228V71.2195H122.374V68.878H131.74V71.8049H131.154V72.3902H130.569V72.9756H129.984V73.561H129.398ZM139.952 78.8293V77.6585H139.367V68.878H142.293V77.0732H142.879V77.6585H145.22V77.0732H145.806V68.878H148.732V80H145.806V79.4146H145.22V80H141.708V79.4146H140.537V78.8293H139.952ZM154.597 71.2195V71.8049H154.012V80H151.085V68.878H154.012V69.4634H154.597V68.878H158.109V69.4634H159.28V70.0488H159.865V71.2195H160.451V80H157.524V71.8049H156.938V71.2195H154.597ZM165.144 77.0732V77.6585H167.486V77.0732H168.071V76.4878H170.998V77.6585H170.413V78.8293H169.827V79.4146H168.657V80H163.974V79.4146H162.803V78.8293H162.218V77.6585H161.632V71.2195H162.218V70.0488H162.803V69.4634H163.974V68.878H168.657V69.4634H169.827V70.0488H170.413V71.2195H170.998V75.3171H164.559V77.0732H165.144ZM164.559 71.8049V73.561H168.071V71.8049H167.486V71.2195H165.144V71.8049H164.559ZM181.551 65.3659V67.7073H178.624V65.3659H181.551ZM181.551 69.4634V80H178.624V69.4634H181.551ZM186.824 77.0732V77.6585H189.166V77.0732H189.751V71.2195H186.824V71.8049H186.239V77.0732H186.824ZM183.897 71.2195V70.0488H184.483V69.4634H185.653V68.878H189.751V65.3659H192.678V80H189.751V79.4146H189.166V80H185.653V79.4146H184.483V78.8293H183.897V77.6585H183.312V71.2195H183.897ZM197.957 65.9512V65.3659H198.542V64.7805H199.128V64.1951H200.884V65.9512H200.298V66.5366H199.713V67.122H199.128V67.7073H197.372V65.9512H197.957ZM197.957 77.0732V77.6585H200.298V77.0732H200.884V76.4878H203.811V77.6585H203.225V78.8293H202.64V79.4146H201.469V80H196.786V79.4146H195.615V78.8293H195.03V77.6585H194.445V71.2195H195.03V70.0488H195.615V69.4634H196.786V68.878H201.469V69.4634H202.64V70.0488H203.225V71.2195H203.811V75.3171H197.372V77.0732H197.957ZM197.372 71.8049V73.561H200.884V71.8049H200.298V71.2195H197.957V71.8049H197.372ZM208.504 77.0732V77.6585H210.845V77.0732H211.431V76.4878H214.357V77.6585H213.772V78.8293H213.187V79.4146H212.016V80H207.333V79.4146H206.162V78.8293H205.577V77.6585H204.992V71.2195H205.577V70.0488H206.162V69.4634H207.333V68.878H212.016V69.4634H213.187V70.0488H213.772V71.2195H214.357V75.3171H207.918V77.0732H208.504ZM207.918 71.8049V73.561H211.431V71.8049H210.845V71.2195H208.504V71.8049H207.918ZM219.051 77.0732V80.5854H218.465V81.1707H217.88V81.7561H217.295V82.3415H216.124V81.7561H216.709V81.1707H217.295V80H216.124V77.0732H219.051ZM39.1707 102.829V101.659H38.5854V92.878H41.5122V101.073H42.0976V101.659H44.439V101.073H45.0244V92.878H47.9512V104H45.0244V103.415H44.439V104H40.9268V103.415H39.7561V102.829H39.1707ZM53.8157 95.2195V95.8049H53.2304V104H50.3035V92.878H53.2304V93.4634H53.8157V92.878H57.3279V93.4634H58.4987V94.0488H59.084V95.2195H59.6694V104H56.7426V95.8049H56.1572V95.2195H53.8157ZM67.2957 92.878H70.2226V93.4634H70.8079V92.878H74.3201V93.4634H75.4909V94.0488H76.0762V95.2195H76.6616V101.659H76.0762V102.829H75.4909V103.415H74.3201V104H70.2226V107.512H67.2957V92.878ZM73.1494 101.073H73.7348V95.8049H73.1494V95.2195H70.8079V95.8049H70.2226V101.659H73.1494V101.073ZM81.9407 95.2195V95.8049H81.3554V104H78.4285V92.878H81.3554V93.4634H81.9407V92.878H85.4529V93.4634H86.0383V94.0488H86.6237V94.6341H86.0383V95.2195H85.4529V95.8049H84.8676V96.3902H84.2822V95.8049H83.6968V95.2195H81.9407ZM94.2426 103.415V104H89.5596V103.415H88.3889V102.829H87.8035V101.659H87.2182V95.2195H87.8035V94.0488H88.3889V93.4634H89.5596V92.878H94.2426V93.4634H95.4133V94.0488H95.9987V95.2195H96.584V101.659H95.9987V102.829H95.4133V103.415H94.2426ZM90.7304 101.073V101.659H93.0718V101.073H93.6572V95.8049H93.0718V95.2195H90.7304V95.8049H90.145V101.073H90.7304ZM101.863 89.3659V91.7073H98.9358V89.3659H101.863ZM101.277 105.171V106.341H100.692V106.927H99.5212V107.512H97.1797V105.171H98.3504V104.585H98.9358V93.4634H101.863V105.171H101.277ZM107.137 101.073V101.659H109.478V101.073H110.063V100.488H112.99V101.659H112.405V102.829H111.82V103.415H110.649V104H105.966V103.415H104.795V102.829H104.21V101.659H103.624V95.2195H104.21V94.0488H104.795V93.4634H105.966V92.878H110.649V93.4634H111.82V94.0488H112.405V95.2195H112.99V99.3171H106.551V101.073H107.137ZM106.551 95.8049V97.561H110.063V95.8049H109.478V95.2195H107.137V95.8049H106.551ZM118.269 101.073V101.659H120.025V104H117.098V103.415H115.927V102.829H115.342V101.659H114.757V95.8049H113.586V93.4634H114.757V92.2927H115.342V91.7073H115.927V91.122H116.513V90.5366H117.098V89.9512H117.683V93.4634H120.025V95.8049H117.683V101.073H118.269ZM134.086 103.415V104H129.403V103.415H128.233V102.829H127.647V101.659H127.062V95.2195H127.647V94.0488H128.233V93.4634H129.403V92.878H134.086V93.4634H135.257V94.0488H135.842V95.2195H136.428V101.659H135.842V102.829H135.257V103.415H134.086ZM130.574 101.073V101.659H132.916V101.073H133.501V95.8049H132.916V95.2195H130.574V95.8049H129.989V101.073H130.574ZM138.194 102.829V101.659H137.609V92.878H140.536V101.073H141.121V101.659H143.462V101.073H144.048V92.878H146.975V104H144.048V103.415H143.462V104H139.95V103.415H138.78V102.829H138.194ZM158.699 101.073V101.659H160.455V104H157.528V103.415H156.357V102.829H155.772V101.659H155.186V95.8049H154.016V93.4634H155.186V92.2927H155.772V91.7073H156.357V91.122H156.942V90.5366H157.528V89.9512H158.113V93.4634H160.455V95.8049H158.113V101.073H158.699ZM168.657 103.415V104H163.974V103.415H162.803V102.829H162.218V101.659H161.632V95.2195H162.218V94.0488H162.803V93.4634H163.974V92.878H168.657V93.4634H169.827V94.0488H170.413V95.2195H170.998V101.659H170.413V102.829H169.827V103.415H168.657ZM165.144 101.073V101.659H167.486V101.073H168.071V95.8049H167.486V95.2195H165.144V95.8049H164.559V101.073H165.144ZM172.764 102.829V101.659H172.179V92.878H175.106V101.073H175.691V101.659H178.033V101.073H178.618V92.878H181.545V104H178.618V103.415H178.033V104H174.521V103.415H173.35V102.829H172.764ZM187.409 101.073V101.659H189.166V104H186.239V103.415H185.068V102.829H184.483V101.659H183.897V95.8049H182.727V93.4634H183.897V92.2927H184.483V91.7073H185.068V91.122H185.653V90.5366H186.239V89.9512H186.824V93.4634H189.166V95.8049H186.824V101.073H187.409ZM199.129 100.488V101.073H199.715V101.659H202.056V101.073H202.642V99.9024H202.056V99.3171H198.544V98.7317H197.373V98.1463H196.788V96.9756H196.203V95.2195H196.788V94.0488H197.373V93.4634H198.544V92.878H203.227V93.4634H204.398V94.0488H204.983V95.8049H202.056V95.2195H199.715V95.8049H199.129V96.3902H199.715V96.9756H203.227V97.561H204.398V98.1463H204.983V99.3171H205.568V101.659H204.983V102.829H204.398V103.415H203.227V104H198.544V103.415H197.373V102.829H196.788V101.659H196.203V100.488H199.129ZM210.262 89.3659V91.7073H207.335V89.3659H210.262ZM210.262 93.4634V104H207.335V93.4634H210.262ZM216.12 95.2195V95.8049H215.535V104H212.608V92.878H215.535V93.4634H216.12V92.878H219.047V93.4634H219.633V94.0488H220.218V93.4634H220.803V92.878H223.73V93.4634H224.901V94.0488H225.486V95.2195H226.072V104H223.145V95.8049H222.559V95.2195H221.389V95.8049H220.803V104H217.877V95.8049H217.291V95.2195H216.12ZM227.819 92.878H230.746V93.4634H231.331V92.878H234.844V93.4634H236.014V94.0488H236.6V95.2195H237.185V101.659H236.6V102.829H236.014V103.415H234.844V104H230.746V107.512H227.819V92.878ZM233.673 101.073H234.258V95.8049H233.673V95.2195H231.331V95.8049H230.746V101.659H233.673V101.073ZM241.879 89.3659V104H238.952V89.3659H241.879ZM247.152 101.073V101.659H249.494V101.073H250.079V100.488H253.006V101.659H252.421V102.829H251.835V103.415H250.664V104H245.982V103.415H244.811V102.829H244.225V101.659H243.64V95.2195H244.225V94.0488H244.811V93.4634H245.982V92.878H250.664V93.4634H251.835V94.0488H252.421V95.2195H253.006V99.3171H246.567V101.073H247.152ZM246.567 95.8049V97.561H250.079V95.8049H249.494V95.2195H247.152V95.8049H246.567ZM258.284 95.2195V95.8049H257.699V104H254.772V92.878H257.699V93.4634H258.284V92.878H261.211V93.4634H261.797V94.0488H262.382V93.4634H262.967V92.878H265.894V93.4634H267.065V94.0488H267.65V95.2195H268.236V104H265.309V95.8049H264.724V95.2195H263.553V95.8049H262.967V104H260.041V95.8049H259.455V95.2195H258.284ZM272.91 101.073V101.659H275.252V101.073H275.837V100.488H278.764V101.659H278.178V102.829H277.593V103.415H276.422V104H271.739V103.415H270.569V102.829H269.983V101.659H269.398V95.2195H269.983V94.0488H270.569V93.4634H271.739V92.878H276.422V93.4634H277.593V94.0488H278.178V95.2195H278.764V99.3171H272.325V101.073H272.91ZM272.325 95.8049V97.561H275.837V95.8049H275.252V95.2195H272.91V95.8049H272.325ZM284.042 95.2195V95.8049H283.457V104H280.53V92.878H283.457V93.4634H284.042V92.878H287.554V93.4634H288.725V94.0488H289.311V95.2195H289.896V104H286.969V95.8049H286.384V95.2195H284.042ZM295.175 101.073V101.659H296.931V104H294.004V103.415H292.834V102.829H292.248V101.659H291.663V95.8049H290.492V93.4634H291.663V92.2927H292.248V91.7073H292.834V91.122H293.419V90.5366H294.004V89.9512H294.59V93.4634H296.931V95.8049H294.59V101.073H295.175ZM42.0976 125.073V125.659H44.439V125.073H45.0244V119.22H42.0976V119.805H41.5122V125.073H42.0976ZM39.1707 119.22V118.049H39.7561V117.463H40.9268V116.878H45.0244V113.366H47.9512V128H45.0244V127.415H44.439V128H40.9268V127.415H39.7561V126.829H39.1707V125.659H38.5854V119.22H39.1707ZM53.2304 125.073V125.659H55.5718V125.073H56.1572V124.488H59.084V125.659H58.4987V126.829H57.9133V127.415H56.7426V128H52.0596V127.415H50.8889V126.829H50.3035V125.659H49.7182V119.22H50.3035V118.049H50.8889V117.463H52.0596V116.878H56.7426V117.463H57.9133V118.049H58.4987V119.22H59.084V123.317H52.645V125.073H53.2304ZM52.645 119.805V121.561H56.1572V119.805H55.5718V119.22H53.2304V119.805H52.645ZM63.1919 124.488V125.073H63.7772V125.659H66.1187V125.073H66.7041V123.902H66.1187V123.317H62.6065V122.732H61.4358V122.146H60.8504V120.976H60.2651V119.22H60.8504V118.049H61.4358V117.463H62.6065V116.878H67.2894V117.463H68.4602V118.049H69.0455V119.805H66.1187V119.22H63.7772V119.805H63.1919V120.39H63.7772V120.976H67.2894V121.561H68.4602V122.146H69.0455V123.317H69.6309V125.659H69.0455V126.829H68.4602V127.415H67.2894V128H62.6065V127.415H61.4358V126.829H60.8504V125.659H60.2651V124.488H63.1919ZM80.1835 125.073V125.659H82.525V125.073H83.1103V119.22H80.1835V119.805H79.5981V125.073H80.1835ZM77.2567 119.22V118.049H77.842V117.463H79.0128V116.878H86.0372V131.512H83.1103V127.415H82.525V128H79.0128V127.415H77.842V126.829H77.2567V125.659H76.6713V119.22H77.2567ZM88.3895 126.829V125.659H87.8041V116.878H90.7309V125.073H91.3163V125.659H93.6578V125.073H94.2431V116.878H97.17V128H94.2431V127.415H93.6578V128H90.1456V127.415H88.9748V126.829H88.3895ZM102.449 125.073V125.659H104.791V125.073H105.376V124.488H108.303V125.659H107.717V126.829H107.132V127.415H105.961V128H101.278V127.415H100.108V126.829H99.5223V125.659H98.9369V119.22H99.5223V118.049H100.108V117.463H101.278V116.878H105.961V117.463H107.132V118.049H107.717V119.22H108.303V123.317H101.864V125.073H102.449ZM101.864 119.805V121.561H105.376V119.805H104.791V119.22H102.449V119.805H101.864ZM112.411 124.488V125.073H112.996V125.659H115.337V125.073H115.923V123.902H115.337V123.317H111.825V122.732H110.655V122.146H110.069V120.976H109.484V119.22H110.069V118.049H110.655V117.463H111.825V116.878H116.508V117.463H117.679V118.049H118.264V119.805H115.337V119.22H112.996V119.805H112.411V120.39H112.996V120.976H116.508V121.561H117.679V122.146H118.264V123.317H118.85V125.659H118.264V126.829H117.679V127.415H116.508V128H111.825V127.415H110.655V126.829H110.069V125.659H109.484V124.488H112.411ZM124.128 125.073V125.659H125.884V128H122.958V127.415H121.787V126.829H121.201V125.659H120.616V119.805H119.445V117.463H120.616V116.293H121.201V115.707H121.787V115.122H122.372V114.537H122.958V113.951H123.543V117.463H125.884V119.805H123.543V125.073H124.128ZM130.574 113.366V115.707H127.647V113.366H130.574ZM130.574 117.463V128H127.647V117.463H130.574ZM139.36 127.415V128H134.677V127.415H133.506V126.829H132.921V125.659H132.335V119.22H132.921V118.049H133.506V117.463H134.677V116.878H139.36V117.463H140.53V118.049H141.116V119.22H141.701V125.659H141.116V126.829H140.53V127.415H139.36ZM135.848 125.073V125.659H138.189V125.073H138.774V119.805H138.189V119.22H135.848V119.805H135.262V125.073H135.848ZM146.98 119.22V119.805H146.394V128H143.468V116.878H146.394V117.463H146.98V116.878H150.492V117.463H151.663V118.049H152.248V119.22H152.833V128H149.907V119.805H149.321V119.22H146.98ZM156.942 124.488V125.073H157.527V125.659H159.869V125.073H160.454V123.902H159.869V123.317H156.357V122.732H155.186V122.146H154.6V120.976H154.015V119.22H154.6V118.049H155.186V117.463H156.357V116.878H161.039V117.463H162.21V118.049H162.796V119.805H159.869V119.22H157.527V119.805H156.942V120.39H157.527V120.976H161.039V121.561H162.21V122.146H162.796V123.317H163.381V125.659H162.796V126.829H162.21V127.415H161.039V128H156.357V127.415H155.186V126.829H154.6V125.659H154.015V124.488H156.942ZM176.275 122.146V122.732H175.69V123.317H175.104V122.732H174.519V122.146H173.933V120.39H174.519V119.805H175.104V119.22H175.69V118.634H176.275V118.049H176.86V116.878H176.275V116.293H174.519V116.878H173.933V117.463H171.007V115.707H171.592V114.537H172.177V113.951H173.348V113.366H177.446V113.951H178.616V114.537H179.202V115.707H179.787V119.22H179.202V119.805H178.616V120.39H178.031V120.976H177.446V121.561H176.86V122.146H176.275ZM176.86 125.073V128H173.933V125.073H176.86ZM42.6829 172.488V173.073H45.6098V172.488H46.1951V171.317H49.122V173.659H48.5366V174.829H47.9512V175.415H46.7805V176H41.5122V175.415H40.3415V174.829H39.7561V173.659H39.1707V163.707H39.7561V162.537H40.3415V161.951H41.5122V161.366H46.7805V161.951H47.9512V162.537H48.5366V163.707H49.122V166.049H46.1951V164.878H45.6098V164.293H42.6829V164.878H42.0976V172.488H42.6829ZM57.891 175.415V176H53.2081V175.415H52.0373V174.829H51.452V173.659H50.8666V167.22H51.452V166.049H52.0373V165.463H53.2081V164.878H57.891V165.463H59.0617V166.049H59.6471V167.22H60.2325V173.659H59.6471V174.829H59.0617V175.415H57.891ZM54.3788 173.073V173.659H56.7203V173.073H57.3056V167.805H56.7203V167.22H54.3788V167.805H53.7934V173.073H54.3788ZM65.5111 167.22V167.805H64.9257V176H61.9989V164.878H64.9257V165.463H65.5111V164.878H69.0232V165.463H70.194V166.049H70.7793V167.22H71.3647V176H68.4379V167.805H67.8525V167.22H65.5111ZM76.6439 173.073V173.659H78.4V176H75.4731V175.415H74.3024V174.829H73.717V173.659H73.1317V167.805H71.9609V165.463H73.1317V164.293H73.717V163.707H74.3024V163.122H74.8878V162.537H75.4731V161.951H76.0585V165.463H78.4V167.805H76.0585V173.073H76.6439ZM83.0897 171.317V171.902H82.5044V173.073H83.0897V173.659H85.4312V173.073H86.0166V171.317H83.0897ZM80.1629 174.829V173.659H79.5776V171.902H80.1629V170.732H80.7483V170.146H81.919V169.561H86.0166V167.805H85.4312V167.22H83.0897V167.805H82.5044V168.39H79.5776V167.22H80.1629V166.049H80.7483V165.463H81.919V164.878H86.6019V165.463H87.7727V166.049H88.358V167.22H88.9434V176H86.0166V175.415H85.4312V176H81.3337V175.415H80.7483V174.829H80.1629ZM94.2226 173.073V173.659H96.564V173.073H97.1494V171.902H100.076V173.659H99.4909V174.829H98.9055V175.415H97.7348V176H93.0518V175.415H91.8811V174.829H91.2957V173.659H90.7104V167.22H91.2957V166.049H91.8811V165.463H93.0518V164.878H97.7348V165.463H98.9055V166.049H99.4909V167.22H100.076V168.976H97.1494V167.805H96.564V167.22H94.2226V167.805H93.6372V173.073H94.2226ZM105.355 173.073V173.659H107.111V176H104.184V175.415H103.013V174.829H102.428V173.659H101.843V167.805H100.672V165.463H101.843V164.293H102.428V163.707H103.013V163.122H103.599V162.537H104.184V161.951H104.769V165.463H107.111V167.805H104.769V173.073H105.355ZM111.801 173.073V173.659H114.142V173.073H114.728V172.488H117.654V173.659H117.069V174.829H116.484V175.415H115.313V176H110.63V175.415H109.459V174.829H108.874V173.659H108.288V167.22H108.874V166.049H109.459V165.463H110.63V164.878H115.313V165.463H116.484V166.049H117.069V167.22H117.654V171.317H111.215V173.073H111.801ZM111.215 167.805V169.561H114.728V167.805H114.142V167.22H111.801V167.805H111.215ZM126.445 169.561V170.146H125.86V170.732H125.274V171.317H124.689V171.902H124.104V172.488H123.518V173.073H122.933V173.659H128.787V176H119.421V173.073H120.006V172.488H120.591V171.902H121.177V171.317H121.762V170.732H122.348V170.146H122.933V169.561H123.518V168.976H124.104V168.39H124.689V167.805H125.274V167.22H119.421V164.878H128.787V167.805H128.201V168.39H127.616V168.976H127.03V169.561H126.445ZM139.92 167.22V170.146H131.139V167.22H139.92ZM145.784 167.22V167.805H145.199V176H142.272V164.878H145.199V165.463H145.784V164.878H148.711V165.463H149.297V166.049H149.882V165.463H150.467V164.878H153.394V165.463H154.565V166.049H155.15V167.22H155.736V176H152.809V167.805H152.224V167.22H151.053V167.805H150.467V176H147.541V167.805H146.955V167.22H145.784ZM163.922 175.415V176H159.239V175.415H158.069V174.829H157.483V173.659H156.898V167.22H157.483V166.049H158.069V165.463H159.239V164.878H163.922V165.463H165.093V166.049H165.678V167.22H166.264V173.659H165.678V174.829H165.093V175.415H163.922ZM160.41 173.073V173.659H162.752V173.073H163.337V167.805H162.752V167.22H160.41V167.805H159.825V173.073H160.41ZM170.957 161.366V163.707H168.03V161.366H170.957ZM170.957 165.463V176H168.03V165.463H170.957ZM182.09 173.073V173.659H184.431V173.073H185.017V172.488H187.943V173.659H187.358V174.829H186.773V175.415H185.602V176H180.919V175.415H179.748V174.829H179.163V173.659H178.578V167.22H179.163V166.049H179.748V165.463H180.919V164.878H185.602V165.463H186.773V166.049H187.358V167.22H187.943V171.317H181.504V173.073H182.09ZM181.504 167.805V169.561H185.017V167.805H184.431V167.22H182.09V167.805H181.504ZM193.222 173.073V173.659H194.978V176H192.051V175.415H190.881V174.829H190.295V173.659H189.71V167.805H188.539V165.463H189.71V164.293H190.295V163.707H190.881V163.122H191.466V162.537H192.051V161.951H192.637V165.463H194.978V167.805H192.637V173.073H193.222ZM209.039 175.415V176H204.357V175.415H203.186V174.829H202.6V173.659H202.015V167.22H202.6V166.049H203.186V165.463H204.357V164.878H209.039V165.463H210.21V166.049H210.796V167.22H211.381V173.659H210.796V174.829H210.21V175.415H209.039ZM205.527 173.073V173.659H207.869V173.073H208.454V167.805H207.869V167.22H205.527V167.805H204.942V173.073H205.527ZM216.659 167.22V167.805H216.074V176H213.147V164.878H216.074V165.463H216.659V164.878H220.172V165.463H221.342V166.049H221.928V167.22H222.513V176H219.586V167.805H219.001V167.22H216.659ZM233.066 173.073V173.659H235.408V173.073H235.993V172.488H238.92V173.659H238.335V174.829H237.749V175.415H236.579V176H231.896V175.415H230.725V174.829H230.139V173.659H229.554V167.22H230.139V166.049H230.725V165.463H231.896V164.878H236.579V165.463H237.749V166.049H238.335V167.22H238.92V171.317H232.481V173.073H233.066ZM232.481 167.805V169.561H235.993V167.805H235.408V167.22H233.066V167.805H232.481ZM244.199 167.22V167.805H243.613V176H240.686V164.878H243.613V165.463H244.199V164.878H247.711V165.463H248.881V166.049H249.467V167.22H250.052V176H247.125V167.805H246.54V167.22H244.199ZM39.1707 188.878H42.0976V189.463H42.6829V188.878H46.1951V189.463H47.3659V190.049H47.9512V191.22H48.5366V197.659H47.9512V198.829H47.3659V199.415H46.1951V200H42.0976V203.512H39.1707V188.878ZM45.0244 197.073H45.6098V191.805H45.0244V191.22H42.6829V191.805H42.0976V197.659H45.0244V197.073ZM53.2304 195.317V195.902H52.645V197.073H53.2304V197.659H55.5718V197.073H56.1572V195.317H53.2304ZM50.3035 198.829V197.659H49.7182V195.902H50.3035V194.732H50.8889V194.146H52.0596V193.561H56.1572V191.805H55.5718V191.22H53.2304V191.805H52.645V192.39H49.7182V191.22H50.3035V190.049H50.8889V189.463H52.0596V188.878H56.7426V189.463H57.9133V190.049H58.4987V191.22H59.084V200H56.1572V199.415H55.5718V200H51.4743V199.415H50.8889V198.829H50.3035ZM64.9486 191.22V191.805H64.3632V200H61.4364V188.878H64.3632V189.463H64.9486V188.878H68.4607V189.463H69.0461V190.049H69.6315V190.634H69.0461V191.22H68.4607V191.805H67.8754V192.39H67.29V191.805H66.7046V191.22H64.9486ZM73.7382 185.366V200H70.8114V185.366H73.7382ZM79.0116 197.073V197.659H81.3531V197.073H81.9385V196.488H84.8653V197.659H84.2799V198.829H83.6945V199.415H82.5238V200H77.8409V199.415H76.6702V198.829H76.0848V197.659H75.4994V191.22H76.0848V190.049H76.6702V189.463H77.8409V188.878H82.5238V189.463H83.6945V190.049H84.2799V191.22H84.8653V195.317H78.4263V197.073H79.0116ZM78.4263 191.805V193.561H81.9385V191.805H81.3531V191.22H79.0116V191.805H78.4263ZM95.4179 197.073V197.659H97.7593V197.073H98.3447V196.488H101.272V197.659H100.686V198.829H100.101V199.415H98.9301V200H94.2471V199.415H93.0764V198.829H92.491V197.659H91.9057V191.22H92.491V190.049H93.0764V189.463H94.2471V188.878H98.9301V189.463H100.101V190.049H100.686V191.22H101.272V195.317H94.8325V197.073H95.4179ZM94.8325 191.805V193.561H98.3447V191.805H97.7593V191.22H95.4179V191.805H94.8325ZM106.55 191.22V191.805H105.965V200H103.038V188.878H105.965V189.463H106.55V188.878H110.062V189.463H111.233V190.049H111.818V191.22H112.404V200H109.477V191.805H108.892V191.22H106.55ZM116.512 196.488V197.073H117.098V197.659H119.439V197.073H120.024V195.902H119.439V195.317H115.927V194.732H114.756V194.146H114.171V192.976H113.585V191.22H114.171V190.049H114.756V189.463H115.927V188.878H120.61V189.463H121.78V190.049H122.366V191.805H119.439V191.22H117.098V191.805H116.512V192.39H117.098V192.976H120.61V193.561H121.78V194.146H122.366V195.317H122.951V197.659H122.366V198.829H121.78V199.415H120.61V200H115.927V199.415H114.756V198.829H114.171V197.659H113.585V196.488H116.512ZM127.644 197.073V197.659H129.986V197.073H130.571V196.488H133.498V197.659H132.913V198.829H132.327V199.415H131.157V200H126.474V199.415H125.303V198.829H124.718V197.659H124.132V191.22H124.718V190.049H125.303V189.463H126.474V188.878H131.157V189.463H132.327V190.049H132.913V191.22H133.498V195.317H127.059V197.073H127.644ZM127.059 191.805V193.561H130.571V191.805H129.986V191.22H127.644V191.805H127.059ZM138.777 191.22V191.805H138.191V200H135.264V188.878H138.191V189.463H138.777V188.878H141.704V189.463H142.289V190.049H142.874V189.463H143.46V188.878H146.386V189.463H147.557V190.049H148.143V191.22H148.728V200H145.801V191.805H145.216V191.22H144.045V191.805H143.46V200H140.533V191.805H139.947V191.22H138.777ZM159.256 191.22H159.841V197.659H159.256V198.829H158.671V199.415H157.5V200H150.475V185.366H153.402V189.463H153.988V188.878H157.5V189.463H158.671V190.049H159.256V191.22ZM156.329 197.073H156.914V191.805H156.329V191.22H153.988V191.805H153.402V197.659H156.329V197.073ZM164.535 185.366V200H161.608V185.366H164.535ZM169.808 197.073V197.659H172.15V197.073H172.735V196.488H175.662V197.659H175.077V198.829H174.491V199.415H173.321V200H168.638V199.415H167.467V198.829H166.882V197.659H166.296V191.22H166.882V190.049H167.467V189.463H168.638V188.878H173.321V189.463H174.491V190.049H175.077V191.22H175.662V195.317H169.223V197.073H169.808ZM169.223 191.805V193.561H172.735V191.805H172.15V191.22H169.808V191.805H169.223ZM186.215 185.366V194.146H185.629V194.732H185.044V195.317H184.459V194.732H183.873V194.146H183.288V185.366H186.215ZM186.215 197.073V200H183.288V197.073H186.215ZM42.6829 220.488V221.073H44.439V220.488H45.0244V209.366H47.9512V221.659H47.3659V222.829H46.7805V223.415H45.6098V224H41.5122V223.415H40.3415V222.829H39.7561V221.659H39.1707V218.732H42.0976V220.488H42.6829ZM53.2304 221.073V221.659H55.5718V221.073H56.1572V220.488H59.084V221.659H58.4987V222.829H57.9133V223.415H56.7426V224H52.0596V223.415H50.8889V222.829H50.3035V221.659H49.7182V215.22H50.3035V214.049H50.8889V213.463H52.0596V212.878H56.7426V213.463H57.9133V214.049H58.4987V215.22H59.084V219.317H52.645V221.073H53.2304ZM52.645 215.805V217.561H56.1572V215.805H55.5718V215.22H53.2304V215.805H52.645ZM69.0513 220.488V221.073H69.6366V221.659H71.9781V221.073H72.5635V219.902H71.9781V219.317H68.4659V218.732H67.2952V218.146H66.7098V216.976H66.1244V215.22H66.7098V214.049H67.2952V213.463H68.4659V212.878H73.1488V213.463H74.3195V214.049H74.9049V215.805H71.9781V215.22H69.6366V215.805H69.0513V216.39H69.6366V216.976H73.1488V217.561H74.3195V218.146H74.9049V219.317H75.4903V221.659H74.9049V222.829H74.3195V223.415H73.1488V224H68.4659V223.415H67.2952V222.829H66.7098V221.659H66.1244V220.488H69.0513ZM77.2567 222.829V221.659H76.6713V212.878H79.5981V221.073H80.1835V221.659H82.525V221.073H83.1103V212.878H86.0372V224H83.1103V223.415H82.525V224H79.0128V223.415H77.842V222.829H77.2567ZM91.3163 209.366V211.707H88.3895V209.366H91.3163ZM91.3163 213.463V224H88.3895V213.463H91.3163ZM96.0044 220.488V221.073H96.5897V221.659H98.9312V221.073H99.5166V219.902H98.9312V219.317H95.419V218.732H94.2483V218.146H93.6629V216.976H93.0776V215.22H93.6629V214.049H94.2483V213.463H95.419V212.878H100.102V213.463H101.273V214.049H101.858V215.805H98.9312V215.22H96.5897V215.805H96.0044V216.39H96.5897V216.976H100.102V217.561H101.273V218.146H101.858V219.317H102.443V221.659H101.858V222.829H101.273V223.415H100.102V224H95.419V223.415H94.2483V222.829H93.6629V221.659H93.0776V220.488H96.0044ZM116.508 223.415V224H111.825V223.415H110.655V222.829H110.069V221.659H109.484V215.22H110.069V214.049H110.655V213.463H111.825V212.878H116.508V213.463H117.679V214.049H118.264V215.22H118.85V221.659H118.264V222.829H117.679V223.415H116.508ZM112.996 221.073V221.659H115.337V221.073H115.923V215.805H115.337V215.22H112.996V215.805H112.411V221.073H112.996ZM120.616 222.829V221.659H120.031V212.878H122.958V221.073H123.543V221.659H125.884V221.073H126.47V212.878H129.397V224H126.47V223.415H125.884V224H122.372V223.415H121.201V222.829H120.616ZM135.261 219.902V220.488H135.846V221.073H137.017V220.488H137.603V219.902H138.188V212.878H141.115V220.488H140.529V221.073H139.944V221.659H139.359V222.244H138.773V222.829H138.188V223.415H137.603V224H135.261V223.415H134.676V222.829H134.09V222.244H133.505V221.659H132.92V221.073H132.334V220.488H131.749V212.878H134.676V219.902H135.261ZM146.394 221.073V221.659H148.736V221.073H149.321V220.488H152.248V221.659H151.663V222.829H151.077V223.415H149.907V224H145.224V223.415H144.053V222.829H143.468V221.659H142.882V215.22H143.468V214.049H144.053V213.463H145.224V212.878H149.907V213.463H151.077V214.049H151.663V215.22H152.248V219.317H145.809V221.073H146.394ZM145.809 215.805V217.561H149.321V215.805H148.736V215.22H146.394V215.805H145.809ZM157.527 215.22V215.805H156.941V224H154.014V212.878H156.941V213.463H157.527V212.878H161.039V213.463H161.624V214.049H162.21V214.634H161.624V215.22H161.039V215.805H160.454V216.39H159.868V215.805H159.283V215.22H157.527ZM166.902 221.073V221.659H168.658V224H165.731V223.415H164.56V222.829H163.975V221.659H163.389V215.805H162.219V213.463H163.389V212.293H163.975V211.707H164.56V211.122H165.146V210.537H165.731V209.951H166.316V213.463H168.658V215.805H166.316V221.073H166.902ZM182.134 209.951V211.707H180.378V211.122H179.792V210.537H179.207V209.951H178.622V208.195H180.378V208.78H180.963V209.366H181.548V209.951H182.134ZM179.207 219.317V219.902H178.622V221.073H179.207V221.659H181.548V221.073H182.134V219.317H179.207ZM176.28 222.829V221.659H175.695V219.902H176.28V218.732H176.865V218.146H178.036V217.561H182.134V215.805H181.548V215.22H179.207V215.805H178.622V216.39H175.695V215.22H176.28V214.049H176.865V213.463H178.036V212.878H182.719V213.463H183.89V214.049H184.475V215.22H185.061V224H182.134V223.415H181.548V224H177.451V223.415H176.865V222.829H176.28ZM196.784 221.073V221.659H198.541V224H195.614V223.415H194.443V222.829H193.858V221.659H193.272V215.805H192.102V213.463H193.272V212.293H193.858V211.707H194.443V211.122H195.028V210.537H195.614V209.951H196.199V213.463H198.541V215.805H196.199V221.073H196.784ZM206.743 223.415V224H202.06V223.415H200.889V222.829H200.304V221.659H199.718V215.22H200.304V214.049H200.889V213.463H202.06V212.878H206.743V213.463H207.913V214.049H208.499V215.22H209.084V221.659H208.499V222.829H207.913V223.415H206.743ZM203.23 221.073V221.659H205.572V221.073H206.157V215.805H205.572V215.22H203.23V215.805H202.645V221.073H203.23ZM210.85 222.829V221.659H210.265V212.878H213.192V221.073H213.777V221.659H216.119V221.073H216.704V212.878H219.631V224H216.704V223.415H216.119V224H212.607V223.415H211.436V222.829H210.85ZM225.495 221.073V221.659H227.252V224H224.325V223.415H223.154V222.829H222.569V221.659H221.983V215.805H220.812V213.463H221.983V212.293H222.569V211.707H223.154V211.122H223.739V210.537H224.325V209.951H224.91V213.463H227.252V215.805H224.91V221.073H225.495ZM234.874 212.878H237.801V213.463H238.386V212.878H241.898V213.463H243.069V214.049H243.654V215.22H244.24V221.659H243.654V222.829H243.069V223.415H241.898V224H237.801V227.512H234.874V212.878ZM240.728 221.073H241.313V215.805H240.728V215.22H238.386V215.805H237.801V221.659H240.728V221.073ZM249.519 215.22V215.805H248.933V224H246.007V212.878H248.933V213.463H249.519V212.878H253.031V213.463H253.616V214.049H254.202V214.634H253.616V215.22H253.031V215.805H252.446V216.39H251.86V215.805H251.275V215.22H249.519ZM261.821 223.415V224H257.138V223.415H255.967V222.829H255.382V221.659H254.796V215.22H255.382V214.049H255.967V213.463H257.138V212.878H261.821V213.463H262.991V214.049H263.577V215.22H264.162V221.659H263.577V222.829H262.991V223.415H261.821ZM258.308 221.073V221.659H260.65V221.073H261.235V215.805H260.65V215.22H258.308V215.805H257.723V221.073H258.308ZM269.441 209.366V211.707H266.514V209.366H269.441ZM268.855 225.171V226.341H268.27V226.927H267.099V227.512H264.758V225.171H265.929V224.585H266.514V213.463H269.441V225.171H268.855ZM274.715 221.073V221.659H277.056V221.073H277.642V220.488H280.568V221.659H279.983V222.829H279.398V223.415H278.227V224H273.544V223.415H272.373V222.829H271.788V221.659H271.203V215.22H271.788V214.049H272.373V213.463H273.544V212.878H278.227V213.463H279.398V214.049H279.983V215.22H280.568V219.317H274.129V221.073H274.715ZM274.129 215.805V217.561H277.642V215.805H277.056V215.22H274.715V215.805H274.129ZM285.847 221.073V221.659H287.603V224H284.676V223.415H283.506V222.829H282.92V221.659H282.335V215.805H281.164V213.463H282.335V212.293H282.92V211.707H283.506V211.122H284.091V210.537H284.676V209.951H285.262V213.463H287.603V215.805H285.262V221.073H285.847ZM298.152 209.366V218.146H297.567V218.732H296.982V219.317H296.396V218.732H295.811V218.146H295.225V209.366H298.152ZM298.152 221.073V224H295.225V221.073H298.152Z" fill="#00B99B"/>
<rect x="214.632" y="345.186" width="6.79465" height="9.51252" fill="#00B99B"/>
<rect x="241.81" y="345.186" width="6.79465" height="9.51252" fill="#00B99B"/>
<rect x="238.186" y="334.768" width="13.5893" height="3.62382" fill="#00B99B"/>
<rect x="251.323" y="338.392" width="3.62382" height="3.62382" fill="#00B99B"/>
<rect x="258.117" y="331.597" width="3.62382" height="9.96549" fill="#00B99B"/>
<rect x="261.288" y="337.939" width="14.9482" height="3.62382" fill="#00B99B"/>
<rect x="261.741" y="339.298" width="3.62382" height="9.05954" fill="#00B99B"/>
<rect x="271.707" y="335.221" width="4.52977" height="9.05954" fill="#00B99B"/>
<rect x="271.707" y="341.109" width="6.79465" height="3.62382" fill="#00B99B"/>
<rect x="279.86" y="334.768" width="3.62382" height="6.79465" fill="#00B99B"/>
<rect x="282.578" y="342.016" width="3.62382" height="2.71786" fill="#00B99B"/>
<rect x="278.954" y="344.733" width="3.62382" height="3.17084" fill="#00B99B"/>
<rect x="282.125" y="348.357" width="3.62382" height="6.34168" fill="#00B99B"/>
<rect x="285.749" y="344.733" width="7.24763" height="3.17084" fill="#00B99B"/>
<rect x="295.714" y="341.563" width="3.62382" height="3.17084" fill="#00B99B"/>
<rect x="298.885" y="344.733" width="3.62382" height="3.17084" fill="#00B99B"/>
<rect x="295.714" y="348.357" width="3.62382" height="3.17084" fill="#00B99B"/>
<rect x="292.091" y="351.528" width="3.62382" height="3.17084" fill="#00B99B"/>
<rect x="288.92" y="355.152" width="3.62382" height="3.17084" fill="#00B99B"/>
<rect x="285.296" y="358.323" width="3.62382" height="3.17084" fill="#00B99B"/>
<rect x="278.501" y="354.699" width="3.62382" height="3.17084" fill="#00B99B"/>
<rect x="269.442" y="345.186" width="3.62382" height="3.17084" fill="#00B99B"/>
<rect x="265.365" y="347.904" width="3.62382" height="3.62382" fill="#00B99B"/>
<rect x="261.741" y="371.459" width="3.62382" height="3.62382" fill="#00B99B"/>
<rect x="258.57" y="375.083" width="3.62382" height="3.62382" fill="#00B99B"/>
<rect x="254.947" y="378.707" width="3.62382" height="3.62382" fill="#00B99B"/>
<rect x="248.152" y="381.425" width="6.79465" height="3.62382" fill="#00B99B"/>
<rect x="224.597" y="388.672" width="20.8369" height="3.62382" fill="#00B99B"/>
<rect x="244.981" y="385.048" width="3.62382" height="3.62382" fill="#00B99B"/>
<rect x="220.973" y="382.33" width="3.62382" height="6.34168" fill="#00B99B"/>
<rect x="217.802" y="378.707" width="3.62382" height="3.62382" fill="#00B99B"/>
<rect x="214.632" y="375.083" width="3.62382" height="3.62382" fill="#00B99B"/>
<rect x="211.008" y="371.912" width="3.62382" height="3.62382" fill="#00B99B"/>
<rect x="207.837" y="365.57" width="3.62382" height="6.34168" fill="#00B99B"/>
<rect x="224.597" y="370.553" width="3.62382" height="6.79465" fill="#00B99B"/>
<rect x="227.768" y="373.724" width="14.0423" height="3.62382" fill="#00B99B"/>
<rect x="225.503" y="364.664" width="6.79465" height="3.62382" fill="#00B99B"/>
<rect x="231.845" y="361.494" width="4.07679" height="3.62382" fill="#00B99B"/>
<rect x="222.332" y="361.494" width="4.07679" height="3.62382" fill="#00B99B"/>
<rect x="214.632" y="334.768" width="7.24763" height="3.62382" fill="#00B99B"/>
<rect x="211.461" y="337.939" width="3.17084" height="3.62382" fill="#00B99B"/>
<rect x="207.837" y="327.973" width="3.62382" height="6.34168" fill="#00B99B"/>
<rect x="211.008" y="324.802" width="3.62382" height="3.17084" fill="#00B99B"/>
<rect x="214.632" y="318.008" width="3.62382" height="6.79465" fill="#00B99B"/>
<rect x="218.255" y="314.837" width="3.62382" height="3.17084" fill="#00B99B"/>
<rect x="221.426" y="310.76" width="6.34168" height="3.62382" fill="#00B99B"/>
<rect x="228.221" y="314.384" width="9.51252" height="3.62382" fill="#00B99B"/>
<rect x="231.392" y="307.589" width="3.62382" height="13.5893" fill="#00B99B"/>
<rect x="237.733" y="311.213" width="7.70061" height="3.62382" fill="#00B99B"/>
<rect x="234.563" y="303.965" width="14.4953" height="3.62382" fill="#00B99B"/>
<rect x="225.05" y="303.965" width="6.79465" height="3.62382" fill="#00B99B"/>
<rect x="248.605" y="318.008" width="3.62382" height="6.79465" fill="#00B99B"/>
<rect x="251.776" y="311.213" width="6.79465" height="3.62382" fill="#00B99B"/>
<rect x="248.152" y="307.589" width="3.62382" height="3.62382" fill="#00B99B"/>
<rect x="245.434" y="314.837" width="3.17084" height="2.71786" fill="#00B99B"/>
<rect x="251.776" y="324.802" width="3.62382" height="3.17084" fill="#00B99B"/>
<rect x="254.494" y="327.973" width="4.07679" height="3.62382" fill="#00B99B"/>
<rect x="264.912" y="327.973" width="4.07679" height="3.62382" fill="#00B99B"/>
<rect x="268.989" y="331.597" width="3.62382" height="3.17084" fill="#00B99B"/>
<rect x="285.296" y="327.52" width="3.62382" height="3.62382" fill="#00B99B"/>
<rect x="288.92" y="314.384" width="3.17084" height="3.62382" fill="#00B99B"/>
<rect x="285.749" y="311.213" width="3.17084" height="3.62382" fill="#00B99B"/>
<rect x="275.784" y="307.589" width="9.51252" height="3.62382" fill="#00B99B"/>
<rect x="268.989" y="303.965" width="6.34168" height="3.62382" fill="#00B99B"/>
<rect x="262.194" y="300.795" width="6.34168" height="3.62382" fill="#00B99B"/>
<rect x="258.57" y="297.624" width="3.62382" height="3.17084" fill="#00B99B"/>
<rect x="238.186" y="297.624" width="3.62382" height="3.17084" fill="#00B99B"/>
<rect x="231.845" y="297.624" width="3.62382" height="3.17084" fill="#00B99B"/>
<rect x="220.973" y="297.171" width="3.62382" height="3.62382" fill="#00B99B"/>
<rect x="207.837" y="303.965" width="3.62382" height="3.62382" fill="#00B99B"/>
<rect x="204.666" y="308.042" width="3.62382" height="2.71786" fill="#00B99B"/>
<rect x="194.248" y="327.973" width="3.62382" height="2.71786" fill="#00B99B"/>
<rect x="191.077" y="331.144" width="3.62382" height="3.62382" fill="#00B99B"/>
<rect x="194.248" y="341.109" width="3.62382" height="3.62382" fill="#00B99B"/>
<rect x="190.624" y="347.904" width="3.62382" height="3.62382" fill="#00B99B"/>
<rect x="194.248" y="351.528" width="3.62382" height="3.17084" fill="#00B99B"/>
<rect x="197.418" y="355.152" width="8.15358" height="3.62382" fill="#00B99B"/>
<rect x="198.324" y="337.486" width="6.79465" height="4.52977" fill="#00B99B"/>
<rect x="187" y="334.768" width="3.62382" height="13.1363" fill="#00B99B"/>
<rect x="200.589" y="310.76" width="3.62382" height="6.79465" fill="#00B99B"/>
<rect x="197.418" y="318.008" width="3.62382" height="9.51252" fill="#00B99B"/>
<rect x="211.461" y="300.795" width="9.51252" height="3.62382" fill="#00B99B"/>
<rect x="224.597" y="294" width="7.24763" height="3.62382" fill="#00B99B"/>
<rect x="234.563" y="300.795" width="3.62382" height="4.07679" fill="#00B99B"/>
<rect x="241.357" y="294" width="17.2131" height="3.62382" fill="#00B99B"/>
<rect x="292.544" y="318.008" width="3.62382" height="23.1018" fill="#00B99B"/>
<rect x="288.467" y="331.597" width="3.62382" height="3.17084" fill="#00B99B"/>
<rect x="204.213" y="334.768" width="3.62382" height="30.3495" fill="#00B99B"/>
<rect x="265.365" y="361.494" width="3.62382" height="9.96549" fill="#00B99B"/>
<rect x="268.083" y="365.117" width="10.4185" height="3.17084" fill="#00B99B"/>
<rect x="268.989" y="355.152" width="3.62382" height="5.8887" fill="#00B99B"/>
<rect x="278.954" y="361.494" width="6.34168" height="3.62382" fill="#00B99B"/>
<rect x="268.989" y="358.776" width="9.96549" height="3.62382" fill="#00B99B"/>
<path d="M319 2H15C7.8203 2 2 7.82031 2 15V250.921C2 258.101 7.82029 263.921 15 263.921H145L195.046 302.5V263.921H319C326.18 263.921 332 258.101 332 250.921V15C332 7.8203 326.18 2 319 2Z" stroke="#00B99B" stroke-width="3"/>
</svg>
