<svg width="33" height="34" viewBox="0 0 33 34" fill="none" xmlns="http://www.w3.org/2000/svg">
<path fill-rule="evenodd" clip-rule="evenodd" d="M23.6667 0.875C26.0426 0.875 28.3212 1.81882 30.0012 3.49884C31.6812 5.17885 32.625 7.45744 32.625 9.83333V24.1667C32.625 26.5426 31.6812 28.8212 30.0012 30.5012C28.3212 32.1812 26.0426 33.125 23.6667 33.125H9.33333C6.95744 33.125 4.67885 32.1812 2.99884 30.5012C1.31882 28.8212 0.375 26.5426 0.375 24.1667V9.83333C0.375 7.45744 1.31882 5.17885 2.99884 3.49884C4.67885 1.81882 6.95744 0.875 9.33333 0.875H23.6667ZM23.6667 4.45833H9.33333C7.90779 4.45833 6.54064 5.02463 5.53263 6.03263C4.52463 7.04064 3.95833 8.40779 3.95833 9.83333V24.1667C3.95833 25.5922 4.52463 26.9594 5.53263 27.9674C6.54064 28.9754 7.90779 29.5417 9.33333 29.5417H23.6667C25.0922 29.5417 26.4594 28.9754 27.4674 27.9674C28.4754 26.9594 29.0417 25.5922 29.0417 24.1667V9.83333C29.0417 8.40779 28.4754 7.04064 27.4674 6.03263C26.4594 5.02463 25.0922 4.45833 23.6667 4.45833ZM16.5 9.83333C18.4007 9.83333 20.2236 10.5884 21.5676 11.9324C22.9116 13.2764 23.6667 15.0993 23.6667 17C23.6667 18.9007 22.9116 20.7236 21.5676 22.0676C20.2236 23.4116 18.4007 24.1667 16.5 24.1667C14.5993 24.1667 12.7764 23.4116 11.4324 22.0676C10.0884 20.7236 9.33333 18.9007 9.33333 17C9.33333 15.0993 10.0884 13.2764 11.4324 11.9324C12.7764 10.5884 14.5993 9.83333 16.5 9.83333ZM16.5 13.4167C15.5496 13.4167 14.6382 13.7942 13.9662 14.4662C13.2942 15.1382 12.9167 16.0496 12.9167 17C12.9167 17.9504 13.2942 18.8618 13.9662 19.5338C14.6382 20.2058 15.5496 20.5833 16.5 20.5833C17.4504 20.5833 18.3618 20.2058 19.0338 19.5338C19.7058 18.8618 20.0833 17.9504 20.0833 17C20.0833 16.0496 19.7058 15.1382 19.0338 14.4662C18.3618 13.7942 17.4504 13.4167 16.5 13.4167ZM24.5625 7.14583C25.0377 7.14583 25.4934 7.3346 25.8294 7.6706C26.1654 8.0066 26.3542 8.46232 26.3542 8.9375C26.3542 9.41268 26.1654 9.8684 25.8294 10.2044C25.4934 10.5404 25.0377 10.7292 24.5625 10.7292C24.0873 10.7292 23.6316 10.5404 23.2956 10.2044C22.9596 9.8684 22.7708 9.41268 22.7708 8.9375C22.7708 8.46232 22.9596 8.0066 23.2956 7.6706C23.6316 7.3346 24.0873 7.14583 24.5625 7.14583Z" fill="#00FBD3"/>
</svg>
