<svg width="38" height="38" viewBox="0 0 38 38" fill="none" xmlns="http://www.w3.org/2000/svg">
<g clip-path="url(#clip0_159_443)">
<path d="M34.3781 34.3781H38V36.195H34.3781V34.3781ZM32.5731 36.195H34.3781V38H32.5731V36.195ZM32.5731 23.5244H30.7562V25.3294H32.5731V27.1463H34.3781V18.0975H32.5731V23.5244ZM28.9512 34.3781H32.5731V36.195H28.9512V34.3781ZM30.7562 16.2925H32.5731V18.0975H30.7562V16.2925ZM25.3294 32.5731H28.9512V34.3781H25.3294V32.5731ZM27.1463 25.3294H28.9512V23.5244H30.7562V21.7194H28.9512V16.2925H30.7562V14.4756H28.9512V9.04875H27.1463V25.3294ZM23.5244 36.195H25.3294V38H23.5244V36.195ZM23.5244 21.7194H25.3294V23.5244H23.5244V21.7194ZM23.5244 18.0975H25.3294V19.9025H23.5244V18.0975ZM21.7075 32.5731H23.5244V36.195H21.7075V32.5731ZM16.2806 28.9512H23.5244V30.7681H16.2806V28.9512ZM21.7075 1.805H23.5244V3.62187H21.7075V1.805ZM18.0975 0H21.7075V1.805H18.0975V0ZM23.5244 10.8538H21.7075V9.04875H18.0975V10.8538H19.9025V12.6706H18.0975V10.8538H16.2806V14.4756H18.0975V16.2925H21.7075V14.4756H23.5244V10.8538ZM16.2806 32.5731H18.0975V36.195H16.2806V32.5731ZM12.6587 27.1463H14.4756V28.9512H16.2806V27.1463H23.5244V28.9512H25.3294V27.1463H27.1463V25.3294H12.6587V27.1463ZM16.2806 1.805H18.0975V3.62187H16.2806V1.805ZM14.4756 36.195H16.2806V38H14.4756V36.195ZM10.8538 32.5731H14.4756V34.3781H10.8538V32.5731ZM16.2806 5.42688V3.62187H14.4756V5.42688H12.6587V9.04875H14.4756V7.24375H25.3294V9.04875H27.1463V5.42688H25.3294V3.62187H23.5244V5.42688H16.2806ZM12.6587 9.04875H10.8538V14.4756H9.04875V16.2925H10.8538V21.7194H9.04875V23.5244H10.8538V25.3294H12.6587V9.04875ZM7.23188 34.3781H10.8538V36.195H7.23188V34.3781ZM7.23188 16.2925H9.04875V18.0975H7.23188V16.2925ZM5.42688 36.195H7.23188V38H5.42688V36.195ZM7.23188 18.0975H5.42688V27.1463H7.23188V25.3294H9.04875V23.5244H7.23188V18.0975ZM1.805 34.3781H5.42688V36.195H1.805V34.3781ZM0 36.195H1.805V38H0V36.195Z" fill="#00B99B"/>
</g>
<defs>
<clipPath id="clip0_159_443">
<rect width="38" height="38" fill="white"/>
</clipPath>
</defs>
</svg>
