<svg width="38" height="38" viewBox="0 0 38 38" fill="none" xmlns="http://www.w3.org/2000/svg">
<g clip-path="url(#clip0_156_326)">
<path d="M27.1344 18.0975H25.3294V16.2925H23.5244V14.4756H21.7075V12.6706H19.9025V10.8538H18.0975V9.04875H16.2806V7.24375H14.4756V28.9512H16.2806V27.1463H18.0975V25.3413H19.9025V23.5244H21.7075V21.7194H28.9512V19.9025H27.1344V18.0975ZM18.0975 21.7194H16.2806V14.4756H18.0975V21.7194ZM36.1831 14.4756H38V23.5244H36.1831V14.4756ZM34.3781 23.5244H36.1831V27.1463H34.3781V23.5244ZM34.3781 10.8538H36.1831V14.4756H34.3781V10.8538ZM32.5731 27.1463H34.3781V30.7681H32.5731V27.1463ZM32.5731 7.24375H34.3781V10.8538H32.5731V7.24375ZM30.7562 30.7681H32.5731V32.5731H30.7562V30.7681ZM30.7562 5.42688H32.5731V7.24375H30.7562V5.42688ZM27.1344 32.5731H30.7562V34.3781H27.1344V32.5731ZM27.1344 3.62187H30.7562V5.42688H27.1344V3.62187ZM23.5244 34.3781H27.1344V36.195H23.5244V34.3781ZM23.5244 1.81687H27.1344V3.62187H23.5244V1.81687ZM14.4756 36.195H23.5244V38H14.4756V36.195ZM14.4756 0H23.5244V1.81687H14.4756V0ZM10.8538 34.3781H14.4756V36.195H10.8538V34.3781ZM10.8538 1.81687H14.4756V3.62187H10.8538V1.81687ZM7.23188 32.5731H10.8538V34.3781H7.23188V32.5731ZM7.23188 3.62187H10.8538V5.42688H7.23188V3.62187ZM5.42688 30.7681H7.23188V32.5731H5.42688V30.7681ZM5.42688 5.42688H7.23188V7.24375H5.42688V5.42688ZM3.61 27.1463H5.42688V30.7681H3.61V27.1463ZM3.61 7.24375H5.42688V10.8538H3.61V7.24375ZM1.805 23.5244H3.61V27.1463H1.805V23.5244ZM1.805 10.8538H3.61V14.4756H1.805V10.8538ZM0 14.4756H1.805V23.5244H0V14.4756Z" fill="#00B99B"/>
</g>
<defs>
<clipPath id="clip0_156_326">
<rect width="38" height="38" fill="white"/>
</clipPath>
</defs>
</svg>
