<svg width="34" height="38" viewBox="0 0 34 38" fill="none" xmlns="http://www.w3.org/2000/svg">
<rect y="23.75" width="2.375" height="7.125" fill="#00B99B"/>
<rect x="2.375" y="21.375" width="2.375" height="2.375" fill="#00B99B"/>
<rect x="4.75" y="19" width="2.375" height="2.375" fill="#00B99B"/>
<rect x="2.375" y="19" width="2.375" height="2.375" fill="#00B99B"/>
<rect y="16.625" width="4.75" height="2.375" fill="#00B99B"/>
<rect x="2.375" y="7.125" width="4.75" height="2.375" fill="#00B99B"/>
<rect x="2.375" y="4.75" width="2.375" height="4.75" fill="#00B99B"/>
<rect y="2.375" width="4.75" height="2.375" fill="#00B99B"/>
<rect x="2.375" width="2.375" height="23.75" fill="#00B99B"/>
<rect x="2.375" y="11.875" width="4.75" height="2.375" fill="#00B99B"/>
<rect y="9.5" width="4.75" height="2.375" fill="#00B99B"/>
<rect x="2.375" y="14.25" width="2.375" height="2.375" fill="#00B99B"/>
<rect x="7.125" y="16.625" width="2.375" height="2.375" fill="#00B99B"/>
<rect x="9.5" y="14.25" width="2.375" height="2.375" fill="#00B99B"/>
<rect x="11.875" y="11.875" width="2.375" height="2.375" fill="#00B99B"/>
<rect x="14.25" y="9.5" width="2.375" height="2.375" fill="#00B99B"/>
<rect x="16.625" y="7.125" width="2.375" height="2.375" fill="#00B99B"/>
<rect x="19" y="4.75" width="2.375" height="2.375" fill="#00B99B"/>
<rect x="21.375" y="2.375" width="2.375" height="2.375" fill="#00B99B"/>
<rect x="23.75" y="2.375" width="2.375" height="2.375" fill="#00B99B"/>
<rect x="21.375" y="2.375" width="7.125" height="2.375" fill="#00B99B"/>
<rect x="28.5" y="4.75" width="2.375" height="2.375" fill="#00B99B"/>
<rect x="21.375" y="21.375" width="2.375" height="2.375" fill="#00B99B"/>
<rect x="26.125" y="16.625" width="2.375" height="2.375" fill="#00B99B"/>
<rect x="28.5" y="14.25" width="4.75" height="2.375" fill="#00B99B"/>
<rect x="19" y="23.75" width="2.375" height="2.375" fill="#00B99B"/>
<rect x="16.625" y="26.125" width="2.375" height="2.375" fill="#00B99B"/>
<rect x="14.25" y="28.5" width="2.375" height="2.375" fill="#00B99B"/>
<rect x="11.875" y="30.875" width="2.375" height="2.375" fill="#00B99B"/>
<rect y="26.125" width="2.375" height="2.375" fill="#00B99B"/>
<rect y="28.5" width="2.375" height="2.375" fill="#00B99B"/>
<rect x="2.375" y="30.875" width="2.375" height="2.375" fill="#00B99B"/>
<rect x="7.125" y="26.125" width="2.375" height="2.375" fill="#00B99B"/>
<rect x="9.5" y="26.125" width="2.375" height="2.375" fill="#00B99B"/>
<rect x="7.125" y="23.75" width="4.75" height="4.75" fill="#00B99B"/>
<rect x="9.5" y="23.75" width="2.375" height="2.375" fill="#00B99B"/>
<rect x="23.75" y="9.5" width="2.375" height="2.375" fill="#00B99B"/>
<rect x="21.375" y="9.5" width="2.375" height="2.375" fill="#00B99B"/>
<rect x="21.375" y="11.875" width="2.375" height="2.375" fill="#00B99B"/>
<rect x="21.375" y="9.5" width="4.75" height="4.75" fill="#00B99B"/>
<rect x="9.5" y="33.25" width="2.375" height="2.375" fill="#00B99B"/>
<rect x="4.75" y="33.25" width="7.125" height="2.375" fill="#00B99B"/>
<rect x="30.875" y="7.125" width="2.375" height="23.75" fill="#00B99B"/>
<rect x="28.5" y="30.875" width="2.375" height="2.375" fill="#00B99B"/>
<rect x="23.75" y="33.25" width="4.75" height="2.375" fill="#00B99B"/>
<rect x="23.75" y="19" width="2.375" height="19" fill="#00B99B"/>
<rect x="23.75" y="19" width="2.375" height="16.625" fill="#00B99B"/>
<rect x="30.875" y="7.125" width="2.375" height="2.375" fill="#00B99B"/>
<rect x="30.875" y="9.5" width="2.375" height="19" fill="#00B99B"/>
</svg>
