<svg width="36" height="38" viewBox="0 0 36 38" fill="none" xmlns="http://www.w3.org/2000/svg">
<rect x="4.75" width="2.375" height="33.25" fill="#00B99B"/>
<rect x="9.5" y="35.625" width="23.75" height="2.375" fill="#00B99B"/>
<rect x="33.25" y="33.25" width="2.375" height="2.375" fill="#00B99B"/>
<rect x="26.125" y="2.375" width="2.375" height="2.375" fill="#00B99B"/>
<rect x="2.375" y="2.375" width="4.75" height="2.375" fill="#00B99B"/>
<rect y="4.75" width="2.375" height="4.75" fill="#00B99B"/>
<rect y="7.125" width="2.375" height="2.375" fill="#00B99B"/>
<rect x="2.375" y="9.5" width="4.75" height="2.375" fill="#00B99B"/>
<rect x="11.875" y="7.125" width="11.875" height="2.375" fill="#00B99B"/>
<rect x="11.875" y="23.75" width="11.875" height="2.375" fill="#00B99B"/>
<rect x="11.875" y="14.25" width="7.125" height="2.375" fill="#00B99B"/>
<rect x="4.75" width="21.375" height="2.375" fill="#00B99B"/>
<rect x="28.5" y="4.75" width="2.375" height="28.5" fill="#00B99B"/>
<rect x="11.875" y="30.875" width="2.375" height="7.125" fill="#00B99B"/>
<rect x="7.125" y="33.25" width="2.375" height="2.375" fill="#00B99B"/>
<rect x="11.875" y="30.875" width="21.375" height="2.375" fill="#00B99B"/>
<rect x="11.875" y="35.625" width="21.375" height="2.375" fill="#00B99B"/>
</svg>
