<svg width="38" height="38" viewBox="0 0 38 38" fill="none" xmlns="http://www.w3.org/2000/svg">
<path d="M32.5731 10.8597V12.6647H34.39V10.8597H32.5731Z" fill="#00B99B"/>
<path d="M30.7681 10.8597H32.5731V9.04279H30.7681V10.8597Z" fill="#00B99B"/>
<path fill-rule="evenodd" clip-rule="evenodd" d="M38 9.04279H36.195V7.23779H34.39V5.42091H32.5731V3.61591H28.9631V1.81091H16.2925V3.61591H12.6706V5.42091H9.04875V7.23779H7.24375V9.04279H5.43875V10.8597H3.62188V12.6647H1.81687V14.4697H0V21.7134H1.81687V23.5184H3.62188V25.3353H5.43875V27.1403H21.7194V28.9453H23.5244V30.7622H27.1463V36.189H28.9631V30.7622H27.1463V28.9453H28.9631V27.1403H27.1463V25.3353H30.7681V23.5184H32.5731V21.7134H34.39V25.3353H32.5731V27.1403H30.7681V36.189H32.5731V27.1403H34.39V25.3353H36.195V19.9084H38V9.04279ZM32.5731 19.9084V21.7134H30.7681V23.5184H27.1463V25.3353H16.2925V23.5184H19.9144V21.7134H21.7194V19.9084H19.9144V21.7134H16.2925V23.5184H14.4875V25.3353H5.43875V23.5184H9.04875V21.7134H12.6706V19.9084H9.04875V21.7134H5.43875V23.5184H3.62188V21.7134H1.81687V16.2865H5.43875V18.0915H9.04875V16.2865H10.8656V14.4697H12.6706V12.6647H10.8656V14.4697H9.04875V16.2865H5.43875V14.4697H3.62188V12.6647H5.43875V10.8597H7.24375V9.04279H9.04875V7.23779H12.6706V9.04279H14.4875V12.6647H16.2925V14.4697H18.0975V16.2865H16.2925V18.0915H18.0975V16.2865H19.9144V14.4697H18.0975V12.6647H16.2925V9.04279H19.9144V7.23779H21.7194V5.42091H19.9144V7.23779H16.2925V9.04279H14.4875V7.23779H12.6706V5.42091H16.2925V3.61591H25.3412V5.42091H23.5244V9.04279H25.3412V5.42091H27.1463V3.61591H28.9631V5.42091H32.5731V7.23779H34.39V9.04279H36.195V19.9084H32.5731ZM28.9631 19.9084V18.0915H32.5731V19.9084H28.9631ZM27.1463 19.9084V21.7134H28.9631V19.9084H27.1463ZM27.1463 19.9084H25.3412V18.0915H27.1463V19.9084ZM27.1463 27.1403H23.5244V28.9453H27.1463V27.1403ZM25.3412 10.8597H27.1463V12.6647H25.3412V10.8597ZM28.9631 12.6647H27.1463V14.4697H28.9631V16.2865H30.7681V14.4697H32.5731V12.6647H30.7681L30.7681 14.4697H28.9631V12.6647ZM25.3412 21.7134H23.5244V23.5184H25.3412V21.7134Z" fill="#00B99B"/>
</svg>
