<svg width="625" height="195" viewBox="0 0 625 195" fill="none" xmlns="http://www.w3.org/2000/svg">
<path d="M41.6829 55.4878V56.0732H44.6098V55.4878H45.1951V54.3171H48.122V56.6585H47.5366V57.8293H46.9512V58.4146H45.7805V59H40.5122V58.4146H39.3415V57.8293H38.7561V56.6585H38.1707V46.7073H38.7561V45.5366H39.3415V44.9512H40.5122V44.3659H45.7805V44.9512H46.9512V45.5366H47.5366V46.7073H48.122V49.0488H45.1951V47.878H44.6098V47.2927H41.6829V47.878H41.0976V55.4878H41.6829ZM56.891 58.4146V59H52.2081V58.4146H51.0373V57.8293H50.452V56.6585H49.8666V50.2195H50.452V49.0488H51.0373V48.4634H52.2081V47.878H56.891V48.4634H58.0617V49.0488H58.6471V50.2195H59.2325V56.6585H58.6471V57.8293H58.0617V58.4146H56.891ZM53.3788 56.0732V56.6585H55.7203V56.0732H56.3056V50.8049H55.7203V50.2195H53.3788V50.8049H52.7934V56.0732H53.3788ZM64.5111 50.2195V50.8049H63.9257V59H60.9989V47.878H63.9257V48.4634H64.5111V47.878H67.4379V48.4634H68.0232V49.0488H68.6086V48.4634H69.194V47.878H72.1208V48.4634H73.2915V49.0488H73.8769V50.2195H74.4623V59H71.5354V50.8049H70.9501V50.2195H69.7793V50.8049H69.194V59H66.2671V50.8049H65.6818V50.2195H64.5111ZM79.722 50.2195V50.8049H79.1366V59H76.2098V47.878H79.1366V48.4634H79.722V47.878H82.6488V48.4634H83.2342V49.0488H83.8195V48.4634H84.4049V47.878H87.3317V48.4634H88.5025V49.0488H89.0878V50.2195H89.6732V59H86.7464V50.8049H86.161V50.2195H84.9903V50.8049H84.4049V59H81.4781V50.8049H80.8927V50.2195H79.722ZM94.3476 56.0732V56.6585H96.689V56.0732H97.2744V55.4878H100.201V56.6585H99.6159V57.8293H99.0305V58.4146H97.8598V59H93.1768V58.4146H92.0061V57.8293H91.4207V56.6585H90.8354V50.2195H91.4207V49.0488H92.0061V48.4634H93.1768V47.878H97.8598V48.4634H99.0305V49.0488H99.6159V50.2195H100.201V54.3171H93.7622V56.0732H94.3476ZM93.7622 50.8049V52.561H97.2744V50.8049H96.689V50.2195H94.3476V50.8049H93.7622ZM116.607 50.2195H117.193V56.6585H116.607V57.8293H116.022V58.4146H114.851V59H107.827V44.3659H110.754V48.4634H111.339V47.878H114.851V48.4634H116.022V49.0488H116.607V50.2195ZM113.681 56.0732H114.266V50.8049H113.681V50.2195H111.339V50.8049H110.754V56.6585H113.681V56.0732ZM121.887 56.0732V56.6585H124.228V56.0732H124.813V55.4878H127.74V56.6585H127.155V57.8293H126.57V58.4146H125.399V59H120.716V58.4146H119.545V57.8293H118.96V56.6585H118.374V50.2195H118.96V49.0488H119.545V48.4634H120.716V47.878H125.399V48.4634H126.57V49.0488H127.155V50.2195H127.74V54.3171H121.301V56.0732H121.887ZM121.301 50.8049V52.561H124.813V50.8049H124.228V50.2195H121.887V50.8049H121.301ZM132.433 54.3171V54.9024H131.848V56.0732H132.433V56.6585H134.775V56.0732H135.36V54.3171H132.433ZM129.507 57.8293V56.6585H128.921V54.9024H129.507V53.7317H130.092V53.1463H131.263V52.561H135.36V50.8049H134.775V50.2195H132.433V50.8049H131.848V51.3902H128.921V50.2195H129.507V49.0488H130.092V48.4634H131.263V47.878H135.946V48.4634H137.116V49.0488H137.702V50.2195H138.287V59H135.36V58.4146H134.775V59H130.677V58.4146H130.092V57.8293H129.507ZM140.639 57.8293V56.6585H140.054V47.878H142.981V56.0732H143.566V56.6585H145.908V56.0732H146.493V47.878H149.42V59H146.493V58.4146H145.908V59H142.396V58.4146H141.225V57.8293H140.639ZM154.699 56.0732V56.6585H157.041V56.0732H157.626V54.9024H160.553V56.6585H159.967V57.8293H159.382V58.4146H158.211V59H153.528V58.4146H152.358V57.8293H151.772V56.6585H151.187V50.2195H151.772V49.0488H152.358V48.4634H153.528V47.878H158.211V48.4634H159.382V49.0488H159.967V50.2195H160.553V51.9756H157.626V50.8049H157.041V50.2195H154.699V50.8049H154.114V56.0732H154.699ZM168.758 58.4146V59H164.075V58.4146H162.905V57.8293H162.319V56.6585H161.734V50.2195H162.319V49.0488H162.905V48.4634H164.075V47.878H168.758V48.4634H169.929V49.0488H170.514V50.2195H171.1V56.6585H170.514V57.8293H169.929V58.4146H168.758ZM165.246 56.0732V56.6585H167.587V56.0732H168.173V50.8049H167.587V50.2195H165.246V50.8049H164.661V56.0732H165.246ZM172.866 57.8293V56.6585H172.281V47.878H175.208V56.0732H175.793V56.6585H178.134V56.0732H178.72V47.878H181.647V59H178.72V58.4146H178.134V59H174.622V58.4146H173.451V57.8293H172.866ZM183.999 47.878H186.926V48.4634H187.511V47.878H191.023V48.4634H192.194V49.0488H192.779V50.2195H193.365V56.6585H192.779V57.8293H192.194V58.4146H191.023V59H186.926V62.5122H183.999V47.878ZM189.853 56.0732H190.438V50.8049H189.853V50.2195H187.511V50.8049H186.926V56.6585H189.853V56.0732ZM203.918 56.0732V56.6585H206.259V56.0732H206.845V50.2195H203.918V50.8049H203.333V56.0732H203.918ZM200.991 50.2195V49.0488H201.576V48.4634H202.747V47.878H206.845V44.3659H209.772V59H206.845V58.4146H206.259V59H202.747V58.4146H201.576V57.8293H200.991V56.6585H200.406V50.2195H200.991ZM215.051 56.0732V56.6585H217.392V56.0732H217.978V55.4878H220.904V56.6585H220.319V57.8293H219.734V58.4146H218.563V59H213.88V58.4146H212.709V57.8293H212.124V56.6585H211.538V50.2195H212.124V49.0488H212.709V48.4634H213.88V47.878H218.563V48.4634H219.734V49.0488H220.319V50.2195H220.904V54.3171H214.465V56.0732H215.051ZM214.465 50.8049V52.561H217.978V50.8049H217.392V50.2195H215.051V50.8049H214.465ZM231.457 56.0732V56.6585H233.798V56.0732H234.384V54.9024H237.311V56.6585H236.725V57.8293H236.14V58.4146H234.969V59H230.286V58.4146H229.115V57.8293H228.53V56.6585H227.945V50.2195H228.53V49.0488H229.115V48.4634H230.286V47.878H234.969V48.4634H236.14V49.0488H236.725V50.2195H237.311V51.9756H234.384V50.8049H233.798V50.2195H231.457V50.8049H230.872V56.0732H231.457ZM242.589 50.2195V50.8049H242.004V59H239.077V47.878H242.004V48.4634H242.589V47.878H246.101V48.4634H246.687V49.0488H247.272V49.6341H246.687V50.2195H246.101V50.8049H245.516V51.3902H244.931V50.8049H244.345V50.2195H242.589ZM251.379 44.9512V44.3659H251.964V43.7805H252.55V43.1951H254.306V44.9512H253.72V45.5366H253.135V46.122H252.55V46.7073H250.793V44.9512H251.379ZM251.379 56.0732V56.6585H253.72V56.0732H254.306V55.4878H257.232V56.6585H256.647V57.8293H256.062V58.4146H254.891V59H250.208V58.4146H249.037V57.8293H248.452V56.6585H247.867V50.2195H248.452V49.0488H249.037V48.4634H250.208V47.878H254.891V48.4634H256.062V49.0488H256.647V50.2195H257.232V54.3171H250.793V56.0732H251.379ZM250.793 50.8049V52.561H254.306V50.8049H253.72V50.2195H251.379V50.8049H250.793ZM261.926 54.3171V54.9024H261.34V56.0732H261.926V56.6585H264.267V56.0732H264.853V54.3171H261.926ZM258.999 57.8293V56.6585H258.413V54.9024H258.999V53.7317H259.584V53.1463H260.755V52.561H264.853V50.8049H264.267V50.2195H261.926V50.8049H261.34V51.3902H258.413V50.2195H258.999V49.0488H259.584V48.4634H260.755V47.878H265.438V48.4634H266.609V49.0488H267.194V50.2195H267.779V59H264.853V58.4146H264.267V59H260.17V58.4146H259.584V57.8293H258.999ZM273.644 56.0732V56.6585H275.4V59H272.473V58.4146H271.302V57.8293H270.717V56.6585H270.132V50.8049H268.961V48.4634H270.132V47.2927H270.717V46.7073H271.302V46.122H271.888V45.5366H272.473V44.9512H273.058V48.4634H275.4V50.8049H273.058V56.0732H273.644ZM280.09 44.3659V46.7073H277.163V44.3659H280.09ZM280.09 48.4634V59H277.163V48.4634H280.09ZM283.607 48.4634V46.7073H284.192V45.5366H284.778V44.9512H285.949V44.3659H288.875V46.7073H287.119V47.2927H286.534V48.4634H288.875V50.8049H286.534V59H283.607V50.8049H282.436V48.4634H283.607ZM292.981 55.4878V56.0732H293.566V56.6585H295.908V56.0732H296.493V54.9024H295.908V54.3171H292.396V53.7317H291.225V53.1463H290.639V51.9756H290.054V50.2195H290.639V49.0488H291.225V48.4634H292.396V47.878H297.079V48.4634H298.249V49.0488H298.835V50.8049H295.908V50.2195H293.566V50.8049H292.981V51.3902H293.566V51.9756H297.079V52.561H298.249V53.1463H298.835V54.3171H299.42V56.6585H298.835V57.8293H298.249V58.4146H297.079V59H292.396V58.4146H291.225V57.8293H290.639V56.6585H290.054V55.4878H292.981ZM304.113 56.0732V59.5854H303.528V60.1707H302.942V60.7561H302.357V61.3415H301.186V60.7561H301.772V60.1707H302.357V59H301.186V56.0732H304.113ZM315.246 44.3659V59H312.319V44.3659H315.246ZM320.519 56.0732V56.6585H322.861V56.0732H323.446V55.4878H326.373V56.6585H325.788V57.8293H325.202V58.4146H324.032V59H319.349V58.4146H318.178V57.8293H317.593V56.6585H317.007V50.2195H317.593V49.0488H318.178V48.4634H319.349V47.878H324.032V48.4634H325.202V49.0488H325.788V50.2195H326.373V54.3171H319.934V56.0732H320.519ZM319.934 50.8049V52.561H323.446V50.8049H322.861V50.2195H320.519V50.8049H319.934ZM330.481 55.4878V56.0732H331.066V56.6585H333.408V56.0732H333.993V54.9024H333.408V54.3171H329.896V53.7317H328.725V53.1463H328.139V51.9756H327.554V50.2195H328.139V49.0488H328.725V48.4634H329.896V47.878H334.579V48.4634H335.749V49.0488H336.335V50.8049H333.408V50.2195H331.066V50.8049H330.481V51.3902H331.066V51.9756H334.579V52.561H335.749V53.1463H336.335V54.3171H336.92V56.6585H336.335V57.8293H335.749V58.4146H334.579V59H329.896V58.4146H328.725V57.8293H328.139V56.6585H327.554V55.4878H330.481ZM347.473 56.0732V56.6585H349.814V56.0732H350.399V54.9024H353.326V56.6585H352.741V57.8293H352.155V58.4146H350.985V59H346.302V58.4146H345.131V57.8293H344.546V56.6585H343.96V50.2195H344.546V49.0488H345.131V48.4634H346.302V47.878H350.985V48.4634H352.155V49.0488H352.741V50.2195H353.326V51.9756H350.399V50.8049H349.814V50.2195H347.473V50.8049H346.887V56.0732H347.473ZM358.019 44.3659V59H355.093V44.3659H358.019ZM363.293 44.3659V46.7073H360.366V44.3659H363.293ZM363.293 48.4634V59H360.366V48.4634H363.293ZM365.639 47.878H368.566V48.4634H369.152V47.878H372.664V48.4634H373.835V49.0488H374.42V50.2195H375.005V56.6585H374.42V57.8293H373.835V58.4146H372.664V59H368.566V62.5122H365.639V47.878ZM371.493 56.0732H372.079V50.8049H371.493V50.2195H369.152V50.8049H368.566V56.6585H371.493V56.0732ZM379.114 55.4878V56.0732H379.699V56.6585H382.041V56.0732H382.626V54.9024H382.041V54.3171H378.528V53.7317H377.358V53.1463H376.772V51.9756H376.187V50.2195H376.772V49.0488H377.358V48.4634H378.528V47.878H383.211V48.4634H384.382V49.0488H384.967V50.8049H382.041V50.2195H379.699V50.8049H379.114V51.3902H379.699V51.9756H383.211V52.561H384.382V53.1463H384.967V54.3171H385.553V56.6585H384.967V57.8293H384.382V58.4146H383.211V59H378.528V58.4146H377.358V57.8293H376.772V56.6585H376.187V55.4878H379.114ZM396.105 56.0732V56.6585H398.447V56.0732H399.032V55.4878H401.959V56.6585H401.374V57.8293H400.788V58.4146H399.618V59H394.935V58.4146H393.764V57.8293H393.179V56.6585H392.593V50.2195H393.179V49.0488H393.764V48.4634H394.935V47.878H399.618V48.4634H400.788V49.0488H401.374V50.2195H401.959V54.3171H395.52V56.0732H396.105ZM395.52 50.8049V52.561H399.032V50.8049H398.447V50.2195H396.105V50.8049H395.52ZM407.238 56.0732V56.6585H408.994V59H406.067V58.4146H404.896V57.8293H404.311V56.6585H403.725V50.8049H402.555V48.4634H403.725V47.2927H404.311V46.7073H404.896V46.122H405.482V45.5366H406.067V44.9512H406.652V48.4634H408.994V50.8049H406.652V56.0732H407.238ZM41.0976 68.3659V83H38.1707V68.3659H41.0976ZM46.371 80.0732V80.6585H48.7125V80.0732H49.2978V79.4878H52.2247V80.6585H51.6393V81.8293H51.0539V82.4146H49.8832V83H45.2003V82.4146H44.0295V81.8293H43.4442V80.6585H42.8588V74.2195H43.4442V73.0488H44.0295V72.4634H45.2003V71.878H49.8832V72.4634H51.0539V73.0488H51.6393V74.2195H52.2247V78.3171H45.7856V80.0732H46.371ZM45.7856 74.8049V76.561H49.2978V74.8049H48.7125V74.2195H46.371V74.8049H45.7856ZM56.3325 79.4878V80.0732H56.9179V80.6585H59.2593V80.0732H59.8447V78.9024H59.2593V78.3171H55.7471V77.7317H54.5764V77.1463H53.991V75.9756H53.4057V74.2195H53.991V73.0488H54.5764V72.4634H55.7471V71.878H60.4301V72.4634H61.6008V73.0488H62.1862V74.8049H59.2593V74.2195H56.9179V74.8049H56.3325V75.3902H56.9179V75.9756H60.4301V76.561H61.6008V77.1463H62.1862V78.3171H62.7715V80.6585H62.1862V81.8293H61.6008V82.4146H60.4301V83H55.7471V82.4146H54.5764V81.8293H53.991V80.6585H53.4057V79.4878H56.3325ZM73.3241 80.0732V80.6585H75.6656V80.0732H76.251V78.9024H79.1778V80.6585H78.5924V81.8293H78.007V82.4146H76.8363V83H72.1534V82.4146H70.9827V81.8293H70.3973V80.6585H69.8119V74.2195H70.3973V73.0488H70.9827V72.4634H72.1534V71.878H76.8363V72.4634H78.007V73.0488H78.5924V74.2195H79.1778V75.9756H76.251V74.8049H75.6656V74.2195H73.3241V74.8049H72.7388V80.0732H73.3241ZM87.3832 82.4146V83H82.7003V82.4146H81.5295V81.8293H80.9442V80.6585H80.3588V74.2195H80.9442V73.0488H81.5295V72.4634H82.7003V71.878H87.3832V72.4634H88.5539V73.0488H89.1393V74.2195H89.7247V80.6585H89.1393V81.8293H88.5539V82.4146H87.3832ZM83.871 80.0732V80.6585H86.2125V80.0732H86.7978V74.8049H86.2125V74.2195H83.871V74.8049H83.2856V80.0732H83.871ZM91.491 81.8293V80.6585H90.9057V71.878H93.8325V80.0732H94.4179V80.6585H96.7593V80.0732H97.3447V71.878H100.272V83H97.3447V82.4146H96.7593V83H93.2471V82.4146H92.0764V81.8293H91.491ZM106.136 74.2195V74.8049H105.551V83H102.624V71.878H105.551V72.4634H106.136V71.878H109.648V72.4634H110.234V73.0488H110.819V73.6341H110.234V74.2195H109.648V74.8049H109.063V75.3902H108.478V74.8049H107.892V74.2195H106.136ZM115.511 80.0732V80.6585H117.267V83H114.34V82.4146H113.17V81.8293H112.584V80.6585H111.999V74.8049H110.828V72.4634H111.999V71.2927H112.584V70.7073H113.17V70.122H113.755V69.5366H114.34V68.9512H114.926V72.4634H117.267V74.8049H114.926V80.0732H115.511ZM121.372 79.4878V80.0732H121.957V80.6585H124.298V80.0732H124.884V78.9024H124.298V78.3171H120.786V77.7317H119.615V77.1463H119.03V75.9756H118.445V74.2195H119.03V73.0488H119.615V72.4634H120.786V71.878H125.469V72.4634H126.64V73.0488H127.225V74.8049H124.298V74.2195H121.957V74.8049H121.372V75.3902H121.957V75.9756H125.469V76.561H126.64V77.1463H127.225V78.3171H127.811V80.6585H127.225V81.8293H126.64V82.4146H125.469V83H120.786V82.4146H119.615V81.8293H119.03V80.6585H118.445V79.4878H121.372ZM138.949 74.2195V74.8049H138.363V83H135.436V71.878H138.363V72.4634H138.949V71.878H141.875V72.4634H142.461V73.0488H143.046V72.4634H143.631V71.878H146.558V72.4634H147.729V73.0488H148.314V74.2195H148.9V83H145.973V74.8049H145.388V74.2195H144.217V74.8049H143.631V83H140.705V74.8049H140.119V74.2195H138.949ZM153.574 68.9512V68.3659H154.159V67.7805H154.745V67.1951H156.501V68.9512H155.916V69.5366H155.33V70.122H154.745V70.7073H152.989V68.9512H153.574ZM153.574 80.0732V80.6585H155.916V80.0732H156.501V79.4878H159.428V80.6585H158.842V81.8293H158.257V82.4146H157.086V83H152.403V82.4146H151.233V81.8293H150.647V80.6585H150.062V74.2195H150.647V73.0488H151.233V72.4634H152.403V71.878H157.086V72.4634H158.257V73.0488H158.842V74.2195H159.428V78.3171H152.989V80.0732H153.574ZM152.989 74.8049V76.561H156.501V74.8049H155.916V74.2195H153.574V74.8049H152.989ZM164.706 80.0732V80.6585H166.462V83H163.536V82.4146H162.365V81.8293H161.78V80.6585H161.194V74.8049H160.023V72.4634H161.194V71.2927H161.78V70.7073H162.365V70.122H162.95V69.5366H163.536V68.9512H164.121V72.4634H166.462V74.8049H164.121V80.0732H164.706ZM171.738 74.2195V74.8049H171.152V83H168.225V71.878H171.152V72.4634H171.738V71.878H175.25V72.4634H175.835V73.0488H176.421V73.6341H175.835V74.2195H175.25V74.8049H174.664V75.3902H174.079V74.8049H173.494V74.2195H171.738ZM180.527 78.3171V78.9024H179.942V80.0732H180.527V80.6585H182.869V80.0732H183.454V78.3171H180.527ZM177.6 81.8293V80.6585H177.015V78.9024H177.6V77.7317H178.186V77.1463H179.357V76.561H183.454V74.8049H182.869V74.2195H180.527V74.8049H179.942V75.3902H177.015V74.2195H177.6V73.0488H178.186V72.4634H179.357V71.878H184.039V72.4634H185.21V73.0488H185.796V74.2195H186.381V83H183.454V82.4146H182.869V83H178.771V82.4146H178.186V81.8293H177.6ZM191.66 78.9024V79.4878H194.002V78.9024H194.587V74.2195H191.66V74.8049H191.075V78.9024H191.66ZM191.075 83V83.5854H191.66V84.1707H194.002V83.5854H194.587V81.2439H194.002V81.8293H190.489V81.2439H189.319V80.6585H188.733V79.4878H188.148V74.2195H188.733V73.0488H189.319V72.4634H190.489V71.878H197.514V84.1707H196.928V85.3415H196.343V85.9268H195.172V86.5122H190.489V85.9268H189.319V85.3415H188.733V84.1707H188.148V83H191.075ZM202.793 80.0732V80.6585H205.134V80.0732H205.72V79.4878H208.647V80.6585H208.061V81.8293H207.476V82.4146H206.305V83H201.622V82.4146H200.451V81.8293H199.866V80.6585H199.281V74.2195H199.866V73.0488H200.451V72.4634H201.622V71.878H206.305V72.4634H207.476V73.0488H208.061V74.2195H208.647V78.3171H202.208V80.0732H202.793ZM202.208 74.8049V76.561H205.72V74.8049H205.134V74.2195H202.793V74.8049H202.208ZM212.754 79.4878V80.0732H213.34V80.6585H215.681V80.0732H216.267V78.9024H215.681V78.3171H212.169V77.7317H210.998V77.1463H210.413V75.9756H209.828V74.2195H210.413V73.0488H210.998V72.4634H212.169V71.878H216.852V72.4634H218.023V73.0488H218.608V74.8049H215.681V74.2195H213.34V74.8049H212.754V75.3902H213.34V75.9756H216.852V76.561H218.023V77.1463H218.608V78.3171H219.193V80.6585H218.608V81.8293H218.023V82.4146H216.852V83H212.169V82.4146H210.998V81.8293H210.413V80.6585H209.828V79.4878H212.754ZM233.258 82.4146V83H228.575V82.4146H227.405V81.8293H226.819V80.6585H226.234V74.2195H226.819V73.0488H227.405V72.4634H228.575V71.878H233.258V72.4634H234.429V73.0488H235.014V74.2195H235.6V80.6585H235.014V81.8293H234.429V82.4146H233.258ZM229.746 80.0732V80.6585H232.087V80.0732H232.673V74.8049H232.087V74.2195H229.746V74.8049H229.161V80.0732H229.746ZM240.878 74.2195V74.8049H240.293V83H237.366V71.878H240.293V72.4634H240.878V71.878H244.39V72.4634H245.561V73.0488H246.147V74.2195H246.732V83H243.805V74.8049H243.22V74.2195H240.878ZM252.011 80.0732V80.6585H253.767V83H250.84V82.4146H249.67V81.8293H249.084V80.6585H248.499V74.8049H247.328V72.4634H248.499V71.2927H249.084V70.7073H249.67V70.122H250.255V69.5366H250.84V68.9512H251.426V72.4634H253.767V74.8049H251.426V80.0732H252.011ZM264.902 80.0732V80.6585H266.658V83H263.731V82.4146H262.56V81.8293H261.975V80.6585H261.389V74.8049H260.219V72.4634H261.389V71.2927H261.975V70.7073H262.56V70.122H263.146V69.5366H263.731V68.9512H264.316V72.4634H266.658V74.8049H264.316V80.0732H264.902ZM274.86 82.4146V83H270.177V82.4146H269.006V81.8293H268.421V80.6585H267.835V74.2195H268.421V73.0488H269.006V72.4634H270.177V71.878H274.86V72.4634H276.03V73.0488H276.616V74.2195H277.201V80.6585H276.616V81.8293H276.03V82.4146H274.86ZM271.348 80.0732V80.6585H273.689V80.0732H274.274V74.8049H273.689V74.2195H271.348V74.8049H270.762V80.0732H271.348ZM278.968 81.8293V80.6585H278.382V71.878H281.309V80.0732H281.894V80.6585H284.236V80.0732H284.821V71.878H287.748V83H284.821V82.4146H284.236V83H280.724V82.4146H279.553V81.8293H278.968ZM293.613 68.3659V70.7073H290.686V68.3659H293.613ZM293.027 84.1707V85.3415H292.442V85.9268H291.271V86.5122H288.93V84.1707H290.1V83.5854H290.686V72.4634H293.613V84.1707H293.027ZM302.399 82.4146V83H297.716V82.4146H296.545V81.8293H295.96V80.6585H295.374V74.2195H295.96V73.0488H296.545V72.4634H297.716V71.878H302.399V72.4634H303.57V73.0488H304.155V74.2195H304.74V80.6585H304.155V81.8293H303.57V82.4146H302.399ZM298.887 80.0732V80.6585H301.228V80.0732H301.813V74.8049H301.228V74.2195H298.887V74.8049H298.301V80.0732H298.887ZM306.507 81.8293V80.6585H305.921V71.878H308.848V80.0732H309.433V80.6585H311.775V80.0732H312.36V71.878H315.287V83H312.36V82.4146H311.775V83H308.263V82.4146H307.092V81.8293H306.507ZM321.152 74.2195V74.8049H320.566V83H317.639V71.878H320.566V72.4634H321.152V71.878H324.664V72.4634H325.249V73.0488H325.835V73.6341H325.249V74.2195H324.664V74.8049H324.079V75.3902H323.493V74.8049H322.908V74.2195H321.152ZM329.356 79.4878V80.0732H329.941V80.6585H332.283V80.0732H332.868V78.9024H332.283V78.3171H328.771V77.7317H327.6V77.1463H327.014V75.9756H326.429V74.2195H327.014V73.0488H327.6V72.4634H328.771V71.878H333.454V72.4634H334.624V73.0488H335.21V74.8049H332.283V74.2195H329.941V74.8049H329.356V75.3902H329.941V75.9756H333.454V76.561H334.624V77.1463H335.21V78.3171H335.795V80.6585H335.21V81.8293H334.624V82.4146H333.454V83H328.771V82.4146H327.6V81.8293H327.014V80.6585H326.429V79.4878H329.356ZM346.348 68.9512V68.3659H346.933V67.7805H347.518V67.1951H349.274V68.9512H348.689V69.5366H348.104V70.122H347.518V70.7073H345.762V68.9512H346.348ZM346.348 80.0732V80.6585H348.689V80.0732H349.274V79.4878H352.201V80.6585H351.616V81.8293H351.03V82.4146H349.86V83H345.177V82.4146H344.006V81.8293H343.421V80.6585H342.835V74.2195H343.421V73.0488H344.006V72.4634H345.177V71.878H349.86V72.4634H351.03V73.0488H351.616V74.2195H352.201V78.3171H345.762V80.0732H346.348ZM345.762 74.8049V76.561H349.274V74.8049H348.689V74.2195H346.348V74.8049H345.762ZM357.48 80.0732V80.6585H359.236V83H356.309V82.4146H355.138V81.8293H354.553V80.6585H353.968V74.8049H352.797V72.4634H353.968V71.2927H354.553V70.7073H355.138V70.122H355.724V69.5366H356.309V68.9512H356.894V72.4634H359.236V74.8049H356.894V80.0732H357.48ZM363.926 68.9512V68.3659H364.511V67.7805H365.096V67.1951H366.853V68.9512H366.267V69.5366H365.682V70.122H365.096V70.7073H363.34V68.9512H363.926ZM363.926 80.0732V80.6585H366.267V80.0732H366.853V79.4878H369.779V80.6585H369.194V81.8293H368.609V82.4146H367.438V83H362.755V82.4146H361.584V81.8293H360.999V80.6585H360.413V74.2195H360.999V73.0488H361.584V72.4634H362.755V71.878H367.438V72.4634H368.609V73.0488H369.194V74.2195H369.779V78.3171H363.34V80.0732H363.926ZM363.34 74.8049V76.561H366.853V74.8049H366.267V74.2195H363.926V74.8049H363.34ZM380.917 80.0732V80.6585H382.673V83H379.747V82.4146H378.576V81.8293H377.99V80.6585H377.405V74.8049H376.234V72.4634H377.405V71.2927H377.99V70.7073H378.576V70.122H379.161V69.5366H379.747V68.9512H380.332V72.4634H382.673V74.8049H380.332V80.0732H380.917ZM387.949 74.2195V74.8049H387.363V83H384.436V71.878H387.363V72.4634H387.949V71.878H391.461V72.4634H392.046V73.0488H392.631V73.6341H392.046V74.2195H391.461V74.8049H390.875V75.3902H390.29V74.8049H389.705V74.2195H387.949ZM399.665 68.9512V70.7073H397.909V70.122H397.324V69.5366H396.738V68.9512H396.153V67.1951H397.909V67.7805H398.494V68.3659H399.08V68.9512H399.665ZM396.738 80.0732V80.6585H399.08V80.0732H399.665V79.4878H402.592V80.6585H402.006V81.8293H401.421V82.4146H400.25V83H395.567V82.4146H394.397V81.8293H393.811V80.6585H393.226V74.2195H393.811V73.0488H394.397V72.4634H395.567V71.878H400.25V72.4634H401.421V73.0488H402.006V74.2195H402.592V78.3171H396.153V80.0732H396.738ZM396.153 74.8049V76.561H399.665V74.8049H399.08V74.2195H396.738V74.8049H396.153ZM406.7 79.4878V80.0732H407.285V80.6585H409.627V80.0732H410.212V78.9024H409.627V78.3171H406.114V77.7317H404.944V77.1463H404.358V75.9756H403.773V74.2195H404.358V73.0488H404.944V72.4634H406.114V71.878H410.797V72.4634H411.968V73.0488H412.553V74.8049H409.627V74.2195H407.285V74.8049H406.7V75.3902H407.285V75.9756H410.797V76.561H411.968V77.1463H412.553V78.3171H413.139V80.6585H412.553V81.8293H411.968V82.4146H410.797V83H406.114V82.4146H404.944V81.8293H404.358V80.6585H403.773V79.4878H406.7ZM41.0976 102.317V102.902H40.5122V104.073H41.0976V104.659H43.439V104.073H44.0244V102.317H41.0976ZM38.1707 105.829V104.659H37.5854V102.902H38.1707V101.732H38.7561V101.146H39.9268V100.561H44.0244V98.8049H43.439V98.2195H41.0976V98.8049H40.5122V99.3902H37.5854V98.2195H38.1707V97.0488H38.7561V96.4634H39.9268V95.878H44.6098V96.4634H45.7805V97.0488H46.3659V98.2195H46.9512V107H44.0244V106.415H43.439V107H39.3415V106.415H38.7561V105.829H38.1707ZM52.8157 104.073V104.659H54.5718V107H51.645V106.415H50.4743V105.829H49.8889V104.659H49.3035V98.8049H48.1328V96.4634H49.3035V95.2927H49.8889V94.7073H50.4743V94.122H51.0596V93.5366H51.645V92.9512H52.2304V96.4634H54.5718V98.8049H52.2304V104.073H52.8157ZM59.847 104.073V104.659H61.6031V107H58.6763V106.415H57.5055V105.829H56.9202V104.659H56.3348V98.8049H55.1641V96.4634H56.3348V95.2927H56.9202V94.7073H57.5055V94.122H58.0909V93.5366H58.6763V92.9512H59.2616V96.4634H61.6031V98.8049H59.2616V104.073H59.847ZM66.8782 98.2195V98.8049H66.2929V107H63.366V95.878H66.2929V96.4634H66.8782V95.878H70.3904V96.4634H70.9758V97.0488H71.5612V97.6341H70.9758V98.2195H70.3904V98.8049H69.8051V99.3902H69.2197V98.8049H68.6343V98.2195H66.8782ZM75.6679 102.317V102.902H75.0825V104.073H75.6679V104.659H78.0093V104.073H78.5947V102.317H75.6679ZM72.741 105.829V104.659H72.1557V102.902H72.741V101.732H73.3264V101.146H74.4971V100.561H78.5947V98.8049H78.0093V98.2195H75.6679V98.8049H75.0825V99.3902H72.1557V98.2195H72.741V97.0488H73.3264V96.4634H74.4971V95.878H79.1801V96.4634H80.3508V97.0488H80.9362V98.2195H81.5215V107H78.5947V106.415H78.0093V107H73.9118V106.415H73.3264V105.829H72.741ZM85.0446 108.171V107.585H85.63V107H86.2153V106.415H86.8007V105.829H86.2153V105.244H85.63V104.659H85.0446V104.073H84.4592V103.488H83.8739V95.878H86.8007V102.902H87.3861V103.488H87.9714V104.073H89.1421V103.488H89.7275V102.902H90.3129V95.878H93.2397V103.488H92.6543V104.073H92.069V104.659H91.4836V105.244H90.8982V105.829H90.3129V106.415H89.7275V107H89.1421V107.585H88.5568V108.171H87.9714V108.756H87.3861V109.341H86.8007V109.927H86.2153V110.512H84.4592V108.171H85.0446ZM98.5194 102.317V102.902H97.9341V104.073H98.5194V104.659H100.861V104.073H101.446V102.317H98.5194ZM95.5926 105.829V104.659H95.0072V102.902H95.5926V101.732H96.178V101.146H97.3487V100.561H101.446V98.8049H100.861V98.2195H98.5194V98.8049H97.9341V99.3902H95.0072V98.2195H95.5926V97.0488H96.178V96.4634H97.3487V95.878H102.032V96.4634H103.202V97.0488H103.788V98.2195H104.373V107H101.446V106.415H100.861V107H96.7633V106.415H96.178V105.829H95.5926ZM110.238 98.2195V98.8049H109.652V107H106.725V95.878H109.652V96.4634H110.238V95.878H113.75V96.4634H114.921V97.0488H115.506V98.2195H116.091V107H113.164V98.8049H112.579V98.2195H110.238ZM121.37 104.073V104.659H123.127V107H120.2V106.415H119.029V105.829H118.444V104.659H117.858V98.8049H116.688V96.4634H117.858V95.2927H118.444V94.7073H119.029V94.122H119.614V93.5366H120.2V92.9512H120.785V96.4634H123.127V98.8049H120.785V104.073H121.37ZM127.231 103.488V104.073H127.816V104.659H130.158V104.073H130.743V102.902H130.158V102.317H126.646V101.732H125.475V101.146H124.889V99.9756H124.304V98.2195H124.889V97.0488H125.475V96.4634H126.646V95.878H131.329V96.4634H132.499V97.0488H133.085V98.8049H130.158V98.2195H127.816V98.8049H127.231V99.3902H127.816V99.9756H131.329V100.561H132.499V101.146H133.085V102.317H133.67V104.659H133.085V105.829H132.499V106.415H131.329V107H126.646V106.415H125.475V105.829H124.889V104.659H124.304V103.488H127.231ZM141.296 95.878H144.223V96.4634H144.808V95.878H148.32V96.4634H149.491V97.0488H150.076V98.2195H150.662V104.659H150.076V105.829H149.491V106.415H148.32V107H144.223V110.512H141.296V95.878ZM147.149 104.073H147.735V98.8049H147.149V98.2195H144.808V98.8049H144.223V104.659H147.149V104.073ZM158.868 106.415V107H154.185V106.415H153.014V105.829H152.429V104.659H151.843V98.2195H152.429V97.0488H153.014V96.4634H154.185V95.878H158.868V96.4634H160.038V97.0488H160.624V98.2195H161.209V104.659H160.624V105.829H160.038V106.415H158.868ZM155.355 104.073V104.659H157.697V104.073H158.282V98.8049H157.697V98.2195H155.355V98.8049H154.77V104.073H155.355ZM162.975 105.829V104.659H162.39V95.878H165.317V104.073H165.902V104.659H168.244V104.073H168.829V95.878H171.756V107H168.829V106.415H168.244V107H164.732V106.415H163.561V105.829H162.975ZM177.62 98.2195V98.8049H177.035V107H174.108V95.878H177.035V96.4634H177.62V95.878H181.133V96.4634H181.718V97.0488H182.303V97.6341H181.718V98.2195H181.133V98.8049H180.547V99.3902H179.962V98.8049H179.377V98.2195H177.62ZM192.855 98.2195V98.8049H192.269V107H189.343V95.878H192.269V96.4634H192.855V95.878H195.782V96.4634H196.367V97.0488H196.952V96.4634H197.538V95.878H200.465V96.4634H201.635V97.0488H202.221V98.2195H202.806V107H199.879V98.8049H199.294V98.2195H198.123V98.8049H197.538V107H194.611V98.8049H194.026V98.2195H192.855ZM210.993 106.415V107H206.31V106.415H205.139V105.829H204.554V104.659H203.968V98.2195H204.554V97.0488H205.139V96.4634H206.31V95.878H210.993V96.4634H212.163V97.0488H212.749V98.2195H213.334V104.659H212.749V105.829H212.163V106.415H210.993ZM207.48 104.073V104.659H209.822V104.073H210.407V98.8049H209.822V98.2195H207.48V98.8049H206.895V104.073H207.48ZM218.027 92.3659V94.7073H215.1V92.3659H218.027ZM218.027 96.4634V107H215.1V96.4634H218.027ZM223.301 104.073V107H220.374V104.073H223.301ZM234.433 92.3659V107H231.507V92.3659H234.433ZM239.707 92.3659V107H236.78V92.3659H239.707ZM244.395 103.488V104.073H244.98V104.659H247.322V104.073H247.907V102.902H247.322V102.317H243.81V101.732H242.639V101.146H242.054V99.9756H241.468V98.2195H242.054V97.0488H242.639V96.4634H243.81V95.878H248.493V96.4634H249.663V97.0488H250.249V98.8049H247.322V98.2195H244.98V98.8049H244.395V99.3902H244.98V99.9756H248.493V100.561H249.663V101.146H250.249V102.317H250.834V104.659H250.249V105.829H249.663V106.415H248.493V107H243.81V106.415H242.639V105.829H242.054V104.659H241.468V103.488H244.395ZM258.46 95.878H261.387V96.4634H261.972V95.878H265.484V96.4634H266.655V97.0488H267.24V98.2195H267.826V104.659H267.24V105.829H266.655V106.415H265.484V107H261.387V110.512H258.46V95.878ZM264.313 104.073H264.899V98.8049H264.313V98.2195H261.972V98.8049H261.387V104.659H264.313V104.073ZM272.519 104.073V104.659H274.861V104.073H275.446V103.488H278.373V104.659H277.788V105.829H277.202V106.415H276.032V107H271.349V106.415H270.178V105.829H269.593V104.659H269.007V98.2195H269.593V97.0488H270.178V96.4634H271.349V95.878H276.032V96.4634H277.202V97.0488H277.788V98.2195H278.373V102.317H271.934V104.073H272.519ZM271.934 98.8049V100.561H275.446V98.8049H274.861V98.2195H272.519V98.8049H271.934ZM283.652 98.2195V98.8049H283.066V107H280.139V95.878H283.066V96.4634H283.652V95.878H287.164V96.4634H287.749V97.0488H288.335V97.6341H287.749V98.2195H287.164V98.8049H286.579V99.3902H285.993V98.8049H285.408V98.2195H283.652ZM293.027 98.2195V98.8049H292.441V107H289.514V95.878H292.441V96.4634H293.027V95.878H295.954V96.4634H296.539V97.0488H297.124V96.4634H297.71V95.878H300.636V96.4634H301.807V97.0488H302.393V98.2195H302.978V107H300.051V98.8049H299.466V98.2195H298.295V98.8049H297.71V107H294.783V98.8049H294.197V98.2195H293.027ZM307.652 104.073V104.659H309.994V104.073H310.579V103.488H313.506V104.659H312.921V105.829H312.335V106.415H311.164V107H306.482V106.415H305.311V105.829H304.725V104.659H304.14V98.2195H304.725V97.0488H305.311V96.4634H306.482V95.878H311.164V96.4634H312.335V97.0488H312.921V98.2195H313.506V102.317H307.067V104.073H307.652ZM307.067 98.8049V100.561H310.579V98.8049H309.994V98.2195H307.652V98.8049H307.067ZM318.784 104.073V104.659H320.541V107H317.614V106.415H316.443V105.829H315.858V104.659H315.272V98.8049H314.102V96.4634H315.272V95.2927H315.858V94.7073H316.443V94.122H317.028V93.5366H317.614V92.9512H318.199V96.4634H320.541V98.8049H318.199V104.073H318.784ZM325.816 104.073V104.659H327.572V107H324.645V106.415H323.474V105.829H322.889V104.659H322.304V98.8049H321.133V96.4634H322.304V95.2927H322.889V94.7073H323.474V94.122H324.06V93.5366H324.645V92.9512H325.23V96.4634H327.572V98.8049H325.23V104.073H325.816ZM332.262 104.073V104.659H334.603V104.073H335.188V103.488H338.115V104.659H337.53V105.829H336.945V106.415H335.774V107H331.091V106.415H329.92V105.829H329.335V104.659H328.749V98.2195H329.335V97.0488H329.92V96.4634H331.091V95.878H335.774V96.4634H336.945V97.0488H337.53V98.2195H338.115V102.317H331.676V104.073H332.262ZM331.676 98.8049V100.561H335.188V98.8049H334.603V98.2195H332.262V98.8049H331.676ZM343.394 98.2195V98.8049H342.808V107H339.882V95.878H342.808V96.4634H343.394V95.878H346.906V96.4634H348.077V97.0488H348.662V98.2195H349.248V107H346.321V98.8049H345.735V98.2195H343.394ZM354.527 104.073V104.659H356.283V107H353.356V106.415H352.185V105.829H351.6V104.659H351.014V98.8049H349.844V96.4634H351.014V95.2927H351.6V94.7073H352.185V94.122H352.771V93.5366H353.356V92.9512H353.941V96.4634H356.283V98.8049H353.941V104.073H354.527ZM363.905 105.829V104.659H363.32V95.878H366.247V104.073H366.832V104.659H369.173V104.073H369.759V95.878H372.686V107H369.759V106.415H369.173V107H365.661V106.415H364.49V105.829H363.905ZM378.55 98.2195V98.8049H377.965V107H375.038V95.878H377.965V96.4634H378.55V95.878H382.062V96.4634H383.233V97.0488H383.818V98.2195H384.404V107H381.477V98.8049H380.892V98.2195H378.55ZM389.098 104.073V104.659H391.439V104.073H392.024V103.488H394.951V104.659H394.366V105.829H393.78V106.415H392.61V107H387.927V106.415H386.756V105.829H386.171V104.659H385.585V98.2195H386.171V97.0488H386.756V96.4634H387.927V95.878H392.61V96.4634H393.78V97.0488H394.366V98.2195H394.951V102.317H388.512V104.073H389.098ZM388.512 98.8049V100.561H392.024V98.8049H391.439V98.2195H389.098V98.8049H388.512ZM41.0976 116.366V131H38.1707V116.366H41.0976ZM46.371 116.366V118.707H43.4442V116.366H46.371ZM46.371 120.463V131H43.4442V120.463H46.371ZM57.4981 122.22H58.0835V128.659H57.4981V129.829H56.9127V130.415H55.742V131H48.7176V116.366H51.6444V120.463H52.2298V119.878H55.742V120.463H56.9127V121.049H57.4981V122.22ZM54.5713 128.073H55.1566V122.805H54.5713V122.22H52.2298V122.805H51.6444V128.659H54.5713V128.073ZM62.7772 128.073V128.659H65.1187V128.073H65.7041V127.488H68.6309V128.659H68.0455V129.829H67.4602V130.415H66.2894V131H61.6065V130.415H60.4358V129.829H59.8504V128.659H59.2651V122.22H59.8504V121.049H60.4358V120.463H61.6065V119.878H66.2894V120.463H67.4602V121.049H68.0455V122.22H68.6309V126.317H62.1919V128.073H62.7772ZM62.1919 122.805V124.561H65.7041V122.805H65.1187V122.22H62.7772V122.805H62.1919ZM73.9095 122.22V122.805H73.3241V131H70.3973V119.878H73.3241V120.463H73.9095V119.878H77.4217V120.463H78.007V121.049H78.5924V121.634H78.007V122.22H77.4217V122.805H76.8363V123.39H76.251V122.805H75.6656V122.22H73.9095ZM83.2845 128.073V128.659H85.0406V131H82.1138V130.415H80.943V129.829H80.3577V128.659H79.7723V122.805H78.6016V120.463H79.7723V119.293H80.3577V118.707H80.943V118.122H81.5284V117.537H82.1138V116.951H82.6991V120.463H85.0406V122.805H82.6991V128.073H83.2845ZM89.7304 116.951V116.366H90.3157V115.78H90.9011V115.195H92.6572V116.951H92.0718V117.537H91.4865V118.122H90.9011V118.707H89.145V116.951H89.7304ZM89.7304 128.073V128.659H92.0718V128.073H92.6572V127.488H95.584V128.659H94.9987V129.829H94.4133V130.415H93.2426V131H88.5596V130.415H87.3889V129.829H86.8035V128.659H86.2182V122.22H86.8035V121.049H87.3889V120.463H88.5596V119.878H93.2426V120.463H94.4133V121.049H94.9987V122.22H95.584V126.317H89.145V128.073H89.7304ZM89.145 122.805V124.561H92.6572V122.805H92.0718V122.22H89.7304V122.805H89.145ZM106.722 128.073V128.659H108.478V131H105.551V130.415H104.381V129.829H103.795V128.659H103.21V122.805H102.039V120.463H103.21V119.293H103.795V118.707H104.381V118.122H104.966V117.537H105.551V116.951H106.137V120.463H108.478V122.805H106.137V128.073H106.722ZM116.68 130.415V131H111.997V130.415H110.826V129.829H110.241V128.659H109.656V122.22H110.241V121.049H110.826V120.463H111.997V119.878H116.68V120.463H117.851V121.049H118.436V122.22H119.022V128.659H118.436V129.829H117.851V130.415H116.68ZM113.168 128.073V128.659H115.509V128.073H116.095V122.805H115.509V122.22H113.168V122.805H112.583V128.073H113.168ZM124.3 128.073V128.659H126.056V131H123.129V130.415H121.959V129.829H121.373V128.659H120.788V122.805H119.617V120.463H120.788V119.293H121.373V118.707H121.959V118.122H122.544V117.537H123.129V116.951H123.715V120.463H126.056V122.805H123.715V128.073H124.3ZM130.746 126.317V126.902H130.161V128.073H130.746V128.659H133.087V128.073H133.673V126.317H130.746ZM127.819 129.829V128.659H127.234V126.902H127.819V125.732H128.405V125.146H129.575V124.561H133.673V122.805H133.087V122.22H130.746V122.805H130.161V123.39H127.234V122.22H127.819V121.049H128.405V120.463H129.575V119.878H134.258V120.463H135.429V121.049H136.014V122.22H136.6V131H133.673V130.415H133.087V131H128.99V130.415H128.405V129.829H127.819ZM141.879 116.366V131H138.952V116.366H141.879ZM147.152 128.073V128.659H149.494V128.073H150.079V127.488H153.006V128.659H152.421V129.829H151.835V130.415H150.664V131H145.982V130.415H144.811V129.829H144.225V128.659H143.64V122.22H144.225V121.049H144.811V120.463H145.982V119.878H150.664V120.463H151.835V121.049H152.421V122.22H153.006V126.317H146.567V128.073H147.152ZM146.567 122.805V124.561H150.079V122.805H149.494V122.22H147.152V122.805H146.567ZM157.699 128.073V131.585H157.114V132.171H156.528V132.756H155.943V133.341H154.772V132.756H155.358V132.171H155.943V131H154.772V128.073H157.699ZM172.344 130.415V131H167.661V130.415H166.49V129.829H165.905V128.659H165.32V122.22H165.905V121.049H166.49V120.463H167.661V119.878H172.344V120.463H173.515V121.049H174.1V122.22H174.686V128.659H174.1V129.829H173.515V130.415H172.344ZM168.832 128.073V128.659H171.173V128.073H171.759V122.805H171.173V122.22H168.832V122.805H168.247V128.073H168.832ZM179.964 122.22V122.805H179.379V131H176.452V119.878H179.379V120.463H179.964V119.878H183.476V120.463H184.647V121.049H185.232V122.22H185.818V131H182.891V122.805H182.306V122.22H179.964ZM193.444 119.878H196.371V120.463H196.956V119.878H200.469V120.463H201.639V121.049H202.225V122.22H202.81V128.659H202.225V129.829H201.639V130.415H200.469V131H196.371V134.512H193.444V119.878ZM199.298 128.073H199.883V122.805H199.298V122.22H196.956V122.805H196.371V128.659H199.298V128.073ZM207.504 128.073V128.659H209.845V128.073H210.431V127.488H213.357V128.659H212.772V129.829H212.187V130.415H211.016V131H206.333V130.415H205.162V129.829H204.577V128.659H203.992V122.22H204.577V121.049H205.162V120.463H206.333V119.878H211.016V120.463H212.187V121.049H212.772V122.22H213.357V126.317H206.918V128.073H207.504ZM206.918 122.805V124.561H210.431V122.805H209.845V122.22H207.504V122.805H206.918ZM215.124 129.829V128.659H214.538V119.878H217.465V128.073H218.051V128.659H220.392V128.073H220.978V119.878H223.904V131H220.978V130.415H220.392V131H216.88V130.415H215.709V129.829H215.124ZM229.769 128.073V128.659H231.525V131H228.598V130.415H227.427V129.829H226.842V128.659H226.257V122.805H225.086V120.463H226.257V119.293H226.842V118.707H227.427V118.122H228.013V117.537H228.598V116.951H229.183V120.463H231.525V122.805H229.183V128.073H229.769ZM242.659 128.073V128.659H244.416V131H241.489V130.415H240.318V129.829H239.733V128.659H239.147V122.805H237.977V120.463H239.147V119.293H239.733V118.707H240.318V118.122H240.903V117.537H241.489V116.951H242.074V120.463H244.416V122.805H242.074V128.073H242.659ZM252.618 130.415V131H247.935V130.415H246.764V129.829H246.179V128.659H245.593V122.22H246.179V121.049H246.764V120.463H247.935V119.878H252.618V120.463H253.788V121.049H254.374V122.22H254.959V128.659H254.374V129.829H253.788V130.415H252.618ZM249.105 128.073V128.659H251.447V128.073H252.032V122.805H251.447V122.22H249.105V122.805H248.52V128.073H249.105ZM256.725 129.829V128.659H256.14V119.878H259.067V128.073H259.652V128.659H261.994V128.073H262.579V119.878H265.506V131H262.579V130.415H261.994V131H258.482V130.415H257.311V129.829H256.725ZM271.37 128.073V128.659H273.127V131H270.2V130.415H269.029V129.829H268.444V128.659H267.858V122.805H266.688V120.463H267.858V119.293H268.444V118.707H269.029V118.122H269.614V117.537H270.2V116.951H270.785V120.463H273.127V122.805H270.785V128.073H271.37ZM281.92 132.171V131.585H282.505V131H283.09V130.415H283.676V129.829H283.09V129.244H282.505V128.659H281.92V128.073H281.334V127.488H280.749V119.878H283.676V126.902H284.261V127.488H284.846V128.073H286.017V127.488H286.603V126.902H287.188V119.878H290.115V127.488H289.529V128.073H288.944V128.659H288.359V129.244H287.773V129.829H287.188V130.415H286.603V131H286.017V131.585H285.432V132.171H284.846V132.756H284.261V133.341H283.676V133.927H283.09V134.512H281.334V132.171H281.92ZM299.498 120.463V118.707H300.083V117.537H300.668V116.951H301.839V116.366H304.766V118.707H303.01V119.293H302.425V120.463H304.766V122.805H302.425V131H299.498V122.805H298.327V120.463H299.498ZM309.457 126.317V126.902H308.872V128.073H309.457V128.659H311.798V128.073H312.384V126.317H309.457ZM306.53 129.829V128.659H305.945V126.902H306.53V125.732H307.115V125.146H308.286V124.561H312.384V122.805H311.798V122.22H309.457V122.805H308.872V123.39H305.945V122.22H306.53V121.049H307.115V120.463H308.286V119.878H312.969V120.463H314.14V121.049H314.725V122.22H315.311V131H312.384V130.415H311.798V131H307.701V130.415H307.115V129.829H306.53ZM320.59 116.366V118.707H317.663V116.366H320.59ZM320.59 120.463V131H317.663V120.463H320.59ZM326.449 122.22V122.805H325.863V131H322.936V119.878H325.863V120.463H326.449V119.878H329.961V120.463H330.546V121.049H331.131V121.634H330.546V122.22H329.961V122.805H329.375V123.39H328.79V122.805H328.205V122.22H326.449ZM335.238 128.073V128.659H337.58V128.073H338.165V127.488H341.092V128.659H340.506V129.829H339.921V130.415H338.75V131H334.067V130.415H332.897V129.829H332.311V128.659H331.726V122.22H332.311V121.049H332.897V120.463H334.067V119.878H338.75V120.463H339.921V121.049H340.506V122.22H341.092V126.317H334.653V128.073H335.238ZM334.653 122.805V124.561H338.165V122.805H337.58V122.22H335.238V122.805H334.653ZM345.785 128.073V131.585H345.2V132.171H344.614V132.756H344.029V133.341H342.858V132.756H343.444V132.171H344.029V131H342.858V128.073H345.785ZM357.503 128.073V128.659H359.259V131H356.333V130.415H355.162V129.829H354.576V128.659H353.991V122.805H352.82V120.463H353.991V119.293H354.576V118.707H355.162V118.122H355.747V117.537H356.333V116.951H356.918V120.463H359.259V122.805H356.918V128.073H357.503ZM367.461 130.415V131H362.778V130.415H361.608V129.829H361.022V128.659H360.437V122.22H361.022V121.049H361.608V120.463H362.778V119.878H367.461V120.463H368.632V121.049H369.217V122.22H369.803V128.659H369.217V129.829H368.632V130.415H367.461ZM363.949 128.073V128.659H366.291V128.073H366.876V122.805H366.291V122.22H363.949V122.805H363.364V128.073H363.949ZM371.569 129.829V128.659H370.984V119.878H373.911V128.073H374.496V128.659H376.837V128.073H377.423V119.878H380.35V131H377.423V130.415H376.837V131H373.325V130.415H372.155V129.829H371.569ZM386.214 128.073V128.659H387.97V131H385.043V130.415H383.873V129.829H383.287V128.659H382.702V122.805H381.531V120.463H382.702V119.293H383.287V118.707H383.873V118.122H384.458V117.537H385.043V116.951H385.629V120.463H387.97V122.805H385.629V128.073H386.214ZM396.763 132.171V131.585H397.349V131H397.934V130.415H398.519V129.829H397.934V129.244H397.349V128.659H396.763V128.073H396.178V127.488H395.593V119.878H398.519V126.902H399.105V127.488H399.69V128.073H400.861V127.488H401.446V126.902H402.032V119.878H404.958V127.488H404.373V128.073H403.788V128.659H403.202V129.244H402.617V129.829H402.032V130.415H401.446V131H400.861V131.585H400.276V132.171H399.69V132.756H399.105V133.341H398.519V133.927H397.934V134.512H396.178V132.171H396.763ZM41.6829 152.073V152.659H43.439V155H40.5122V154.415H39.3415V153.829H38.7561V152.659H38.1707V146.805H37V144.463H38.1707V143.293H38.7561V142.707H39.3415V142.122H39.9268V141.537H40.5122V140.951H41.0976V144.463H43.439V146.805H41.0976V152.073H41.6829ZM48.1288 152.073V152.659H50.4703V152.073H51.0556V151.488H53.9825V152.659H53.3971V153.829H52.8117V154.415H51.641V155H46.9581V154.415H45.7873V153.829H45.202V152.659H44.6166V146.22H45.202V145.049H45.7873V144.463H46.9581V143.878H51.641V144.463H52.8117V145.049H53.3971V146.22H53.9825V150.317H47.5434V152.073H48.1288ZM47.5434 146.805V148.561H51.0556V146.805H50.4703V146.22H48.1288V146.805H47.5434ZM58.0903 151.488V152.073H58.6757V152.659H61.0171V152.073H61.6025V150.902H61.0171V150.317H57.505V149.732H56.3342V149.146H55.7489V147.976H55.1635V146.22H55.7489V145.049H56.3342V144.463H57.505V143.878H62.1879V144.463H63.3586V145.049H63.944V146.805H61.0171V146.22H58.6757V146.805H58.0903V147.39H58.6757V147.976H62.1879V148.561H63.3586V149.146H63.944V150.317H64.5293V152.659H63.944V153.829H63.3586V154.415H62.1879V155H57.505V154.415H56.3342V153.829H55.7489V152.659H55.1635V151.488H58.0903ZM69.8079 152.073V152.659H71.564V155H68.6372V154.415H67.4665V153.829H66.8811V152.659H66.2957V146.805H65.125V144.463H66.2957V143.293H66.8811V142.707H67.4665V142.122H68.0518V141.537H68.6372V140.951H69.2226V144.463H71.564V146.805H69.2226V152.073H69.8079ZM76.2538 152.073V152.659H78.5953V152.073H79.1806V151.488H82.1075V152.659H81.5221V153.829H80.9367V154.415H79.766V155H75.0831V154.415H73.9123V153.829H73.327V152.659H72.7416V146.22H73.327V145.049H73.9123V144.463H75.0831V143.878H79.766V144.463H80.9367V145.049H81.5221V146.22H82.1075V150.317H75.6684V152.073H76.2538ZM75.6684 146.805V148.561H79.1806V146.805H78.5953V146.22H76.2538V146.805H75.6684ZM87.3861 146.22V146.805H86.8007V155H83.8739V143.878H86.8007V144.463H87.3861V143.878H90.8982V144.463H91.4836V145.049H92.069V145.634H91.4836V146.22H90.8982V146.805H90.3129V147.39H89.7275V146.805H89.1421V146.22H87.3861ZM96.1757 152.073V155H93.2489V152.073H96.1757Z" fill="#00B99B"/>
<path d="M441 1H14C6.8203 1 1 6.82028 1 14V181.228C1 188.408 6.82029 194.228 14 194.228H441C448.18 194.228 454 188.408 454 181.228V146H489L454 104V14C454 6.8203 448.18 1 441 1Z" stroke="#00FBD3"/>
<rect x="523" y="189" width="23" height="2" fill="#00B99B"/>
<rect x="552" y="192" width="10" height="2" fill="#00B99B"/>
<rect x="546" y="190" width="6" height="2" fill="#00B99B"/>
<rect x="562" y="190" width="6" height="2" fill="#00B99B"/>
<rect x="568" y="189" width="22" height="2" fill="#00B99B"/>
<rect x="590" y="187" width="5" height="2" fill="#00B99B"/>
<rect x="595" y="181" width="12" height="2" fill="#00B99B"/>
<rect width="4" height="1" transform="matrix(-1 0 0 1 609 181)" fill="#00B99B"/>
<rect x="607" y="176" width="8" height="2" fill="#00B99B"/>
<rect x="614" y="174" width="8" height="2" fill="#00B99B"/>
<rect x="595" y="182" width="2" height="5" fill="#00B99B"/>
<rect x="607" y="177" width="2" height="5" fill="#00B99B"/>
<rect x="521" y="182" width="2" height="8" fill="#00B99B"/>
<rect x="516" y="182" width="2" height="5" fill="#00B99B"/>
<rect x="514" y="182" width="3" height="2" fill="#00B99B"/>
<rect x="511" y="181" width="4" height="2" fill="#00B99B"/>
<rect x="509" y="178" width="3" height="3" fill="#00B99B"/>
<rect x="506" y="178" width="4" height="2" fill="#00B99B"/>
<rect x="505" y="132" width="3" height="46" fill="#00B99B"/>
<rect x="516" y="182" width="6" height="2" fill="#00B99B"/>
<rect x="506" y="129" width="4" height="5" fill="#00B99B"/>
<rect x="509" y="126" width="3" height="3" fill="#00B99B"/>
<rect x="512" y="123" width="4" height="4" fill="#00B99B"/>
<rect x="515" y="120" width="3" height="3" fill="#00B99B"/>
<rect x="518" y="117" width="4" height="4" fill="#00B99B"/>
<rect x="521" y="114" width="3" height="3" fill="#00B99B"/>
<rect x="530" y="111" width="4" height="4" fill="#00B99B"/>
<rect x="545" y="106" width="9" height="5" fill="#00B99B"/>
<rect x="554" y="103" width="51" height="4" fill="#00B99B"/>
<rect x="604" y="106" width="6" height="9" fill="#00B99B"/>
<rect x="608" y="111" width="7" height="5" fill="#00B99B"/>
<rect x="613" y="114" width="5" height="10" fill="#00B99B"/>
<rect x="621" y="123" width="4" height="52" fill="#00B99B"/>
<rect x="617" y="121" width="5" height="3" fill="#00B99B"/>
<rect x="533" y="109" width="12" height="3" fill="#00B99B"/>
<rect x="524" y="114" width="6" height="3" fill="#00B99B"/>
<rect x="541" y="173" width="24" height="3" fill="#00B99B"/>
<rect x="538" y="170" width="5" height="3" fill="#00B99B"/>
<rect x="549" y="175" width="5" height="3" fill="#00B99B"/>
<rect x="563" y="170" width="5" height="3" fill="#00B99B"/>
<rect x="541" y="171" width="2" height="3" fill="#00B99B"/>
<rect x="563" y="171" width="2" height="3" fill="#00B99B"/>
<rect x="571" y="161" width="7" height="7" fill="#00B99B"/>
<rect x="527" y="161" width="7" height="7" fill="#00B99B"/>
<rect x="517" y="172" width="2" height="10" fill="#00B99B"/>
<rect x="518" y="165" width="3" height="7" fill="#00B99B"/>
<rect x="521" y="164" width="2" height="4" fill="#00B99B"/>
<rect x="522" y="159" width="2" height="5" fill="#00B99B"/>
<rect x="522" y="154" width="3" height="6" fill="#00B99B"/>
<rect x="525" y="152" width="2" height="4" fill="#00B99B"/>
<rect x="545" y="144" width="2" height="2" fill="#00B99B"/>
<rect x="536" y="148" width="2" height="2" fill="#00B99B"/>
<rect x="526" y="149" width="10" height="3" fill="#00B99B"/>
<rect x="537" y="145" width="8" height="3" fill="#00B99B"/>
<rect x="544" y="141" width="8" height="3" fill="#00B99B"/>
<rect x="554" y="136" width="8" height="2" fill="#00B99B"/>
<rect x="565" y="137" width="14" height="2" fill="#00B99B"/>
<rect x="580" y="143" width="5" height="3" fill="#00B99B"/>
<rect x="552" y="137" width="2" height="5" fill="#00B99B"/>
<rect x="562" y="137" width="3" height="5" fill="#00B99B"/>
<rect x="564" y="142" width="3" height="5" fill="#00B99B"/>
<rect x="566" y="144" width="2" height="6" fill="#00B99B"/>
<rect x="568" y="150" width="2" height="5" fill="#00B99B"/>
<rect x="565" y="140" width="3" height="5" fill="#00B99B"/>
<rect x="578" y="139" width="2" height="5" fill="#00B99B"/>
<rect x="583" y="145" width="2" height="6" fill="#00B99B"/>
<rect x="584" y="147" width="4" height="18" fill="#00B99B"/>
<rect x="587" y="148" width="7" height="3" fill="#00B99B"/>
<rect x="599" y="152" width="6" height="2" fill="#00B99B"/>
<rect x="605" y="153" width="7" height="3" fill="#00B99B"/>
<rect x="611" y="156" width="2" height="12" fill="#00B99B"/>
<rect x="609" y="168" width="6" height="9" fill="#00B99B"/>
<rect x="585" y="163" width="2" height="13" fill="#00B99B"/>
<rect x="595" y="162" width="2" height="11" fill="#00B99B"/>
<rect x="593" y="148" width="6" height="21" fill="#00B99B"/>
<rect x="564" y="137" width="2" height="6" fill="#00B99B"/>
<rect x="553" y="106" width="52" height="32" fill="#00B99B"/>
<rect x="597" y="114" width="17" height="40" fill="#00B99B"/>
<rect x="583" y="137" width="18" height="12" fill="#00B99B"/>
<rect x="611" y="122" width="11" height="54" fill="#00B99B"/>
<rect x="578" y="132" width="8" height="12" fill="#00B99B"/>
<rect x="511" y="152" width="8" height="30" fill="#00B99B"/>
<rect x="513" y="148" width="10" height="20" fill="#00B99B"/>
<rect x="507" y="132" width="20" height="24" fill="#00B99B"/>
<rect x="515" y="120" width="23" height="30" fill="#00B99B"/>
<rect x="533" y="109" width="21" height="33" fill="#00B99B"/>
<rect x="526" y="138" width="21" height="8" fill="#00B99B"/>
<rect x="521" y="114" width="21" height="11" fill="#00B99B"/>
<rect x="509" y="126" width="21" height="13" fill="#00B99B"/>
<rect x="507" y="148" width="7" height="31" fill="#00B99B"/>
</svg>
