<svg width="455" height="271" viewBox="0 0 455 271" fill="none" xmlns="http://www.w3.org/2000/svg">
<path d="M43.0976 48.3659V63H40.1707V48.3659H43.0976ZM48.9564 54.2195V54.8049H48.371V63H45.4442V51.878H48.371V52.4634H48.9564V51.878H52.4686V52.4634H53.6393V53.0488H54.2247V54.2195H54.81V63H51.8832V54.8049H51.2978V54.2195H48.9564ZM60.0892 60.0732V60.6585H61.8453V63H58.9184V62.4146H57.7477V61.8293H57.1623V60.6585H56.577V54.8049H55.4062V52.4634H56.577V51.2927H57.1623V50.7073H57.7477V50.122H58.3331V49.5366H58.9184V48.9512H59.5038V52.4634H61.8453V54.8049H59.5038V60.0732H60.0892ZM66.5351 60.0732V60.6585H68.8765V60.0732H69.4619V59.4878H72.3887V60.6585H71.8034V61.8293H71.218V62.4146H70.0473V63H65.3643V62.4146H64.1936V61.8293H63.6082V60.6585H63.0229V54.2195H63.6082V53.0488H64.1936V52.4634H65.3643V51.878H70.0473V52.4634H71.218V53.0488H71.8034V54.2195H72.3887V58.3171H65.9497V60.0732H66.5351ZM65.9497 54.8049V56.561H69.4619V54.8049H68.8765V54.2195H66.5351V54.8049H65.9497ZM77.6673 54.2195V54.8049H77.0819V63H74.1551V51.878H77.0819V52.4634H77.6673V51.878H81.1795V52.4634H81.7649V53.0488H82.3502V53.6341H81.7649V54.2195H81.1795V54.8049H80.5941V55.3902H80.0088V54.8049H79.4234V54.2195H77.6673ZM87.0423 54.2195V54.8049H86.4569V63H83.5301V51.878H86.4569V52.4634H87.0423V51.878H90.5545V52.4634H91.7252V53.0488H92.3106V54.2195H92.896V63H89.9691V54.8049H89.3838V54.2195H87.0423ZM97.5897 60.0732V60.6585H99.9312V60.0732H100.517V59.4878H103.443V60.6585H102.858V61.8293H102.273V62.4146H101.102V63H96.419V62.4146H95.2483V61.8293H94.6629V60.6585H94.0776V54.2195H94.6629V53.0488H95.2483V52.4634H96.419V51.878H101.102V52.4634H102.273V53.0488H102.858V54.2195H103.443V58.3171H97.0044V60.0732H97.5897ZM97.0044 54.8049V56.561H100.517V54.8049H99.9312V54.2195H97.5897V54.8049H97.0044ZM108.722 60.0732V60.6585H110.478V63H107.551V62.4146H106.381V61.8293H105.795V60.6585H105.21V54.8049H104.039V52.4634H105.21V51.2927H105.795V50.7073H106.381V50.122H106.966V49.5366H107.551V48.9512H108.137V52.4634H110.478V54.8049H108.137V60.0732H108.722ZM121.027 60.0732V60.6585H123.369V60.0732H123.954V59.4878H126.881V60.6585H126.296V61.8293H125.71V62.4146H124.539V63H119.857V62.4146H118.686V61.8293H118.1V60.6585H117.515V54.2195H118.1V53.0488H118.686V52.4634H119.857V51.878H124.539V52.4634H125.71V53.0488H126.296V54.2195H126.881V58.3171H120.442V60.0732H121.027ZM120.442 54.8049V56.561H123.954V54.8049H123.369V54.2195H121.027V54.8049H120.442ZM130.989 59.4878V60.0732H131.574V60.6585H133.916V60.0732H134.501V58.9024H133.916V58.3171H130.403V57.7317H129.233V57.1463H128.647V55.9756H128.062V54.2195H128.647V53.0488H129.233V52.4634H130.403V51.878H135.086V52.4634H136.257V53.0488H136.842V54.8049H133.916V54.2195H131.574V54.8049H130.989V55.3902H131.574V55.9756H135.086V56.561H136.257V57.1463H136.842V58.3171H137.428V60.6585H136.842V61.8293H136.257V62.4146H135.086V63H130.403V62.4146H129.233V61.8293H128.647V60.6585H128.062V59.4878H130.989ZM142.706 60.0732V60.6585H144.462V63H141.536V62.4146H140.365V61.8293H139.78V60.6585H139.194V54.8049H138.023V52.4634H139.194V51.2927H139.78V50.7073H140.365V50.122H140.95V49.5366H141.536V48.9512H142.121V52.4634H144.462V54.8049H142.121V60.0732H142.706ZM152.085 61.8293V60.6585H151.499V51.878H154.426V60.0732H155.012V60.6585H157.353V60.0732H157.938V51.878H160.865V63H157.938V62.4146H157.353V63H153.841V62.4146H152.67V61.8293H152.085ZM166.73 54.2195V54.8049H166.144V63H163.218V51.878H166.144V52.4634H166.73V51.878H170.242V52.4634H171.413V53.0488H171.998V54.2195H172.583V63H169.657V54.8049H169.071V54.2195H166.73ZM183.722 54.2195V54.8049H183.137V63H180.21V51.878H183.137V52.4634H183.722V51.878H186.649V52.4634H187.234V53.0488H187.82V52.4634H188.405V51.878H191.332V52.4634H192.502V53.0488H193.088V54.2195H193.673V63H190.746V54.8049H190.161V54.2195H188.99V54.8049H188.405V63H185.478V54.8049H184.893V54.2195H183.722ZM198.348 58.3171V58.9024H197.762V60.0732H198.348V60.6585H200.689V60.0732H201.274V58.3171H198.348ZM195.421 61.8293V60.6585H194.835V58.9024H195.421V57.7317H196.006V57.1463H197.177V56.561H201.274V54.8049H200.689V54.2195H198.348V54.8049H197.762V55.3902H194.835V54.2195H195.421V53.0488H196.006V52.4634H197.177V51.878H201.86V52.4634H203.03V53.0488H203.616V54.2195H204.201V63H201.274V62.4146H200.689V63H196.591V62.4146H196.006V61.8293H195.421ZM209.48 58.9024V59.4878H211.822V58.9024H212.407V54.2195H209.48V54.8049H208.895V58.9024H209.48ZM208.895 63V63.5854H209.48V64.1707H211.822V63.5854H212.407V61.2439H211.822V61.8293H208.31V61.2439H207.139V60.6585H206.554V59.4878H205.968V54.2195H206.554V53.0488H207.139V52.4634H208.31V51.878H215.334V64.1707H214.749V65.3415H214.163V65.9268H212.993V66.5122H208.31V65.9268H207.139V65.3415H206.554V64.1707H205.968V63H208.895ZM221.199 54.2195V54.8049H220.613V63H217.686V51.878H220.613V52.4634H221.199V51.878H224.711V52.4634H225.881V53.0488H226.467V54.2195H227.052V63H224.125V54.8049H223.54V54.2195H221.199ZM231.746 48.3659V50.7073H228.819V48.3659H231.746ZM231.746 52.4634V63H228.819V52.4634H231.746ZM235.263 52.4634V50.7073H235.849V49.5366H236.434V48.9512H237.605V48.3659H240.532V50.7073H238.776V51.2927H238.19V52.4634H240.532V54.8049H238.19V63H235.263V54.8049H234.093V52.4634H235.263ZM245.223 48.3659V50.7073H242.296V48.3659H245.223ZM245.223 52.4634V63H242.296V52.4634H245.223ZM250.496 60.0732V60.6585H252.837V60.0732H253.423V54.2195H250.496V54.8049H249.911V60.0732H250.496ZM247.569 54.2195V53.0488H248.155V52.4634H249.325V51.878H256.35V66.5122H253.423V62.4146H252.837V63H249.325V62.4146H248.155V61.8293H247.569V60.6585H246.984V54.2195H247.569ZM258.702 61.8293V60.6585H258.117V51.878H261.043V60.0732H261.629V60.6585H263.97V60.0732H264.556V51.878H267.482V63H264.556V62.4146H263.97V63H260.458V62.4146H259.287V61.8293H258.702ZM272.762 60.0732V60.6585H275.103V60.0732H275.688V59.4878H278.615V60.6585H278.03V61.8293H277.445V62.4146H276.274V63H271.591V62.4146H270.42V61.8293H269.835V60.6585H269.249V54.2195H269.835V53.0488H270.42V52.4634H271.591V51.878H276.274V52.4634H277.445V53.0488H278.03V54.2195H278.615V58.3171H272.176V60.0732H272.762ZM272.176 54.8049V56.561H275.688V54.8049H275.103V54.2195H272.762V54.8049H272.176ZM289.753 60.0732V60.6585H291.509V63H288.583V62.4146H287.412V61.8293H286.826V60.6585H286.241V54.8049H285.07V52.4634H286.241V51.2927H286.826V50.7073H287.412V50.122H287.997V49.5366H288.583V48.9512H289.168V52.4634H291.509V54.8049H289.168V60.0732H289.753ZM296.199 60.0732V60.6585H298.541V60.0732H299.126V59.4878H302.053V60.6585H301.467V61.8293H300.882V62.4146H299.711V63H295.028V62.4146H293.858V61.8293H293.272V60.6585H292.687V54.2195H293.272V53.0488H293.858V52.4634H295.028V51.878H299.711V52.4634H300.882V53.0488H301.467V54.2195H302.053V58.3171H295.614V60.0732H296.199ZM295.614 54.8049V56.561H299.126V54.8049H298.541V54.2195H296.199V54.8049H295.614ZM307.331 54.2195V54.8049H306.746V63H303.819V51.878H306.746V52.4634H307.331V51.878H310.844V52.4634H311.429V53.0488H312.014V53.6341H311.429V54.2195H310.844V54.8049H310.258V55.3902H309.673V54.8049H309.087V54.2195H307.331ZM316.706 54.2195V54.8049H316.121V63H313.194V51.878H316.121V52.4634H316.706V51.878H320.219V52.4634H320.804V53.0488H321.389V53.6341H320.804V54.2195H320.219V54.8049H319.633V55.3902H319.048V54.8049H318.462V54.2195H316.706ZM325.496 58.3171V58.9024H324.911V60.0732H325.496V60.6585H327.837V60.0732H328.423V58.3171H325.496ZM322.569 61.8293V60.6585H321.984V58.9024H322.569V57.7317H323.155V57.1463H324.325V56.561H328.423V54.8049H327.837V54.2195H325.496V54.8049H324.911V55.3902H321.984V54.2195H322.569V53.0488H323.155V52.4634H324.325V51.878H329.008V52.4634H330.179V53.0488H330.764V54.2195H331.35V63H328.423V62.4146H327.837V63H323.74V62.4146H323.155V61.8293H322.569ZM336.629 48.3659V50.7073H333.702V48.3659H336.629ZM336.629 52.4634V63H333.702V52.4634H336.629ZM342.488 54.2195V54.8049H341.902V63H338.975V51.878H341.902V52.4634H342.488V51.878H346V52.4634H347.171V53.0488H347.756V54.2195H348.341V63H345.414V54.8049H344.829V54.2195H342.488ZM358.894 60.0732V60.6585H361.236V60.0732H361.821V54.2195H358.894V54.8049H358.309V60.0732H358.894ZM355.968 54.2195V53.0488H356.553V52.4634H357.724V51.878H361.821V48.3659H364.748V63H361.821V62.4146H361.236V63H357.724V62.4146H356.553V61.8293H355.968V60.6585H355.382V54.2195H355.968ZM370.027 60.0732V60.6585H372.369V60.0732H372.954V59.4878H375.881V60.6585H375.296V61.8293H374.71V62.4146H373.539V63H368.857V62.4146H367.686V61.8293H367.1V60.6585H366.515V54.2195H367.1V53.0488H367.686V52.4634H368.857V51.878H373.539V52.4634H374.71V53.0488H375.296V54.2195H375.881V58.3171H369.442V60.0732H370.027ZM369.442 54.8049V56.561H372.954V54.8049H372.369V54.2195H370.027V54.8049H369.442ZM387.019 48.3659V50.7073H384.092V48.3659H387.019ZM386.433 64.1707V65.3415H385.848V65.9268H384.677V66.5122H382.336V64.1707H383.507V63.5854H384.092V52.4634H387.019V64.1707H386.433ZM392.293 60.0732V60.6585H394.634V60.0732H395.22V59.4878H398.147V60.6585H397.561V61.8293H396.976V62.4146H395.805V63H391.122V62.4146H389.951V61.8293H389.366V60.6585H388.781V54.2195H389.366V53.0488H389.951V52.4634H391.122V51.878H395.805V52.4634H396.976V53.0488H397.561V54.2195H398.147V58.3171H391.708V60.0732H392.293ZM391.708 54.8049V56.561H395.22V54.8049H394.634V54.2195H392.293V54.8049H391.708ZM399.913 61.8293V60.6585H399.328V51.878H402.254V60.0732H402.84V60.6585H405.181V60.0732H405.767V51.878H408.693V63H405.767V62.4146H405.181V63H401.669V62.4146H400.498V61.8293H399.913ZM413.973 60.0732V63H411.046V60.0732H413.973ZM46.6098 80.561V77.0488H46.0244V76.4634H45.439V75.878H44.2683V76.4634H43.6829V77.0488H43.0976V80.561H46.6098ZM40.7561 75.878V75.2927H41.3415V74.7073H41.9268V74.122H42.5122V73.5366H43.0976V72.9512H43.6829V72.3659H46.0244V72.9512H46.6098V73.5366H47.1951V74.122H47.7805V74.7073H48.3659V75.2927H48.9512V75.878H49.5366V87H46.6098V83.4878H43.0976V87H40.1707V75.878H40.7561ZM54.8163 84.0732V84.6585H57.1578V84.0732H57.7431V82.9024H60.67V84.6585H60.0846V85.8293H59.4992V86.4146H58.3285V87H53.6456V86.4146H52.4748V85.8293H51.8895V84.6585H51.3041V78.2195H51.8895V77.0488H52.4748V76.4634H53.6456V75.878H58.3285V76.4634H59.4992V77.0488H60.0846V78.2195H60.67V79.9756H57.7431V78.8049H57.1578V78.2195H54.8163V78.8049H54.2309V84.0732H54.8163ZM65.3632 84.0732V84.6585H67.7046V84.0732H68.29V82.9024H71.2168V84.6585H70.6315V85.8293H70.0461V86.4146H68.8754V87H64.1925V86.4146H63.0217V85.8293H62.4364V84.6585H61.851V78.2195H62.4364V77.0488H63.0217V76.4634H64.1925V75.878H68.8754V76.4634H70.0461V77.0488H70.6315V78.2195H71.2168V79.9756H68.29V78.8049H67.7046V78.2195H65.3632V78.8049H64.7778V84.0732H65.3632ZM79.4223 86.4146V87H74.7393V86.4146H73.5686V85.8293H72.9832V84.6585H72.3979V78.2195H72.9832V77.0488H73.5686V76.4634H74.7393V75.878H79.4223V76.4634H80.593V77.0488H81.1784V78.2195H81.7637V84.6585H81.1784V85.8293H80.593V86.4146H79.4223ZM75.9101 84.0732V84.6585H78.2515V84.0732H78.8369V78.8049H78.2515V78.2195H75.9101V78.8049H75.3247V84.0732H75.9101ZM87.0423 78.2195V78.8049H86.4569V87H83.5301V75.878H86.4569V76.4634H87.0423V75.878H89.9691V76.4634H90.5545V77.0488H91.1399V76.4634H91.7252V75.878H94.6521V76.4634H95.8228V77.0488H96.4082V78.2195H96.9935V87H94.0667V78.8049H93.4813V78.2195H92.3106V78.8049H91.7252V87H88.7984V78.8049H88.213V78.2195H87.0423ZM98.741 75.878H101.668V76.4634H102.253V75.878H105.765V76.4634H106.936V77.0488H107.522V78.2195H108.107V84.6585H107.522V85.8293H106.936V86.4146H105.765V87H101.668V90.5122H98.741V75.878ZM104.595 84.0732H105.18V78.8049H104.595V78.2195H102.253V78.8049H101.668V84.6585H104.595V84.0732ZM112.801 82.3171V82.9024H112.215V84.0732H112.801V84.6585H115.142V84.0732H115.728V82.3171H112.801ZM109.874 85.8293V84.6585H109.288V82.9024H109.874V81.7317H110.459V81.1463H111.63V80.561H115.728V78.8049H115.142V78.2195H112.801V78.8049H112.215V79.3902H109.288V78.2195H109.874V77.0488H110.459V76.4634H111.63V75.878H116.313V76.4634H117.484V77.0488H118.069V78.2195H118.654V87H115.728V86.4146H115.142V87H111.045V86.4146H110.459V85.8293H109.874ZM123.933 82.9024V83.4878H126.275V82.9024H126.86V78.2195H123.933V78.8049H123.348V82.9024H123.933ZM123.348 87V87.5854H123.933V88.1707H126.275V87.5854H126.86V85.2439H126.275V85.8293H122.763V85.2439H121.592V84.6585H121.007V83.4878H120.421V78.2195H121.007V77.0488H121.592V76.4634H122.763V75.878H129.787V88.1707H129.202V89.3415H128.616V89.9268H127.446V90.5122H122.763V89.9268H121.592V89.3415H121.007V88.1707H120.421V87H123.348ZM135.652 78.2195V78.8049H135.066V87H132.139V75.878H135.066V76.4634H135.652V75.878H139.164V76.4634H140.335V77.0488H140.92V78.2195H141.505V87H138.579V78.8049H137.993V78.2195H135.652ZM146.199 72.9512V72.3659H146.784V71.7805H147.37V71.1951H149.126V72.9512H148.541V73.5366H147.955V74.122H147.37V74.7073H145.614V72.9512H146.199ZM146.199 84.0732V84.6585H148.541V84.0732H149.126V83.4878H152.053V84.6585H151.467V85.8293H150.882V86.4146H149.711V87H145.028V86.4146H143.858V85.8293H143.272V84.6585H142.687V78.2195H143.272V77.0488H143.858V76.4634H145.028V75.878H149.711V76.4634H150.882V77.0488H151.467V78.2195H152.053V82.3171H145.614V84.0732H146.199ZM145.614 78.8049V80.561H149.126V78.8049H148.541V78.2195H146.199V78.8049H145.614ZM162.605 84.0732V84.6585H164.947V84.0732H165.532V78.2195H162.605V78.8049H162.02V84.0732H162.605ZM159.679 78.2195V77.0488H160.264V76.4634H161.435V75.878H165.532V72.3659H168.459V87H165.532V86.4146H164.947V87H161.435V86.4146H160.264V85.8293H159.679V84.6585H159.093V78.2195H159.679ZM173.738 84.0732V84.6585H176.08V84.0732H176.665V83.4878H179.592V84.6585H179.006V85.8293H178.421V86.4146H177.25V87H172.567V86.4146H171.397V85.8293H170.811V84.6585H170.226V78.2195H170.811V77.0488H171.397V76.4634H172.567V75.878H177.25V76.4634H178.421V77.0488H179.006V78.2195H179.592V82.3171H173.153V84.0732H173.738ZM173.153 78.8049V80.561H176.665V78.8049H176.08V78.2195H173.738V78.8049H173.153ZM183.7 83.4878V84.0732H184.285V84.6585H186.627V84.0732H187.212V82.9024H186.627V82.3171H183.114V81.7317H181.944V81.1463H181.358V79.9756H180.773V78.2195H181.358V77.0488H181.944V76.4634H183.114V75.878H187.797V76.4634H188.968V77.0488H189.553V78.8049H186.627V78.2195H184.285V78.8049H183.7V79.3902H184.285V79.9756H187.797V80.561H188.968V81.1463H189.553V82.3171H190.139V84.6585H189.553V85.8293H188.968V86.4146H187.797V87H183.114V86.4146H181.944V85.8293H181.358V84.6585H180.773V83.4878H183.7ZM206.545 78.2195H207.13V84.6585H206.545V85.8293H205.96V86.4146H204.789V87H197.764V72.3659H200.691V76.4634H201.277V75.878H204.789V76.4634H205.96V77.0488H206.545V78.2195ZM203.618 84.0732H204.204V78.8049H203.618V78.2195H201.277V78.8049H200.691V84.6585H203.618V84.0732ZM215.336 86.4146V87H210.653V86.4146H209.483V85.8293H208.897V84.6585H208.312V78.2195H208.897V77.0488H209.483V76.4634H210.653V75.878H215.336V76.4634H216.507V77.0488H217.092V78.2195H217.678V84.6585H217.092V85.8293H216.507V86.4146H215.336ZM211.824 84.0732V84.6585H214.166V84.0732H214.751V78.8049H214.166V78.2195H211.824V78.8049H211.239V84.0732H211.824ZM222.956 78.2195V78.8049H222.371V87H219.444V75.878H222.371V76.4634H222.956V75.878H226.469V76.4634H227.639V77.0488H228.225V78.2195H228.81V87H225.883V78.8049H225.298V78.2195H222.956ZM232.918 83.4878V84.0732H233.504V84.6585H235.845V84.0732H236.431V82.9024H235.845V82.3171H232.333V81.7317H231.162V81.1463H230.577V79.9756H229.992V78.2195H230.577V77.0488H231.162V76.4634H232.333V75.878H237.016V76.4634H238.187V77.0488H238.772V78.8049H235.845V78.2195H233.504V78.8049H232.918V79.3902H233.504V79.9756H237.016V80.561H238.187V81.1463H238.772V82.3171H239.357V84.6585H238.772V85.8293H238.187V86.4146H237.016V87H232.333V86.4146H231.162V85.8293H230.577V84.6585H229.992V83.4878H232.918ZM249.91 82.3171V82.9024H249.325V84.0732H249.91V84.6585H252.252V84.0732H252.837V82.3171H249.91ZM246.983 85.8293V84.6585H246.398V82.9024H246.983V81.7317H247.569V81.1463H248.739V80.561H252.837V78.8049H252.252V78.2195H249.91V78.8049H249.325V79.3902H246.398V78.2195H246.983V77.0488H247.569V76.4634H248.739V75.878H253.422V76.4634H254.593V77.0488H255.178V78.2195H255.764V87H252.837V86.4146H252.252V87H248.154V86.4146H247.569V85.8293H246.983ZM261.043 84.0732V84.6585H263.384V84.0732H263.97V82.9024H266.897V84.6585H266.311V85.8293H265.726V86.4146H264.555V87H259.872V86.4146H258.701V85.8293H258.116V84.6585H257.531V78.2195H258.116V77.0488H258.701V76.4634H259.872V75.878H264.555V76.4634H265.726V77.0488H266.311V78.2195H266.897V79.9756H263.97V78.8049H263.384V78.2195H261.043V78.8049H260.458V84.0732H261.043ZM275.102 86.4146V87H270.419V86.4146H269.248V85.8293H268.663V84.6585H268.078V78.2195H268.663V77.0488H269.248V76.4634H270.419V75.878H275.102V76.4634H276.273V77.0488H276.858V78.2195H277.443V84.6585H276.858V85.8293H276.273V86.4146H275.102ZM271.59 84.0732V84.6585H273.931V84.0732H274.517V78.8049H273.931V78.2195H271.59V78.8049H271.004V84.0732H271.59ZM282.137 72.3659V87H279.21V72.3659H282.137ZM285.654 88.1707V87.5854H286.239V87H286.825V86.4146H287.41V85.8293H286.825V85.2439H286.239V84.6585H285.654V84.0732H285.069V83.4878H284.483V75.878H287.41V82.9024H287.995V83.4878H288.581V84.0732H289.752V83.4878H290.337V82.9024H290.922V75.878H293.849V83.4878H293.264V84.0732H292.678V84.6585H292.093V85.2439H291.508V85.8293H290.922V86.4146H290.337V87H289.752V87.5854H289.166V88.1707H288.581V88.7561H287.995V89.3415H287.41V89.9268H286.825V90.5122H285.069V88.1707H285.654ZM299.714 84.0732V84.6585H301.47V87H298.543V86.4146H297.373V85.8293H296.787V84.6585H296.202V78.8049H295.031V76.4634H296.202V75.2927H296.787V74.7073H297.373V74.122H297.958V73.5366H298.543V72.9512H299.129V76.4634H301.47V78.8049H299.129V84.0732H299.714ZM306.16 84.0732V84.6585H308.502V84.0732H309.087V83.4878H312.014V84.6585H311.428V85.8293H310.843V86.4146H309.672V87H304.989V86.4146H303.819V85.8293H303.233V84.6585H302.648V78.2195H303.233V77.0488H303.819V76.4634H304.989V75.878H309.672V76.4634H310.843V77.0488H311.428V78.2195H312.014V82.3171H305.575V84.0732H306.16ZM305.575 78.8049V80.561H309.087V78.8049H308.502V78.2195H306.16V78.8049H305.575ZM316.122 83.4878V84.0732H316.707V84.6585H319.048V84.0732H319.634V82.9024H319.048V82.3171H315.536V81.7317H314.365V81.1463H313.78V79.9756H313.195V78.2195H313.78V77.0488H314.365V76.4634H315.536V75.878H320.219V76.4634H321.39V77.0488H321.975V78.8049H319.048V78.2195H316.707V78.8049H316.122V79.3902H316.707V79.9756H320.219V80.561H321.39V81.1463H321.975V82.3171H322.561V84.6585H321.975V85.8293H321.39V86.4146H320.219V87H315.536V86.4146H314.365V85.8293H313.78V84.6585H313.195V83.4878H316.122ZM327.254 84.0732V87.5854H326.668V88.1707H326.083V88.7561H325.498V89.3415H324.327V88.7561H324.912V88.1707H325.498V87H324.327V84.0732H327.254ZM338.387 72.3659V87H335.46V72.3659H338.387ZM343.66 84.0732V84.6585H346.002V84.0732H346.587V83.4878H349.514V84.6585H348.928V85.8293H348.343V86.4146H347.172V87H342.489V86.4146H341.319V85.8293H340.733V84.6585H340.148V78.2195H340.733V77.0488H341.319V76.4634H342.489V75.878H347.172V76.4634H348.343V77.0488H348.928V78.2195H349.514V82.3171H343.075V84.0732H343.66ZM343.075 78.8049V80.561H346.587V78.8049H346.002V78.2195H343.66V78.8049H343.075ZM353.622 83.4878V84.0732H354.207V84.6585H356.548V84.0732H357.134V82.9024H356.548V82.3171H353.036V81.7317H351.865V81.1463H351.28V79.9756H350.695V78.2195H351.28V77.0488H351.865V76.4634H353.036V75.878H357.719V76.4634H358.89V77.0488H359.475V78.8049H356.548V78.2195H354.207V78.8049H353.622V79.3902H354.207V79.9756H357.719V80.561H358.89V81.1463H359.475V82.3171H360.061V84.6585H359.475V85.8293H358.89V86.4146H357.719V87H353.036V86.4146H351.865V85.8293H351.28V84.6585H350.695V83.4878H353.622ZM40.1707 99.878H43.0976V100.463H43.6829V99.878H47.1951V100.463H48.3659V101.049H48.9512V102.22H49.5366V108.659H48.9512V109.829H48.3659V110.415H47.1951V111H43.0976V114.512H40.1707V99.878ZM46.0244 108.073H46.6098V102.805H46.0244V102.22H43.6829V102.805H43.0976V108.659H46.0244V108.073ZM57.7426 110.415V111H53.0596V110.415H51.8889V109.829H51.3035V108.659H50.7182V102.22H51.3035V101.049H51.8889V100.463H53.0596V99.878H57.7426V100.463H58.9133V101.049H59.4987V102.22H60.084V108.659H59.4987V109.829H58.9133V110.415H57.7426ZM54.2304 108.073V108.659H56.5718V108.073H57.1572V102.805H56.5718V102.22H54.2304V102.805H53.645V108.073H54.2304ZM64.1919 107.488V108.073H64.7772V108.659H67.1187V108.073H67.7041V106.902H67.1187V106.317H63.6065V105.732H62.4358V105.146H61.8504V103.976H61.2651V102.22H61.8504V101.049H62.4358V100.463H63.6065V99.878H68.2894V100.463H69.4602V101.049H70.0455V102.805H67.1187V102.22H64.7772V102.805H64.1919V103.39H64.7772V103.976H68.2894V104.561H69.4602V105.146H70.0455V106.317H70.6309V108.659H70.0455V109.829H69.4602V110.415H68.2894V111H63.6065V110.415H62.4358V109.829H61.8504V108.659H61.2651V107.488H64.1919ZM74.7388 107.488V108.073H75.3241V108.659H77.6656V108.073H78.251V106.902H77.6656V106.317H74.1534V105.732H72.9827V105.146H72.3973V103.976H71.8119V102.22H72.3973V101.049H72.9827V100.463H74.1534V99.878H78.8363V100.463H80.007V101.049H80.5924V102.805H77.6656V102.22H75.3241V102.805H74.7388V103.39H75.3241V103.976H78.8363V104.561H80.007V105.146H80.5924V106.317H81.1778V108.659H80.5924V109.829H80.007V110.415H78.8363V111H74.1534V110.415H72.9827V109.829H72.3973V108.659H71.8119V107.488H74.7388ZM85.871 96.3659V98.7073H82.9442V96.3659H85.871ZM85.871 100.463V111H82.9442V100.463H85.871ZM96.9981 102.22H97.5835V108.659H96.9981V109.829H96.4127V110.415H95.242V111H88.2176V96.3659H91.1444V100.463H91.7298V99.878H95.242V100.463H96.4127V101.049H96.9981V102.22ZM94.0713 108.073H94.6566V102.805H94.0713V102.22H91.7298V102.805H91.1444V108.659H94.0713V108.073ZM102.277 96.3659V98.7073H99.3504V96.3659H102.277ZM102.277 100.463V111H99.3504V100.463H102.277ZM107.551 96.3659V111H104.624V96.3659H107.551ZM112.824 96.3659V98.7073H109.897V96.3659H112.824ZM112.824 100.463V111H109.897V100.463H112.824ZM118.683 108.073V108.659H120.439V111H117.512V110.415H116.341V109.829H115.756V108.659H115.171V102.805H114V100.463H115.171V99.2927H115.756V98.7073H116.341V98.122H116.927V97.5366H117.512V96.9512H118.098V100.463H120.439V102.805H118.098V108.073H118.683ZM125.129 96.9512V96.3659H125.714V95.7805H126.3V95.1951H128.056V96.9512H127.47V97.5366H126.885V98.122H126.3V98.7073H124.543V96.9512H125.129ZM125.129 108.073V108.659H127.47V108.073H128.056V107.488H130.982V108.659H130.397V109.829H129.812V110.415H128.641V111H123.958V110.415H122.787V109.829H122.202V108.659H121.617V102.22H122.202V101.049H122.787V100.463H123.958V99.878H128.641V100.463H129.812V101.049H130.397V102.22H130.982V106.317H124.543V108.073H125.129ZM124.543 102.805V104.561H128.056V102.805H127.47V102.22H125.129V102.805H124.543ZM135.09 107.488V108.073H135.676V108.659H138.017V108.073H138.603V106.902H138.017V106.317H134.505V105.732H133.334V105.146H132.749V103.976H132.163V102.22H132.749V101.049H133.334V100.463H134.505V99.878H139.188V100.463H140.359V101.049H140.944V102.805H138.017V102.22H135.676V102.805H135.09V103.39H135.676V103.976H139.188V104.561H140.359V105.146H140.944V106.317H141.529V108.659H140.944V109.829H140.359V110.415H139.188V111H134.505V110.415H133.334V109.829H132.749V108.659H132.163V107.488H135.09ZM152.457 108.073V108.659H154.798V108.073H155.384V102.22H152.457V102.805H151.872V108.073H152.457ZM149.53 102.22V101.049H150.115V100.463H151.286V99.878H155.384V96.3659H158.311V111H155.384V110.415H154.798V111H151.286V110.415H150.115V109.829H149.53V108.659H148.945V102.22H149.53ZM163.59 108.073V108.659H165.931V108.073H166.517V107.488H169.443V108.659H168.858V109.829H168.273V110.415H167.102V111H162.419V110.415H161.248V109.829H160.663V108.659H160.078V102.22H160.663V101.049H161.248V100.463H162.419V99.878H167.102V100.463H168.273V101.049H168.858V102.22H169.443V106.317H163.004V108.073H163.59ZM163.004 102.805V104.561H166.517V102.805H165.931V102.22H163.59V102.805H163.004ZM174.722 106.902V107.488H175.307V108.073H176.478V107.488H177.063V106.902H177.649V99.878H180.576V107.488H179.99V108.073H179.405V108.659H178.82V109.244H178.234V109.829H177.649V110.415H177.063V111H174.722V110.415H174.137V109.829H173.551V109.244H172.966V108.659H172.381V108.073H171.795V107.488H171.21V99.878H174.137V106.902H174.722ZM185.855 96.3659V98.7073H182.929V96.3659H185.855ZM185.855 100.463V111H182.929V100.463H185.855ZM191.129 108.073V108.659H193.47V108.073H194.056V107.488H196.982V108.659H196.397V109.829H195.812V110.415H194.641V111H189.958V110.415H188.787V109.829H188.202V108.659H187.617V102.22H188.202V101.049H188.787V100.463H189.958V99.878H194.641V100.463H195.812V101.049H196.397V102.22H196.982V106.317H190.543V108.073H191.129ZM190.543 102.805V104.561H194.056V102.805H193.47V102.22H191.129V102.805H190.543ZM202.261 102.22V102.805H201.676V111H198.749V99.878H201.676V100.463H202.261V99.878H205.773V100.463H206.944V101.049H207.529V102.22H208.115V111H205.188V102.805H204.603V102.22H202.261ZM213.394 102.22V102.805H212.808V111H209.882V99.878H212.808V100.463H213.394V99.878H216.906V100.463H218.077V101.049H218.662V102.22H219.248V111H216.321V102.805H215.735V102.22H213.394ZM223.941 108.073V108.659H226.283V108.073H226.868V107.488H229.795V108.659H229.21V109.829H228.624V110.415H227.454V111H222.771V110.415H221.6V109.829H221.014V108.659H220.429V102.22H221.014V101.049H221.6V100.463H222.771V99.878H227.454V100.463H228.624V101.049H229.21V102.22H229.795V106.317H223.356V108.073H223.941ZM223.356 102.805V104.561H226.868V102.805H226.283V102.22H223.941V102.805H223.356ZM235.074 102.22V102.805H234.488V111H231.561V99.878H234.488V100.463H235.074V99.878H238.586V100.463H239.756V101.049H240.342V102.22H240.927V111H238V102.805H237.415V102.22H235.074ZM246.206 108.073V108.659H247.962V111H245.036V110.415H243.865V109.829H243.28V108.659H242.694V102.805H241.523V100.463H242.694V99.2927H243.28V98.7073H243.865V98.122H244.45V97.5366H245.036V96.9512H245.621V100.463H247.962V102.805H245.621V108.073H246.206ZM258.512 96.9512V96.3659H259.097V95.7805H259.682V95.1951H261.438V96.9512H260.853V97.5366H260.268V98.122H259.682V98.7073H257.926V96.9512H258.512ZM258.512 108.073V108.659H260.853V108.073H261.438V107.488H264.365V108.659H263.78V109.829H263.195V110.415H262.024V111H257.341V110.415H256.17V109.829H255.585V108.659H254.999V102.22H255.585V101.049H256.17V100.463H257.341V99.878H262.024V100.463H263.195V101.049H263.78V102.22H264.365V106.317H257.926V108.073H258.512ZM257.926 102.805V104.561H261.438V102.805H260.853V102.22H258.512V102.805H257.926ZM269.644 102.22V102.805H269.058V111H266.132V99.878H269.058V100.463H269.644V99.878H273.156V100.463H274.327V101.049H274.912V102.22H275.498V111H272.571V102.805H271.985V102.22H269.644ZM283.704 110.415V111H279.021V110.415H277.85V109.829H277.264V108.659H276.679V102.22H277.264V101.049H277.85V100.463H279.021V99.878H283.704V100.463H284.874V101.049H285.46V102.22H286.045V108.659H285.46V109.829H284.874V110.415H283.704ZM280.191 108.073V108.659H282.533V108.073H283.118V102.805H282.533V102.22H280.191V102.805H279.606V108.073H280.191ZM291.324 102.22V102.805H290.738V111H287.811V99.878H290.738V100.463H291.324V99.878H294.836V100.463H295.421V101.049H296.006V101.634H295.421V102.22H294.836V102.805H294.25V103.39H293.665V102.805H293.08V102.22H291.324ZM300.699 102.22V102.805H300.113V111H297.186V99.878H300.113V100.463H300.699V99.878H303.625V100.463H304.211V101.049H304.796V100.463H305.381V99.878H308.308V100.463H309.479V101.049H310.064V102.22H310.65V111H307.723V102.805H307.138V102.22H305.967V102.805H305.381V111H302.455V102.805H301.869V102.22H300.699ZM315.324 108.073V108.659H317.666V108.073H318.251V107.488H321.178V108.659H320.592V109.829H320.007V110.415H318.836V111H314.153V110.415H312.983V109.829H312.397V108.659H311.812V102.22H312.397V101.049H312.983V100.463H314.153V99.878H318.836V100.463H320.007V101.049H320.592V102.22H321.178V106.317H314.739V108.073H315.324ZM314.739 102.805V104.561H318.251V102.805H317.666V102.22H315.324V102.805H314.739ZM325.286 107.488V108.073H325.871V108.659H328.212V108.073H328.798V106.902H328.212V106.317H324.7V105.732H323.53V105.146H322.944V103.976H322.359V102.22H322.944V101.049H323.53V100.463H324.7V99.878H329.383V100.463H330.554V101.049H331.139V102.805H328.212V102.22H325.871V102.805H325.286V103.39H325.871V103.976H329.383V104.561H330.554V105.146H331.139V106.317H331.725V108.659H331.139V109.829H330.554V110.415H329.383V111H324.7V110.415H323.53V109.829H322.944V108.659H322.359V107.488H325.286ZM342.277 96.3659V105.146H341.692V105.732H341.107V106.317H340.521V105.732H339.936V105.146H339.35V96.3659H342.277ZM342.277 108.073V111H339.35V108.073H342.277Z" fill="#00B99B"/>
<path d="M441 1H14C6.8203 1 1 6.8203 1 14V141.06C1 148.24 6.82029 154.06 14 154.06H226L266 188V154.06H441C448.18 154.06 454 148.24 454 141.06V14C454 6.8203 448.18 1 441 1Z" stroke="#00FBD3"/>
<rect x="285" y="266" width="23" height="2" fill="#00B99B"/>
<rect x="314" y="269" width="10" height="2" fill="#00B99B"/>
<rect x="308" y="267" width="6" height="2" fill="#00B99B"/>
<rect x="324" y="267" width="6" height="2" fill="#00B99B"/>
<rect x="330" y="266" width="22" height="2" fill="#00B99B"/>
<rect x="352" y="264" width="5" height="2" fill="#00B99B"/>
<rect x="357" y="258" width="12" height="2" fill="#00B99B"/>
<rect width="4" height="1" transform="matrix(-1 0 0 1 371 258)" fill="#00B99B"/>
<rect x="369" y="253" width="8" height="2" fill="#00B99B"/>
<rect x="376" y="251" width="8" height="2" fill="#00B99B"/>
<rect x="357" y="259" width="2" height="5" fill="#00B99B"/>
<rect x="369" y="254" width="2" height="5" fill="#00B99B"/>
<rect x="283" y="259" width="2" height="8" fill="#00B99B"/>
<rect x="278" y="259" width="2" height="5" fill="#00B99B"/>
<rect x="276" y="259" width="3" height="2" fill="#00B99B"/>
<rect x="273" y="258" width="4" height="2" fill="#00B99B"/>
<rect x="271" y="255" width="3" height="3" fill="#00B99B"/>
<rect x="268" y="255" width="4" height="2" fill="#00B99B"/>
<rect x="267" y="209" width="3" height="46" fill="#00B99B"/>
<rect x="278" y="259" width="6" height="2" fill="#00B99B"/>
<rect x="268" y="206" width="4" height="5" fill="#00B99B"/>
<rect x="271" y="203" width="3" height="3" fill="#00B99B"/>
<rect x="274" y="200" width="4" height="4" fill="#00B99B"/>
<rect x="277" y="197" width="3" height="3" fill="#00B99B"/>
<rect x="280" y="194" width="4" height="4" fill="#00B99B"/>
<rect x="283" y="191" width="3" height="3" fill="#00B99B"/>
<rect x="292" y="188" width="4" height="4" fill="#00B99B"/>
<rect x="307" y="183" width="9" height="5" fill="#00B99B"/>
<rect x="316" y="180" width="51" height="4" fill="#00B99B"/>
<rect x="366" y="183" width="6" height="9" fill="#00B99B"/>
<rect x="370" y="188" width="7" height="5" fill="#00B99B"/>
<rect x="375" y="191" width="5" height="10" fill="#00B99B"/>
<rect x="383" y="200" width="4" height="52" fill="#00B99B"/>
<rect x="379" y="198" width="5" height="3" fill="#00B99B"/>
<rect x="295" y="186" width="12" height="3" fill="#00B99B"/>
<rect x="286" y="191" width="6" height="3" fill="#00B99B"/>
<rect x="303" y="250" width="24" height="3" fill="#00B99B"/>
<rect x="300" y="247" width="5" height="3" fill="#00B99B"/>
<rect x="311" y="252" width="5" height="3" fill="#00B99B"/>
<rect x="325" y="247" width="5" height="3" fill="#00B99B"/>
<rect x="303" y="248" width="2" height="3" fill="#00B99B"/>
<rect x="325" y="248" width="2" height="3" fill="#00B99B"/>
<rect x="333" y="238" width="7" height="7" fill="#00B99B"/>
<rect x="289" y="238" width="7" height="7" fill="#00B99B"/>
<rect x="279" y="249" width="2" height="10" fill="#00B99B"/>
<rect x="280" y="242" width="3" height="7" fill="#00B99B"/>
<rect x="283" y="241" width="2" height="4" fill="#00B99B"/>
<rect x="284" y="236" width="2" height="5" fill="#00B99B"/>
<rect x="284" y="231" width="3" height="6" fill="#00B99B"/>
<rect x="287" y="229" width="2" height="4" fill="#00B99B"/>
<rect x="307" y="221" width="2" height="2" fill="#00B99B"/>
<rect x="298" y="225" width="2" height="2" fill="#00B99B"/>
<rect x="288" y="226" width="10" height="3" fill="#00B99B"/>
<rect x="299" y="222" width="8" height="3" fill="#00B99B"/>
<rect x="306" y="218" width="8" height="3" fill="#00B99B"/>
<rect x="316" y="213" width="8" height="2" fill="#00B99B"/>
<rect x="327" y="214" width="14" height="2" fill="#00B99B"/>
<rect x="342" y="220" width="5" height="3" fill="#00B99B"/>
<rect x="314" y="214" width="2" height="5" fill="#00B99B"/>
<rect x="324" y="214" width="3" height="5" fill="#00B99B"/>
<rect x="326" y="219" width="3" height="5" fill="#00B99B"/>
<rect x="328" y="221" width="2" height="6" fill="#00B99B"/>
<rect x="330" y="227" width="2" height="5" fill="#00B99B"/>
<rect x="327" y="217" width="3" height="5" fill="#00B99B"/>
<rect x="340" y="216" width="2" height="5" fill="#00B99B"/>
<rect x="345" y="222" width="2" height="6" fill="#00B99B"/>
<rect x="346" y="224" width="4" height="18" fill="#00B99B"/>
<rect x="349" y="225" width="7" height="3" fill="#00B99B"/>
<rect x="361" y="229" width="6" height="2" fill="#00B99B"/>
<rect x="367" y="230" width="7" height="3" fill="#00B99B"/>
<rect x="373" y="233" width="2" height="12" fill="#00B99B"/>
<rect x="371" y="245" width="6" height="9" fill="#00B99B"/>
<rect x="347" y="240" width="2" height="13" fill="#00B99B"/>
<rect x="357" y="239" width="2" height="11" fill="#00B99B"/>
<rect x="355" y="225" width="6" height="21" fill="#00B99B"/>
<rect x="326" y="214" width="2" height="6" fill="#00B99B"/>
<rect x="315" y="183" width="52" height="32" fill="#00B99B"/>
<rect x="359" y="191" width="17" height="40" fill="#00B99B"/>
<rect x="345" y="214" width="18" height="12" fill="#00B99B"/>
<rect x="373" y="199" width="11" height="54" fill="#00B99B"/>
<rect x="340" y="209" width="8" height="12" fill="#00B99B"/>
<rect x="273" y="229" width="8" height="30" fill="#00B99B"/>
<rect x="275" y="225" width="10" height="20" fill="#00B99B"/>
<rect x="269" y="209" width="20" height="24" fill="#00B99B"/>
<rect x="277" y="197" width="23" height="30" fill="#00B99B"/>
<rect x="295" y="186" width="21" height="33" fill="#00B99B"/>
<rect x="288" y="215" width="21" height="8" fill="#00B99B"/>
<rect x="283" y="191" width="21" height="11" fill="#00B99B"/>
<rect x="271" y="203" width="21" height="13" fill="#00B99B"/>
<rect x="269" y="225" width="7" height="31" fill="#00B99B"/>
</svg>
